<?xml version="1.0" standalone="no"?>
 <!DOCTYPE svg PUBLIC "-//W3C//DTD SVG 1.1//EN" 
 "http://www.w3.org/Graphics/SVG/1.1/DTD/svg11.dtd"> 
<svg
  xmlns:svg="http://www.w3.org/2000/svg"
  xmlns="http://www.w3.org/2000/svg"
  xmlns:xlink="http://www.w3.org/1999/xlink"
  version="1.1"
  width="144.6022mm" height="62.2300mm" viewBox="0.0000 0.0000 144.6022 62.2300">
<title>SVG Image created as Standalone PCB-B_Cu.svg date 2023/12/18 17:08:45 </title>
  <desc>Image generated by PCBNEW </desc>
<g style="fill:#000000; fill-opacity:1.0000;stroke:#000000; stroke-opacity:1.0000;
stroke-linecap:round; stroke-linejoin:round;"
 transform="translate(0 0) scale(1 1)">
</g>
<g style="fill:#000000; fill-opacity:0.0; 
stroke:#000000; stroke-width:0.0000; stroke-opacity:1; 
stroke-linecap:round; stroke-linejoin:round;">
<g >
</g>
<g style="fill:#4D7FC4; fill-opacity:0.0; 
stroke:#4D7FC4; stroke-width:0.0000; stroke-opacity:1; 
stroke-linecap:round; stroke-linejoin:round;">
</g>
<g style="fill:#4D7FC4; fill-opacity:1.0000; 
stroke:#4D7FC4; stroke-width:0.0000; stroke-opacity:1; 
stroke-linecap:round; stroke-linejoin:round;">
<circle cx="47.0400" cy="2.5900" r="1.0000" /> 
</g>
<g style="fill:#4D7FC4; fill-opacity:1.0000; 
stroke:#4D7FC4; stroke-width:0.0212; stroke-opacity:1; 
stroke-linecap:round; stroke-linejoin:round;">
</g>
<g style="fill:#4D7FC4; fill-opacity:1.0000; 
stroke:#4D7FC4; stroke-width:0.0000; stroke-opacity:1; 
stroke-linecap:round; stroke-linejoin:round;">
<circle cx="54.0400" cy="2.5900" r="1.0000" /> 
</g>
<g style="fill:#4D7FC4; fill-opacity:1.0000; 
stroke:#4D7FC4; stroke-width:0.0212; stroke-opacity:1; 
stroke-linecap:round; stroke-linejoin:round;">
</g>
<g style="fill:#4D7FC4; fill-opacity:1.0000; 
stroke:#4D7FC4; stroke-width:0.0000; stroke-opacity:1; 
stroke-linecap:round; stroke-linejoin:round;">
<circle cx="47.0400" cy="6.8900" r="1.0000" /> 
</g>
<g style="fill:#4D7FC4; fill-opacity:1.0000; 
stroke:#4D7FC4; stroke-width:0.0212; stroke-opacity:1; 
stroke-linecap:round; stroke-linejoin:round;">
</g>
<g style="fill:#4D7FC4; fill-opacity:1.0000; 
stroke:#4D7FC4; stroke-width:0.0000; stroke-opacity:1; 
stroke-linecap:round; stroke-linejoin:round;">
<circle cx="54.0400" cy="6.8900" r="1.0000" /> 
</g>
<g style="fill:#4D7FC4; fill-opacity:1.0000; 
stroke:#4D7FC4; stroke-width:0.0212; stroke-opacity:1; 
stroke-linecap:round; stroke-linejoin:round;">
</g>
<g >
</g>
<g style="fill:#4D7FC4; fill-opacity:1.0000; 
stroke:#4D7FC4; stroke-width:0.0212; stroke-opacity:1; 
stroke-linecap:round; stroke-linejoin:round;">
</g>
<g style="fill:#4D7FC4; fill-opacity:1.0000; 
stroke:#4D7FC4; stroke-width:0.0000; stroke-opacity:1; 
stroke-linecap:round; stroke-linejoin:round;">
<circle cx="88.7570" cy="13.4020" r="1.7500" /> 
</g>
<g style="fill:#4D7FC4; fill-opacity:1.0000; 
stroke:#4D7FC4; stroke-width:0.0212; stroke-opacity:1; 
stroke-linecap:round; stroke-linejoin:round;">
</g>
<g >
</g>
<g style="fill:#4D7FC4; fill-opacity:1.0000; 
stroke:#4D7FC4; stroke-width:0.0212; stroke-opacity:1; 
stroke-linecap:round; stroke-linejoin:round;">
</g>
<g style="fill:#4D7FC4; fill-opacity:1.0000; 
stroke:#4D7FC4; stroke-width:0.0000; stroke-opacity:1; 
stroke-linecap:round; stroke-linejoin:round;">
<path style="fill:#4D7FC4; fill-opacity:1.0000; 
stroke:#4D7FC4; stroke-width:0.0000; stroke-opacity:1; 
stroke-linecap:round; stroke-linejoin:round;fill-rule:evenodd;"
d="M 25.2306,47.9450
25.2306,49.9450
23.2306,49.9450
23.2306,47.9450
Z" /> 
<circle cx="17.9998" cy="48.9450" r="1.0000" /> 
</g>
<g style="fill:#4D7FC4; fill-opacity:1.0000; 
stroke:#4D7FC4; stroke-width:0.0212; stroke-opacity:1; 
stroke-linecap:round; stroke-linejoin:round;">
</g>
<g >
</g>
<g style="fill:#4D7FC4; fill-opacity:1.0000; 
stroke:#4D7FC4; stroke-width:0.0212; stroke-opacity:1; 
stroke-linecap:round; stroke-linejoin:round;">
</g>
<g style="fill:#4D7FC4; fill-opacity:1.0000; 
stroke:#4D7FC4; stroke-width:0.0000; stroke-opacity:1; 
stroke-linecap:round; stroke-linejoin:round;">
<circle cx="4.4950" cy="57.4400" r="2.2000" /> 
</g>
<g style="fill:#4D7FC4; fill-opacity:1.0000; 
stroke:#4D7FC4; stroke-width:0.0212; stroke-opacity:1; 
stroke-linecap:round; stroke-linejoin:round;">
</g>
<g >
</g>
<g style="fill:#4D7FC4; fill-opacity:1.0000; 
stroke:#4D7FC4; stroke-width:0.0212; stroke-opacity:1; 
stroke-linecap:round; stroke-linejoin:round;">
</g>
<g style="fill:#4D7FC4; fill-opacity:1.0000; 
stroke:#4D7FC4; stroke-width:0.0000; stroke-opacity:1; 
stroke-linecap:round; stroke-linejoin:round;">
<circle cx="2.6980" cy="35.8930" r="0.9500" /> 
<circle cx="2.6980" cy="44.1530" r="0.9500" /> 
<path style="fill:#4D7FC4; fill-opacity:1.0000; 
stroke:#4D7FC4; stroke-width:0.0000; stroke-opacity:1; 
stroke-linecap:round; stroke-linejoin:round;fill-rule:evenodd;"
d="M 1.8480,38.8730
1.8480,37.1730
3.5480,37.1730
3.5480,38.8730
Z" /> 
<circle cx="2.6980" cy="40.0230" r="0.8500" /> 
<circle cx="2.6980" cy="42.0230" r="0.8500" /> 
</g>
<g >
</g>
<g style="fill:#4D7FC4; fill-opacity:1.0000; 
stroke:#4D7FC4; stroke-width:0.0000; stroke-opacity:1; 
stroke-linecap:round; stroke-linejoin:round;">
<circle cx="57.7080" cy="56.2470" r="0.8500" /> 
</g>
<g style="fill:#4D7FC4; fill-opacity:1.0000; 
stroke:#4D7FC4; stroke-width:0.0212; stroke-opacity:1; 
stroke-linecap:round; stroke-linejoin:round;">
</g>
<g style="fill:#4D7FC4; fill-opacity:1.0000; 
stroke:#4D7FC4; stroke-width:0.0000; stroke-opacity:1; 
stroke-linecap:round; stroke-linejoin:round;">
<circle cx="57.7080" cy="53.7070" r="0.8500" /> 
<circle cx="57.7080" cy="51.1670" r="0.8500" /> 
<circle cx="57.7080" cy="48.6270" r="0.8500" /> 
<circle cx="57.7080" cy="46.0870" r="0.8500" /> 
<circle cx="57.7080" cy="43.5470" r="0.8500" /> 
<circle cx="57.7080" cy="41.0070" r="0.8500" /> 
<circle cx="57.7080" cy="38.4670" r="0.8500" /> 
</g>
<g >
</g>
<g style="fill:#4D7FC4; fill-opacity:1.0000; 
stroke:#4D7FC4; stroke-width:0.0000; stroke-opacity:1; 
stroke-linecap:round; stroke-linejoin:round;">
<circle cx="96.5700" cy="57.4400" r="2.2000" /> 
</g>
<g style="fill:#4D7FC4; fill-opacity:1.0000; 
stroke:#4D7FC4; stroke-width:0.0212; stroke-opacity:1; 
stroke-linecap:round; stroke-linejoin:round;">
</g>
<g >
</g>
<g style="fill:#4D7FC4; fill-opacity:1.0000; 
stroke:#4D7FC4; stroke-width:0.0212; stroke-opacity:1; 
stroke-linecap:round; stroke-linejoin:round;">
</g>
<g style="fill:#4D7FC4; fill-opacity:1.0000; 
stroke:#4D7FC4; stroke-width:0.0000; stroke-opacity:1; 
stroke-linecap:round; stroke-linejoin:round;">
<circle cx="96.5700" cy="4.4950" r="2.2000" /> 
</g>
<g style="fill:#4D7FC4; fill-opacity:1.0000; 
stroke:#4D7FC4; stroke-width:0.0212; stroke-opacity:1; 
stroke-linecap:round; stroke-linejoin:round;">
</g>
<g >
</g>
<g style="fill:#4D7FC4; fill-opacity:1.0000; 
stroke:#4D7FC4; stroke-width:0.0212; stroke-opacity:1; 
stroke-linecap:round; stroke-linejoin:round;">
</g>
<g style="fill:#4D7FC4; fill-opacity:1.0000; 
stroke:#4D7FC4; stroke-width:0.0000; stroke-opacity:1; 
stroke-linecap:round; stroke-linejoin:round;">
<circle cx="42.7080" cy="56.2470" r="0.8500" /> 
</g>
<g style="fill:#4D7FC4; fill-opacity:1.0000; 
stroke:#4D7FC4; stroke-width:0.0212; stroke-opacity:1; 
stroke-linecap:round; stroke-linejoin:round;">
</g>
<g style="fill:#4D7FC4; fill-opacity:1.0000; 
stroke:#4D7FC4; stroke-width:0.0000; stroke-opacity:1; 
stroke-linecap:round; stroke-linejoin:round;">
<circle cx="42.7080" cy="53.7070" r="0.8500" /> 
<circle cx="42.7080" cy="51.1670" r="0.8500" /> 
<circle cx="42.7080" cy="48.6270" r="0.8500" /> 
<circle cx="42.7080" cy="46.0870" r="0.8500" /> 
<circle cx="42.7080" cy="43.5470" r="0.8500" /> 
<circle cx="42.7080" cy="41.0070" r="0.8500" /> 
<circle cx="42.7080" cy="38.4670" r="0.8500" /> 
</g>
<g >
</g>
<g style="fill:#4D7FC4; fill-opacity:1.0000; 
stroke:#4D7FC4; stroke-width:0.0000; stroke-opacity:1; 
stroke-linecap:round; stroke-linejoin:round;">
<circle cx="12.6470" cy="23.2220" r="1.7500" /> 
</g>
<g style="fill:#4D7FC4; fill-opacity:1.0000; 
stroke:#4D7FC4; stroke-width:0.0212; stroke-opacity:1; 
stroke-linecap:round; stroke-linejoin:round;">
</g>
<g >
</g>
<g style="fill:#4D7FC4; fill-opacity:1.0000; 
stroke:#4D7FC4; stroke-width:0.0212; stroke-opacity:1; 
stroke-linecap:round; stroke-linejoin:round;">
</g>
<g style="fill:#4D7FC4; fill-opacity:1.0000; 
stroke:#4D7FC4; stroke-width:0.0000; stroke-opacity:1; 
stroke-linecap:round; stroke-linejoin:round;">
<circle cx="88.7570" cy="23.2220" r="1.7500" /> 
</g>
<g style="fill:#4D7FC4; fill-opacity:1.0000; 
stroke:#4D7FC4; stroke-width:0.0212; stroke-opacity:1; 
stroke-linecap:round; stroke-linejoin:round;">
</g>
<g >
</g>
<g style="fill:#4D7FC4; fill-opacity:1.0000; 
stroke:#4D7FC4; stroke-width:0.0212; stroke-opacity:1; 
stroke-linecap:round; stroke-linejoin:round;">
</g>
<g style="fill:#4D7FC4; fill-opacity:1.0000; 
stroke:#4D7FC4; stroke-width:0.0000; stroke-opacity:1; 
stroke-linecap:round; stroke-linejoin:round;">
<circle cx="12.6470" cy="13.4020" r="1.7500" /> 
</g>
<g style="fill:#4D7FC4; fill-opacity:1.0000; 
stroke:#4D7FC4; stroke-width:0.0212; stroke-opacity:1; 
stroke-linecap:round; stroke-linejoin:round;">
</g>
<g >
</g>
<g style="fill:#4D7FC4; fill-opacity:1.0000; 
stroke:#4D7FC4; stroke-width:0.0212; stroke-opacity:1; 
stroke-linecap:round; stroke-linejoin:round;">
</g>
<g style="fill:#4D7FC4; fill-opacity:1.0000; 
stroke:#4D7FC4; stroke-width:0.0000; stroke-opacity:1; 
stroke-linecap:round; stroke-linejoin:round;">
<circle cx="4.4950" cy="4.4950" r="2.2000" /> 
</g>
<g style="fill:#4D7FC4; fill-opacity:1.0000; 
stroke:#4D7FC4; stroke-width:0.0212; stroke-opacity:1; 
stroke-linecap:round; stroke-linejoin:round;">
</g>
<g >
</g>
<g style="fill:#4D7FC4; fill-opacity:1.0000; 
stroke:#4D7FC4; stroke-width:0.0212; stroke-opacity:1; 
stroke-linecap:round; stroke-linejoin:round;">
</g>
<g style="fill:#4D7FC4; fill-opacity:1.0000; 
stroke:#4D7FC4; stroke-width:0.0000; stroke-opacity:1; 
stroke-linecap:round; stroke-linejoin:round;">
<path style="fill:#4D7FC4; fill-opacity:1.0000; 
stroke:#4D7FC4; stroke-width:0.0000; stroke-opacity:1; 
stroke-linecap:round; stroke-linejoin:round;fill-rule:evenodd;"
d="M 84.5000,12.3950
84.5957,12.4140
84.6768,12.4682
84.7310,12.5493
84.7500,12.6450
84.7500,13.8450
84.7310,13.9407
84.6768,14.0218
84.5957,14.0760
84.5000,14.0950
83.0500,14.0950
82.9543,14.0760
82.8732,14.0218
82.8190,13.9407
82.8000,13.8450
82.8000,12.6450
82.8190,12.5493
82.8732,12.4682
82.9543,12.4140
83.0500,12.3950
Z" /> 
</g>
<g style="fill:#4D7FC4; fill-opacity:1.0000; 
stroke:#4D7FC4; stroke-width:1.7000; stroke-opacity:1; 
stroke-linecap:round; stroke-linejoin:round;">
</g>
<g style="fill:#4D7FC4; fill-opacity:0.0; 
stroke:#4D7FC4; stroke-width:1.7000; stroke-opacity:1; 
stroke-linecap:round; stroke-linejoin:round;">
<path d="M83.9000 15.7450
L83.6500 15.7450
" />
<path d="M83.9000 18.2450
L83.6500 18.2450
" />
<path d="M83.9000 20.7450
L83.6500 20.7450
" />
<path d="M83.9000 23.2450
L83.6500 23.2450
" />
</g>
<g >
</g>
<g style="fill:#4D7FC4; fill-opacity:0.0; 
stroke:#4D7FC4; stroke-width:1.7000; stroke-opacity:1; 
stroke-linecap:round; stroke-linejoin:round;">
</g>
<g style="fill:#4D7FC4; fill-opacity:0.0; 
stroke:#4D7FC4; stroke-width:0.0000; stroke-opacity:1; 
stroke-linecap:round; stroke-linejoin:round;">
</g>
<g style="fill:#4D7FC4; fill-opacity:1.0000; 
stroke:#4D7FC4; stroke-width:0.0000; stroke-opacity:1; 
stroke-linecap:round; stroke-linejoin:round;">
<path style="fill:#4D7FC4; fill-opacity:1.0000; 
stroke:#4D7FC4; stroke-width:0.0000; stroke-opacity:1; 
stroke-linecap:round; stroke-linejoin:round;fill-rule:evenodd;"
d="M 16.7350,12.4950
16.8307,12.5140
16.9118,12.5682
16.9660,12.6493
16.9850,12.7450
16.9850,13.9450
16.9660,14.0407
16.9118,14.1218
16.8307,14.1760
16.7350,14.1950
15.2850,14.1950
15.1893,14.1760
15.1082,14.1218
15.0540,14.0407
15.0350,13.9450
15.0350,12.7450
15.0540,12.6493
15.1082,12.5682
15.1893,12.5140
15.2850,12.4950
Z" /> 
</g>
<g style="fill:#4D7FC4; fill-opacity:1.0000; 
stroke:#4D7FC4; stroke-width:1.7000; stroke-opacity:1; 
stroke-linecap:round; stroke-linejoin:round;">
</g>
<g style="fill:#4D7FC4; fill-opacity:0.0; 
stroke:#4D7FC4; stroke-width:1.7000; stroke-opacity:1; 
stroke-linecap:round; stroke-linejoin:round;">
<path d="M16.1350 15.8450
L15.8850 15.8450
" />
<path d="M16.1350 18.3450
L15.8850 18.3450
" />
<path d="M16.1350 20.8450
L15.8850 20.8450
" />
<path d="M16.1350 23.3450
L15.8850 23.3450
" />
</g>
<g >
</g>
<g >
</g>
<g style="fill:#4D7FC4; fill-opacity:0.0; 
stroke:#4D7FC4; stroke-width:1.7000; stroke-opacity:1; 
stroke-linecap:round; stroke-linejoin:round;">
</g>
<g style="fill:#4D7FC4; fill-opacity:0.0; 
stroke:#4D7FC4; stroke-width:0.2500; stroke-opacity:1; 
stroke-linecap:round; stroke-linejoin:round;">
<path d="M17.6268 49.0212
L17.4998 49.0212
" />
<path d="M15.0360 5.5110
L89.4580 5.5110
" />
<path d="M8.6860 15.2900
L8.6860 11.8610
" />
<path d="M7.2890 23.9260
L7.2890 9.3210
" />
<path d="M47.0400 15.6180
L47.0400 6.8900
" />
<path d="M92.2520 8.3050
L92.2520 15.5440
" />
<path d="M83.7750 23.8310
L83.7750 23.2450
" />
<path d="M35.1020 53.6440
L11.6070 53.6440
" />
<path d="M11.6070 53.6440
L5.6380 47.6750
" />
<path d="M12.3690 4.2410
L89.9660 4.2410
" />
<path d="M10.9720 27.6090
L7.2890 23.9260
" />
<path d="M11.7410 18.3450
L8.6860 15.2900
" />
<path d="M17.4200 23.7990
L16.4640 23.7990
" />
<path d="M5.6380 47.6750
L5.6380 44.8810
" />
<path d="M17.4200 25.2250
L15.0360 27.6090
" />
<path d="M15.0360 27.6090
L10.9720 27.6090
" />
<path d="M34.9728 15.7450
L34.9728 53.5148
" />
<path d="M41.8330 53.6440
L35.1020 53.6440
" />
<path d="M83.7750 15.7450
L47.0400 15.7450
" />
<path d="M7.2890 9.3210
L12.3690 4.2410
" />
<path d="M92.2520 15.5440
L89.5510 18.2450
" />
<path d="M89.4580 5.5110
L92.2520 8.3050
" />
</g>
<g style="fill:#4D7FC4; fill-opacity:0.0; 
stroke:#4D7FC4; stroke-width:0.0000; stroke-opacity:1; 
stroke-linecap:round; stroke-linejoin:round;">
<path d="M18.6298 48.9450
L17.5760 48.9450
" />
</g>
<g style="fill:#4D7FC4; fill-opacity:0.0; 
stroke:#4D7FC4; stroke-width:0.2500; stroke-opacity:1; 
stroke-linecap:round; stroke-linejoin:round;">
<path d="M47.0908 15.6942
L47.0400 15.7450
" />
<path d="M35.1020 15.7450
L34.9728 15.7450
" />
<path d="M11.6200 48.9450
L2.6980 40.0230
" />
<path d="M17.6406 48.9450
L11.6200 48.9450
" />
<path d="M95.5540 9.8290
L95.5540 23.2910
" />
<path d="M35.1020 15.7450
L18.5650 15.7450
" />
<path d="M95.5540 23.2910
L91.2360 27.6090
" />
<path d="M11.7410 18.3450
L16.0100 18.3450
" />
<path d="M5.5560 44.8810
L2.6980 42.0230
" />
<path d="M91.2360 27.6090
L87.5530 27.6090
" />
<path d="M47.0400 15.7450
L46.9130 15.7450
" />
<path d="M8.6860 11.8610
L15.0360 5.5110
" />
<path d="M15.4240 18.3450
L17.4200 18.3450
" />
<path d="M18.5650 15.7450
L18.4650 15.8450
" />
<path d="M87.5530 27.6090
L83.7750 23.8310
" />
<path d="M17.4200 23.7990
L17.4200 25.2250
" />
<path d="M89.5510 18.2450
L83.7750 18.2450
" />
<path d="M34.9728 53.5148
L35.1020 53.6440
" />
<path d="M18.4650 15.8450
L16.0100 15.8450
" />
<path d="M46.9130 15.7450
L47.0400 15.6180
" />
<path d="M89.9660 4.2410
L95.5540 9.8290
" />
<path d="M46.9130 15.7450
L35.1020 15.7450
" />
<path d="M5.6380 44.8810
L5.5560 44.8810
" />
<path d="M16.4640 23.7990
L16.0100 23.3450
" />
</g>
<g style="fill:#4D7FC4; fill-opacity:0.0; 
stroke:#4D7FC4; stroke-width:0.0000; stroke-opacity:1; 
stroke-linecap:round; stroke-linejoin:round;">
<path d="M17.5760 48.9450
L17.4998 49.0212
" />
</g>
<g >
</g>
<g style="fill:#4D7FC4; fill-opacity:0.0; 
stroke:#4D7FC4; stroke-width:0.0000; stroke-opacity:1; 
stroke-linecap:round; stroke-linejoin:round;">
<g >
</g>
<g style="fill:#4D7FC4; fill-opacity:1.0000; 
stroke:#4D7FC4; stroke-width:0.0000; stroke-opacity:1; 
stroke-linecap:round; stroke-linejoin:round;">
<path style="fill:#4D7FC4; fill-opacity:1.0000; 
stroke:#4D7FC4; stroke-width:0.0000; stroke-opacity:1; 
stroke-linecap:round; stroke-linejoin:round;fill-rule:evenodd;"
d="M 97.2207,0.7047
97.2413,0.7213
100.3436,3.8236
100.3770,3.8849
100.3799,3.9115
100.2531,57.6619
100.2333,57.7289
100.2228,57.7428
96.9881,61.4752
96.9293,61.5130
96.8944,61.5180
3.7926,61.5180
3.7256,61.4983
3.6958,61.4715
0.7122,57.7420
0.6857,57.6773
0.6850,57.6645
0.6850,57.4400
1.7896,57.4400
1.8093,57.7661
1.8682,58.0875
1.9654,58.3993
1.9654,58.3994
1.9654,58.3994
2.0995,58.6973
2.2639,58.9693
2.2685,58.9769
2.4700,59.2340
2.7010,59.4650
2.9581,59.6665
2.9581,59.6665
2.9581,59.6665
3.2377,59.8355
3.5356,59.9696
3.5357,59.9696
3.5357,59.9696
3.8475,60.0668
3.8475,60.0668
4.1689,60.1257
4.4950,60.1454
4.8211,60.1257
5.1425,60.0668
5.4544,59.9696
5.7523,59.8355
6.0319,59.6665
6.2890,59.4650
6.5200,59.2340
6.7215,58.9769
6.8905,58.6973
7.0246,58.3994
7.1218,58.0875
7.1807,57.7661
7.2004,57.4400
7.1807,57.1139
7.1218,56.7925
7.0252,56.4824
7.0246,56.4807
7.0246,56.4807
7.0246,56.4806
6.8905,56.1827
6.7215,55.9031
6.7215,55.9031
6.7215,55.9031
6.5200,55.6460
6.2890,55.4150
6.0319,55.2135
6.0236,55.2085
5.7523,55.0445
5.4544,54.9104
5.4544,54.9104
5.4543,54.9104
5.1425,54.8132
4.8211,54.7543
4.4950,54.7346
4.1689,54.7543
3.8475,54.8132
3.5357,54.9104
3.5356,54.9104
3.5356,54.9104
3.4376,54.9545
3.2377,55.0445
3.2377,55.0445
2.9581,55.2135
2.7010,55.4150
2.4700,55.6460
2.2685,55.9031
2.0995,56.1827
2.0995,56.1827
1.9654,56.4806
1.9654,56.4807
1.8682,56.7925
1.8093,57.1139
1.7896,57.4400
0.6850,57.4400
0.6850,44.1530
1.2425,44.1530
1.2624,44.3926
1.3214,44.6256
1.4180,44.8457
1.4721,44.9286
1.5494,45.0470
1.7122,45.2238
1.7122,45.2238
1.7122,45.2238
1.9019,45.3715
1.9019,45.3715
1.9019,45.3715
2.1133,45.4859
2.1133,45.4859
2.3407,45.5639
2.3407,45.5639
2.3407,45.5639
2.5778,45.6035
2.5778,45.6035
2.8182,45.6035
2.8182,45.6035
3.0553,45.5639
3.2827,45.4859
3.4941,45.3715
3.6838,45.2238
3.8466,45.0470
3.9780,44.8457
4.0746,44.6256
4.0900,44.5647
4.1256,44.5046
4.1880,44.4732
4.2575,44.4805
4.2979,44.5075
4.9762,45.1858
5.0097,45.2471
5.0125,45.2735
5.0125,47.5923
5.0108,47.6079
5.0111,47.6079
5.0103,47.6157
5.0125,47.6848
5.0125,47.7143
5.0125,47.7144
5.0134,47.7212
5.0138,47.7270
5.0153,47.7736
5.0153,47.7736
5.0209,47.7929
5.0248,47.8119
5.0273,47.8318
5.0296,47.8375
5.0445,47.8751
5.0464,47.8806
5.0594,47.9254
5.0696,47.9426
5.0781,47.9601
5.0855,47.9787
5.1129,48.0164
5.1161,48.0213
5.1398,48.0614
5.1398,48.0614
5.1540,48.0756
5.1666,48.0904
5.1784,48.1066
5.1784,48.1066
5.2143,48.1363
5.2186,48.1402
8.2454,51.1670
11.1062,54.0278
11.1160,54.0400
11.1162,54.0399
11.1212,54.0459
11.1212,54.0459
11.1212,54.0459
11.1717,54.0932
11.1925,54.1141
11.1980,54.1184
11.2024,54.1222
11.2364,54.1541
11.2364,54.1541
11.2540,54.1637
11.2702,54.1744
11.2861,54.1867
11.3080,54.1962
11.3288,54.2052
11.3341,54.2078
11.3749,54.2302
11.3943,54.2352
11.4127,54.2415
11.4311,54.2494
11.4771,54.2567
11.4828,54.2579
11.5280,54.2695
11.5480,54.2695
11.5674,54.2710
11.5872,54.2742
11.6336,54.2698
11.6394,54.2695
35.0230,54.2695
35.0430,54.2695
35.0624,54.2710
35.0822,54.2742
35.0822,54.2742
35.0822,54.2742
35.0822,54.2742
35.1286,54.2698
35.1344,54.2695
41.4012,54.2695
41.4682,54.2892
41.5136,54.3411
41.5340,54.3848
41.5340,54.3848
41.5340,54.3848
41.6695,54.5784
41.6695,54.5784
41.8366,54.7455
41.8366,54.7455
42.0222,54.8754
42.0658,54.9300
42.0730,54.9995
42.0415,55.0619
42.0222,55.0786
41.8366,55.2085
41.6695,55.3756
41.5340,55.5692
41.5340,55.5692
41.4341,55.7833
41.4341,55.7833
41.3729,56.0116
41.3729,56.0116
41.3523,56.2470
41.3523,56.2470
41.3729,56.4824
41.3729,56.4824
41.4341,56.7107
41.4341,56.7107
41.4341,56.7107
41.5340,56.9248
41.5340,56.9248
41.5340,56.9248
41.6423,57.0795
41.6695,57.1184
41.8366,57.2855
41.9334,57.3533
42.0302,57.4210
42.0302,57.4210
42.0302,57.4210
42.2443,57.5209
42.4726,57.5821
42.6609,57.5985
42.7080,57.6027
42.7080,57.6027
42.7080,57.6027
42.7472,57.5992
42.9434,57.5821
43.1717,57.5209
43.3858,57.4210
43.5794,57.2855
43.7465,57.1184
43.8820,56.9248
43.9819,56.7107
44.0431,56.4824
44.0637,56.2470
56.3523,56.2470
56.3729,56.4824
56.3729,56.4824
56.4341,56.7107
56.4341,56.7107
56.4341,56.7107
56.5340,56.9248
56.5340,56.9248
56.5340,56.9248
56.6423,57.0795
56.6695,57.1184
56.8366,57.2855
56.9334,57.3533
57.0302,57.4210
57.0302,57.4210
57.0302,57.4210
57.2443,57.5209
57.4726,57.5821
57.6609,57.5985
57.7080,57.6027
57.7080,57.6027
57.7080,57.6027
57.7472,57.5992
57.9434,57.5821
58.1717,57.5209
58.3452,57.4400
93.8646,57.4400
93.8843,57.7661
93.9432,58.0875
94.0404,58.3993
94.0404,58.3994
94.0404,58.3994
94.1745,58.6973
94.3389,58.9693
94.3435,58.9769
94.5450,59.2340
94.7760,59.4650
95.0331,59.6665
95.0331,59.6665
95.0331,59.6665
95.3127,59.8355
95.6106,59.9696
95.6107,59.9696
95.6107,59.9696
95.9225,60.0668
95.9225,60.0668
96.2439,60.1257
96.5700,60.1454
96.8961,60.1257
97.2175,60.0668
97.5294,59.9696
97.8273,59.8355
98.1069,59.6665
98.3640,59.4650
98.5950,59.2340
98.7965,58.9769
98.9655,58.6973
99.0996,58.3994
99.1968,58.0875
99.2557,57.7661
99.2754,57.4400
99.2557,57.1139
99.1968,56.7925
99.1002,56.4824
99.0996,56.4807
99.0996,56.4807
99.0996,56.4806
98.9655,56.1827
98.7965,55.9031
98.7965,55.9031
98.7965,55.9031
98.5950,55.6460
98.3640,55.4150
98.1069,55.2135
98.0986,55.2085
97.8273,55.0445
97.5294,54.9104
97.5294,54.9104
97.5293,54.9104
97.2175,54.8132
96.8961,54.7543
96.5700,54.7346
96.2439,54.7543
95.9225,54.8132
95.6107,54.9104
95.6106,54.9104
95.6106,54.9104
95.5126,54.9545
95.3127,55.0445
95.3127,55.0445
95.0331,55.2135
94.7760,55.4150
94.5450,55.6460
94.3435,55.9031
94.1745,56.1827
94.1745,56.1827
94.0404,56.4806
94.0404,56.4807
93.9432,56.7925
93.8843,57.1139
93.8646,57.4400
58.3452,57.4400
58.3858,57.4210
58.5794,57.2855
58.7465,57.1184
58.8820,56.9248
58.9819,56.7107
59.0431,56.4824
59.0637,56.2470
59.0431,56.0116
58.9819,55.7833
58.8820,55.5692
58.7741,55.4150
58.7465,55.3756
58.5794,55.2085
58.5794,55.2085
58.3938,55.0786
58.3502,55.0240
58.3430,54.9545
58.3745,54.8921
58.3938,54.8754
58.4827,54.8132
58.5794,54.7455
58.7465,54.5784
58.8820,54.3848
58.9819,54.1707
59.0431,53.9424
59.0637,53.7070
59.0431,53.4716
58.9819,53.2433
58.8820,53.0292
58.8746,53.0185
58.7465,52.8356
58.5794,52.6685
58.5794,52.6685
58.3938,52.5386
58.3502,52.4840
58.3430,52.4145
58.3745,52.3521
58.3938,52.3354
58.4160,52.3199
58.5794,52.2055
58.7465,52.0384
58.8820,51.8448
58.9819,51.6307
59.0431,51.4024
59.0637,51.1670
59.0431,50.9316
58.9819,50.7033
58.8820,50.4892
58.8515,50.4455
58.7465,50.2956
58.5794,50.1285
58.5794,50.1285
58.3938,49.9986
58.3502,49.9440
58.3430,49.8745
58.3745,49.8121
58.3938,49.7954
58.4160,49.7799
58.5794,49.6655
58.7465,49.4984
58.8820,49.3048
58.9819,49.0907
59.0431,48.8624
59.0637,48.6270
59.0431,48.3916
58.9819,48.1633
58.8820,47.9492
58.8654,47.9254
58.7465,47.7556
58.5794,47.5885
58.5794,47.5885
58.3938,47.4586
58.3502,47.4040
58.3430,47.3345
58.3745,47.2721
58.3938,47.2554
58.4160,47.2399
58.5794,47.1255
58.7465,46.9584
58.8820,46.7648
58.9819,46.5507
59.0431,46.3224
59.0637,46.0870
59.0431,45.8516
58.9819,45.6233
58.8820,45.4092
58.7523,45.2238
58.7465,45.2156
58.5794,45.0485
58.5794,45.0485
58.3938,44.9186
58.3502,44.8640
58.3430,44.7945
58.3745,44.7321
58.3938,44.7154
58.4458,44.6791
58.5794,44.5855
58.7465,44.4184
58.8820,44.2248
58.9819,44.0107
59.0431,43.7824
59.0637,43.5470
59.0431,43.3116
58.9819,43.0833
58.8820,42.8692
58.7465,42.6756
58.7465,42.6756
58.5794,42.5085
58.5794,42.5085
58.3938,42.3786
58.3502,42.3240
58.3430,42.2545
58.3745,42.1921
58.3938,42.1754
58.4160,42.1599
58.5794,42.0455
58.7465,41.8784
58.8820,41.6848
58.9819,41.4707
59.0431,41.2424
59.0637,41.0070
59.0431,40.7716
58.9819,40.5433
58.8820,40.3292
58.8325,40.2584
58.7465,40.1356
58.5794,39.9685
58.5794,39.9685
58.3938,39.8386
58.3502,39.7840
58.3430,39.7145
58.3745,39.6521
58.3938,39.6354
58.4160,39.6199
58.5794,39.5055
58.7465,39.3384
58.8820,39.1448
58.9819,38.9307
59.0431,38.7024
59.0637,38.4670
59.0431,38.2316
58.9819,38.0033
58.8820,37.7892
58.7465,37.5956
58.7465,37.5956
58.5794,37.4285
58.5794,37.4285
58.3858,37.2930
58.3858,37.2930
58.3858,37.2930
58.1717,37.1931
58.1717,37.1931
58.1717,37.1931
57.9434,37.1319
57.9434,37.1319
57.7080,37.1113
57.7080,37.1113
57.4726,37.1319
57.4726,37.1319
57.2443,37.1931
57.2443,37.1931
57.0302,37.2930
57.0302,37.2930
56.8366,37.4285
56.6695,37.5956
56.5340,37.7892
56.5340,37.7892
56.4341,38.0033
56.4341,38.0033
56.3729,38.2316
56.3729,38.2316
56.3523,38.4670
56.3523,38.4670
56.3729,38.7024
56.3729,38.7024
56.4341,38.9307
56.4341,38.9307
56.4341,38.9307
56.4573,38.9805
56.5340,39.1448
56.5340,39.1448
56.6695,39.3384
56.6695,39.3384
56.8366,39.5055
56.8366,39.5055
57.0222,39.6354
57.0658,39.6900
57.0730,39.7595
57.0415,39.8219
57.0222,39.8386
56.8366,39.9685
56.6695,40.1356
56.5340,40.3292
56.5340,40.3292
56.4341,40.5433
56.4341,40.5433
56.3729,40.7716
56.3729,40.7716
56.3523,41.0070
56.3523,41.0070
56.3729,41.2424
56.3729,41.2424
56.4341,41.4707
56.4341,41.4707
56.4341,41.4707
56.4754,41.5593
56.5340,41.6848
56.5340,41.6848
56.6695,41.8784
56.6695,41.8784
56.8366,42.0455
56.8366,42.0455
57.0222,42.1754
57.0658,42.2300
57.0730,42.2995
57.0415,42.3619
57.0222,42.3786
56.8366,42.5085
56.6695,42.6756
56.5340,42.8692
56.5340,42.8692
56.4341,43.0833
56.4341,43.0833
56.3729,43.3116
56.3729,43.3116
56.3523,43.5470
56.3523,43.5470
56.3729,43.7824
56.3729,43.7824
56.4341,44.0107
56.4341,44.0107
56.4341,44.0107
56.5340,44.2248
56.5340,44.2248
56.5340,44.2248
56.6363,44.3709
56.6647,44.4116
56.6695,44.4184
56.6695,44.4184
56.8366,44.5855
56.8366,44.5855
57.0222,44.7154
57.0658,44.7700
57.0730,44.8395
57.0415,44.9019
57.0222,44.9186
56.8366,45.0485
56.6695,45.2156
56.5340,45.4092
56.5340,45.4092
56.4341,45.6233
56.4341,45.6233
56.3729,45.8516
56.3729,45.8516
56.3523,46.0870
56.3523,46.0870
56.3729,46.3224
56.3729,46.3224
56.4341,46.5507
56.4341,46.5507
56.4341,46.5507
56.5340,46.7648
56.5340,46.7648
56.5340,46.7648
56.6695,46.9584
56.6695,46.9584
56.8366,47.1255
56.8366,47.1255
57.0222,47.2554
57.0658,47.3100
57.0730,47.3795
57.0415,47.4419
57.0222,47.4586
56.8366,47.5885
56.6695,47.7556
56.5340,47.9492
56.5340,47.9492
56.4341,48.1633
56.4341,48.1633
56.3729,48.3916
56.3729,48.3916
56.3523,48.6270
56.3523,48.6270
56.3729,48.8624
56.3729,48.8624
56.4341,49.0907
56.4341,49.0907
56.4341,49.0907
56.4817,49.1928
56.5340,49.3048
56.5340,49.3048
56.6392,49.4551
56.6620,49.4877
56.6695,49.4984
56.6695,49.4984
56.8366,49.6655
56.8366,49.6655
57.0222,49.7954
57.0658,49.8500
57.0730,49.9195
57.0415,49.9819
57.0222,49.9986
56.8366,50.1285
56.6695,50.2956
56.5340,50.4892
56.5340,50.4892
56.4341,50.7033
56.4341,50.7033
56.3729,50.9316
56.3729,50.9316
56.3523,51.1670
56.3523,51.1670
56.3729,51.4024
56.3729,51.4024
56.4341,51.6307
56.4341,51.6307
56.4341,51.6307
56.5340,51.8448
56.5340,51.8448
56.5340,51.8448
56.6695,52.0384
56.6695,52.0384
56.8366,52.2055
56.8366,52.2055
57.0222,52.3354
57.0658,52.3900
57.0730,52.4595
57.0415,52.5219
57.0222,52.5386
56.8366,52.6685
56.6695,52.8356
56.5340,53.0292
56.5340,53.0292
56.4341,53.2433
56.4341,53.2433
56.3729,53.4716
56.3729,53.4716
56.3523,53.7070
56.3523,53.7070
56.3729,53.9424
56.3729,53.9424
56.4341,54.1707
56.4341,54.1707
56.4341,54.1707
56.4742,54.2567
56.5340,54.3848
56.5340,54.3848
56.6695,54.5784
56.6695,54.5784
56.8366,54.7455
56.8366,54.7455
57.0222,54.8754
57.0658,54.9300
57.0730,54.9995
57.0415,55.0619
57.0222,55.0786
56.8366,55.2085
56.6695,55.3756
56.5340,55.5692
56.5340,55.5692
56.4341,55.7833
56.4341,55.7833
56.3729,56.0116
56.3729,56.0116
56.3523,56.2470
56.3523,56.2470
44.0637,56.2470
44.0431,56.0116
43.9819,55.7833
43.8820,55.5692
43.7741,55.4150
43.7465,55.3756
43.5794,55.2085
43.5794,55.2085
43.3938,55.0786
43.3502,55.0240
43.3430,54.9545
43.3745,54.8921
43.3938,54.8754
43.4827,54.8132
43.5794,54.7455
43.7465,54.5784
43.8820,54.3848
43.9819,54.1707
44.0431,53.9424
44.0637,53.7070
44.0431,53.4716
43.9819,53.2433
43.8820,53.0292
43.8746,53.0185
43.7465,52.8356
43.5794,52.6685
43.5794,52.6685
43.3938,52.5386
43.3502,52.4840
43.3430,52.4145
43.3745,52.3521
43.3938,52.3354
43.4160,52.3199
43.5794,52.2055
43.7465,52.0384
43.8820,51.8448
43.9819,51.6307
44.0431,51.4024
44.0637,51.1670
44.0431,50.9316
43.9819,50.7033
43.8820,50.4892
43.8515,50.4455
43.7465,50.2956
43.5794,50.1285
43.5794,50.1285
43.3938,49.9986
43.3502,49.9440
43.3430,49.8745
43.3745,49.8121
43.3938,49.7954
43.4160,49.7799
43.5794,49.6655
43.7465,49.4984
43.8820,49.3048
43.9819,49.0907
44.0431,48.8624
44.0637,48.6270
44.0431,48.3916
43.9819,48.1633
43.8820,47.9492
43.8654,47.9254
43.7465,47.7556
43.5794,47.5885
43.5794,47.5885
43.3938,47.4586
43.3502,47.4040
43.3430,47.3345
43.3745,47.2721
43.3938,47.2554
43.4160,47.2399
43.5794,47.1255
43.7465,46.9584
43.8820,46.7648
43.9819,46.5507
44.0431,46.3224
44.0637,46.0870
44.0431,45.8516
43.9819,45.6233
43.8820,45.4092
43.7523,45.2238
43.7465,45.2156
43.5794,45.0485
43.5794,45.0485
43.3938,44.9186
43.3502,44.8640
43.3430,44.7945
43.3745,44.7321
43.3938,44.7154
43.4458,44.6791
43.5794,44.5855
43.7465,44.4184
43.8820,44.2248
43.9819,44.0107
44.0431,43.7824
44.0637,43.5470
44.0431,43.3116
43.9819,43.0833
43.8820,42.8692
43.7465,42.6756
43.7465,42.6756
43.5794,42.5085
43.5794,42.5085
43.3938,42.3786
43.3502,42.3240
43.3430,42.2545
43.3745,42.1921
43.3938,42.1754
43.4160,42.1599
43.5794,42.0455
43.7465,41.8784
43.8820,41.6848
43.9819,41.4707
44.0431,41.2424
44.0637,41.0070
44.0431,40.7716
43.9819,40.5433
43.8820,40.3292
43.8325,40.2584
43.7465,40.1356
43.5794,39.9685
43.5794,39.9685
43.3938,39.8386
43.3502,39.7840
43.3430,39.7145
43.3745,39.6521
43.3938,39.6354
43.4160,39.6199
43.5794,39.5055
43.7465,39.3384
43.8820,39.1448
43.9819,38.9307
44.0431,38.7024
44.0637,38.4670
44.0431,38.2316
43.9819,38.0033
43.8820,37.7892
43.7465,37.5956
43.7465,37.5956
43.5794,37.4285
43.5794,37.4285
43.3858,37.2930
43.3858,37.2930
43.3858,37.2930
43.1717,37.1931
43.1717,37.1931
43.1717,37.1931
42.9434,37.1319
42.9434,37.1319
42.7080,37.1113
42.7080,37.1113
42.4726,37.1319
42.4726,37.1319
42.2443,37.1931
42.2443,37.1931
42.0302,37.2930
42.0302,37.2930
41.8366,37.4285
41.6695,37.5956
41.5340,37.7892
41.5340,37.7892
41.4341,38.0033
41.4341,38.0033
41.3729,38.2316
41.3729,38.2316
41.3523,38.4670
41.3523,38.4670
41.3729,38.7024
41.3729,38.7024
41.4341,38.9307
41.4341,38.9307
41.4341,38.9307
41.4573,38.9805
41.5340,39.1448
41.5340,39.1448
41.6695,39.3384
41.6695,39.3384
41.8366,39.5055
41.8366,39.5055
42.0222,39.6354
42.0658,39.6900
42.0730,39.7595
42.0415,39.8219
42.0222,39.8386
41.8366,39.9685
41.6695,40.1356
41.5340,40.3292
41.5340,40.3292
41.4341,40.5433
41.4341,40.5433
41.3729,40.7716
41.3729,40.7716
41.3523,41.0070
41.3523,41.0070
41.3729,41.2424
41.3729,41.2424
41.4341,41.4707
41.4341,41.4707
41.4341,41.4707
41.4754,41.5593
41.5340,41.6848
41.5340,41.6848
41.6695,41.8784
41.6695,41.8784
41.8366,42.0455
41.8366,42.0455
42.0222,42.1754
42.0658,42.2300
42.0730,42.2995
42.0415,42.3619
42.0222,42.3786
41.8366,42.5085
41.6695,42.6756
41.5340,42.8692
41.5340,42.8692
41.4341,43.0833
41.4341,43.0833
41.3729,43.3116
41.3729,43.3116
41.3523,43.5470
41.3523,43.5470
41.3729,43.7824
41.3729,43.7824
41.4341,44.0107
41.4341,44.0107
41.4341,44.0107
41.5340,44.2248
41.5340,44.2248
41.5340,44.2248
41.6363,44.3709
41.6647,44.4116
41.6695,44.4184
41.6695,44.4184
41.8366,44.5855
41.8366,44.5855
42.0222,44.7154
42.0658,44.7700
42.0730,44.8395
42.0415,44.9019
42.0222,44.9186
41.8366,45.0485
41.6695,45.2156
41.5340,45.4092
41.5340,45.4092
41.4341,45.6233
41.4341,45.6233
41.3729,45.8516
41.3729,45.8516
41.3523,46.0870
41.3523,46.0870
41.3729,46.3224
41.3729,46.3224
41.4341,46.5507
41.4341,46.5507
41.4341,46.5507
41.5340,46.7648
41.5340,46.7648
41.5340,46.7648
41.6695,46.9584
41.6695,46.9584
41.8366,47.1255
41.8366,47.1255
42.0222,47.2554
42.0658,47.3100
42.0730,47.3795
42.0415,47.4419
42.0222,47.4586
41.8366,47.5885
41.6695,47.7556
41.5340,47.9492
41.5340,47.9492
41.4341,48.1633
41.4341,48.1633
41.3729,48.3916
41.3729,48.3916
41.3523,48.6270
41.3523,48.6270
41.3729,48.8624
41.3729,48.8624
41.4341,49.0907
41.4341,49.0907
41.4341,49.0907
41.4817,49.1928
41.5340,49.3048
41.5340,49.3048
41.6392,49.4551
41.6620,49.4877
41.6695,49.4984
41.6695,49.4984
41.8366,49.6655
41.8366,49.6655
42.0222,49.7954
42.0658,49.8500
42.0730,49.9195
42.0415,49.9819
42.0222,49.9986
41.8366,50.1285
41.6695,50.2956
41.5340,50.4892
41.5340,50.4892
41.4341,50.7033
41.4341,50.7033
41.3729,50.9316
41.3729,50.9316
41.3523,51.1670
41.3523,51.1670
41.3729,51.4024
41.3729,51.4024
41.4341,51.6307
41.4341,51.6307
41.4341,51.6307
41.5340,51.8448
41.5340,51.8448
41.6695,52.0384
41.6695,52.0384
41.8366,52.2055
41.8366,52.2055
42.0222,52.3354
42.0658,52.3900
42.0730,52.4595
42.0415,52.5219
42.0222,52.5386
41.8366,52.6685
41.6695,52.8356
41.6283,52.8945
41.5813,52.9615
41.5785,52.9656
41.5239,53.0092
41.4769,53.0185
35.7223,53.0185
35.6553,52.9988
35.6095,52.9460
35.5983,52.8945
35.5983,16.4945
35.6180,16.4275
35.6708,16.3817
35.7223,16.3705
46.8303,16.3705
46.8459,16.3722
46.8459,16.3719
46.8537,16.3727
46.8537,16.3727
46.9228,16.3705
46.9573,16.3705
46.9729,16.3722
46.9729,16.3719
46.9807,16.3727
46.9807,16.3727
47.0498,16.3705
82.3748,16.3705
82.4418,16.3902
82.4763,16.4234
82.6115,16.6164
82.7786,16.7835
82.9356,16.8934
82.9792,16.9480
82.9864,17.0175
82.9549,17.0799
82.9356,17.0966
82.7786,17.2065
82.6115,17.3736
82.6115,17.3736
82.4760,17.5672
82.4760,17.5672
82.3761,17.7813
82.3761,17.7813
82.3149,18.0096
82.3149,18.0096
82.2943,18.2450
82.2943,18.2450
82.3149,18.4804
82.3149,18.4804
82.3761,18.7087
82.3761,18.7087
82.3761,18.7087
82.4047,18.7701
82.4760,18.9228
82.4760,18.9228
82.6115,19.1164
82.7786,19.2835
82.7786,19.2835
82.9214,19.3835
82.9356,19.3934
82.9792,19.4480
82.9864,19.5175
82.9549,19.5799
82.9356,19.5966
82.7786,19.7065
82.6115,19.8736
82.6115,19.8736
82.4760,20.0672
82.4760,20.0672
82.3761,20.2813
82.3761,20.2813
82.3149,20.5096
82.3149,20.5096
82.2943,20.7450
82.2943,20.7450
82.3149,20.9804
82.3149,20.9804
82.3761,21.2087
82.3761,21.2087
82.3761,21.2087
82.4227,21.3087
82.4760,21.4228
82.4760,21.4228
82.6115,21.6164
82.7786,21.7835
82.9356,21.8934
82.9792,21.9480
82.9864,22.0175
82.9549,22.0799
82.9356,22.0966
82.7786,22.2065
82.6115,22.3736
82.6115,22.3736
82.4760,22.5672
82.4760,22.5672
82.3761,22.7813
82.3761,22.7813
82.3149,23.0096
82.3149,23.0096
82.2943,23.2450
82.2943,23.2450
82.3149,23.4804
82.3149,23.4804
82.3761,23.7087
82.3761,23.7087
82.3761,23.7087
82.4214,23.8057
82.4760,23.9228
82.4760,23.9228
82.6115,24.1164
82.7786,24.2835
82.9722,24.4190
82.9722,24.4190
83.1863,24.5189
83.1863,24.5189
83.1863,24.5189
83.2187,24.5276
83.4146,24.5801
83.5910,24.5955
83.6035,24.5955
83.6706,24.6152
83.6912,24.6318
87.0522,27.9928
87.0620,28.0051
87.0622,28.0049
87.0672,28.0109
87.0880,28.0304
87.1176,28.0582
87.1385,28.0791
87.1440,28.0834
87.1484,28.0872
87.1824,28.1191
87.2000,28.1287
87.2162,28.1394
87.2321,28.1517
87.2517,28.1602
87.2748,28.1702
87.2801,28.1727
87.3209,28.1952
87.3335,28.1984
87.3403,28.2002
87.3587,28.2065
87.3771,28.2144
87.4232,28.2217
87.4288,28.2229
87.4740,28.2345
87.4940,28.2345
87.5134,28.2360
87.5332,28.2392
87.5796,28.2348
87.5854,28.2345
91.1533,28.2345
91.1689,28.2362
91.1689,28.2359
91.1767,28.2367
91.1767,28.2367
91.2458,28.2345
91.2753,28.2345
91.2822,28.2336
91.2880,28.2332
91.3346,28.2317
91.3539,28.2261
91.3729,28.2222
91.3928,28.2197
91.4361,28.2025
91.4416,28.2006
91.4454,28.1995
91.4864,28.1876
91.5036,28.1774
91.5211,28.1689
91.5397,28.1615
91.5397,28.1615
91.5397,28.1615
91.5774,28.1341
91.5823,28.1309
91.6224,28.1072
91.6366,28.0930
91.6514,28.0804
91.6676,28.0686
91.6973,28.0327
91.7012,28.0284
95.9378,23.7918
95.9500,23.7820
95.9499,23.7818
95.9559,23.7768
95.9559,23.7768
95.9868,23.7439
96.0032,23.7264
96.0137,23.7159
96.0241,23.7055
96.0284,23.7000
96.0322,23.6956
96.0641,23.6616
96.0737,23.6440
96.0844,23.6278
96.0967,23.6119
96.1152,23.5692
96.1177,23.5639
96.1402,23.5231
96.1452,23.5037
96.1515,23.4853
96.1594,23.4669
96.1667,23.4209
96.1679,23.4152
96.1795,23.3700
96.1795,23.3500
96.1810,23.3306
96.1842,23.3108
96.1842,23.3108
96.1798,23.2644
96.1795,23.2586
96.1795,9.9117
96.1812,9.8961
96.1809,9.8961
96.1817,9.8883
96.1795,9.8192
96.1795,9.7897
96.1795,9.7896
96.1786,9.7828
96.1782,9.7769
96.1767,9.7304
96.1767,9.7304
96.1711,9.7111
96.1672,9.6921
96.1647,9.6722
96.1475,9.6289
96.1456,9.6233
96.1326,9.5786
96.1326,9.5786
96.1224,9.5614
96.1139,9.5439
96.1065,9.5253
96.1065,9.5253
96.0965,9.5115
96.0791,9.4875
96.0759,9.4827
96.0522,9.4426
96.0522,9.4426
96.0380,9.4284
96.0254,9.4136
96.0136,9.3974
95.9777,9.3677
95.9734,9.3638
91.1046,4.4950
93.8646,4.4950
93.8843,4.8211
93.9432,5.1425
94.0404,5.4543
94.0404,5.4544
94.0404,5.4544
94.1745,5.7523
94.3389,6.0243
94.3435,6.0319
94.5450,6.2890
94.7760,6.5200
95.0331,6.7215
95.0331,6.7215
95.0331,6.7215
95.3127,6.8905
95.6106,7.0246
95.6107,7.0246
95.6107,7.0246
95.9225,7.1218
95.9225,7.1218
96.2439,7.1807
96.5700,7.2004
96.8961,7.1807
97.2175,7.1218
97.5294,7.0246
97.8273,6.8905
98.1069,6.7215
98.3640,6.5200
98.5950,6.2890
98.7965,6.0319
98.9655,5.7523
99.0996,5.4544
99.1968,5.1425
99.2557,4.8211
99.2754,4.4950
99.2557,4.1689
99.1968,3.8475
99.1605,3.7309
99.0996,3.5357
99.0996,3.5357
99.0996,3.5356
98.9655,3.2377
98.7965,2.9581
98.7965,2.9581
98.7965,2.9581
98.5950,2.7010
98.3640,2.4700
98.1069,2.2685
98.0993,2.2639
97.8273,2.0995
97.5294,1.9654
97.5294,1.9654
97.5293,1.9654
97.2175,1.8682
96.8961,1.8093
96.5700,1.7896
96.2439,1.8093
95.9225,1.8682
95.6107,1.9654
95.6106,1.9654
95.6106,1.9654
95.3127,2.0995
95.3049,2.1042
95.0331,2.2685
94.7760,2.4700
94.5450,2.7010
94.3435,2.9581
94.2705,3.0789
94.1745,3.2377
94.0421,3.5319
94.0404,3.5356
94.0404,3.5357
93.9432,3.8475
93.8843,4.1689
93.8646,4.4950
91.1046,4.4950
90.4668,3.8572
90.4570,3.8449
90.4568,3.8451
90.4518,3.8391
90.4332,3.8216
90.4014,3.7918
90.3909,3.7813
90.3805,3.7709
90.3750,3.7666
90.3706,3.7628
90.3366,3.7309
90.3366,3.7309
90.3366,3.7309
90.3190,3.7213
90.3028,3.7106
90.2869,3.6983
90.2442,3.6798
90.2389,3.6772
90.1981,3.6548
90.1981,3.6548
90.1787,3.6498
90.1603,3.6435
90.1419,3.6356
90.1419,3.6356
90.0959,3.6283
90.0902,3.6271
90.0450,3.6155
90.0450,3.6155
90.0250,3.6155
90.0056,3.6140
89.9982,3.6128
89.9858,3.6108
89.9858,3.6108
89.9394,3.6152
89.9336,3.6155
55.3915,3.6155
55.3245,3.5958
55.2787,3.5430
55.2688,3.4739
55.2877,3.4237
55.3393,3.3447
55.3642,3.3066
55.4641,3.0789
55.5251,2.8378
55.5289,2.7922
55.5456,2.5900
55.5456,2.5900
55.5251,2.3422
55.5251,2.3422
55.4641,2.1011
55.3642,1.8734
55.2282,1.6652
55.2066,1.6417
55.0597,1.4823
54.8635,1.3295
54.8635,1.3295
54.8635,1.3295
54.6448,1.2112
54.6448,1.2112
54.4096,1.1304
54.1643,1.0895
53.9157,1.0895
53.6704,1.1304
53.4352,1.2112
53.4352,1.2112
53.2165,1.3295
53.0203,1.4823
52.8518,1.6652
52.7158,1.8734
52.6159,2.1011
52.5549,2.3422
52.5549,2.3422
52.5344,2.5900
52.5344,2.5900
52.5549,2.8378
52.5549,2.8378
52.6159,3.0789
52.7158,3.3066
52.7923,3.4237
52.8125,3.4906
52.7933,3.5578
52.7409,3.6039
52.6885,3.6155
48.3915,3.6155
48.3245,3.5958
48.2787,3.5430
48.2688,3.4739
48.2877,3.4237
48.3393,3.3447
48.3642,3.3066
48.4641,3.0789
48.5251,2.8378
48.5289,2.7922
48.5456,2.5900
48.5456,2.5900
48.5251,2.3422
48.5251,2.3422
48.4641,2.1011
48.3642,1.8734
48.2282,1.6652
48.2066,1.6417
48.0597,1.4823
47.8635,1.3295
47.8635,1.3295
47.8635,1.3295
47.6448,1.2112
47.6448,1.2112
47.4096,1.1304
47.1643,1.0895
46.9157,1.0895
46.6704,1.1304
46.4352,1.2112
46.4352,1.2112
46.2165,1.3295
46.0203,1.4823
45.8518,1.6652
45.7158,1.8734
45.6159,2.1011
45.5549,2.3422
45.5549,2.3422
45.5344,2.5900
45.5344,2.5900
45.5549,2.8378
45.5549,2.8378
45.6159,3.0789
45.7158,3.3066
45.7923,3.4237
45.8125,3.4906
45.7933,3.5578
45.7409,3.6039
45.6885,3.6155
12.4517,3.6155
12.4361,3.6138
12.4361,3.6141
12.4283,3.6133
12.4283,3.6133
12.3592,3.6155
12.3296,3.6155
12.3228,3.6164
12.3169,3.6168
12.2704,3.6183
12.2511,3.6239
12.2321,3.6278
12.2122,3.6303
12.1689,3.6475
12.1634,3.6494
12.1186,3.6624
12.1186,3.6624
12.1014,3.6726
12.0839,3.6811
12.0653,3.6885
12.0653,3.6885
12.0276,3.7159
12.0227,3.7191
11.9826,3.7428
11.9684,3.7570
11.9536,3.7696
11.9374,3.7814
11.9374,3.7814
11.9077,3.8173
11.9038,3.8216
6.9052,8.8202
6.8930,8.8300
6.8931,8.8302
6.8871,8.8352
6.8398,8.8856
6.8189,8.9065
6.8189,8.9065
6.8146,8.9120
6.8108,8.9164
6.7789,8.9504
6.7789,8.9504
6.7693,8.9680
6.7586,8.9842
6.7463,9.0001
6.7463,9.0001
6.7278,9.0428
6.7252,9.0481
6.7028,9.0889
6.6978,9.1083
6.6915,9.1267
6.6836,9.1451
6.6836,9.1451
6.6763,9.1911
6.6751,9.1968
6.6635,9.2420
6.6635,9.2420
6.6635,9.2620
6.6620,9.2814
6.6588,9.3012
6.6588,9.3012
6.6632,9.3476
6.6635,9.3534
6.6635,23.8433
6.6618,23.8589
6.6621,23.8589
6.6613,23.8667
6.6635,23.9358
6.6635,23.9653
6.6635,23.9654
6.6644,23.9722
6.6648,23.9780
6.6663,24.0246
6.6663,24.0246
6.6719,24.0439
6.6758,24.0629
6.6783,24.0828
6.6950,24.1248
6.6955,24.1261
6.6974,24.1316
6.7089,24.1714
6.7104,24.1764
6.7205,24.1935
6.7206,24.1936
6.7291,24.2111
6.7365,24.2297
6.7639,24.2674
6.7671,24.2723
6.7908,24.3124
6.7908,24.3124
6.8050,24.3266
6.8176,24.3414
6.8294,24.3576
6.8294,24.3576
6.8653,24.3873
6.8696,24.3912
9.4256,26.9472
10.4712,27.9928
10.4810,28.0050
10.4812,28.0049
10.4862,28.0109
10.4862,28.0109
10.4862,28.0109
10.5367,28.0582
10.5575,28.0791
10.5630,28.0834
10.5674,28.0872
10.6014,28.1191
10.6014,28.1191
10.6190,28.1287
10.6352,28.1394
10.6511,28.1517
10.6730,28.1612
10.6938,28.1702
10.6991,28.1728
10.7399,28.1952
10.7593,28.2002
10.7777,28.2065
10.7961,28.2144
10.8421,28.2217
10.8478,28.2229
10.8930,28.2345
10.9130,28.2345
10.9324,28.2360
10.9522,28.2392
10.9986,28.2348
11.0044,28.2345
14.9533,28.2345
14.9689,28.2362
14.9689,28.2359
14.9767,28.2367
14.9767,28.2367
15.0458,28.2345
15.0753,28.2345
15.0822,28.2336
15.0880,28.2332
15.1346,28.2317
15.1539,28.2261
15.1729,28.2222
15.1928,28.2197
15.2361,28.2025
15.2416,28.2006
15.2454,28.1995
15.2864,28.1876
15.3036,28.1774
15.3211,28.1689
15.3397,28.1615
15.3397,28.1615
15.3397,28.1615
15.3774,28.1341
15.3823,28.1309
15.4224,28.1072
15.4366,28.0930
15.4514,28.0804
15.4676,28.0686
15.4973,28.0327
15.5012,28.0284
17.8038,25.7258
17.8160,25.7160
17.8159,25.7158
17.8219,25.7108
17.8219,25.7108
17.8528,25.6779
17.8692,25.6604
17.8797,25.6499
17.8901,25.6395
17.8944,25.6340
17.8982,25.6296
17.9301,25.5956
17.9397,25.5780
17.9504,25.5618
17.9627,25.5459
17.9812,25.5032
17.9837,25.4979
18.0062,25.4571
18.0112,25.4377
18.0175,25.4193
18.0254,25.4009
18.0327,25.3549
18.0339,25.3492
18.0455,25.3040
18.0455,25.2840
18.0470,25.2646
18.0502,25.2448
18.0458,25.1984
18.0455,25.1926
18.0455,23.8698
18.0477,23.8466
18.0478,23.8459
18.0492,23.8386
18.0456,23.7813
18.0455,23.7774
18.0455,23.7597
18.0433,23.7420
18.0429,23.7382
18.0393,23.6809
18.0368,23.6731
18.0317,23.6503
18.0307,23.6422
18.0095,23.5888
18.0082,23.5852
17.9905,23.5306
17.9861,23.5237
17.9755,23.5029
17.9725,23.4953
17.9387,23.4488
17.9365,23.4456
17.9058,23.3971
17.8998,23.3915
17.8844,23.3740
17.8796,23.3674
17.8796,23.3674
17.8796,23.3674
17.8354,23.3308
17.8324,23.3282
17.7906,23.2889
17.7906,23.2889
17.7834,23.2850
17.7641,23.2719
17.7578,23.2667
17.7059,23.2422
17.7024,23.2405
17.6521,23.2128
17.6521,23.2128
17.6521,23.2128
17.6442,23.2108
17.6222,23.2029
17.6148,23.1994
17.6148,23.1994
17.5640,23.1897
17.5019,23.1578
17.4675,23.1000
17.4089,22.8813
17.3090,22.6672
17.2888,22.6383
17.1735,22.4736
17.0064,22.3065
16.9265,22.2505
16.8494,22.1966
16.8058,22.1420
16.7986,22.0725
16.8301,22.0101
16.8494,21.9934
17.0064,21.8835
17.1735,21.7164
17.3090,21.5228
17.4089,21.3087
17.4701,21.0804
17.4907,20.8450
17.4701,20.6096
17.4089,20.3813
17.3090,20.1672
17.3090,20.1672
17.1735,19.9736
17.0064,19.8065
16.9502,19.7671
16.8494,19.6966
16.8058,19.6420
16.7986,19.5725
16.8301,19.5101
16.8494,19.4934
17.0064,19.3835
17.1735,19.2164
17.3087,19.0234
17.3632,18.9798
17.4102,18.9705
17.4593,18.9705
17.4594,18.9705
17.4594,18.9705
17.4594,18.9705
17.4721,18.9689
17.5768,18.9557
17.7237,18.8975
17.7237,18.8975
17.8516,18.8046
17.8516,18.8046
17.8516,18.8046
17.8516,18.8046
17.9523,18.6828
18.0196,18.5398
18.0492,18.3846
18.0393,18.2269
17.9905,18.0766
17.9058,17.9431
17.7906,17.8349
17.7906,17.8349
17.7906,17.8349
17.6521,17.7588
17.6521,17.7588
17.4990,17.7195
17.4990,17.7195
17.4102,17.7195
17.3432,17.6998
17.3087,17.6666
17.1735,17.4736
17.0064,17.3065
16.9502,17.2671
16.8494,17.1966
16.8058,17.1420
16.7986,17.0725
16.8301,17.0101
16.8494,16.9934
17.0064,16.8835
17.1735,16.7164
17.3087,16.5234
17.3632,16.4798
17.4102,16.4705
18.3823,16.4705
18.3979,16.4722
18.3979,16.4719
18.4057,16.4727
18.4057,16.4727
18.4748,16.4705
18.5043,16.4705
18.5112,16.4696
18.5170,16.4692
18.5636,16.4677
18.5829,16.4621
18.6019,16.4582
18.6218,16.4557
18.6651,16.4385
18.6706,16.4366
18.6726,16.4360
18.7154,16.4236
18.7326,16.4134
18.7501,16.4049
18.7687,16.3975
18.7733,16.3942
18.8391,16.3707
18.8462,16.3705
34.2233,16.3705
34.2903,16.3902
34.3361,16.4430
34.3473,16.4945
34.3473,52.8945
34.3276,52.9615
34.2748,53.0073
34.2233,53.0185
11.9175,53.0185
11.8504,52.9988
11.8298,52.9822
6.2998,47.4522
6.2663,47.3909
6.2635,47.3645
6.2635,46.3224
6.2635,44.9518
6.2657,44.9286
6.2672,44.9206
6.2636,44.8633
6.2635,44.8594
6.2635,44.8417
6.2613,44.8240
6.2609,44.8202
6.2580,44.7745
6.2735,44.7064
6.3233,44.6574
6.3917,44.6431
6.4570,44.6681
6.4695,44.6791
11.1192,49.3288
11.1290,49.3411
11.1292,49.3409
11.1342,49.3469
11.1602,49.3713
11.1846,49.3942
11.2055,49.4151
11.2110,49.4194
11.2154,49.4232
11.2494,49.4551
11.2670,49.4647
11.2832,49.4754
11.2991,49.4877
11.3418,49.5062
11.3471,49.5087
11.3879,49.5312
11.4073,49.5362
11.4257,49.5425
11.4441,49.5504
11.4875,49.5573
11.4901,49.5577
11.4958,49.5589
11.5410,49.5705
11.5610,49.5705
11.5804,49.5720
11.6002,49.5752
11.6002,49.5752
11.6002,49.5752
11.6002,49.5752
11.6466,49.5708
11.6524,49.5705
16.5546,49.5705
16.6217,49.5902
16.6674,49.6430
16.6682,49.6447
16.6756,49.6616
16.8116,49.8698
16.8116,49.8698
16.9800,50.0527
17.1763,50.2055
17.3950,50.3238
17.6302,50.4046
17.8755,50.4455
18.1241,50.4455
18.3694,50.4046
18.6046,50.3238
18.8233,50.2055
19.0195,50.0527
19.0746,49.9929
22.7301,49.9929
22.7301,49.9929
22.7365,50.0525
22.7868,50.1873
22.7868,50.1873
22.8730,50.3025
22.8730,50.3025
22.9882,50.3888
22.9883,50.3888
23.1231,50.4391
23.1231,50.4391
23.1300,50.4398
23.1827,50.4455
25.2785,50.4455
25.3381,50.4391
25.4729,50.3888
25.5881,50.3025
25.6744,50.1873
25.7247,50.0525
25.7311,49.9929
25.7311,47.8971
25.7247,47.8375
25.7225,47.8318
25.6744,47.7027
25.6744,47.7027
25.5881,47.5875
25.5881,47.5875
25.4729,47.5012
25.4729,47.5012
25.3381,47.4509
25.3381,47.4509
25.2785,47.4445
25.2785,47.4445
25.2785,47.4445
25.2784,47.4445
23.1827,47.4445
23.1827,47.4445
23.1231,47.4509
22.9883,47.5012
22.9882,47.5012
22.8730,47.5875
22.8730,47.5875
22.7868,47.7027
22.7868,47.7027
22.7365,47.8375
22.7301,47.8971
22.7301,47.8971
22.7301,47.8971
22.7301,49.9929
19.0746,49.9929
19.1879,49.8698
19.3240,49.6616
19.4238,49.4339
19.4849,49.1928
19.5054,48.9450
19.4986,48.8624
19.4849,48.6972
19.4849,48.6972
19.4238,48.4561
19.3240,48.2284
19.1880,48.0202
19.1326,47.9601
19.0195,47.8373
18.8233,47.6845
18.8233,47.6845
18.8233,47.6845
18.6046,47.5662
18.6046,47.5662
18.3694,47.4854
18.1241,47.4445
17.8755,47.4445
17.6302,47.4854
17.3950,47.5662
17.3950,47.5662
17.1763,47.6845
16.9800,47.8373
16.8116,48.0202
16.6756,48.2284
16.6682,48.2453
16.6232,48.2988
16.5565,48.3195
16.5546,48.3195
11.9305,48.3195
11.8634,48.2998
11.8428,48.2832
4.0382,40.4786
4.0048,40.4173
4.0061,40.3589
4.0331,40.2584
4.0537,40.0230
4.0331,39.7876
3.9719,39.5593
3.8829,39.3685
3.8724,39.2995
3.9010,39.2357
3.9049,39.2315
3.9055,39.2305
3.9055,39.2305
3.9918,39.1153
4.0421,38.9805
4.0485,38.9209
4.0485,37.1251
4.0421,37.0655
3.9918,36.9307
3.9161,36.8296
3.8917,36.7641
3.9066,36.6959
3.9116,36.6875
3.9780,36.5857
4.0746,36.3656
4.1336,36.1326
4.1535,35.8930
4.1336,35.6534
4.0746,35.4204
3.9780,35.2003
3.8466,34.9990
3.6838,34.8222
3.6838,34.8222
3.6838,34.8222
3.4941,34.6745
3.4941,34.6745
3.2827,34.5601
3.2827,34.5601
3.0553,34.4821
2.8775,34.4524
2.8182,34.4425
2.5778,34.4425
2.5304,34.4504
2.3407,34.4821
2.1133,34.5601
2.1133,34.5601
1.9019,34.6745
1.9019,34.6745
1.7122,34.8222
1.7122,34.8222
1.5494,34.9990
1.5494,34.9990
1.4180,35.2003
1.3214,35.4204
1.2624,35.6534
1.2425,35.8930
1.2425,35.8930
1.2624,36.1326
1.3214,36.3656
1.4180,36.5857
1.4844,36.6875
1.5046,36.7543
1.4854,36.8215
1.4799,36.8296
1.4042,36.9307
1.4042,36.9307
1.3539,37.0655
1.3490,37.1113
1.3475,37.1251
1.3475,37.1251
1.3475,38.9209
1.3475,38.9209
1.3539,38.9805
1.4042,39.1153
1.4042,39.1153
1.4958,39.2376
1.4941,39.2389
1.5218,39.2898
1.5169,39.3595
1.5131,39.3685
1.4241,39.5593
1.4241,39.5593
1.3629,39.7876
1.3629,39.7876
1.3423,40.0230
1.3423,40.0230
1.3629,40.2584
1.3629,40.2584
1.4241,40.4867
1.4241,40.4867
1.4241,40.4867
1.4505,40.5433
1.5240,40.7008
1.5240,40.7008
1.6595,40.8944
1.7004,40.9353
1.7339,40.9966
1.7289,41.0663
1.7004,41.1107
1.6595,41.1516
1.5240,41.3452
1.5240,41.3452
1.4241,41.5593
1.4241,41.5593
1.3629,41.7876
1.3629,41.7876
1.3423,42.0230
1.3423,42.0230
1.3629,42.2584
1.3629,42.2584
1.4241,42.4867
1.4241,42.4867
1.4241,42.4867
1.4343,42.5085
1.5240,42.7008
1.5240,42.7008
1.6595,42.8944
1.6595,42.8944
1.6928,42.9277
1.7263,42.9891
1.7213,43.0587
1.6964,43.0994
1.5494,43.2590
1.5494,43.2590
1.4180,43.4603
1.3214,43.6804
1.2624,43.9134
1.2425,44.1530
1.2425,44.1530
0.6850,44.1530
0.6850,4.4950
1.7896,4.4950
1.8093,4.8211
1.8682,5.1425
1.9654,5.4543
1.9654,5.4544
1.9654,5.4544
2.0995,5.7523
2.2639,6.0243
2.2685,6.0319
2.4700,6.2890
2.7010,6.5200
2.9581,6.7215
2.9581,6.7215
2.9581,6.7215
3.2377,6.8905
3.5356,7.0246
3.5357,7.0246
3.5357,7.0246
3.8475,7.1218
3.8475,7.1218
4.1689,7.1807
4.4950,7.2004
4.8211,7.1807
5.1425,7.1218
5.4544,7.0246
5.7523,6.8905
6.0319,6.7215
6.2890,6.5200
6.5200,6.2890
6.7215,6.0319
6.8905,5.7523
7.0246,5.4544
7.1218,5.1425
7.1807,4.8211
7.2004,4.4950
7.1807,4.1689
7.1218,3.8475
7.0855,3.7309
7.0246,3.5357
7.0246,3.5357
7.0246,3.5356
6.8905,3.2377
6.7215,2.9581
6.7215,2.9581
6.7215,2.9581
6.5200,2.7010
6.2890,2.4700
6.0319,2.2685
6.0243,2.2639
5.7523,2.0995
5.4544,1.9654
5.4544,1.9654
5.4543,1.9654
5.1425,1.8682
4.8211,1.8093
4.4950,1.7896
4.1689,1.8093
3.8475,1.8682
3.5357,1.9654
3.5356,1.9654
3.5356,1.9654
3.2377,2.0995
3.2299,2.1042
2.9581,2.2685
2.7010,2.4700
2.4700,2.7010
2.2685,2.9581
2.1955,3.0789
2.0995,3.2377
1.9671,3.5319
1.9654,3.5356
1.9654,3.5357
1.8682,3.8475
1.8093,4.1689
1.7896,4.4950
0.6850,4.4950
0.6850,3.9114
0.7047,3.8443
0.7213,3.8237
3.8237,0.7213
3.8850,0.6878
3.9114,0.6850
97.1536,0.6850
Z" /> 
<path style="fill:#4D7FC4; fill-opacity:1.0000; 
stroke:#4D7FC4; stroke-width:0.0000; stroke-opacity:1; 
stroke-linecap:round; stroke-linejoin:round;fill-rule:evenodd;"
d="M 14.5609,4.8862
14.6067,4.9390
14.6166,5.0081
14.5894,5.0695
14.5747,5.0873
14.5708,5.0916
8.3022,11.3602
8.2900,11.3700
8.2901,11.3702
8.2841,11.3752
8.2368,11.4256
8.2159,11.4465
8.2159,11.4465
8.2116,11.4520
8.2078,11.4564
8.1759,11.4904
8.1759,11.4904
8.1663,11.5080
8.1556,11.5242
8.1386,11.5462
8.1367,11.5448
8.0942,11.5845
8.0254,11.5970
7.9608,11.5704
7.9209,11.5130
7.9145,11.4737
7.9145,9.6315
7.9342,9.5644
7.9508,9.5438
12.5918,4.9028
12.6531,4.8693
12.6795,4.8665
14.4939,4.8665
Z" /> 
<path style="fill:#4D7FC4; fill-opacity:1.0000; 
stroke:#4D7FC4; stroke-width:0.0000; stroke-opacity:1; 
stroke-linecap:round; stroke-linejoin:round;fill-rule:evenodd;"
d="M 52.6093,6.1562
52.6550,6.2090
52.6650,6.2781
52.6558,6.3103
52.6159,6.4011
52.5549,6.6422
52.5549,6.6422
52.5344,6.8900
52.5344,6.8900
52.5549,7.1378
52.5549,7.1378
52.6159,7.3789
52.7158,7.6066
52.8518,7.8148
52.8518,7.8148
53.0203,7.9977
53.2165,8.1505
53.2165,8.1505
53.4293,8.2656
53.4352,8.2688
53.6704,8.3496
53.9157,8.3905
54.1643,8.3905
54.4096,8.3496
54.6448,8.2688
54.8635,8.1505
55.0597,7.9977
55.2282,7.8148
55.3642,7.6066
55.4641,7.3789
55.5251,7.1378
55.5456,6.8900
55.5317,6.7215
55.5251,6.6422
55.5251,6.6422
55.4942,6.5200
55.4641,6.4011
55.4442,6.3559
55.4242,6.3103
55.4153,6.2410
55.4453,6.1779
55.5046,6.1410
55.5378,6.1365
89.1475,6.1365
89.2146,6.1562
89.2352,6.1728
91.5902,8.5278
91.6237,8.5891
91.6265,8.6155
91.6265,15.2335
91.6068,15.3006
91.5902,15.3212
89.3282,17.5832
89.2669,17.6167
89.2405,17.6195
85.1752,17.6195
85.1082,17.5998
85.0737,17.5666
84.9385,17.3736
84.7714,17.2065
84.6793,17.1420
84.6144,17.0966
84.5708,17.0420
84.5636,16.9725
84.5951,16.9101
84.6144,16.8934
84.7714,16.7835
84.9385,16.6164
85.0740,16.4228
85.1739,16.2087
85.2351,15.9804
85.2557,15.7450
85.2536,15.7216
85.2492,15.6710
85.2351,15.5096
85.1806,15.3063
85.1739,15.2813
85.1739,15.2813
85.1739,15.2813
85.0740,15.0672
85.0740,15.0672
84.9385,14.8736
84.7913,14.7264
84.7578,14.6651
84.7628,14.5954
84.8047,14.5394
84.8139,14.5332
84.8196,14.5297
84.9687,14.4377
85.0927,14.3137
85.1848,14.1643
85.2400,13.9978
85.2505,13.8950
85.2505,13.4020
86.5017,13.4020
86.5038,13.4350
86.5039,13.4412
86.5027,13.4774
86.5027,13.4774
86.5139,13.5883
86.5210,13.6964
86.5210,13.6964
86.5280,13.7320
86.5289,13.7379
86.5329,13.7772
86.5580,13.8825
86.5785,13.9857
86.5785,13.9857
86.5912,14.0232
86.5928,14.0287
86.6027,14.0703
86.6027,14.0703
86.6027,14.0703
86.6405,14.1684
86.6731,14.2643
86.6733,14.2651
86.6923,14.3034
86.6945,14.3086
86.7110,14.3514
86.7110,14.3514
86.7601,14.4409
86.8038,14.5297
86.8038,14.5297
86.8294,14.5679
86.8322,14.5726
86.8558,14.6157
86.8558,14.6157
86.9137,14.6942
86.9153,14.6965
86.9564,14.7580
86.9677,14.7750
87.0002,14.8120
87.0035,14.8161
87.0346,14.8582
87.1001,14.9260
87.1022,14.9282
87.1622,14.9968
87.1970,15.0273
87.2017,15.0313
87.2054,15.0348
87.2440,15.0748
87.2440,15.0748
87.2714,15.0964
87.3155,15.1313
87.3179,15.1333
87.3840,15.1913
87.3840,15.1913
87.3840,15.1913
87.4263,15.2195
87.4303,15.2222
87.4343,15.2251
87.4805,15.2616
87.5451,15.2998
87.5561,15.3063
87.5589,15.3081
87.5907,15.3293
87.6293,15.3552
87.6462,15.3635
87.6822,15.3812
87.6863,15.3835
87.7205,15.4037
87.7397,15.4151
87.7397,15.4151
87.7397,15.4151
87.8177,15.4482
87.8208,15.4496
87.8939,15.4857
87.9528,15.5056
87.9570,15.5072
88.0171,15.5327
88.0956,15.5542
88.0992,15.5553
88.1733,15.5805
88.2320,15.5922
88.2374,15.5932
88.2417,15.5942
88.3077,15.6123
88.3852,15.6228
88.3890,15.6234
88.4626,15.6380
88.5311,15.6425
88.5352,15.6429
88.6063,15.6525
88.6813,15.6525
88.6853,15.6526
88.7174,15.6547
88.7570,15.6573
88.7570,15.6573
88.7570,15.6573
88.7678,15.6566
88.8291,15.6526
88.8322,15.6525
88.8322,15.6525
88.9058,15.6476
89.0514,15.6380
89.0514,15.6380
89.0525,15.6379
89.0565,15.6375
89.0576,15.6374
89.2007,15.6083
89.3407,15.5805
89.3414,15.5802
89.3490,15.5782
89.3529,15.5774
89.4878,15.5305
89.6201,15.4857
89.6237,15.4839
89.6308,15.4809
89.6375,15.4786
89.7622,15.4156
89.8847,15.3552
89.8907,15.3511
89.8972,15.3474
89.9065,15.3427
90.0190,15.2654
90.1300,15.1913
90.1378,15.1844
90.1436,15.1799
90.1549,15.1721
90.2538,15.0826
90.3518,14.9968
90.3608,14.9864
90.3658,14.9813
90.3783,14.9700
90.4624,14.8705
90.5463,14.7750
90.5557,14.7609
90.5599,14.7553
90.5729,14.7399
90.5729,14.7399
90.6413,14.6328
90.7102,14.5297
90.7191,14.5116
90.7224,14.5056
90.7350,14.4860
90.7872,14.3735
90.8407,14.2651
90.8482,14.2429
90.8506,14.2368
90.8618,14.2127
90.8976,14.0972
90.9355,13.9857
90.9407,13.9596
90.9423,13.9533
90.9511,13.9249
90.9707,13.8088
90.9930,13.6964
90.9950,13.6666
90.9957,13.6603
91.0012,13.6278
91.0050,13.5132
91.0074,13.4774
91.0123,13.4020
91.0123,13.4020
91.0123,13.4020
91.0102,13.3690
91.0101,13.3628
91.0113,13.3266
91.0001,13.2157
90.9930,13.1076
90.9859,13.0720
90.9851,13.0661
90.9811,13.0268
90.9811,13.0268
90.9560,12.9215
90.9355,12.8183
90.9228,12.7808
90.9212,12.7753
90.9113,12.7337
90.8735,12.6356
90.8407,12.5389
90.8217,12.5006
90.8195,12.4954
90.8030,12.4526
90.7713,12.3947
90.7539,12.3630
90.7102,12.2743
90.7102,12.2743
90.6846,12.2361
90.6818,12.2314
90.6582,12.1883
90.6003,12.1098
90.5987,12.1075
90.5463,12.0290
90.5252,12.0050
90.5138,11.9920
90.5105,11.9879
90.4794,11.9458
90.4598,11.9254
90.4139,11.8780
90.4118,11.8757
90.3518,11.8072
90.3123,11.7727
90.3086,11.7691
90.2700,11.7292
90.1985,11.6727
90.1961,11.6707
90.1300,11.6127
90.0837,11.5818
90.0797,11.5789
90.0335,11.5424
90.0028,11.5242
89.9579,11.4977
89.9551,11.4959
89.8847,11.4488
89.8318,11.4228
89.8277,11.4205
89.7743,11.3889
89.7743,11.3889
89.7743,11.3889
89.7420,11.3752
89.6963,11.3558
89.6932,11.3544
89.6201,11.3183
89.5612,11.2984
89.5570,11.2967
89.5182,11.2803
89.4969,11.2713
89.4969,11.2713
89.4969,11.2713
89.4184,11.2498
89.4148,11.2487
89.3407,11.2235
89.3407,11.2235
89.3407,11.2235
89.2766,11.2108
89.2723,11.2098
89.2063,11.1917
89.2063,11.1917
89.1288,11.1812
89.1250,11.1806
89.0780,11.1713
89.0514,11.1660
89.0514,11.1660
89.0514,11.1660
88.9830,11.1615
88.9787,11.1611
88.9443,11.1564
88.9077,11.1515
88.9076,11.1515
88.8327,11.1515
88.8286,11.1514
88.7966,11.1493
88.7570,11.1467
88.7570,11.1467
88.7570,11.1467
88.7089,11.1498
88.6850,11.1514
88.6818,11.1515
88.6082,11.1564
88.4626,11.1660
88.4614,11.1661
88.4575,11.1665
88.4564,11.1666
88.4564,11.1666
88.4564,11.1666
88.3133,11.1957
88.1733,11.2235
88.1733,11.2235
88.1725,11.2238
88.1649,11.2258
88.1611,11.2266
88.0975,11.2487
88.0262,11.2735
87.9804,11.2890
87.8939,11.3183
87.8939,11.3183
87.8903,11.3201
87.8832,11.3231
87.8765,11.3254
87.7518,11.3885
87.6293,11.4488
87.6293,11.4488
87.6233,11.4529
87.6168,11.4566
87.6075,11.4613
87.4949,11.5386
87.4303,11.5818
87.3840,11.6127
87.3762,11.6196
87.3704,11.6241
87.3591,11.6319
87.2602,11.7214
87.1622,11.8072
87.1532,11.8176
87.1482,11.8227
87.1357,11.8340
87.0516,11.9335
86.9677,12.0290
86.9583,12.0431
86.9541,12.0487
86.9411,12.0641
86.9411,12.0641
86.8727,12.1712
86.8038,12.2743
86.7949,12.2924
86.7916,12.2984
86.7790,12.3180
86.7268,12.4305
86.6733,12.5389
86.6733,12.5389
86.6658,12.5611
86.6634,12.5673
86.6522,12.5913
86.6522,12.5914
86.6164,12.7068
86.5785,12.8183
86.5785,12.8183
86.5733,12.8444
86.5717,12.8507
86.5629,12.8791
86.5629,12.8791
86.5433,12.9952
86.5281,13.0720
86.5210,13.1076
86.5210,13.1076
86.5190,13.1374
86.5183,13.1437
86.5128,13.1762
86.5090,13.2908
86.5017,13.4020
85.2505,13.4020
85.2505,12.5950
85.2448,12.5389
85.2400,12.4922
85.2400,12.4922
85.1848,12.3257
85.0927,12.1763
84.9687,12.0523
84.8678,11.9901
84.8193,11.9602
84.8193,11.9602
84.7758,11.9458
84.6528,11.9050
84.6528,11.9050
84.5500,11.8945
83.0000,11.8945
83.0000,11.8945
82.8972,11.9050
82.8972,11.9050
82.7307,11.9602
82.7307,11.9602
82.5813,12.0523
82.4573,12.1763
82.3652,12.3257
82.3652,12.3257
82.3652,12.3257
82.3100,12.4922
82.3100,12.4922
82.3100,12.4922
82.2995,12.5950
82.2995,13.8950
82.2995,13.8950
82.3100,13.9978
82.3100,13.9978
82.3184,14.0232
82.3652,14.1643
82.4525,14.3060
82.4573,14.3137
82.5813,14.4377
82.7361,14.5332
82.7828,14.5851
82.7941,14.6541
82.7662,14.7182
82.7587,14.7264
82.6115,14.8736
82.4763,15.0666
82.4218,15.1102
82.3748,15.1195
47.7895,15.1195
47.7225,15.0998
47.6767,15.0470
47.6655,14.9955
47.6655,8.3315
47.6852,8.2645
47.7305,8.2225
47.7450,8.2146
47.8635,8.1505
48.0597,7.9977
48.2282,7.8148
48.3642,7.6066
48.4641,7.3789
48.5251,7.1378
48.5456,6.8900
48.5317,6.7215
48.5251,6.6422
48.5251,6.6422
48.4942,6.5200
48.4641,6.4011
48.4442,6.3559
48.4242,6.3103
48.4153,6.2410
48.4453,6.1779
48.5046,6.1410
48.5378,6.1365
52.5422,6.1365
Z" /> 
<path style="fill:#4D7FC4; fill-opacity:1.0000; 
stroke:#4D7FC4; stroke-width:0.0000; stroke-opacity:1; 
stroke-linecap:round; stroke-linejoin:round;fill-rule:evenodd;"
d="M 45.6093,6.1562
45.6550,6.2090
45.6650,6.2781
45.6558,6.3103
45.6159,6.4011
45.5549,6.6422
45.5549,6.6422
45.5344,6.8900
45.5344,6.8900
45.5549,7.1378
45.5549,7.1378
45.6159,7.3789
45.7158,7.6066
45.8518,7.8148
45.8518,7.8148
46.0203,7.9977
46.0604,8.0290
46.2165,8.1505
46.2165,8.1505
46.3495,8.2225
46.3991,8.2717
46.4145,8.3315
46.4145,14.9955
46.3948,15.0625
46.3420,15.1083
46.2905,15.1195
35.0436,15.1195
35.0204,15.1173
35.0124,15.1158
35.0124,15.1158
35.0034,15.1163
34.9551,15.1194
34.9512,15.1195
18.6477,15.1195
18.6321,15.1178
18.6321,15.1181
18.6243,15.1173
18.5552,15.1195
18.5256,15.1195
18.5249,15.1196
18.5188,15.1204
18.5129,15.1208
18.4664,15.1223
18.4664,15.1223
18.4471,15.1279
18.4281,15.1318
18.4082,15.1343
18.4082,15.1343
18.3649,15.1515
18.3594,15.1534
18.3146,15.1664
18.3146,15.1664
18.2974,15.1766
18.2799,15.1851
18.2613,15.1925
18.2591,15.1941
18.2567,15.1958
18.1909,15.2193
18.1838,15.2195
17.4102,15.2195
17.3432,15.1998
17.3087,15.1666
17.1735,14.9736
17.0263,14.8264
16.9928,14.7651
16.9978,14.6954
17.0397,14.6395
17.0489,14.6332
17.0543,14.6298
17.2037,14.5377
17.3277,14.4137
17.4198,14.2643
17.4750,14.0978
17.4855,13.9950
17.4855,12.6950
17.4750,12.5922
17.4198,12.4257
17.3277,12.2763
17.2037,12.1523
17.0926,12.0838
17.0543,12.0602
17.0543,12.0602
17.0305,12.0523
16.8878,12.0050
16.8878,12.0050
16.7850,11.9945
15.2350,11.9945
15.2350,11.9945
15.1322,12.0050
15.1322,12.0050
14.9657,12.0602
14.9657,12.0602
14.8163,12.1523
14.7473,12.2213
14.6860,12.2548
14.6163,12.2498
14.5603,12.2080
14.5509,12.1933
14.5482,12.1883
14.4903,12.1098
14.4887,12.1075
14.4363,12.0290
14.4152,12.0050
14.4038,11.9920
14.4005,11.9879
14.3694,11.9458
14.3498,11.9254
14.3039,11.8780
14.3018,11.8757
14.2418,11.8072
14.2023,11.7727
14.1986,11.7691
14.1600,11.7292
14.0885,11.6727
14.0861,11.6707
14.0200,11.6127
13.9737,11.5818
13.9697,11.5789
13.9235,11.5424
13.8928,11.5242
13.8479,11.4977
13.8451,11.4959
13.7747,11.4488
13.7218,11.4228
13.7177,11.4205
13.6643,11.3889
13.6643,11.3889
13.6643,11.3889
13.6320,11.3752
13.5863,11.3558
13.5832,11.3544
13.5101,11.3183
13.4512,11.2984
13.4470,11.2967
13.4082,11.2803
13.3869,11.2713
13.3869,11.2713
13.3869,11.2713
13.3084,11.2498
13.3048,11.2487
13.2307,11.2235
13.2307,11.2235
13.2307,11.2235
13.1666,11.2108
13.1623,11.2098
13.0963,11.1917
13.0963,11.1917
13.0188,11.1812
13.0150,11.1806
12.9680,11.1713
12.9414,11.1660
12.9414,11.1660
12.9414,11.1660
12.8730,11.1615
12.8687,11.1611
12.8343,11.1564
12.7977,11.1515
12.7976,11.1515
12.7227,11.1515
12.7187,11.1514
12.6866,11.1493
12.6470,11.1467
12.6470,11.1467
12.6470,11.1467
12.5989,11.1498
12.5750,11.1514
12.5718,11.1515
12.4982,11.1564
12.3526,11.1660
12.3514,11.1661
12.3475,11.1665
12.3464,11.1666
12.3464,11.1666
12.3464,11.1666
12.2033,11.1957
12.2033,11.1957
12.0633,11.2235
12.0633,11.2235
12.0625,11.2238
12.0549,11.2258
12.0511,11.2266
11.9875,11.2487
11.9162,11.2735
11.8704,11.2890
11.7839,11.3183
11.7839,11.3183
11.7803,11.3201
11.7732,11.3231
11.7665,11.3254
11.6418,11.3885
11.5193,11.4488
11.5193,11.4488
11.5133,11.4529
11.5068,11.4566
11.4975,11.4613
11.3849,11.5386
11.3203,11.5818
11.2740,11.6127
11.2662,11.6196
11.2604,11.6241
11.2491,11.6319
11.1502,11.7214
11.0522,11.8072
11.0432,11.8176
11.0382,11.8227
11.0257,11.8340
10.9416,11.9335
10.8577,12.0290
10.8483,12.0431
10.8441,12.0487
10.8311,12.0641
10.8311,12.0641
10.7627,12.1712
10.6938,12.2743
10.6849,12.2924
10.6816,12.2984
10.6690,12.3180
10.6168,12.4305
10.5633,12.5389
10.5633,12.5389
10.5558,12.5611
10.5534,12.5673
10.5422,12.5913
10.5422,12.5914
10.5064,12.7068
10.4685,12.8183
10.4685,12.8183
10.4633,12.8444
10.4617,12.8507
10.4529,12.8791
10.4529,12.8791
10.4333,12.9952
10.4181,13.0720
10.4110,13.1076
10.4110,13.1076
10.4090,13.1374
10.4083,13.1437
10.4028,13.1762
10.3990,13.2908
10.3917,13.4020
10.3938,13.4350
10.3939,13.4412
10.3927,13.4774
10.3927,13.4774
10.4039,13.5883
10.4110,13.6964
10.4110,13.6964
10.4180,13.7320
10.4189,13.7379
10.4229,13.7772
10.4480,13.8825
10.4685,13.9857
10.4685,13.9857
10.4812,14.0232
10.4828,14.0287
10.4927,14.0703
10.4927,14.0703
10.4927,14.0703
10.5305,14.1684
10.5631,14.2643
10.5633,14.2651
10.5823,14.3034
10.5845,14.3086
10.6010,14.3514
10.6010,14.3514
10.6501,14.4409
10.6938,14.5297
10.6938,14.5297
10.7194,14.5679
10.7222,14.5726
10.7458,14.6157
10.7458,14.6157
10.8037,14.6942
10.8053,14.6965
10.8464,14.7580
10.8577,14.7750
10.8902,14.8120
10.8935,14.8161
10.9246,14.8582
10.9901,14.9260
10.9922,14.9282
11.0522,14.9968
11.0870,15.0273
11.0917,15.0313
11.0954,15.0348
11.1340,15.0748
11.1340,15.0748
11.1614,15.0964
11.2055,15.1313
11.2080,15.1333
11.2740,15.1913
11.2740,15.1913
11.2740,15.1913
11.3163,15.2195
11.3203,15.2222
11.3243,15.2251
11.3705,15.2616
11.4351,15.2998
11.4461,15.3063
11.4489,15.3081
11.4807,15.3293
11.5193,15.3552
11.5362,15.3635
11.5722,15.3812
11.5763,15.3835
11.6105,15.4037
11.6297,15.4151
11.6297,15.4151
11.6297,15.4151
11.7077,15.4482
11.7108,15.4496
11.7839,15.4857
11.8428,15.5056
11.8470,15.5072
11.9071,15.5327
11.9856,15.5542
11.9892,15.5553
12.0633,15.5805
12.1220,15.5922
12.1274,15.5932
12.1317,15.5942
12.1977,15.6123
12.2752,15.6228
12.2790,15.6234
12.3526,15.6380
12.4211,15.6425
12.4252,15.6429
12.4963,15.6525
12.5713,15.6525
12.5753,15.6526
12.6074,15.6547
12.6470,15.6573
12.6470,15.6573
12.6470,15.6573
12.6578,15.6566
12.7191,15.6526
12.7222,15.6525
12.7222,15.6525
12.7958,15.6476
12.9414,15.6380
12.9414,15.6380
12.9425,15.6379
12.9465,15.6375
12.9476,15.6374
13.0907,15.6083
13.2307,15.5805
13.2314,15.5802
13.2390,15.5782
13.2429,15.5774
13.3778,15.5305
13.5101,15.4857
13.5137,15.4839
13.5208,15.4809
13.5275,15.4786
13.6522,15.4156
13.7747,15.3552
13.7807,15.3511
13.7872,15.3474
13.7965,15.3427
13.9090,15.2654
14.0200,15.1913
14.0278,15.1844
14.0336,15.1799
14.0449,15.1721
14.1438,15.0826
14.2418,14.9968
14.2508,14.9864
14.2558,14.9813
14.2683,14.9700
14.3524,14.8705
14.4363,14.7750
14.4457,14.7609
14.4499,14.7553
14.4629,14.7399
14.4629,14.7399
14.5313,14.6328
14.5996,14.5305
14.6532,14.4857
14.7225,14.4770
14.7856,14.5072
14.7904,14.5117
14.8163,14.5377
14.9711,14.6332
15.0178,14.6851
15.0291,14.7541
15.0012,14.8182
14.9937,14.8264
14.8465,14.9736
14.8465,14.9736
14.7110,15.1672
14.7110,15.1672
14.6111,15.3813
14.6111,15.3813
14.5499,15.6096
14.5499,15.6096
14.5293,15.8450
14.5293,15.8450
14.5499,16.0804
14.5499,16.0804
14.6111,16.3087
14.6111,16.3087
14.6111,16.3087
14.6525,16.3975
14.7110,16.5228
14.7110,16.5228
14.8465,16.7164
15.0136,16.8835
15.1706,16.9934
15.2142,17.0480
15.2214,17.1175
15.1899,17.1799
15.1706,17.1966
15.0136,17.3065
14.8465,17.4736
14.8465,17.4736
14.7113,17.6666
14.6568,17.7102
14.6098,17.7195
12.0515,17.7195
11.9844,17.6998
11.9638,17.6832
9.3478,15.0672
9.3143,15.0059
9.3115,14.9795
9.3115,12.1715
9.3312,12.1044
9.3478,12.0838
15.2588,6.1728
15.3201,6.1393
15.3465,6.1365
45.5422,6.1365
Z" /> 
<path style="fill:#4D7FC4; fill-opacity:1.0000; 
stroke:#4D7FC4; stroke-width:0.0000; stroke-opacity:1; 
stroke-linecap:round; stroke-linejoin:round;fill-rule:evenodd;"
d="M 93.0811,8.2416
93.0906,8.2502
94.8922,10.0518
94.9257,10.1131
94.9285,10.1395
94.9285,22.9805
94.9088,23.0476
94.8922,23.0682
91.0132,26.9472
90.9519,26.9807
90.9255,26.9835
87.8635,26.9835
87.7964,26.9638
87.7758,26.9472
85.0147,24.1862
84.9813,24.1248
84.9862,24.0551
85.0008,24.0274
85.0740,23.9228
85.1739,23.7087
85.2351,23.4804
85.2557,23.2450
85.2536,23.2220
86.5017,23.2220
86.5038,23.2550
86.5039,23.2612
86.5027,23.2974
86.5027,23.2974
86.5139,23.4083
86.5210,23.5164
86.5210,23.5164
86.5280,23.5520
86.5289,23.5579
86.5329,23.5972
86.5580,23.7025
86.5785,23.8057
86.5785,23.8057
86.5912,23.8432
86.5928,23.8487
86.6027,23.8903
86.6027,23.8903
86.6027,23.8903
86.6405,23.9884
86.6726,24.0828
86.6733,24.0851
86.6923,24.1234
86.6945,24.1286
86.7110,24.1714
86.7110,24.1714
86.7601,24.2609
86.8038,24.3497
86.8038,24.3497
86.8294,24.3879
86.8322,24.3926
86.8558,24.4357
86.8558,24.4357
86.9137,24.5142
86.9153,24.5165
86.9578,24.5801
86.9677,24.5950
86.9966,24.6279
87.0002,24.6320
87.0035,24.6361
87.0346,24.6782
87.1001,24.7460
87.1022,24.7482
87.1622,24.8168
87.1970,24.8473
87.2017,24.8513
87.2054,24.8548
87.2440,24.8948
87.2440,24.8948
87.2690,24.9145
87.3155,24.9513
87.3179,24.9533
87.3502,24.9816
87.3737,25.0022
87.3840,25.0113
87.3840,25.0113
87.4303,25.0422
87.4343,25.0451
87.4805,25.0816
87.4805,25.0816
87.5561,25.1263
87.5589,25.1281
87.6106,25.1627
87.6293,25.1752
87.6462,25.1835
87.6822,25.2012
87.6863,25.2035
87.7205,25.2237
87.7397,25.2351
87.7397,25.2351
87.7397,25.2351
87.8177,25.2682
87.8208,25.2696
87.8939,25.3057
87.9528,25.3256
87.9570,25.3272
88.0171,25.3527
88.0956,25.3742
88.0992,25.3753
88.1733,25.4005
88.2320,25.4122
88.2374,25.4132
88.2417,25.4142
88.3077,25.4323
88.3852,25.4428
88.3890,25.4434
88.4626,25.4580
88.5311,25.4625
88.5352,25.4629
88.6063,25.4725
88.6813,25.4725
88.6853,25.4726
88.7174,25.4747
88.7570,25.4773
88.7570,25.4773
88.7570,25.4773
88.7678,25.4766
88.8291,25.4726
88.8322,25.4725
88.8322,25.4725
88.9058,25.4676
89.0514,25.4580
89.0514,25.4580
89.0525,25.4579
89.0565,25.4575
89.0576,25.4574
89.2007,25.4283
89.3407,25.4005
89.3414,25.4002
89.3490,25.3982
89.3529,25.3974
89.4878,25.3505
89.6201,25.3057
89.6237,25.3039
89.6308,25.3009
89.6375,25.2986
89.7622,25.2356
89.8847,25.1752
89.8907,25.1711
89.8972,25.1674
89.9065,25.1627
90.0190,25.0854
90.1300,25.0113
90.1378,25.0044
90.1436,24.9999
90.1549,24.9921
90.2538,24.9026
90.3518,24.8168
90.3608,24.8064
90.3658,24.8013
90.3783,24.7900
90.4624,24.6905
90.5463,24.5950
90.5557,24.5809
90.5599,24.5753
90.5729,24.5599
90.5729,24.5599
90.6413,24.4528
90.7102,24.3497
90.7191,24.3316
90.7224,24.3256
90.7350,24.3060
90.7872,24.1935
90.8407,24.0851
90.8482,24.0629
90.8506,24.0568
90.8618,24.0327
90.8976,23.9172
90.9355,23.8057
90.9407,23.7796
90.9423,23.7733
90.9511,23.7449
90.9684,23.6422
90.9707,23.6288
90.9786,23.5888
90.9930,23.5164
90.9950,23.4866
90.9957,23.4803
91.0012,23.4478
91.0050,23.3332
91.0086,23.2794
91.0123,23.2220
91.0123,23.2220
91.0117,23.2128
91.0102,23.1890
91.0101,23.1828
91.0104,23.1735
91.0113,23.1466
91.0001,23.0357
90.9930,22.9276
90.9859,22.8920
90.9851,22.8861
90.9846,22.8813
90.9811,22.8468
90.9560,22.7415
90.9355,22.6383
90.9228,22.6008
90.9212,22.5953
90.9113,22.5537
90.9074,22.5437
90.8735,22.4556
90.8612,22.4195
90.8407,22.3589
90.8217,22.3206
90.8195,22.3154
90.8030,22.2726
90.7713,22.2147
90.7539,22.1830
90.7113,22.0966
90.7102,22.0943
90.6846,22.0561
90.6818,22.0514
90.6799,22.0480
90.6582,22.0083
90.6003,21.9298
90.5987,21.9275
90.5463,21.8490
90.5138,21.8120
90.5105,21.8079
90.4925,21.7835
90.4794,21.7658
90.4598,21.7454
90.4139,21.6980
90.4118,21.6957
90.3518,21.6272
90.3123,21.5927
90.3086,21.5891
90.2700,21.5492
90.1985,21.4927
90.1961,21.4907
90.1300,21.4327
90.0837,21.4018
90.0797,21.3989
90.0335,21.3624
90.0187,21.3537
89.9579,21.3177
89.9551,21.3159
89.8847,21.2688
89.8318,21.2428
89.8277,21.2405
89.7743,21.2089
89.7743,21.2089
89.7743,21.2089
89.7446,21.1963
89.6963,21.1758
89.6932,21.1744
89.6201,21.1383
89.5612,21.1184
89.5570,21.1167
89.5182,21.1003
89.4969,21.0913
89.4969,21.0913
89.4969,21.0913
89.4184,21.0698
89.4148,21.0687
89.3407,21.0435
89.3407,21.0435
89.3407,21.0435
89.2766,21.0308
89.2723,21.0298
89.2063,21.0117
89.2063,21.0117
89.1288,21.0012
89.1250,21.0006
89.0780,20.9913
89.0514,20.9860
89.0514,20.9860
89.0514,20.9860
88.9830,20.9815
88.9787,20.9811
88.9443,20.9764
88.9077,20.9715
88.9076,20.9715
88.8327,20.9715
88.8286,20.9714
88.7966,20.9693
88.7570,20.9667
88.7570,20.9667
88.7570,20.9667
88.7089,20.9698
88.6850,20.9714
88.6818,20.9715
88.6082,20.9764
88.4626,20.9860
88.4614,20.9861
88.4575,20.9865
88.4564,20.9866
88.4564,20.9866
88.4564,20.9866
88.3133,21.0157
88.3133,21.0157
88.1733,21.0435
88.1733,21.0435
88.1725,21.0438
88.1649,21.0458
88.1611,21.0466
88.0975,21.0687
88.0262,21.0935
87.9804,21.1090
87.8939,21.1383
87.8939,21.1383
87.8903,21.1401
87.8832,21.1431
87.8765,21.1454
87.7518,21.2085
87.6293,21.2688
87.6293,21.2688
87.6233,21.2729
87.6168,21.2766
87.6075,21.2813
87.4949,21.3586
87.4303,21.4018
87.3840,21.4327
87.3762,21.4396
87.3704,21.4441
87.3591,21.4519
87.2602,21.5414
87.1622,21.6272
87.1532,21.6376
87.1482,21.6427
87.1357,21.6540
87.0516,21.7535
86.9677,21.8490
86.9583,21.8631
86.9541,21.8687
86.9411,21.8841
86.9411,21.8841
86.8727,21.9912
86.8038,22.0943
86.7949,22.1124
86.7916,22.1184
86.7790,22.1380
86.7268,22.2505
86.6733,22.3589
86.6733,22.3589
86.6658,22.3811
86.6634,22.3873
86.6522,22.4113
86.6522,22.4114
86.6164,22.5268
86.5785,22.6383
86.5785,22.6383
86.5733,22.6644
86.5717,22.6707
86.5629,22.6991
86.5629,22.6991
86.5433,22.8152
86.5281,22.8920
86.5210,22.9276
86.5210,22.9276
86.5190,22.9574
86.5183,22.9637
86.5128,22.9962
86.5090,23.1108
86.5017,23.2220
85.2536,23.2220
85.2351,23.0096
85.1739,22.7813
85.0740,22.5672
85.0740,22.5672
84.9385,22.3736
84.7714,22.2065
84.6144,22.0966
84.5708,22.0420
84.5636,21.9725
84.5951,21.9101
84.6144,21.8934
84.7714,21.7835
84.9385,21.6164
85.0740,21.4228
85.1739,21.2087
85.2351,20.9804
85.2557,20.7450
85.2351,20.5096
85.1739,20.2813
85.0740,20.0672
85.0740,20.0672
84.9385,19.8736
84.7714,19.7065
84.6793,19.6420
84.6144,19.5966
84.5708,19.5420
84.5636,19.4725
84.5951,19.4101
84.6144,19.3934
84.7714,19.2835
84.9385,19.1164
85.0737,18.9234
85.1282,18.8798
85.1752,18.8705
89.4683,18.8705
89.4839,18.8722
89.4839,18.8719
89.4917,18.8727
89.4917,18.8727
89.5608,18.8705
89.5904,18.8705
89.5972,18.8696
89.6030,18.8692
89.6496,18.8677
89.6689,18.8621
89.6879,18.8582
89.7078,18.8557
89.7511,18.8385
89.7566,18.8366
89.7604,18.8355
89.8014,18.8236
89.8186,18.8134
89.8361,18.8049
89.8547,18.7975
89.8547,18.7975
89.8547,18.7975
89.8924,18.7701
89.8973,18.7669
89.9374,18.7432
89.9516,18.7290
89.9664,18.7164
89.9826,18.7046
90.0123,18.6687
90.0162,18.6644
92.6358,16.0448
92.6480,16.0350
92.6479,16.0348
92.6539,16.0298
92.6539,16.0298
92.6848,15.9969
92.7012,15.9794
92.7117,15.9689
92.7221,15.9585
92.7264,15.9530
92.7302,15.9486
92.7621,15.9146
92.7717,15.8970
92.7824,15.8808
92.7947,15.8649
92.8132,15.8222
92.8157,15.8169
92.8382,15.7761
92.8382,15.7761
92.8432,15.7567
92.8495,15.7383
92.8574,15.7199
92.8647,15.6738
92.8659,15.6682
92.8687,15.6573
92.8775,15.6230
92.8775,15.6030
92.8790,15.5836
92.8822,15.5638
92.8778,15.5174
92.8775,15.5116
92.8775,8.3877
92.8792,8.3721
92.8789,8.3721
92.8797,8.3643
92.8797,8.3643
92.8790,8.3417
92.8965,8.2741
92.9479,8.2267
93.0167,8.2146
Z" /> 
<path style="fill:#4D7FC4; fill-opacity:1.0000; 
stroke:#4D7FC4; stroke-width:0.0000; stroke-opacity:1; 
stroke-linecap:round; stroke-linejoin:round;fill-rule:evenodd;"
d="M 8.1197,15.5802
8.1388,15.6010
8.1609,15.6314
8.1641,15.6363
8.1878,15.6764
8.1878,15.6764
8.2020,15.6906
8.2146,15.7054
8.2264,15.7216
8.2264,15.7216
8.2623,15.7513
8.2666,15.7552
10.5210,18.0096
11.2402,18.7288
11.2500,18.7411
11.2502,18.7409
11.2552,18.7469
11.2765,18.7669
11.3056,18.7942
11.3265,18.8151
11.3320,18.8194
11.3364,18.8232
11.3704,18.8551
11.3880,18.8647
11.4042,18.8754
11.4201,18.8877
11.4628,18.9062
11.4681,18.9087
11.5089,18.9312
11.5283,18.9362
11.5467,18.9425
11.5651,18.9504
11.6085,18.9573
11.6111,18.9577
11.6168,18.9589
11.6620,18.9705
11.6820,18.9705
11.7014,18.9720
11.7212,18.9752
11.7212,18.9752
11.7212,18.9752
11.7212,18.9752
11.7676,18.9708
11.7734,18.9705
14.6098,18.9705
14.6768,18.9902
14.7113,19.0234
14.8465,19.2164
15.0136,19.3835
15.1706,19.4934
15.2142,19.5480
15.2214,19.6175
15.1899,19.6799
15.1706,19.6966
15.0136,19.8065
14.8465,19.9736
14.8465,19.9736
14.7110,20.1672
14.7110,20.1672
14.6111,20.3813
14.6111,20.3813
14.5499,20.6096
14.5499,20.6096
14.5293,20.8450
14.5293,20.8450
14.5499,21.0804
14.5499,21.0804
14.6111,21.3087
14.6111,21.3087
14.6111,21.3087
14.6362,21.3624
14.7110,21.5228
14.7110,21.5228
14.8465,21.7164
15.0136,21.8835
15.1706,21.9934
15.2142,22.0480
15.2214,22.1175
15.1899,22.1799
15.1706,22.1966
15.0136,22.3065
14.9291,22.3910
14.8678,22.4244
14.7981,22.4195
14.7422,22.3776
14.7303,22.3581
14.7117,22.3206
14.7095,22.3154
14.6930,22.2726
14.6613,22.2147
14.6439,22.1830
14.6013,22.0966
14.6002,22.0943
14.5746,22.0561
14.5718,22.0514
14.5699,22.0480
14.5482,22.0083
14.4903,21.9298
14.4887,21.9275
14.4363,21.8490
14.4038,21.8120
14.4005,21.8079
14.3825,21.7835
14.3694,21.7658
14.3498,21.7454
14.3039,21.6980
14.3018,21.6957
14.2418,21.6272
14.2023,21.5927
14.1986,21.5891
14.1600,21.5492
14.0885,21.4927
14.0861,21.4907
14.0200,21.4327
13.9737,21.4018
13.9697,21.3989
13.9235,21.3624
13.9087,21.3537
13.8479,21.3177
13.8451,21.3159
13.7747,21.2688
13.7218,21.2428
13.7177,21.2405
13.6643,21.2089
13.6643,21.2089
13.6643,21.2089
13.6346,21.1963
13.5863,21.1758
13.5832,21.1744
13.5101,21.1383
13.4512,21.1184
13.4470,21.1167
13.4082,21.1003
13.3869,21.0913
13.3869,21.0913
13.3869,21.0913
13.3084,21.0698
13.3048,21.0687
13.2307,21.0435
13.2307,21.0435
13.2307,21.0435
13.1666,21.0308
13.1623,21.0298
13.0963,21.0117
13.0963,21.0117
13.0188,21.0012
13.0150,21.0006
12.9680,20.9913
12.9414,20.9860
12.9414,20.9860
12.9414,20.9860
12.8730,20.9815
12.8687,20.9811
12.8343,20.9764
12.7977,20.9715
12.7976,20.9715
12.7227,20.9715
12.7187,20.9714
12.6866,20.9693
12.6470,20.9667
12.6470,20.9667
12.6470,20.9667
12.5989,20.9698
12.5750,20.9714
12.5718,20.9715
12.4982,20.9764
12.3526,20.9860
12.3514,20.9861
12.3475,20.9865
12.3464,20.9866
12.3464,20.9866
12.3464,20.9866
12.2033,21.0157
12.0633,21.0435
12.0633,21.0435
12.0625,21.0438
12.0549,21.0458
12.0511,21.0466
11.9875,21.0687
11.9162,21.0935
11.8704,21.1090
11.7839,21.1383
11.7839,21.1383
11.7803,21.1401
11.7732,21.1431
11.7665,21.1454
11.6418,21.2085
11.5193,21.2688
11.5193,21.2688
11.5133,21.2729
11.5068,21.2766
11.4975,21.2813
11.3849,21.3586
11.3203,21.4018
11.2740,21.4327
11.2662,21.4396
11.2604,21.4441
11.2491,21.4519
11.1502,21.5414
11.0522,21.6272
11.0432,21.6376
11.0382,21.6427
11.0257,21.6540
10.9416,21.7535
10.8577,21.8490
10.8483,21.8631
10.8441,21.8687
10.8311,21.8841
10.8311,21.8841
10.7627,21.9912
10.6938,22.0943
10.6849,22.1124
10.6816,22.1184
10.6690,22.1380
10.6168,22.2505
10.5633,22.3589
10.5633,22.3589
10.5558,22.3811
10.5534,22.3873
10.5422,22.4113
10.5422,22.4114
10.5064,22.5268
10.4685,22.6383
10.4685,22.6383
10.4633,22.6644
10.4617,22.6707
10.4529,22.6991
10.4529,22.6991
10.4333,22.8152
10.4181,22.8920
10.4110,22.9276
10.4110,22.9276
10.4090,22.9574
10.4083,22.9637
10.4028,22.9962
10.3990,23.1108
10.3917,23.2220
10.3938,23.2550
10.3939,23.2612
10.3927,23.2974
10.3927,23.2974
10.4039,23.4083
10.4110,23.5164
10.4110,23.5164
10.4180,23.5520
10.4189,23.5579
10.4229,23.5972
10.4480,23.7025
10.4685,23.8057
10.4685,23.8057
10.4812,23.8432
10.4828,23.8487
10.4927,23.8903
10.4927,23.8903
10.4927,23.8903
10.5305,23.9884
10.5626,24.0828
10.5633,24.0851
10.5823,24.1234
10.5845,24.1286
10.6010,24.1714
10.6010,24.1714
10.6501,24.2609
10.6938,24.3497
10.6938,24.3497
10.7194,24.3879
10.7222,24.3926
10.7458,24.4357
10.7458,24.4357
10.8037,24.5142
10.8053,24.5165
10.8478,24.5801
10.8577,24.5950
10.8866,24.6279
10.8902,24.6320
10.8935,24.6361
10.9246,24.6782
10.9901,24.7460
10.9922,24.7482
11.0522,24.8168
11.0870,24.8473
11.0917,24.8513
11.0954,24.8548
11.1340,24.8948
11.1340,24.8948
11.1590,24.9145
11.2055,24.9513
11.2080,24.9533
11.2402,24.9816
11.2637,25.0022
11.2740,25.0113
11.2740,25.0113
11.3203,25.0422
11.3243,25.0451
11.3705,25.0816
11.3705,25.0816
11.4461,25.1263
11.4489,25.1281
11.5006,25.1627
11.5193,25.1752
11.5362,25.1835
11.5722,25.2012
11.5763,25.2035
11.6105,25.2237
11.6297,25.2351
11.6297,25.2351
11.6297,25.2351
11.7077,25.2682
11.7108,25.2696
11.7839,25.3057
11.8428,25.3256
11.8470,25.3272
11.9071,25.3527
11.9856,25.3742
11.9892,25.3753
12.0633,25.4005
12.1220,25.4122
12.1274,25.4132
12.1317,25.4142
12.1977,25.4323
12.2752,25.4428
12.2790,25.4434
12.3526,25.4580
12.4211,25.4625
12.4252,25.4629
12.4963,25.4725
12.5713,25.4725
12.5753,25.4726
12.6074,25.4747
12.6470,25.4773
12.6470,25.4773
12.6470,25.4773
12.6578,25.4766
12.7191,25.4726
12.7222,25.4725
12.7222,25.4725
12.7958,25.4676
12.9414,25.4580
12.9414,25.4580
12.9425,25.4579
12.9465,25.4575
12.9476,25.4574
13.0907,25.4283
13.2307,25.4005
13.2314,25.4002
13.2390,25.3982
13.2429,25.3974
13.3778,25.3505
13.5101,25.3057
13.5137,25.3039
13.5208,25.3009
13.5275,25.2986
13.6522,25.2356
13.7747,25.1752
13.7807,25.1711
13.7872,25.1674
13.7965,25.1627
13.9090,25.0854
14.0200,25.0113
14.0278,25.0044
14.0336,24.9999
14.0449,24.9921
14.1438,24.9026
14.2418,24.8168
14.2508,24.8064
14.2558,24.8013
14.2683,24.7900
14.3524,24.6905
14.4363,24.5950
14.4457,24.5809
14.4499,24.5753
14.4629,24.5599
14.4629,24.5599
14.5313,24.4528
14.6002,24.3497
14.6091,24.3316
14.6124,24.3256
14.6250,24.3060
14.6489,24.2544
14.6950,24.2019
14.7621,24.1826
14.8290,24.2027
14.8491,24.2190
15.0136,24.3835
15.2072,24.5190
15.2072,24.5190
15.4213,24.6189
15.4213,24.6189
15.4213,24.6189
15.4695,24.6318
15.6496,24.6801
15.8260,24.6955
16.1940,24.6955
16.3704,24.6801
16.5987,24.6189
16.6181,24.6098
16.6872,24.5993
16.7510,24.6279
16.7892,24.6863
16.7945,24.7222
16.7945,24.9145
16.7748,24.9816
16.7582,25.0022
14.8132,26.9472
14.7519,26.9807
14.7255,26.9835
11.2825,26.9835
11.2154,26.9638
11.1948,26.9472
7.9508,23.7032
7.9173,23.6419
7.9145,23.6155
7.9145,15.6739
7.9342,15.6069
7.9870,15.5611
8.0561,15.5512
Z" /> 
</g>
</g>
</g>
<g style="fill:#FFFFFF; fill-opacity:1.0000; 
stroke:#FFFFFF; stroke-width:0.0000; stroke-opacity:1; 
stroke-linecap:round; stroke-linejoin:round;">
<circle cx="47.0400" cy="2.5900" r="0.5500" /> 
</g>
<g style="fill:#FFFFFF; fill-opacity:1.0000; 
stroke:#FFFFFF; stroke-width:0.0212; stroke-opacity:1; 
stroke-linecap:round; stroke-linejoin:round;">
</g>
<g style="fill:#FFFFFF; fill-opacity:1.0000; 
stroke:#FFFFFF; stroke-width:0.0000; stroke-opacity:1; 
stroke-linecap:round; stroke-linejoin:round;">
<circle cx="54.0400" cy="2.5900" r="0.5500" /> 
</g>
<g style="fill:#FFFFFF; fill-opacity:1.0000; 
stroke:#FFFFFF; stroke-width:0.0212; stroke-opacity:1; 
stroke-linecap:round; stroke-linejoin:round;">
</g>
<g style="fill:#FFFFFF; fill-opacity:1.0000; 
stroke:#FFFFFF; stroke-width:0.0000; stroke-opacity:1; 
stroke-linecap:round; stroke-linejoin:round;">
<circle cx="47.0400" cy="6.8900" r="0.5500" /> 
</g>
<g style="fill:#FFFFFF; fill-opacity:1.0000; 
stroke:#FFFFFF; stroke-width:0.0212; stroke-opacity:1; 
stroke-linecap:round; stroke-linejoin:round;">
</g>
<g style="fill:#FFFFFF; fill-opacity:1.0000; 
stroke:#FFFFFF; stroke-width:0.0000; stroke-opacity:1; 
stroke-linecap:round; stroke-linejoin:round;">
<circle cx="54.0400" cy="6.8900" r="0.5500" /> 
</g>
<g style="fill:#FFFFFF; fill-opacity:1.0000; 
stroke:#FFFFFF; stroke-width:0.0212; stroke-opacity:1; 
stroke-linecap:round; stroke-linejoin:round;">
</g>
<g style="fill:#FFFFFF; fill-opacity:1.0000; 
stroke:#FFFFFF; stroke-width:0.0000; stroke-opacity:1; 
stroke-linecap:round; stroke-linejoin:round;">
<circle cx="88.7570" cy="13.4020" r="1.7500" /> 
</g>
<g style="fill:#FFFFFF; fill-opacity:1.0000; 
stroke:#FFFFFF; stroke-width:0.0212; stroke-opacity:1; 
stroke-linecap:round; stroke-linejoin:round;">
</g>
<g style="fill:#FFFFFF; fill-opacity:1.0000; 
stroke:#FFFFFF; stroke-width:0.0000; stroke-opacity:1; 
stroke-linecap:round; stroke-linejoin:round;">
<circle cx="24.2306" cy="48.9450" r="0.5000" /> 
</g>
<g style="fill:#FFFFFF; fill-opacity:1.0000; 
stroke:#FFFFFF; stroke-width:0.0212; stroke-opacity:1; 
stroke-linecap:round; stroke-linejoin:round;">
</g>
<g style="fill:#FFFFFF; fill-opacity:1.0000; 
stroke:#FFFFFF; stroke-width:0.0000; stroke-opacity:1; 
stroke-linecap:round; stroke-linejoin:round;">
<circle cx="17.9998" cy="48.9450" r="0.5000" /> 
</g>
<g style="fill:#FFFFFF; fill-opacity:1.0000; 
stroke:#FFFFFF; stroke-width:0.0212; stroke-opacity:1; 
stroke-linecap:round; stroke-linejoin:round;">
</g>
<g style="fill:#FFFFFF; fill-opacity:1.0000; 
stroke:#FFFFFF; stroke-width:0.0000; stroke-opacity:1; 
stroke-linecap:round; stroke-linejoin:round;">
<circle cx="4.4950" cy="57.4400" r="2.2000" /> 
</g>
<g style="fill:#FFFFFF; fill-opacity:1.0000; 
stroke:#FFFFFF; stroke-width:0.0212; stroke-opacity:1; 
stroke-linecap:round; stroke-linejoin:round;">
</g>
<g style="fill:#FFFFFF; fill-opacity:1.0000; 
stroke:#FFFFFF; stroke-width:0.0000; stroke-opacity:1; 
stroke-linecap:round; stroke-linejoin:round;">
<circle cx="2.6980" cy="35.8930" r="0.6000" /> 
</g>
<g style="fill:#FFFFFF; fill-opacity:1.0000; 
stroke:#FFFFFF; stroke-width:0.0212; stroke-opacity:1; 
stroke-linecap:round; stroke-linejoin:round;">
</g>
<g style="fill:#FFFFFF; fill-opacity:1.0000; 
stroke:#FFFFFF; stroke-width:0.0000; stroke-opacity:1; 
stroke-linecap:round; stroke-linejoin:round;">
<circle cx="2.6980" cy="44.1530" r="0.6000" /> 
</g>
<g style="fill:#FFFFFF; fill-opacity:1.0000; 
stroke:#FFFFFF; stroke-width:0.0212; stroke-opacity:1; 
stroke-linecap:round; stroke-linejoin:round;">
</g>
<g style="fill:#FFFFFF; fill-opacity:1.0000; 
stroke:#FFFFFF; stroke-width:0.0000; stroke-opacity:1; 
stroke-linecap:round; stroke-linejoin:round;">
<circle cx="2.6980" cy="38.0230" r="0.5000" /> 
</g>
<g style="fill:#FFFFFF; fill-opacity:1.0000; 
stroke:#FFFFFF; stroke-width:0.0212; stroke-opacity:1; 
stroke-linecap:round; stroke-linejoin:round;">
</g>
<g style="fill:#FFFFFF; fill-opacity:1.0000; 
stroke:#FFFFFF; stroke-width:0.0000; stroke-opacity:1; 
stroke-linecap:round; stroke-linejoin:round;">
<circle cx="2.6980" cy="40.0230" r="0.5000" /> 
</g>
<g style="fill:#FFFFFF; fill-opacity:1.0000; 
stroke:#FFFFFF; stroke-width:0.0212; stroke-opacity:1; 
stroke-linecap:round; stroke-linejoin:round;">
</g>
<g style="fill:#FFFFFF; fill-opacity:1.0000; 
stroke:#FFFFFF; stroke-width:0.0000; stroke-opacity:1; 
stroke-linecap:round; stroke-linejoin:round;">
<circle cx="2.6980" cy="42.0230" r="0.5000" /> 
</g>
<g style="fill:#FFFFFF; fill-opacity:1.0000; 
stroke:#FFFFFF; stroke-width:0.0212; stroke-opacity:1; 
stroke-linecap:round; stroke-linejoin:round;">
</g>
<g style="fill:#FFFFFF; fill-opacity:1.0000; 
stroke:#FFFFFF; stroke-width:0.0000; stroke-opacity:1; 
stroke-linecap:round; stroke-linejoin:round;">
<circle cx="57.7080" cy="56.2470" r="0.5000" /> 
</g>
<g style="fill:#FFFFFF; fill-opacity:1.0000; 
stroke:#FFFFFF; stroke-width:0.0212; stroke-opacity:1; 
stroke-linecap:round; stroke-linejoin:round;">
</g>
<g style="fill:#FFFFFF; fill-opacity:1.0000; 
stroke:#FFFFFF; stroke-width:0.0000; stroke-opacity:1; 
stroke-linecap:round; stroke-linejoin:round;">
<circle cx="57.7080" cy="53.7070" r="0.5000" /> 
</g>
<g style="fill:#FFFFFF; fill-opacity:1.0000; 
stroke:#FFFFFF; stroke-width:0.0212; stroke-opacity:1; 
stroke-linecap:round; stroke-linejoin:round;">
</g>
<g style="fill:#FFFFFF; fill-opacity:1.0000; 
stroke:#FFFFFF; stroke-width:0.0000; stroke-opacity:1; 
stroke-linecap:round; stroke-linejoin:round;">
<circle cx="57.7080" cy="51.1670" r="0.5000" /> 
</g>
<g style="fill:#FFFFFF; fill-opacity:1.0000; 
stroke:#FFFFFF; stroke-width:0.0212; stroke-opacity:1; 
stroke-linecap:round; stroke-linejoin:round;">
</g>
<g style="fill:#FFFFFF; fill-opacity:1.0000; 
stroke:#FFFFFF; stroke-width:0.0000; stroke-opacity:1; 
stroke-linecap:round; stroke-linejoin:round;">
<circle cx="57.7080" cy="48.6270" r="0.5000" /> 
</g>
<g style="fill:#FFFFFF; fill-opacity:1.0000; 
stroke:#FFFFFF; stroke-width:0.0212; stroke-opacity:1; 
stroke-linecap:round; stroke-linejoin:round;">
</g>
<g style="fill:#FFFFFF; fill-opacity:1.0000; 
stroke:#FFFFFF; stroke-width:0.0000; stroke-opacity:1; 
stroke-linecap:round; stroke-linejoin:round;">
<circle cx="57.7080" cy="46.0870" r="0.5000" /> 
</g>
<g style="fill:#FFFFFF; fill-opacity:1.0000; 
stroke:#FFFFFF; stroke-width:0.0212; stroke-opacity:1; 
stroke-linecap:round; stroke-linejoin:round;">
</g>
<g style="fill:#FFFFFF; fill-opacity:1.0000; 
stroke:#FFFFFF; stroke-width:0.0000; stroke-opacity:1; 
stroke-linecap:round; stroke-linejoin:round;">
<circle cx="57.7080" cy="43.5470" r="0.5000" /> 
</g>
<g style="fill:#FFFFFF; fill-opacity:1.0000; 
stroke:#FFFFFF; stroke-width:0.0212; stroke-opacity:1; 
stroke-linecap:round; stroke-linejoin:round;">
</g>
<g style="fill:#FFFFFF; fill-opacity:1.0000; 
stroke:#FFFFFF; stroke-width:0.0000; stroke-opacity:1; 
stroke-linecap:round; stroke-linejoin:round;">
<circle cx="57.7080" cy="41.0070" r="0.5000" /> 
</g>
<g style="fill:#FFFFFF; fill-opacity:1.0000; 
stroke:#FFFFFF; stroke-width:0.0212; stroke-opacity:1; 
stroke-linecap:round; stroke-linejoin:round;">
</g>
<g style="fill:#FFFFFF; fill-opacity:1.0000; 
stroke:#FFFFFF; stroke-width:0.0000; stroke-opacity:1; 
stroke-linecap:round; stroke-linejoin:round;">
<circle cx="57.7080" cy="38.4670" r="0.5000" /> 
</g>
<g style="fill:#FFFFFF; fill-opacity:1.0000; 
stroke:#FFFFFF; stroke-width:0.0212; stroke-opacity:1; 
stroke-linecap:round; stroke-linejoin:round;">
</g>
<g style="fill:#FFFFFF; fill-opacity:1.0000; 
stroke:#FFFFFF; stroke-width:0.0000; stroke-opacity:1; 
stroke-linecap:round; stroke-linejoin:round;">
<circle cx="96.5700" cy="57.4400" r="2.2000" /> 
</g>
<g style="fill:#FFFFFF; fill-opacity:1.0000; 
stroke:#FFFFFF; stroke-width:0.0212; stroke-opacity:1; 
stroke-linecap:round; stroke-linejoin:round;">
</g>
<g style="fill:#FFFFFF; fill-opacity:1.0000; 
stroke:#FFFFFF; stroke-width:0.0000; stroke-opacity:1; 
stroke-linecap:round; stroke-linejoin:round;">
<circle cx="96.5700" cy="4.4950" r="2.2000" /> 
</g>
<g style="fill:#FFFFFF; fill-opacity:1.0000; 
stroke:#FFFFFF; stroke-width:0.0212; stroke-opacity:1; 
stroke-linecap:round; stroke-linejoin:round;">
</g>
<g style="fill:#FFFFFF; fill-opacity:1.0000; 
stroke:#FFFFFF; stroke-width:0.0000; stroke-opacity:1; 
stroke-linecap:round; stroke-linejoin:round;">
<circle cx="42.7080" cy="56.2470" r="0.5000" /> 
</g>
<g style="fill:#FFFFFF; fill-opacity:1.0000; 
stroke:#FFFFFF; stroke-width:0.0212; stroke-opacity:1; 
stroke-linecap:round; stroke-linejoin:round;">
</g>
<g style="fill:#FFFFFF; fill-opacity:1.0000; 
stroke:#FFFFFF; stroke-width:0.0000; stroke-opacity:1; 
stroke-linecap:round; stroke-linejoin:round;">
<circle cx="42.7080" cy="53.7070" r="0.5000" /> 
</g>
<g style="fill:#FFFFFF; fill-opacity:1.0000; 
stroke:#FFFFFF; stroke-width:0.0212; stroke-opacity:1; 
stroke-linecap:round; stroke-linejoin:round;">
</g>
<g style="fill:#FFFFFF; fill-opacity:1.0000; 
stroke:#FFFFFF; stroke-width:0.0000; stroke-opacity:1; 
stroke-linecap:round; stroke-linejoin:round;">
<circle cx="42.7080" cy="51.1670" r="0.5000" /> 
</g>
<g style="fill:#FFFFFF; fill-opacity:1.0000; 
stroke:#FFFFFF; stroke-width:0.0212; stroke-opacity:1; 
stroke-linecap:round; stroke-linejoin:round;">
</g>
<g style="fill:#FFFFFF; fill-opacity:1.0000; 
stroke:#FFFFFF; stroke-width:0.0000; stroke-opacity:1; 
stroke-linecap:round; stroke-linejoin:round;">
<circle cx="42.7080" cy="48.6270" r="0.5000" /> 
</g>
<g style="fill:#FFFFFF; fill-opacity:1.0000; 
stroke:#FFFFFF; stroke-width:0.0212; stroke-opacity:1; 
stroke-linecap:round; stroke-linejoin:round;">
</g>
<g style="fill:#FFFFFF; fill-opacity:1.0000; 
stroke:#FFFFFF; stroke-width:0.0000; stroke-opacity:1; 
stroke-linecap:round; stroke-linejoin:round;">
<circle cx="42.7080" cy="46.0870" r="0.5000" /> 
</g>
<g style="fill:#FFFFFF; fill-opacity:1.0000; 
stroke:#FFFFFF; stroke-width:0.0212; stroke-opacity:1; 
stroke-linecap:round; stroke-linejoin:round;">
</g>
<g style="fill:#FFFFFF; fill-opacity:1.0000; 
stroke:#FFFFFF; stroke-width:0.0000; stroke-opacity:1; 
stroke-linecap:round; stroke-linejoin:round;">
<circle cx="42.7080" cy="43.5470" r="0.5000" /> 
</g>
<g style="fill:#FFFFFF; fill-opacity:1.0000; 
stroke:#FFFFFF; stroke-width:0.0212; stroke-opacity:1; 
stroke-linecap:round; stroke-linejoin:round;">
</g>
<g style="fill:#FFFFFF; fill-opacity:1.0000; 
stroke:#FFFFFF; stroke-width:0.0000; stroke-opacity:1; 
stroke-linecap:round; stroke-linejoin:round;">
<circle cx="42.7080" cy="41.0070" r="0.5000" /> 
</g>
<g style="fill:#FFFFFF; fill-opacity:1.0000; 
stroke:#FFFFFF; stroke-width:0.0212; stroke-opacity:1; 
stroke-linecap:round; stroke-linejoin:round;">
</g>
<g style="fill:#FFFFFF; fill-opacity:1.0000; 
stroke:#FFFFFF; stroke-width:0.0000; stroke-opacity:1; 
stroke-linecap:round; stroke-linejoin:round;">
<circle cx="42.7080" cy="38.4670" r="0.5000" /> 
</g>
<g style="fill:#FFFFFF; fill-opacity:1.0000; 
stroke:#FFFFFF; stroke-width:0.0212; stroke-opacity:1; 
stroke-linecap:round; stroke-linejoin:round;">
</g>
<g style="fill:#FFFFFF; fill-opacity:1.0000; 
stroke:#FFFFFF; stroke-width:0.0000; stroke-opacity:1; 
stroke-linecap:round; stroke-linejoin:round;">
<circle cx="12.6470" cy="23.2220" r="1.7500" /> 
</g>
<g style="fill:#FFFFFF; fill-opacity:1.0000; 
stroke:#FFFFFF; stroke-width:0.0212; stroke-opacity:1; 
stroke-linecap:round; stroke-linejoin:round;">
</g>
<g style="fill:#FFFFFF; fill-opacity:1.0000; 
stroke:#FFFFFF; stroke-width:0.0000; stroke-opacity:1; 
stroke-linecap:round; stroke-linejoin:round;">
<circle cx="88.7570" cy="23.2220" r="1.7500" /> 
</g>
<g style="fill:#FFFFFF; fill-opacity:1.0000; 
stroke:#FFFFFF; stroke-width:0.0212; stroke-opacity:1; 
stroke-linecap:round; stroke-linejoin:round;">
</g>
<g style="fill:#FFFFFF; fill-opacity:1.0000; 
stroke:#FFFFFF; stroke-width:0.0000; stroke-opacity:1; 
stroke-linecap:round; stroke-linejoin:round;">
<circle cx="12.6470" cy="13.4020" r="1.7500" /> 
</g>
<g style="fill:#FFFFFF; fill-opacity:1.0000; 
stroke:#FFFFFF; stroke-width:0.0212; stroke-opacity:1; 
stroke-linecap:round; stroke-linejoin:round;">
</g>
<g style="fill:#FFFFFF; fill-opacity:1.0000; 
stroke:#FFFFFF; stroke-width:0.0000; stroke-opacity:1; 
stroke-linecap:round; stroke-linejoin:round;">
<circle cx="4.4950" cy="4.4950" r="2.2000" /> 
</g>
<g style="fill:#FFFFFF; fill-opacity:1.0000; 
stroke:#FFFFFF; stroke-width:0.0212; stroke-opacity:1; 
stroke-linecap:round; stroke-linejoin:round;">
</g>
<g style="fill:#FFFFFF; fill-opacity:1.0000; 
stroke:#FFFFFF; stroke-width:0.0000; stroke-opacity:1; 
stroke-linecap:round; stroke-linejoin:round;">
<circle cx="83.7750" cy="13.2450" r="0.4750" /> 
</g>
<g style="fill:#FFFFFF; fill-opacity:1.0000; 
stroke:#FFFFFF; stroke-width:0.0212; stroke-opacity:1; 
stroke-linecap:round; stroke-linejoin:round;">
</g>
<g style="fill:#FFFFFF; fill-opacity:1.0000; 
stroke:#FFFFFF; stroke-width:0.0000; stroke-opacity:1; 
stroke-linecap:round; stroke-linejoin:round;">
<circle cx="83.7750" cy="15.7450" r="0.4750" /> 
</g>
<g style="fill:#FFFFFF; fill-opacity:1.0000; 
stroke:#FFFFFF; stroke-width:0.0212; stroke-opacity:1; 
stroke-linecap:round; stroke-linejoin:round;">
</g>
<g style="fill:#FFFFFF; fill-opacity:1.0000; 
stroke:#FFFFFF; stroke-width:0.0000; stroke-opacity:1; 
stroke-linecap:round; stroke-linejoin:round;">
<circle cx="83.7750" cy="18.2450" r="0.4750" /> 
</g>
<g style="fill:#FFFFFF; fill-opacity:1.0000; 
stroke:#FFFFFF; stroke-width:0.0212; stroke-opacity:1; 
stroke-linecap:round; stroke-linejoin:round;">
</g>
<g style="fill:#FFFFFF; fill-opacity:1.0000; 
stroke:#FFFFFF; stroke-width:0.0000; stroke-opacity:1; 
stroke-linecap:round; stroke-linejoin:round;">
<circle cx="83.7750" cy="20.7450" r="0.4750" /> 
</g>
<g style="fill:#FFFFFF; fill-opacity:1.0000; 
stroke:#FFFFFF; stroke-width:0.0212; stroke-opacity:1; 
stroke-linecap:round; stroke-linejoin:round;">
</g>
<g style="fill:#FFFFFF; fill-opacity:1.0000; 
stroke:#FFFFFF; stroke-width:0.0000; stroke-opacity:1; 
stroke-linecap:round; stroke-linejoin:round;">
<circle cx="83.7750" cy="23.2450" r="0.4750" /> 
</g>
<g style="fill:#FFFFFF; fill-opacity:1.0000; 
stroke:#FFFFFF; stroke-width:0.0212; stroke-opacity:1; 
stroke-linecap:round; stroke-linejoin:round;">
</g>
<g style="fill:#FFFFFF; fill-opacity:1.0000; 
stroke:#FFFFFF; stroke-width:0.0000; stroke-opacity:1; 
stroke-linecap:round; stroke-linejoin:round;">
<circle cx="16.0100" cy="13.3450" r="0.4750" /> 
</g>
<g style="fill:#FFFFFF; fill-opacity:1.0000; 
stroke:#FFFFFF; stroke-width:0.0212; stroke-opacity:1; 
stroke-linecap:round; stroke-linejoin:round;">
</g>
<g style="fill:#FFFFFF; fill-opacity:1.0000; 
stroke:#FFFFFF; stroke-width:0.0000; stroke-opacity:1; 
stroke-linecap:round; stroke-linejoin:round;">
<circle cx="16.0100" cy="15.8450" r="0.4750" /> 
</g>
<g style="fill:#FFFFFF; fill-opacity:1.0000; 
stroke:#FFFFFF; stroke-width:0.0212; stroke-opacity:1; 
stroke-linecap:round; stroke-linejoin:round;">
</g>
<g style="fill:#FFFFFF; fill-opacity:1.0000; 
stroke:#FFFFFF; stroke-width:0.0000; stroke-opacity:1; 
stroke-linecap:round; stroke-linejoin:round;">
<circle cx="16.0100" cy="18.3450" r="0.4750" /> 
</g>
<g style="fill:#FFFFFF; fill-opacity:1.0000; 
stroke:#FFFFFF; stroke-width:0.0212; stroke-opacity:1; 
stroke-linecap:round; stroke-linejoin:round;">
</g>
<g style="fill:#FFFFFF; fill-opacity:1.0000; 
stroke:#FFFFFF; stroke-width:0.0000; stroke-opacity:1; 
stroke-linecap:round; stroke-linejoin:round;">
<circle cx="16.0100" cy="20.8450" r="0.4750" /> 
</g>
<g style="fill:#FFFFFF; fill-opacity:1.0000; 
stroke:#FFFFFF; stroke-width:0.0212; stroke-opacity:1; 
stroke-linecap:round; stroke-linejoin:round;">
</g>
<g style="fill:#FFFFFF; fill-opacity:1.0000; 
stroke:#FFFFFF; stroke-width:0.0000; stroke-opacity:1; 
stroke-linecap:round; stroke-linejoin:round;">
<circle cx="16.0100" cy="23.3450" r="0.4750" /> 
</g>
<g style="fill:#FFFFFF; fill-opacity:1.0000; 
stroke:#FFFFFF; stroke-width:0.0212; stroke-opacity:1; 
stroke-linecap:round; stroke-linejoin:round;">
</g>
<g style="fill:#000000; fill-opacity:1.0000; 
stroke:#000000; stroke-width:0.0212; stroke-opacity:1; 
stroke-linecap:round; stroke-linejoin:round;">
</g>
<g style="fill:#D0D2CD; fill-opacity:1.0000; 
stroke:#D0D2CD; stroke-width:0.0212; stroke-opacity:1; 
stroke-linecap:round; stroke-linejoin:round;">
</g>
<g style="fill:#D0D2CD; fill-opacity:1.0000; 
stroke:#D0D2CD; stroke-width:0.1000; stroke-opacity:1; 
stroke-linecap:round; stroke-linejoin:round;">
</g>
<g style="fill:#D0D2CD; fill-opacity:0.0; 
stroke:#D0D2CD; stroke-width:0.1000; stroke-opacity:1; 
stroke-linecap:round; stroke-linejoin:round;">
<path d="M0.0500 4.4950
L0.0500 57.7400
" />
<path d="M4.4950 62.1850
L96.5700 62.1850
" />
<path d="M0.0500 57.7400 A4.4450 4.4450 0.0 0 0 4.4950 62.1850" />
<path d="M96.5700 0.0500
L4.4950 0.0500
" />
<path d="M96.5700 62.1850 A4.4450 4.4450 0.0 0 0 101.0150 57.7400" />
<path d="M101.0150 57.7400
L101.0150 4.4950
" />
<path d="M101.0150 4.4950 A4.4450 4.4450 0.0 0 0 96.5700 0.0500" />
<path d="M4.4950 0.0500 A4.4450 4.4450 0.0 0 0 0.0500 4.4950" />
<g >
</g>
<g >
</g>
<g >
</g>
<g >
</g>
<g >
</g>
<g >
</g>
<g >
</g>
<g >
</g>
<g >
</g>
<g >
</g>
<g >
</g>
<g >
</g>
<g >
</g>
<g >
</g>
<g >
</g>
<g >
</g>
<g >
</g>
<g >
</g>
</g> 
</svg>
