%TF.GenerationSoftware,KiCad,Pcbnew,7.0.6-0*%
%TF.CreationDate,2023-12-05T18:44:41+00:00*%
%TF.ProjectId,Bitko clock,4269746b-6f20-4636-9c6f-636b2e6b6963,rev?*%
%TF.SameCoordinates,Original*%
%TF.FileFunction,Copper,L1,Top*%
%TF.FilePolarity,Positive*%
%FSLAX46Y46*%
G04 Gerber Fmt 4.6, Leading zero omitted, Abs format (unit mm)*
G04 Created by KiCad (PCBNEW 7.0.6-0) date 2023-12-05 18:44:41*
%MOMM*%
%LPD*%
G01*
G04 APERTURE LIST*
G04 Aperture macros list*
%AMRoundRect*
0 Rectangle with rounded corners*
0 $1 Rounding radius*
0 $2 $3 $4 $5 $6 $7 $8 $9 X,Y pos of 4 corners*
0 Add a 4 corners polygon primitive as box body*
4,1,4,$2,$3,$4,$5,$6,$7,$8,$9,$2,$3,0*
0 Add four circle primitives for the rounded corners*
1,1,$1+$1,$2,$3*
1,1,$1+$1,$4,$5*
1,1,$1+$1,$6,$7*
1,1,$1+$1,$8,$9*
0 Add four rect primitives between the rounded corners*
20,1,$1+$1,$2,$3,$4,$5,0*
20,1,$1+$1,$4,$5,$6,$7,0*
20,1,$1+$1,$6,$7,$8,$9,0*
20,1,$1+$1,$8,$9,$2,$3,0*%
G04 Aperture macros list end*
%TA.AperFunction,ComponentPad*%
%ADD10C,2.000000*%
%TD*%
%TA.AperFunction,ComponentPad*%
%ADD11R,2.000000X2.000000*%
%TD*%
%TA.AperFunction,ComponentPad*%
%ADD12O,1.900000X1.900000*%
%TD*%
%TA.AperFunction,ComponentPad*%
%ADD13O,1.700000X1.700000*%
%TD*%
%TA.AperFunction,ComponentPad*%
%ADD14R,1.700000X1.700000*%
%TD*%
%TA.AperFunction,ComponentPad*%
%ADD15C,3.500000*%
%TD*%
%TA.AperFunction,ComponentPad*%
%ADD16C,4.400000*%
%TD*%
%TA.AperFunction,ComponentPad*%
%ADD17C,1.700000*%
%TD*%
%TA.AperFunction,ComponentPad*%
%ADD18RoundRect,0.250000X-0.725000X0.600000X-0.725000X-0.600000X0.725000X-0.600000X0.725000X0.600000X0*%
%TD*%
%TA.AperFunction,ComponentPad*%
%ADD19O,1.950000X1.700000*%
%TD*%
%TA.AperFunction,Conductor*%
%ADD20C,0.250000*%
%TD*%
G04 APERTURE END LIST*
D10*
%TO.P,BRRRR,2*%
%TO.N,N/C*%
X41444785Y-81915000D03*
D11*
%TO.P,BRRRR,1*%
X47675585Y-81915000D03*
%TD*%
D10*
%TO.P,MODE,2*%
%TO.N,N/C*%
X77485000Y-39860000D03*
X70485000Y-39860000D03*
%TO.P,MODE,1*%
X77485000Y-35560000D03*
X70485000Y-35560000D03*
%TD*%
D12*
%TO.P,BUZZ KILL SWITCH, *%
%TO.N,N/C*%
X26143000Y-77123000D03*
D13*
%TO.P,BUZZ KILL SWITCH,3*%
X26143000Y-74993000D03*
%TO.P,BUZZ KILL SWITCH,2*%
X26143000Y-72993000D03*
D14*
%TO.P,BUZZ KILL SWITCH,1*%
X26143000Y-70993000D03*
D12*
%TO.P,BUZZ KILL SWITCH, *%
X26143000Y-68863000D03*
%TD*%
D15*
%TO.P,REF\u002A\u002A,1*%
%TO.N,N/C*%
X112202000Y-46372000D03*
%TD*%
D16*
%TO.P,REF\u002A\u002A,1*%
%TO.N,N/C*%
X27940000Y-92710000D03*
%TD*%
D17*
%TO.P,REF\u002A\u002A,1*%
%TO.N,N/C*%
X81153000Y-89217000D03*
D13*
%TO.P,REF\u002A\u002A,2*%
X81153000Y-86677000D03*
%TO.P,REF\u002A\u002A,3*%
X81153000Y-84137000D03*
%TO.P,REF\u002A\u002A,4*%
X81153000Y-81597000D03*
%TO.P,REF\u002A\u002A,5*%
X81153000Y-79057000D03*
%TO.P,REF\u002A\u002A,6*%
X81153000Y-76517000D03*
%TO.P,REF\u002A\u002A,7*%
X81153000Y-73977000D03*
%TO.P,REF\u002A\u002A,8*%
X81153000Y-71437000D03*
%TD*%
D16*
%TO.P,REF\u002A\u002A,1*%
%TO.N,N/C*%
X120015000Y-92710000D03*
%TD*%
%TO.P,REF\u002A\u002A,1*%
%TO.N,N/C*%
X120015000Y-37465000D03*
%TD*%
D17*
%TO.P,REF\u002A\u002A,1*%
%TO.N,N/C*%
X66153000Y-89217000D03*
D13*
%TO.P,REF\u002A\u002A,2*%
X66153000Y-86677000D03*
%TO.P,REF\u002A\u002A,3*%
X66153000Y-84137000D03*
%TO.P,REF\u002A\u002A,4*%
X66153000Y-81597000D03*
%TO.P,REF\u002A\u002A,5*%
X66153000Y-79057000D03*
%TO.P,REF\u002A\u002A,6*%
X66153000Y-76517000D03*
%TO.P,REF\u002A\u002A,7*%
X66153000Y-73977000D03*
%TO.P,REF\u002A\u002A,8*%
X66153000Y-71437000D03*
%TD*%
D15*
%TO.P,,1*%
%TO.N,N/C*%
X36092000Y-56192000D03*
%TD*%
%TO.P,,1*%
%TO.N,N/C*%
X112202000Y-56192000D03*
%TD*%
%TO.P,REF\u002A\u002A,1*%
%TO.N,N/C*%
X36092000Y-46372000D03*
%TD*%
D16*
%TO.P,REF\u002A\u002A,1*%
%TO.N,N/C*%
X27940000Y-37465000D03*
%TD*%
D18*
%TO.P,JST_XH_B5B-XH-A_1x05,1*%
%TO.N,N/C*%
X107220000Y-46215000D03*
D19*
%TO.P,JST_XH_B5B-XH-A_1x05,2*%
X107220000Y-48715000D03*
%TO.P,JST_XH_B5B-XH-A_1x05,3*%
X107220000Y-51215000D03*
%TO.P,JST_XH_B5B-XH-A_1x05,4*%
X107220000Y-53715000D03*
%TO.P,JST_XH_B5B-XH-A_1x05,5*%
X107220000Y-56215000D03*
%TD*%
D18*
%TO.P,JST_XH_B5B-XH-A_1x05,1*%
%TO.N,N/C*%
X39455000Y-46315000D03*
D19*
%TO.P,JST_XH_B5B-XH-A_1x05,2*%
X39455000Y-48815000D03*
%TO.P,JST_XH_B5B-XH-A_1x05,3*%
X39455000Y-51315000D03*
%TO.P,JST_XH_B5B-XH-A_1x05,4*%
X39455000Y-53815000D03*
%TO.P,JST_XH_B5B-XH-A_1x05,5*%
X39455000Y-56315000D03*
%TD*%
D20*
%TO.N,*%
X32766000Y-51562000D02*
X37202000Y-51562000D01*
X37202000Y-51562000D02*
X39455000Y-53815000D01*
X40865000Y-46315000D02*
X39455000Y-46315000D01*
X66153000Y-76517000D02*
X62801000Y-76517000D01*
X62801000Y-76517000D02*
X52070000Y-65786000D01*
X52070000Y-65786000D02*
X52070000Y-53086000D01*
X52070000Y-53086000D02*
X50299000Y-51315000D01*
X50299000Y-51315000D02*
X39455000Y-51315000D01*
X66153000Y-81597000D02*
X64960000Y-81597000D01*
X64960000Y-81597000D02*
X44196000Y-60833000D01*
X44196000Y-56515000D02*
X43996000Y-56315000D01*
X44196000Y-60833000D02*
X44196000Y-56515000D01*
X43996000Y-56315000D02*
X39455000Y-56315000D01*
X34925000Y-35560000D02*
X70485000Y-35560000D01*
X81153000Y-76517000D02*
X81216000Y-76454000D01*
X81216000Y-76454000D02*
X85344000Y-76454000D01*
X85344000Y-76454000D02*
X86995000Y-78105000D01*
X86995000Y-92075000D02*
X83947000Y-95123000D01*
X86995000Y-78105000D02*
X86995000Y-92075000D01*
X83947000Y-95123000D02*
X35433000Y-95123000D01*
X35433000Y-95123000D02*
X24257000Y-83947000D01*
X24257000Y-83947000D02*
X24257000Y-46228000D01*
X24257000Y-46228000D02*
X34925000Y-35560000D01*
X49149000Y-81915000D02*
X48085585Y-81915000D01*
X32766000Y-51562000D02*
X30988000Y-53340000D01*
X52578000Y-92583000D02*
X77787000Y-92583000D01*
X44323000Y-79375000D02*
X44323000Y-84328000D01*
X44323000Y-84328000D02*
X52578000Y-92583000D01*
X30988000Y-53340000D02*
X30988000Y-66040000D01*
X30988000Y-66040000D02*
X44323000Y-79375000D01*
X77787000Y-92583000D02*
X81153000Y-89217000D01*
X32766000Y-51562000D02*
X30734000Y-49530000D01*
X30734000Y-49530000D02*
X30734000Y-43561000D01*
X30734000Y-43561000D02*
X31877000Y-42418000D01*
X114808000Y-42418000D02*
X116840000Y-44450000D01*
X31877000Y-42418000D02*
X114808000Y-42418000D01*
X116840000Y-44450000D02*
X116840000Y-50292000D01*
X116840000Y-50292000D02*
X114681000Y-52451000D01*
X114681000Y-52451000D02*
X109728000Y-52451000D01*
X109728000Y-52451000D02*
X108464000Y-53715000D01*
X108464000Y-53715000D02*
X107220000Y-53715000D01*
X49149000Y-81915000D02*
X58674000Y-91440000D01*
X58674000Y-91440000D02*
X71628000Y-91440000D01*
X77597000Y-85471000D02*
X77597000Y-75184000D01*
X71628000Y-91440000D02*
X77597000Y-85471000D01*
X77597000Y-75184000D02*
X78804000Y-73977000D01*
X78804000Y-73977000D02*
X81153000Y-73977000D01*
X73025000Y-46101000D02*
X41079000Y-46101000D01*
X70676000Y-89217000D02*
X66153000Y-89217000D01*
X107106000Y-46101000D02*
X73025000Y-46101000D01*
X73025000Y-46101000D02*
X73025000Y-86868000D01*
X73025000Y-86868000D02*
X70676000Y-89217000D01*
X107220000Y-46215000D02*
X107106000Y-46101000D01*
X41079000Y-46101000D02*
X40865000Y-46315000D01*
%TD*%
%TA.AperFunction,NonConductor*%
G36*
X114564587Y-43063185D02*
G01*
X114585228Y-43079818D01*
X116178181Y-44672772D01*
X116211665Y-44734093D01*
X116214499Y-44760451D01*
X116214499Y-49981547D01*
X116194814Y-50048586D01*
X116178180Y-50069228D01*
X114458228Y-51789181D01*
X114396905Y-51822666D01*
X114370547Y-51825500D01*
X109810743Y-51825500D01*
X109795122Y-51823775D01*
X109795096Y-51824061D01*
X109787334Y-51823327D01*
X109787333Y-51823327D01*
X109718186Y-51825500D01*
X109688649Y-51825500D01*
X109681766Y-51826369D01*
X109675949Y-51826826D01*
X109629373Y-51828290D01*
X109610129Y-51833881D01*
X109591079Y-51837825D01*
X109571211Y-51840334D01*
X109527884Y-51857488D01*
X109522358Y-51859379D01*
X109477614Y-51872379D01*
X109477610Y-51872381D01*
X109460366Y-51882579D01*
X109442905Y-51891133D01*
X109424274Y-51898510D01*
X109424262Y-51898517D01*
X109386570Y-51925902D01*
X109381687Y-51929109D01*
X109341580Y-51952829D01*
X109327414Y-51966995D01*
X109312624Y-51979627D01*
X109296414Y-51991404D01*
X109296411Y-51991407D01*
X109266710Y-52027309D01*
X109262777Y-52031631D01*
X108504833Y-52789574D01*
X108443510Y-52823059D01*
X108373818Y-52818075D01*
X108329471Y-52789574D01*
X108216403Y-52676506D01*
X108124276Y-52611999D01*
X108059401Y-52566573D01*
X108015778Y-52511999D01*
X108008584Y-52442500D01*
X108040106Y-52380145D01*
X108059398Y-52363428D01*
X108216401Y-52253495D01*
X108383495Y-52086401D01*
X108519035Y-51892830D01*
X108618903Y-51678663D01*
X108680063Y-51450408D01*
X108700659Y-51215000D01*
X108680063Y-50979592D01*
X108633264Y-50804935D01*
X108618905Y-50751344D01*
X108618904Y-50751343D01*
X108618903Y-50751337D01*
X108519035Y-50537171D01*
X108519034Y-50537169D01*
X108383494Y-50343597D01*
X108216403Y-50176506D01*
X108124276Y-50111999D01*
X108059401Y-50066573D01*
X108015778Y-50011999D01*
X108008584Y-49942500D01*
X108040106Y-49880145D01*
X108059398Y-49863428D01*
X108216401Y-49753495D01*
X108383495Y-49586401D01*
X108519035Y-49392830D01*
X108618903Y-49178663D01*
X108680063Y-48950408D01*
X108700659Y-48715000D01*
X108680063Y-48479592D01*
X108618903Y-48251337D01*
X108519035Y-48037171D01*
X108519034Y-48037169D01*
X108383494Y-47843597D01*
X108236295Y-47696398D01*
X108202810Y-47635075D01*
X108207794Y-47565383D01*
X108249666Y-47509450D01*
X108258880Y-47503178D01*
X108264569Y-47499669D01*
X108413656Y-47407712D01*
X108537712Y-47283656D01*
X108629814Y-47134334D01*
X108684999Y-46967797D01*
X108695500Y-46865009D01*
X108695500Y-46372001D01*
X109946671Y-46372001D01*
X109948835Y-46405027D01*
X109948933Y-46411155D01*
X109947723Y-46447367D01*
X109947723Y-46447376D01*
X109958880Y-46558281D01*
X109965965Y-46666376D01*
X109965966Y-46666389D01*
X109973050Y-46702003D01*
X109973930Y-46707891D01*
X109977882Y-46747164D01*
X110002996Y-46852546D01*
X110023516Y-46955711D01*
X110023518Y-46955719D01*
X110036230Y-46993171D01*
X110037831Y-46998727D01*
X110047728Y-47040252D01*
X110047730Y-47040257D01*
X110047731Y-47040261D01*
X110085542Y-47138437D01*
X110118096Y-47234336D01*
X110118348Y-47235076D01*
X110137263Y-47273433D01*
X110139515Y-47278573D01*
X110156019Y-47321428D01*
X110156023Y-47321436D01*
X110205076Y-47410946D01*
X110248822Y-47499655D01*
X110248833Y-47499673D01*
X110274380Y-47537907D01*
X110277199Y-47542557D01*
X110300822Y-47585659D01*
X110300829Y-47585671D01*
X110358671Y-47664175D01*
X110360308Y-47666507D01*
X110401366Y-47727955D01*
X110412727Y-47744957D01*
X110445182Y-47781965D01*
X110448482Y-47786068D01*
X110479551Y-47828235D01*
X110545114Y-47896028D01*
X110547160Y-47898249D01*
X110607242Y-47966758D01*
X110642025Y-47997262D01*
X110646670Y-48001336D01*
X110650358Y-48004849D01*
X110689018Y-48044822D01*
X110689020Y-48044824D01*
X110716375Y-48066426D01*
X110760495Y-48101267D01*
X110762950Y-48103311D01*
X110829040Y-48161270D01*
X110829040Y-48161271D01*
X110875336Y-48192205D01*
X110879307Y-48195092D01*
X110925485Y-48231558D01*
X110958875Y-48251335D01*
X111001059Y-48276320D01*
X111003897Y-48278106D01*
X111055617Y-48312665D01*
X111074338Y-48325174D01*
X111091190Y-48333484D01*
X111127187Y-48351236D01*
X111131318Y-48353473D01*
X111165458Y-48373694D01*
X111184717Y-48385102D01*
X111184722Y-48385104D01*
X111184730Y-48385109D01*
X111262665Y-48418156D01*
X111265826Y-48419604D01*
X111338923Y-48455652D01*
X111397759Y-48475624D01*
X111402014Y-48477245D01*
X111462128Y-48502736D01*
X111540640Y-48524242D01*
X111544160Y-48525320D01*
X111618278Y-48550481D01*
X111676967Y-48562154D01*
X111682384Y-48563232D01*
X111686658Y-48564241D01*
X111752729Y-48582340D01*
X111830224Y-48592761D01*
X111834037Y-48593397D01*
X111907620Y-48608034D01*
X111976067Y-48612519D01*
X111980246Y-48612937D01*
X112051347Y-48622500D01*
X112126302Y-48622500D01*
X112130349Y-48622632D01*
X112162372Y-48624731D01*
X112201994Y-48627329D01*
X112202000Y-48627329D01*
X112202004Y-48627329D01*
X112212762Y-48626623D01*
X112274081Y-48622604D01*
X112277222Y-48622500D01*
X112277244Y-48622500D01*
X112350842Y-48617573D01*
X112496380Y-48608034D01*
X112496409Y-48608028D01*
X112497522Y-48607882D01*
X112501478Y-48607489D01*
X112502634Y-48607412D01*
X112645658Y-48578341D01*
X112785722Y-48550481D01*
X112786442Y-48550236D01*
X112794018Y-48548185D01*
X112797903Y-48547396D01*
X112932821Y-48500547D01*
X113065077Y-48455652D01*
X113068687Y-48453871D01*
X113075754Y-48450914D01*
X113082537Y-48448560D01*
X113207220Y-48385554D01*
X113329665Y-48325172D01*
X113335700Y-48321138D01*
X113342164Y-48317364D01*
X113351459Y-48312668D01*
X113464040Y-48235385D01*
X113574957Y-48161273D01*
X113582840Y-48154358D01*
X113588622Y-48149863D01*
X113599869Y-48142144D01*
X113698824Y-48052643D01*
X113796758Y-47966758D01*
X113805799Y-47956446D01*
X113810823Y-47951345D01*
X113823333Y-47940032D01*
X113907443Y-47840545D01*
X113991273Y-47744957D01*
X114000687Y-47730866D01*
X114004895Y-47725279D01*
X114017863Y-47709941D01*
X114017865Y-47709939D01*
X114086276Y-47602775D01*
X114155172Y-47499665D01*
X114164098Y-47481562D01*
X114167441Y-47475631D01*
X114179993Y-47455970D01*
X114232195Y-47343476D01*
X114285652Y-47235077D01*
X114293179Y-47212899D01*
X114295641Y-47206752D01*
X114306823Y-47182658D01*
X114342632Y-47067219D01*
X114380481Y-46955722D01*
X114385677Y-46929597D01*
X114387271Y-46923316D01*
X114392198Y-46907433D01*
X114396093Y-46894879D01*
X114415676Y-46778782D01*
X114438034Y-46666380D01*
X114439986Y-46636576D01*
X114440714Y-46630342D01*
X114446209Y-46597770D01*
X114450038Y-46483231D01*
X114452389Y-46447367D01*
X114457329Y-46372005D01*
X114457329Y-46372001D01*
X114457329Y-46372000D01*
X114455162Y-46338955D01*
X114455065Y-46332849D01*
X114456277Y-46296631D01*
X114445119Y-46185718D01*
X114438034Y-46077620D01*
X114430944Y-46041977D01*
X114430068Y-46036107D01*
X114428926Y-46024759D01*
X114426118Y-45996838D01*
X114401003Y-45891454D01*
X114380481Y-45788278D01*
X114367764Y-45750816D01*
X114366169Y-45745283D01*
X114356269Y-45703739D01*
X114318457Y-45605562D01*
X114285652Y-45508923D01*
X114270546Y-45478290D01*
X114266732Y-45470556D01*
X114264485Y-45465429D01*
X114247977Y-45422566D01*
X114216285Y-45364737D01*
X114198919Y-45333046D01*
X114164093Y-45262427D01*
X114155172Y-45244336D01*
X114129612Y-45206083D01*
X114126798Y-45201444D01*
X114103175Y-45158335D01*
X114045312Y-45079802D01*
X114043706Y-45077514D01*
X113991273Y-44999043D01*
X113970189Y-44975001D01*
X113958817Y-44962033D01*
X113955516Y-44957930D01*
X113924446Y-44915762D01*
X113904801Y-44895449D01*
X113858884Y-44847970D01*
X113856838Y-44845749D01*
X113796760Y-44777244D01*
X113757322Y-44742656D01*
X113753635Y-44739144D01*
X113714981Y-44699176D01*
X113643514Y-44642740D01*
X113641059Y-44640696D01*
X113574960Y-44582729D01*
X113528656Y-44551788D01*
X113524677Y-44548894D01*
X113478517Y-44512443D01*
X113463677Y-44503653D01*
X113402918Y-44467666D01*
X113400089Y-44465884D01*
X113329666Y-44418828D01*
X113276821Y-44392767D01*
X113272668Y-44390518D01*
X113219270Y-44358891D01*
X113219266Y-44358889D01*
X113219262Y-44358887D01*
X113189641Y-44346327D01*
X113141346Y-44325847D01*
X113138157Y-44324386D01*
X113065075Y-44288347D01*
X113006243Y-44268375D01*
X113001969Y-44266746D01*
X112955781Y-44247162D01*
X112941872Y-44241264D01*
X112941868Y-44241263D01*
X112941866Y-44241262D01*
X112863365Y-44219757D01*
X112859815Y-44218670D01*
X112785734Y-44193522D01*
X112785723Y-44193519D01*
X112785722Y-44193519D01*
X112721608Y-44180765D01*
X112717333Y-44179756D01*
X112651281Y-44161662D01*
X112651265Y-44161658D01*
X112573792Y-44151239D01*
X112569962Y-44150601D01*
X112523006Y-44141262D01*
X112496380Y-44135966D01*
X112496377Y-44135965D01*
X112496374Y-44135965D01*
X112427959Y-44131481D01*
X112423750Y-44131061D01*
X112389282Y-44126426D01*
X112352653Y-44121500D01*
X112352650Y-44121500D01*
X112277698Y-44121500D01*
X112273650Y-44121367D01*
X112241627Y-44119268D01*
X112202006Y-44116671D01*
X112202002Y-44116671D01*
X112202000Y-44116671D01*
X112153934Y-44119821D01*
X112129985Y-44121391D01*
X112126765Y-44121499D01*
X112053157Y-44126426D01*
X111907620Y-44135965D01*
X111906420Y-44136123D01*
X111902506Y-44136511D01*
X111901375Y-44136587D01*
X111901372Y-44136587D01*
X111901366Y-44136588D01*
X111762100Y-44164894D01*
X111758341Y-44165658D01*
X111618277Y-44193518D01*
X111618270Y-44193520D01*
X111617508Y-44193779D01*
X111609943Y-44195822D01*
X111606098Y-44196603D01*
X111542548Y-44218670D01*
X111471178Y-44243452D01*
X111452222Y-44249887D01*
X111338927Y-44288346D01*
X111338922Y-44288348D01*
X111335320Y-44290124D01*
X111328241Y-44293086D01*
X111321462Y-44295440D01*
X111196757Y-44358456D01*
X111074343Y-44418823D01*
X111074328Y-44418832D01*
X111068301Y-44422858D01*
X111061828Y-44426637D01*
X111052544Y-44431329D01*
X110939943Y-44508625D01*
X110875346Y-44551788D01*
X110829043Y-44582727D01*
X110821156Y-44589642D01*
X110815373Y-44594138D01*
X110804132Y-44601854D01*
X110705175Y-44691356D01*
X110607241Y-44777242D01*
X110598196Y-44787555D01*
X110593175Y-44792653D01*
X110580668Y-44803966D01*
X110496556Y-44903454D01*
X110412726Y-44999042D01*
X110403308Y-45013136D01*
X110399106Y-45018716D01*
X110386141Y-45034052D01*
X110386140Y-45034053D01*
X110317715Y-45141237D01*
X110248830Y-45244331D01*
X110239905Y-45262427D01*
X110236560Y-45268362D01*
X110224006Y-45288031D01*
X110171801Y-45400530D01*
X110118350Y-45508918D01*
X110118345Y-45508930D01*
X110110822Y-45531089D01*
X110108353Y-45537257D01*
X110097176Y-45561344D01*
X110097171Y-45561358D01*
X110061367Y-45676780D01*
X110023518Y-45788279D01*
X110023516Y-45788288D01*
X110018320Y-45814410D01*
X110016728Y-45820683D01*
X110007907Y-45849119D01*
X109990466Y-45952514D01*
X109988323Y-45965217D01*
X109973051Y-46042002D01*
X109965965Y-46077627D01*
X109965964Y-46077628D01*
X109964012Y-46107416D01*
X109963281Y-46113673D01*
X109957791Y-46146231D01*
X109953961Y-46260768D01*
X109946671Y-46372001D01*
X108695500Y-46372001D01*
X108695499Y-45564992D01*
X108689771Y-45508923D01*
X108684999Y-45462203D01*
X108684998Y-45462200D01*
X108680276Y-45447949D01*
X108629814Y-45295666D01*
X108537712Y-45146344D01*
X108413656Y-45022288D01*
X108312758Y-44960054D01*
X108264336Y-44930187D01*
X108264331Y-44930185D01*
X108220781Y-44915754D01*
X108097797Y-44875001D01*
X108097795Y-44875000D01*
X107995010Y-44864500D01*
X106444998Y-44864500D01*
X106444981Y-44864501D01*
X106342203Y-44875000D01*
X106342200Y-44875001D01*
X106175668Y-44930185D01*
X106175663Y-44930187D01*
X106026342Y-45022289D01*
X105902289Y-45146342D01*
X105810187Y-45295663D01*
X105810185Y-45295668D01*
X105778760Y-45390504D01*
X105738987Y-45447949D01*
X105674471Y-45474772D01*
X105661054Y-45475500D01*
X73095847Y-45475500D01*
X73072615Y-45473304D01*
X73064588Y-45471773D01*
X73064586Y-45471773D01*
X73055633Y-45472336D01*
X73007275Y-45475378D01*
X73003403Y-45475500D01*
X41161743Y-45475500D01*
X41146122Y-45473775D01*
X41146095Y-45474061D01*
X41138333Y-45473326D01*
X41069172Y-45475500D01*
X41039650Y-45475500D01*
X41032771Y-45476368D01*
X41026958Y-45476825D01*
X40985594Y-45478125D01*
X40917970Y-45460555D01*
X40870579Y-45409214D01*
X40866475Y-45399228D01*
X40864817Y-45395671D01*
X40861630Y-45390504D01*
X40772712Y-45246344D01*
X40648656Y-45122288D01*
X40555888Y-45065068D01*
X40499336Y-45030187D01*
X40499331Y-45030185D01*
X40475499Y-45022288D01*
X40332797Y-44975001D01*
X40332795Y-44975000D01*
X40230010Y-44964500D01*
X38679998Y-44964500D01*
X38679981Y-44964501D01*
X38577203Y-44975000D01*
X38577200Y-44975001D01*
X38410668Y-45030185D01*
X38410663Y-45030187D01*
X38261345Y-45122287D01*
X38192291Y-45191341D01*
X38130967Y-45224825D01*
X38061276Y-45219840D01*
X38005342Y-45177969D01*
X37995873Y-45163258D01*
X37993175Y-45158335D01*
X37935312Y-45079802D01*
X37933706Y-45077514D01*
X37881273Y-44999043D01*
X37860189Y-44975001D01*
X37848817Y-44962033D01*
X37845516Y-44957930D01*
X37814446Y-44915762D01*
X37794801Y-44895449D01*
X37748884Y-44847970D01*
X37746838Y-44845749D01*
X37686760Y-44777244D01*
X37647322Y-44742656D01*
X37643635Y-44739144D01*
X37604981Y-44699176D01*
X37533514Y-44642740D01*
X37531059Y-44640696D01*
X37464960Y-44582729D01*
X37418656Y-44551788D01*
X37414677Y-44548894D01*
X37368517Y-44512443D01*
X37353677Y-44503653D01*
X37292918Y-44467666D01*
X37290089Y-44465884D01*
X37219666Y-44418828D01*
X37166821Y-44392767D01*
X37162668Y-44390518D01*
X37109270Y-44358891D01*
X37109266Y-44358889D01*
X37109262Y-44358887D01*
X37079641Y-44346327D01*
X37031346Y-44325847D01*
X37028157Y-44324386D01*
X36955075Y-44288347D01*
X36896243Y-44268375D01*
X36891969Y-44266746D01*
X36845781Y-44247162D01*
X36831872Y-44241264D01*
X36831868Y-44241263D01*
X36831866Y-44241262D01*
X36753365Y-44219757D01*
X36749815Y-44218670D01*
X36675734Y-44193522D01*
X36675723Y-44193519D01*
X36675722Y-44193519D01*
X36611608Y-44180765D01*
X36607333Y-44179756D01*
X36541281Y-44161662D01*
X36541265Y-44161658D01*
X36463792Y-44151239D01*
X36459962Y-44150601D01*
X36413006Y-44141262D01*
X36386380Y-44135966D01*
X36386377Y-44135965D01*
X36386374Y-44135965D01*
X36317959Y-44131481D01*
X36313750Y-44131061D01*
X36279282Y-44126426D01*
X36242653Y-44121500D01*
X36242650Y-44121500D01*
X36167698Y-44121500D01*
X36163650Y-44121367D01*
X36131627Y-44119268D01*
X36092006Y-44116671D01*
X36092002Y-44116671D01*
X36092000Y-44116671D01*
X36043934Y-44119821D01*
X36019985Y-44121391D01*
X36016765Y-44121499D01*
X35943157Y-44126426D01*
X35797620Y-44135965D01*
X35796420Y-44136123D01*
X35792506Y-44136511D01*
X35791375Y-44136587D01*
X35791372Y-44136587D01*
X35791366Y-44136588D01*
X35652100Y-44164894D01*
X35648341Y-44165658D01*
X35508277Y-44193518D01*
X35508270Y-44193520D01*
X35507508Y-44193779D01*
X35499943Y-44195822D01*
X35496098Y-44196603D01*
X35432548Y-44218670D01*
X35361178Y-44243452D01*
X35342222Y-44249887D01*
X35228927Y-44288346D01*
X35228922Y-44288348D01*
X35225320Y-44290124D01*
X35218241Y-44293086D01*
X35211462Y-44295440D01*
X35086757Y-44358456D01*
X34964343Y-44418823D01*
X34964328Y-44418832D01*
X34958301Y-44422858D01*
X34951828Y-44426637D01*
X34942544Y-44431329D01*
X34829943Y-44508625D01*
X34765346Y-44551788D01*
X34719043Y-44582727D01*
X34711156Y-44589642D01*
X34705373Y-44594138D01*
X34694132Y-44601854D01*
X34595175Y-44691356D01*
X34497241Y-44777242D01*
X34488196Y-44787555D01*
X34483175Y-44792653D01*
X34470668Y-44803966D01*
X34386556Y-44903454D01*
X34302726Y-44999042D01*
X34293308Y-45013136D01*
X34289106Y-45018716D01*
X34276141Y-45034052D01*
X34276140Y-45034053D01*
X34207715Y-45141237D01*
X34138830Y-45244331D01*
X34129905Y-45262427D01*
X34126560Y-45268362D01*
X34114006Y-45288031D01*
X34061801Y-45400530D01*
X34008350Y-45508918D01*
X34008345Y-45508930D01*
X34000822Y-45531089D01*
X33998353Y-45537257D01*
X33987176Y-45561344D01*
X33987171Y-45561358D01*
X33951367Y-45676780D01*
X33913518Y-45788279D01*
X33913516Y-45788288D01*
X33908320Y-45814410D01*
X33906728Y-45820683D01*
X33897907Y-45849119D01*
X33880466Y-45952514D01*
X33878323Y-45965217D01*
X33863051Y-46042002D01*
X33855965Y-46077627D01*
X33855964Y-46077628D01*
X33854012Y-46107416D01*
X33853281Y-46113673D01*
X33847791Y-46146231D01*
X33843961Y-46260768D01*
X33836671Y-46372001D01*
X33838835Y-46405027D01*
X33838933Y-46411155D01*
X33837723Y-46447367D01*
X33837723Y-46447376D01*
X33848880Y-46558281D01*
X33855965Y-46666376D01*
X33855966Y-46666389D01*
X33863050Y-46702003D01*
X33863930Y-46707891D01*
X33867882Y-46747164D01*
X33892996Y-46852546D01*
X33913516Y-46955711D01*
X33913518Y-46955719D01*
X33926230Y-46993171D01*
X33927831Y-46998727D01*
X33937728Y-47040252D01*
X33937730Y-47040257D01*
X33937731Y-47040261D01*
X33975542Y-47138437D01*
X34008096Y-47234336D01*
X34008348Y-47235076D01*
X34027263Y-47273433D01*
X34029515Y-47278573D01*
X34046019Y-47321428D01*
X34046023Y-47321436D01*
X34095076Y-47410946D01*
X34138822Y-47499655D01*
X34138833Y-47499673D01*
X34164380Y-47537907D01*
X34167199Y-47542557D01*
X34190822Y-47585659D01*
X34190829Y-47585671D01*
X34248671Y-47664175D01*
X34250308Y-47666507D01*
X34291366Y-47727955D01*
X34302727Y-47744957D01*
X34335182Y-47781965D01*
X34338482Y-47786068D01*
X34369551Y-47828235D01*
X34435114Y-47896028D01*
X34437160Y-47898249D01*
X34497242Y-47966758D01*
X34532025Y-47997262D01*
X34536670Y-48001336D01*
X34540358Y-48004849D01*
X34579018Y-48044822D01*
X34579020Y-48044824D01*
X34606375Y-48066426D01*
X34650495Y-48101267D01*
X34652950Y-48103311D01*
X34719040Y-48161270D01*
X34719040Y-48161271D01*
X34765336Y-48192205D01*
X34769307Y-48195092D01*
X34815485Y-48231558D01*
X34848875Y-48251335D01*
X34891059Y-48276320D01*
X34893897Y-48278106D01*
X34945617Y-48312665D01*
X34964338Y-48325174D01*
X34981190Y-48333484D01*
X35017187Y-48351236D01*
X35021318Y-48353473D01*
X35055458Y-48373694D01*
X35074717Y-48385102D01*
X35074722Y-48385104D01*
X35074730Y-48385109D01*
X35152665Y-48418156D01*
X35155826Y-48419604D01*
X35228923Y-48455652D01*
X35287759Y-48475624D01*
X35292014Y-48477245D01*
X35352128Y-48502736D01*
X35430640Y-48524242D01*
X35434160Y-48525320D01*
X35508278Y-48550481D01*
X35566967Y-48562154D01*
X35572384Y-48563232D01*
X35576658Y-48564241D01*
X35642729Y-48582340D01*
X35720224Y-48592761D01*
X35724037Y-48593397D01*
X35797620Y-48608034D01*
X35866067Y-48612519D01*
X35870246Y-48612937D01*
X35941347Y-48622500D01*
X36016302Y-48622500D01*
X36020349Y-48622632D01*
X36052372Y-48624731D01*
X36091994Y-48627329D01*
X36092000Y-48627329D01*
X36092004Y-48627329D01*
X36102762Y-48626623D01*
X36164081Y-48622604D01*
X36167222Y-48622500D01*
X36167244Y-48622500D01*
X36240842Y-48617573D01*
X36386380Y-48608034D01*
X36386409Y-48608028D01*
X36387522Y-48607882D01*
X36391478Y-48607489D01*
X36392634Y-48607412D01*
X36535658Y-48578341D01*
X36675722Y-48550481D01*
X36676442Y-48550236D01*
X36684018Y-48548185D01*
X36687903Y-48547396D01*
X36822821Y-48500547D01*
X36955077Y-48455652D01*
X36958687Y-48453871D01*
X36965754Y-48450914D01*
X36972537Y-48448560D01*
X37097220Y-48385554D01*
X37219665Y-48325172D01*
X37225700Y-48321138D01*
X37232164Y-48317364D01*
X37241459Y-48312668D01*
X37354040Y-48235385D01*
X37464957Y-48161273D01*
X37472840Y-48154358D01*
X37478622Y-48149863D01*
X37489869Y-48142144D01*
X37588824Y-48052643D01*
X37686758Y-47966758D01*
X37695799Y-47956446D01*
X37700823Y-47951345D01*
X37713333Y-47940032D01*
X37797443Y-47840545D01*
X37881273Y-47744957D01*
X37890687Y-47730866D01*
X37894895Y-47725279D01*
X37907863Y-47709941D01*
X37907865Y-47709939D01*
X37976276Y-47602775D01*
X38044592Y-47500532D01*
X38098204Y-47455728D01*
X38167529Y-47447021D01*
X38230556Y-47477175D01*
X38235375Y-47481743D01*
X38261344Y-47507712D01*
X38416120Y-47603178D01*
X38462845Y-47655126D01*
X38474068Y-47724088D01*
X38446224Y-47788171D01*
X38438706Y-47796398D01*
X38291501Y-47943603D01*
X38291501Y-47943604D01*
X38155967Y-48137165D01*
X38155965Y-48137169D01*
X38056098Y-48351335D01*
X38056094Y-48351344D01*
X37994938Y-48579586D01*
X37994936Y-48579596D01*
X37974341Y-48814999D01*
X37974341Y-48815000D01*
X37994936Y-49050403D01*
X37994938Y-49050413D01*
X38056094Y-49278655D01*
X38056096Y-49278659D01*
X38056097Y-49278663D01*
X38106030Y-49385745D01*
X38155964Y-49492828D01*
X38155965Y-49492830D01*
X38291505Y-49686402D01*
X38458597Y-49853494D01*
X38615595Y-49963425D01*
X38659220Y-50018002D01*
X38666414Y-50087500D01*
X38634891Y-50149855D01*
X38615595Y-50166575D01*
X38458597Y-50276505D01*
X38291506Y-50443597D01*
X38291501Y-50443604D01*
X38155967Y-50637165D01*
X38155965Y-50637169D01*
X38056098Y-50851335D01*
X38056094Y-50851344D01*
X37994938Y-51079586D01*
X37994936Y-51079596D01*
X37986676Y-51174004D01*
X37961223Y-51239072D01*
X37904631Y-51280050D01*
X37834869Y-51283927D01*
X37775467Y-51250876D01*
X37702803Y-51178212D01*
X37692980Y-51165950D01*
X37692759Y-51166134D01*
X37687786Y-51160123D01*
X37637364Y-51112773D01*
X37626919Y-51102328D01*
X37616475Y-51091883D01*
X37610986Y-51087625D01*
X37606561Y-51083847D01*
X37572582Y-51051938D01*
X37572580Y-51051936D01*
X37572577Y-51051935D01*
X37555029Y-51042288D01*
X37538763Y-51031604D01*
X37522933Y-51019325D01*
X37480168Y-51000818D01*
X37474922Y-50998248D01*
X37434093Y-50975803D01*
X37434092Y-50975802D01*
X37414693Y-50970822D01*
X37396281Y-50964518D01*
X37377898Y-50956562D01*
X37377892Y-50956560D01*
X37331874Y-50949272D01*
X37326152Y-50948087D01*
X37281021Y-50936500D01*
X37281019Y-50936500D01*
X37260984Y-50936500D01*
X37241586Y-50934973D01*
X37234162Y-50933797D01*
X37221805Y-50931840D01*
X37221804Y-50931840D01*
X37175416Y-50936225D01*
X37169578Y-50936500D01*
X33076452Y-50936500D01*
X33009413Y-50916815D01*
X32988771Y-50900181D01*
X31395819Y-49307228D01*
X31362334Y-49245905D01*
X31359500Y-49219547D01*
X31359500Y-43871452D01*
X31379185Y-43804413D01*
X31395819Y-43783771D01*
X32099772Y-43079819D01*
X32161095Y-43046334D01*
X32187453Y-43043500D01*
X114497548Y-43043500D01*
X114564587Y-43063185D01*
G37*
%TD.AperFunction*%
%TA.AperFunction,NonConductor*%
G36*
X50055587Y-51960185D02*
G01*
X50076229Y-51976819D01*
X51408180Y-53308770D01*
X51441665Y-53370093D01*
X51444499Y-53396451D01*
X51444499Y-65703261D01*
X51442776Y-65718878D01*
X51443060Y-65718905D01*
X51442326Y-65726664D01*
X51444500Y-65795814D01*
X51444500Y-65825343D01*
X51444501Y-65825360D01*
X51445368Y-65832231D01*
X51445826Y-65838050D01*
X51447290Y-65884624D01*
X51447291Y-65884627D01*
X51452880Y-65903867D01*
X51456824Y-65922911D01*
X51459336Y-65942791D01*
X51476490Y-65986119D01*
X51478382Y-65991647D01*
X51491381Y-66036388D01*
X51501580Y-66053634D01*
X51510136Y-66071100D01*
X51513403Y-66079350D01*
X51517514Y-66089732D01*
X51544898Y-66127423D01*
X51548106Y-66132307D01*
X51571827Y-66172416D01*
X51571833Y-66172424D01*
X51585990Y-66186580D01*
X51598627Y-66201375D01*
X51610406Y-66217587D01*
X51640928Y-66242837D01*
X51646309Y-66247288D01*
X51650620Y-66251210D01*
X57071813Y-71672403D01*
X62300194Y-76900784D01*
X62310019Y-76913048D01*
X62310240Y-76912866D01*
X62315210Y-76918873D01*
X62315213Y-76918876D01*
X62315214Y-76918877D01*
X62365651Y-76966241D01*
X62386530Y-76987120D01*
X62392004Y-76991366D01*
X62396442Y-76995156D01*
X62430418Y-77027062D01*
X62430422Y-77027064D01*
X62447973Y-77036713D01*
X62464231Y-77047392D01*
X62480064Y-77059674D01*
X62502015Y-77069172D01*
X62522837Y-77078183D01*
X62528081Y-77080752D01*
X62568908Y-77103197D01*
X62588312Y-77108179D01*
X62606710Y-77114478D01*
X62625105Y-77122438D01*
X62671129Y-77129726D01*
X62676832Y-77130907D01*
X62721981Y-77142500D01*
X62742016Y-77142500D01*
X62761413Y-77144026D01*
X62781196Y-77147160D01*
X62827583Y-77142775D01*
X62833422Y-77142500D01*
X64877773Y-77142500D01*
X64944812Y-77162185D01*
X64979348Y-77195377D01*
X65114501Y-77388396D01*
X65114506Y-77388402D01*
X65281597Y-77555493D01*
X65281603Y-77555498D01*
X65467158Y-77685425D01*
X65510783Y-77740002D01*
X65517977Y-77809500D01*
X65486454Y-77871855D01*
X65467158Y-77888575D01*
X65281597Y-78018505D01*
X65114505Y-78185597D01*
X64978965Y-78379169D01*
X64978964Y-78379171D01*
X64879098Y-78593335D01*
X64879094Y-78593344D01*
X64817938Y-78821586D01*
X64817936Y-78821596D01*
X64797341Y-79056999D01*
X64797341Y-79057000D01*
X64817936Y-79292403D01*
X64817938Y-79292413D01*
X64879094Y-79520655D01*
X64879096Y-79520659D01*
X64879097Y-79520663D01*
X64915053Y-79597771D01*
X64978965Y-79734830D01*
X64978967Y-79734834D01*
X65114501Y-79928395D01*
X65114506Y-79928402D01*
X65281597Y-80095493D01*
X65281603Y-80095498D01*
X65467158Y-80225425D01*
X65510783Y-80280002D01*
X65517977Y-80349500D01*
X65486454Y-80411855D01*
X65467158Y-80428575D01*
X65281597Y-80558505D01*
X65131528Y-80708575D01*
X65070205Y-80742060D01*
X65000513Y-80737076D01*
X64956166Y-80708575D01*
X44857819Y-60610227D01*
X44824334Y-60548904D01*
X44821500Y-60522546D01*
X44821500Y-56597742D01*
X44823224Y-56582122D01*
X44822939Y-56582095D01*
X44823673Y-56574333D01*
X44821500Y-56505172D01*
X44821500Y-56475656D01*
X44821500Y-56475650D01*
X44820631Y-56468779D01*
X44820173Y-56462952D01*
X44819776Y-56450310D01*
X44818710Y-56416373D01*
X44813119Y-56397130D01*
X44809173Y-56378078D01*
X44806664Y-56358208D01*
X44789504Y-56314867D01*
X44787624Y-56309379D01*
X44774618Y-56264610D01*
X44764422Y-56247370D01*
X44755861Y-56229894D01*
X44748487Y-56211270D01*
X44748486Y-56211268D01*
X44721079Y-56173545D01*
X44717888Y-56168686D01*
X44712150Y-56158984D01*
X44694170Y-56128580D01*
X44694168Y-56128578D01*
X44694165Y-56128574D01*
X44680006Y-56114415D01*
X44667368Y-56099619D01*
X44655594Y-56083413D01*
X44619696Y-56053716D01*
X44615373Y-56049782D01*
X44496800Y-55931209D01*
X44486980Y-55918952D01*
X44486760Y-55919135D01*
X44481788Y-55913125D01*
X44431362Y-55865771D01*
X44410476Y-55844884D01*
X44404986Y-55840625D01*
X44400561Y-55836847D01*
X44366582Y-55804938D01*
X44366580Y-55804936D01*
X44366577Y-55804935D01*
X44349029Y-55795288D01*
X44332763Y-55784604D01*
X44316933Y-55772325D01*
X44274168Y-55753818D01*
X44268922Y-55751248D01*
X44228093Y-55728803D01*
X44228092Y-55728802D01*
X44208693Y-55723822D01*
X44190281Y-55717518D01*
X44171898Y-55709562D01*
X44171892Y-55709560D01*
X44125874Y-55702272D01*
X44120152Y-55701087D01*
X44075021Y-55689500D01*
X44075019Y-55689500D01*
X44054984Y-55689500D01*
X44035586Y-55687973D01*
X44028162Y-55686797D01*
X44015805Y-55684840D01*
X44015804Y-55684840D01*
X43969416Y-55689225D01*
X43963578Y-55689500D01*
X40855227Y-55689500D01*
X40788188Y-55669815D01*
X40753652Y-55636623D01*
X40618494Y-55443597D01*
X40451403Y-55276506D01*
X40371460Y-55220530D01*
X40294401Y-55166573D01*
X40250778Y-55111999D01*
X40243584Y-55042500D01*
X40275106Y-54980145D01*
X40294398Y-54963428D01*
X40451401Y-54853495D01*
X40618495Y-54686401D01*
X40754035Y-54492830D01*
X40853903Y-54278663D01*
X40915063Y-54050408D01*
X40935659Y-53815000D01*
X40915063Y-53579592D01*
X40853903Y-53351337D01*
X40754035Y-53137171D01*
X40747129Y-53127307D01*
X40618494Y-52943597D01*
X40451403Y-52776506D01*
X40341543Y-52699582D01*
X40294401Y-52666573D01*
X40250778Y-52611999D01*
X40243584Y-52542500D01*
X40275106Y-52480145D01*
X40294398Y-52463428D01*
X40451401Y-52353495D01*
X40618495Y-52186401D01*
X40753651Y-51993377D01*
X40808229Y-51949752D01*
X40855227Y-51940500D01*
X49988548Y-51940500D01*
X50055587Y-51960185D01*
G37*
%TD.AperFunction*%
%TA.AperFunction,NonConductor*%
G36*
X72342539Y-46746185D02*
G01*
X72388294Y-46798989D01*
X72399500Y-46850500D01*
X72399500Y-86557547D01*
X72379815Y-86624586D01*
X72363181Y-86645228D01*
X70453228Y-88555181D01*
X70391905Y-88588666D01*
X70365547Y-88591500D01*
X67428227Y-88591500D01*
X67361188Y-88571815D01*
X67326652Y-88538623D01*
X67191494Y-88345597D01*
X67024402Y-88178506D01*
X67024396Y-88178501D01*
X66838842Y-88048575D01*
X66795217Y-87993998D01*
X66788023Y-87924500D01*
X66819546Y-87862145D01*
X66838842Y-87845425D01*
X66861026Y-87829891D01*
X67024401Y-87715495D01*
X67191495Y-87548401D01*
X67327035Y-87354830D01*
X67426903Y-87140663D01*
X67488063Y-86912408D01*
X67508659Y-86677000D01*
X67488063Y-86441592D01*
X67426903Y-86213337D01*
X67327035Y-85999171D01*
X67241970Y-85877684D01*
X67191494Y-85805597D01*
X67024402Y-85638506D01*
X67024396Y-85638501D01*
X66838842Y-85508575D01*
X66795217Y-85453998D01*
X66788023Y-85384500D01*
X66819546Y-85322145D01*
X66838842Y-85305425D01*
X66920529Y-85248227D01*
X67024401Y-85175495D01*
X67191495Y-85008401D01*
X67327035Y-84814830D01*
X67426903Y-84600663D01*
X67488063Y-84372408D01*
X67508659Y-84137000D01*
X67488063Y-83901592D01*
X67426903Y-83673337D01*
X67327035Y-83459171D01*
X67296457Y-83415500D01*
X67191494Y-83265597D01*
X67024402Y-83098506D01*
X67024396Y-83098501D01*
X66838842Y-82968575D01*
X66795217Y-82913998D01*
X66788023Y-82844500D01*
X66819546Y-82782145D01*
X66838842Y-82765425D01*
X66861026Y-82749891D01*
X67024401Y-82635495D01*
X67191495Y-82468401D01*
X67327035Y-82274830D01*
X67426903Y-82060663D01*
X67488063Y-81832408D01*
X67508659Y-81597000D01*
X67488063Y-81361592D01*
X67426903Y-81133337D01*
X67327035Y-80919171D01*
X67290600Y-80867135D01*
X67191494Y-80725597D01*
X67024402Y-80558506D01*
X67024396Y-80558501D01*
X66838842Y-80428575D01*
X66795217Y-80373998D01*
X66788023Y-80304500D01*
X66819546Y-80242145D01*
X66838842Y-80225425D01*
X66861026Y-80209891D01*
X67024401Y-80095495D01*
X67191495Y-79928401D01*
X67327035Y-79734830D01*
X67426903Y-79520663D01*
X67488063Y-79292408D01*
X67508659Y-79057000D01*
X67488063Y-78821592D01*
X67426903Y-78593337D01*
X67327035Y-78379171D01*
X67316476Y-78364090D01*
X67191494Y-78185597D01*
X67024402Y-78018506D01*
X67024396Y-78018501D01*
X66838842Y-77888575D01*
X66795217Y-77833998D01*
X66788023Y-77764500D01*
X66819546Y-77702145D01*
X66838842Y-77685425D01*
X66967138Y-77595591D01*
X67024401Y-77555495D01*
X67191495Y-77388401D01*
X67327035Y-77194830D01*
X67426903Y-76980663D01*
X67488063Y-76752408D01*
X67508659Y-76517000D01*
X67488063Y-76281592D01*
X67426903Y-76053337D01*
X67327035Y-75839171D01*
X67326652Y-75838623D01*
X67191494Y-75645597D01*
X67024402Y-75478506D01*
X67024396Y-75478501D01*
X66838842Y-75348575D01*
X66795217Y-75293998D01*
X66788023Y-75224500D01*
X66819546Y-75162145D01*
X66838842Y-75145425D01*
X66965100Y-75057018D01*
X67024401Y-75015495D01*
X67191495Y-74848401D01*
X67327035Y-74654830D01*
X67426903Y-74440663D01*
X67488063Y-74212408D01*
X67508659Y-73977000D01*
X67488063Y-73741592D01*
X67426903Y-73513337D01*
X67327035Y-73299171D01*
X67326652Y-73298623D01*
X67191494Y-73105597D01*
X67024402Y-72938506D01*
X67024396Y-72938501D01*
X66838842Y-72808575D01*
X66795217Y-72753998D01*
X66788023Y-72684500D01*
X66819546Y-72622145D01*
X66838842Y-72605425D01*
X66861026Y-72589891D01*
X67024401Y-72475495D01*
X67191495Y-72308401D01*
X67327035Y-72114830D01*
X67426903Y-71900663D01*
X67488063Y-71672408D01*
X67508659Y-71437000D01*
X67488063Y-71201592D01*
X67426903Y-70973337D01*
X67327035Y-70759171D01*
X67191495Y-70565599D01*
X67191494Y-70565597D01*
X67024402Y-70398506D01*
X67024395Y-70398501D01*
X66830834Y-70262967D01*
X66830830Y-70262965D01*
X66830828Y-70262964D01*
X66616663Y-70163097D01*
X66616659Y-70163096D01*
X66616655Y-70163094D01*
X66388413Y-70101938D01*
X66388403Y-70101936D01*
X66153001Y-70081341D01*
X66152999Y-70081341D01*
X65917596Y-70101936D01*
X65917586Y-70101938D01*
X65689344Y-70163094D01*
X65689335Y-70163098D01*
X65475171Y-70262964D01*
X65475169Y-70262965D01*
X65281597Y-70398505D01*
X65114505Y-70565597D01*
X64978965Y-70759169D01*
X64978964Y-70759171D01*
X64879098Y-70973335D01*
X64879094Y-70973344D01*
X64817938Y-71201586D01*
X64817936Y-71201596D01*
X64797341Y-71436999D01*
X64797341Y-71437000D01*
X64817936Y-71672403D01*
X64817938Y-71672413D01*
X64879094Y-71900655D01*
X64879096Y-71900659D01*
X64879097Y-71900663D01*
X64902328Y-71950482D01*
X64978965Y-72114830D01*
X64978967Y-72114834D01*
X65114501Y-72308395D01*
X65114506Y-72308402D01*
X65281597Y-72475493D01*
X65281603Y-72475498D01*
X65467158Y-72605425D01*
X65510783Y-72660002D01*
X65517977Y-72729500D01*
X65486454Y-72791855D01*
X65467158Y-72808575D01*
X65281597Y-72938505D01*
X65114505Y-73105597D01*
X64978965Y-73299169D01*
X64978964Y-73299171D01*
X64879098Y-73513335D01*
X64879094Y-73513344D01*
X64817938Y-73741586D01*
X64817936Y-73741596D01*
X64797341Y-73976999D01*
X64797341Y-73977000D01*
X64817936Y-74212403D01*
X64817938Y-74212413D01*
X64879094Y-74440655D01*
X64879096Y-74440659D01*
X64879097Y-74440663D01*
X64920450Y-74529344D01*
X64978965Y-74654830D01*
X64978967Y-74654834D01*
X65059271Y-74769519D01*
X65114501Y-74848396D01*
X65114506Y-74848402D01*
X65281597Y-75015493D01*
X65281603Y-75015498D01*
X65467158Y-75145425D01*
X65510783Y-75200002D01*
X65517977Y-75269500D01*
X65486454Y-75331855D01*
X65467158Y-75348575D01*
X65281597Y-75478505D01*
X65114505Y-75645597D01*
X64979348Y-75838623D01*
X64924771Y-75882248D01*
X64877773Y-75891500D01*
X63111452Y-75891500D01*
X63044413Y-75871815D01*
X63023771Y-75855181D01*
X52731819Y-65563228D01*
X52698334Y-65501905D01*
X52695500Y-65475547D01*
X52695500Y-60522546D01*
X52695500Y-53168727D01*
X52697225Y-53153123D01*
X52696938Y-53153096D01*
X52697672Y-53145333D01*
X52697415Y-53137169D01*
X52695500Y-53076203D01*
X52695500Y-53046650D01*
X52694629Y-53039759D01*
X52694172Y-53033945D01*
X52693704Y-53019061D01*
X52692709Y-52987373D01*
X52687122Y-52968144D01*
X52683174Y-52949084D01*
X52682481Y-52943597D01*
X52680664Y-52929208D01*
X52663507Y-52885875D01*
X52661619Y-52880359D01*
X52648619Y-52835612D01*
X52638418Y-52818363D01*
X52629860Y-52800894D01*
X52622486Y-52782268D01*
X52622483Y-52782264D01*
X52622483Y-52782263D01*
X52595098Y-52744571D01*
X52591890Y-52739687D01*
X52568172Y-52699582D01*
X52568163Y-52699571D01*
X52554005Y-52685413D01*
X52541370Y-52670620D01*
X52529593Y-52654412D01*
X52493693Y-52624713D01*
X52489381Y-52620790D01*
X50799803Y-50931212D01*
X50789980Y-50918950D01*
X50789759Y-50919134D01*
X50784786Y-50913123D01*
X50771004Y-50900181D01*
X50734364Y-50865773D01*
X50719926Y-50851335D01*
X50713475Y-50844883D01*
X50707986Y-50840625D01*
X50703561Y-50836847D01*
X50669582Y-50804938D01*
X50669580Y-50804936D01*
X50669577Y-50804935D01*
X50652029Y-50795288D01*
X50635763Y-50784604D01*
X50633391Y-50782764D01*
X50619936Y-50772327D01*
X50619935Y-50772326D01*
X50619933Y-50772325D01*
X50577168Y-50753818D01*
X50571922Y-50751248D01*
X50531093Y-50728803D01*
X50531092Y-50728802D01*
X50511693Y-50723822D01*
X50493281Y-50717518D01*
X50474898Y-50709562D01*
X50474892Y-50709560D01*
X50428874Y-50702272D01*
X50423152Y-50701087D01*
X50378021Y-50689500D01*
X50378019Y-50689500D01*
X50357984Y-50689500D01*
X50338586Y-50687973D01*
X50331162Y-50686797D01*
X50318805Y-50684840D01*
X50318804Y-50684840D01*
X50272416Y-50689225D01*
X50266578Y-50689500D01*
X40855227Y-50689500D01*
X40788188Y-50669815D01*
X40753652Y-50636623D01*
X40618494Y-50443597D01*
X40451403Y-50276506D01*
X40395187Y-50237144D01*
X40294401Y-50166573D01*
X40250778Y-50111999D01*
X40243584Y-50042500D01*
X40275106Y-49980145D01*
X40294398Y-49963428D01*
X40451401Y-49853495D01*
X40618495Y-49686401D01*
X40754035Y-49492830D01*
X40853903Y-49278663D01*
X40915063Y-49050408D01*
X40935659Y-48815000D01*
X40915063Y-48579592D01*
X40853903Y-48351337D01*
X40754035Y-48137171D01*
X40754034Y-48137169D01*
X40618494Y-47943597D01*
X40471295Y-47796398D01*
X40437810Y-47735075D01*
X40442794Y-47665383D01*
X40484666Y-47609450D01*
X40493880Y-47603178D01*
X40499334Y-47599814D01*
X40648656Y-47507712D01*
X40772712Y-47383656D01*
X40864814Y-47234334D01*
X40919999Y-47067797D01*
X40923382Y-47034677D01*
X40949777Y-46969987D01*
X41006957Y-46929835D01*
X41015905Y-46927175D01*
X41021786Y-46925664D01*
X41021792Y-46925664D01*
X41065122Y-46908507D01*
X41070646Y-46906617D01*
X41074396Y-46905527D01*
X41115390Y-46893618D01*
X41132629Y-46883422D01*
X41150103Y-46874862D01*
X41168727Y-46867488D01*
X41168727Y-46867487D01*
X41168732Y-46867486D01*
X41206449Y-46840082D01*
X41211305Y-46836892D01*
X41251420Y-46813170D01*
X41265589Y-46798999D01*
X41280379Y-46786368D01*
X41296587Y-46774594D01*
X41299177Y-46771462D01*
X41301831Y-46769669D01*
X41302274Y-46769254D01*
X41302341Y-46769325D01*
X41357077Y-46732353D01*
X41394724Y-46726500D01*
X72275500Y-46726500D01*
X72342539Y-46746185D01*
G37*
%TD.AperFunction*%
%TA.AperFunction,NonConductor*%
G36*
X79944812Y-74622185D02*
G01*
X79979348Y-74655377D01*
X80114501Y-74848396D01*
X80114506Y-74848402D01*
X80281597Y-75015493D01*
X80281603Y-75015498D01*
X80467158Y-75145425D01*
X80510783Y-75200002D01*
X80517977Y-75269500D01*
X80486454Y-75331855D01*
X80467158Y-75348575D01*
X80281597Y-75478505D01*
X80114505Y-75645597D01*
X79978965Y-75839169D01*
X79978964Y-75839171D01*
X79879098Y-76053335D01*
X79879094Y-76053344D01*
X79817938Y-76281586D01*
X79817936Y-76281596D01*
X79797341Y-76516999D01*
X79797341Y-76517000D01*
X79817936Y-76752403D01*
X79817938Y-76752413D01*
X79879094Y-76980655D01*
X79879096Y-76980659D01*
X79879097Y-76980663D01*
X79948820Y-77130184D01*
X79978965Y-77194830D01*
X79978967Y-77194834D01*
X80087281Y-77349521D01*
X80114501Y-77388396D01*
X80114506Y-77388402D01*
X80281597Y-77555493D01*
X80281603Y-77555498D01*
X80467158Y-77685425D01*
X80510783Y-77740002D01*
X80517977Y-77809500D01*
X80486454Y-77871855D01*
X80467158Y-77888575D01*
X80281597Y-78018505D01*
X80114505Y-78185597D01*
X79978965Y-78379169D01*
X79978964Y-78379171D01*
X79879098Y-78593335D01*
X79879094Y-78593344D01*
X79817938Y-78821586D01*
X79817936Y-78821596D01*
X79797341Y-79056999D01*
X79797341Y-79057000D01*
X79817936Y-79292403D01*
X79817938Y-79292413D01*
X79879094Y-79520655D01*
X79879096Y-79520659D01*
X79879097Y-79520663D01*
X79915053Y-79597771D01*
X79978965Y-79734830D01*
X79978967Y-79734834D01*
X80114501Y-79928395D01*
X80114506Y-79928402D01*
X80281597Y-80095493D01*
X80281603Y-80095498D01*
X80467158Y-80225425D01*
X80510783Y-80280002D01*
X80517977Y-80349500D01*
X80486454Y-80411855D01*
X80467158Y-80428575D01*
X80281597Y-80558505D01*
X80114505Y-80725597D01*
X79978965Y-80919169D01*
X79978964Y-80919171D01*
X79879098Y-81133335D01*
X79879094Y-81133344D01*
X79817938Y-81361586D01*
X79817936Y-81361596D01*
X79797341Y-81596999D01*
X79797341Y-81597000D01*
X79817936Y-81832403D01*
X79817938Y-81832413D01*
X79879094Y-82060655D01*
X79879096Y-82060659D01*
X79879097Y-82060663D01*
X79948606Y-82209725D01*
X79978965Y-82274830D01*
X79978967Y-82274834D01*
X80087281Y-82429521D01*
X80114501Y-82468396D01*
X80114506Y-82468402D01*
X80281597Y-82635493D01*
X80281603Y-82635498D01*
X80467158Y-82765425D01*
X80510783Y-82820002D01*
X80517977Y-82889500D01*
X80486454Y-82951855D01*
X80467158Y-82968575D01*
X80281597Y-83098505D01*
X80114505Y-83265597D01*
X79978965Y-83459169D01*
X79978964Y-83459171D01*
X79879098Y-83673335D01*
X79879094Y-83673344D01*
X79817938Y-83901586D01*
X79817936Y-83901596D01*
X79797341Y-84136999D01*
X79797341Y-84137000D01*
X79817936Y-84372403D01*
X79817938Y-84372413D01*
X79879094Y-84600655D01*
X79879096Y-84600659D01*
X79879097Y-84600663D01*
X79953204Y-84759586D01*
X79978965Y-84814830D01*
X79978967Y-84814834D01*
X80114501Y-85008395D01*
X80114506Y-85008402D01*
X80281597Y-85175493D01*
X80281603Y-85175498D01*
X80467158Y-85305425D01*
X80510783Y-85360002D01*
X80517977Y-85429500D01*
X80486454Y-85491855D01*
X80467158Y-85508575D01*
X80281597Y-85638505D01*
X80114505Y-85805597D01*
X79978965Y-85999169D01*
X79978964Y-85999171D01*
X79879098Y-86213335D01*
X79879094Y-86213344D01*
X79817938Y-86441586D01*
X79817936Y-86441596D01*
X79797341Y-86676999D01*
X79797341Y-86677000D01*
X79817936Y-86912403D01*
X79817938Y-86912413D01*
X79879094Y-87140655D01*
X79879096Y-87140659D01*
X79879097Y-87140663D01*
X79978475Y-87353780D01*
X79978965Y-87354830D01*
X79978967Y-87354834D01*
X80114501Y-87548395D01*
X80114506Y-87548402D01*
X80281597Y-87715493D01*
X80281603Y-87715498D01*
X80467158Y-87845425D01*
X80510783Y-87900002D01*
X80517977Y-87969500D01*
X80486454Y-88031855D01*
X80467158Y-88048575D01*
X80281597Y-88178505D01*
X80114505Y-88345597D01*
X79978965Y-88539169D01*
X79978964Y-88539171D01*
X79879098Y-88753335D01*
X79879094Y-88753344D01*
X79817938Y-88981586D01*
X79817936Y-88981596D01*
X79797341Y-89216999D01*
X79797341Y-89217000D01*
X79817936Y-89452403D01*
X79817938Y-89452413D01*
X79844856Y-89552872D01*
X79843193Y-89622722D01*
X79812762Y-89672646D01*
X77564228Y-91921181D01*
X77502905Y-91954666D01*
X77476547Y-91957500D01*
X72294451Y-91957500D01*
X72227412Y-91937815D01*
X72181657Y-91885011D01*
X72171713Y-91815853D01*
X72200738Y-91752297D01*
X72206770Y-91745819D01*
X74971003Y-88981586D01*
X77980786Y-85971802D01*
X77993048Y-85961980D01*
X77992865Y-85961759D01*
X77998867Y-85956792D01*
X77998877Y-85956786D01*
X78046241Y-85906348D01*
X78067120Y-85885470D01*
X78071373Y-85879986D01*
X78075150Y-85875563D01*
X78107062Y-85841582D01*
X78116714Y-85824023D01*
X78127389Y-85807772D01*
X78139674Y-85791936D01*
X78158186Y-85749152D01*
X78160742Y-85743935D01*
X78183197Y-85703092D01*
X78188180Y-85683680D01*
X78194477Y-85665291D01*
X78202438Y-85646895D01*
X78209729Y-85600853D01*
X78210908Y-85595162D01*
X78222500Y-85550019D01*
X78222500Y-85529983D01*
X78224027Y-85510582D01*
X78224345Y-85508575D01*
X78227160Y-85490804D01*
X78222775Y-85444415D01*
X78222500Y-85438577D01*
X78222500Y-75494452D01*
X78242185Y-75427413D01*
X78258819Y-75406771D01*
X79026771Y-74638819D01*
X79088094Y-74605334D01*
X79114452Y-74602500D01*
X79877773Y-74602500D01*
X79944812Y-74622185D01*
G37*
%TD.AperFunction*%
%TA.AperFunction,NonConductor*%
G36*
X120665677Y-33674685D02*
G01*
X120686319Y-33691319D01*
X123788681Y-36793681D01*
X123822166Y-36855004D01*
X123825000Y-36881362D01*
X123825000Y-92665106D01*
X123805315Y-92732145D01*
X123796259Y-92744489D01*
X122491084Y-94310698D01*
X122433045Y-94349597D01*
X122363188Y-94350943D01*
X122303693Y-94314307D01*
X122273450Y-94251323D01*
X122282060Y-94181985D01*
X122289700Y-94167179D01*
X122410545Y-93967279D01*
X122544627Y-93669361D01*
X122641821Y-93357453D01*
X122700710Y-93036104D01*
X122720436Y-92710000D01*
X122700710Y-92383896D01*
X122641821Y-92062547D01*
X122608204Y-91954666D01*
X122544633Y-91750657D01*
X122544631Y-91750652D01*
X122544627Y-91750639D01*
X122410545Y-91452721D01*
X122241530Y-91173137D01*
X122241528Y-91173134D01*
X122241526Y-91173131D01*
X122040045Y-90915960D01*
X121809039Y-90684954D01*
X121551868Y-90483473D01*
X121398957Y-90391035D01*
X121272279Y-90314455D01*
X120974361Y-90180373D01*
X120974354Y-90180370D01*
X120974342Y-90180366D01*
X120662452Y-90083178D01*
X120341099Y-90024289D01*
X120015000Y-90004564D01*
X119688900Y-90024289D01*
X119367547Y-90083178D01*
X119055657Y-90180366D01*
X119055641Y-90180372D01*
X119055639Y-90180373D01*
X118888729Y-90255493D01*
X118757725Y-90314453D01*
X118757723Y-90314454D01*
X118478131Y-90483473D01*
X118220960Y-90684954D01*
X117989954Y-90915960D01*
X117788473Y-91173131D01*
X117661708Y-91382825D01*
X117619455Y-91452721D01*
X117487543Y-91745819D01*
X117485372Y-91750642D01*
X117485366Y-91750657D01*
X117388178Y-92062547D01*
X117329289Y-92383900D01*
X117309564Y-92710000D01*
X117329289Y-93036099D01*
X117388178Y-93357452D01*
X117485366Y-93669342D01*
X117485370Y-93669354D01*
X117485373Y-93669361D01*
X117619455Y-93967279D01*
X117668290Y-94048061D01*
X117788473Y-94246868D01*
X117989954Y-94504039D01*
X118220960Y-94735045D01*
X118478131Y-94936526D01*
X118478134Y-94936528D01*
X118478137Y-94936530D01*
X118757721Y-95105545D01*
X119055639Y-95239627D01*
X119055652Y-95239631D01*
X119055657Y-95239633D01*
X119310469Y-95319035D01*
X119367547Y-95336821D01*
X119688896Y-95395710D01*
X120015000Y-95415436D01*
X120341104Y-95395710D01*
X120662453Y-95336821D01*
X120974361Y-95239627D01*
X121272279Y-95105545D01*
X121551863Y-94936530D01*
X121809036Y-94735048D01*
X121846614Y-94697470D01*
X121907936Y-94663984D01*
X121977628Y-94668968D01*
X122033562Y-94710838D01*
X122057980Y-94776302D01*
X122043129Y-94844576D01*
X122029555Y-94864533D01*
X120687181Y-96475383D01*
X120629142Y-96514282D01*
X120591922Y-96520000D01*
X27991362Y-96520000D01*
X27924323Y-96500315D01*
X27903681Y-96483681D01*
X26870050Y-95450050D01*
X26836565Y-95388727D01*
X26841549Y-95319035D01*
X26883421Y-95263102D01*
X26948885Y-95238685D01*
X26994621Y-95243984D01*
X27292547Y-95336821D01*
X27613896Y-95395710D01*
X27940000Y-95415436D01*
X28266104Y-95395710D01*
X28587453Y-95336821D01*
X28899361Y-95239627D01*
X29197279Y-95105545D01*
X29476863Y-94936530D01*
X29734036Y-94735048D01*
X29965048Y-94504036D01*
X30166530Y-94246863D01*
X30335545Y-93967279D01*
X30469627Y-93669361D01*
X30566821Y-93357453D01*
X30625710Y-93036104D01*
X30645436Y-92710000D01*
X30625710Y-92383896D01*
X30566821Y-92062547D01*
X30533204Y-91954666D01*
X30469633Y-91750657D01*
X30469631Y-91750652D01*
X30469627Y-91750639D01*
X30335545Y-91452721D01*
X30166530Y-91173137D01*
X30166528Y-91173134D01*
X30166526Y-91173131D01*
X29965045Y-90915960D01*
X29734039Y-90684954D01*
X29476868Y-90483473D01*
X29323957Y-90391035D01*
X29197279Y-90314455D01*
X28899361Y-90180373D01*
X28899354Y-90180370D01*
X28899342Y-90180366D01*
X28587452Y-90083178D01*
X28266099Y-90024289D01*
X27940000Y-90004564D01*
X27613900Y-90024289D01*
X27292547Y-90083178D01*
X26980657Y-90180366D01*
X26980641Y-90180372D01*
X26980639Y-90180373D01*
X26813729Y-90255493D01*
X26682725Y-90314453D01*
X26682723Y-90314454D01*
X26403131Y-90483473D01*
X26145960Y-90684954D01*
X25914954Y-90915960D01*
X25713473Y-91173131D01*
X25586708Y-91382824D01*
X25544455Y-91452721D01*
X25412543Y-91745819D01*
X25410372Y-91750642D01*
X25410366Y-91750657D01*
X25313178Y-92062547D01*
X25254289Y-92383900D01*
X25234564Y-92710000D01*
X25254289Y-93036099D01*
X25313176Y-93357444D01*
X25406015Y-93655377D01*
X25407165Y-93725237D01*
X25370364Y-93784630D01*
X25307295Y-93814698D01*
X25237982Y-93805895D01*
X25199948Y-93779948D01*
X24166319Y-92746318D01*
X24132834Y-92684995D01*
X24130000Y-92658637D01*
X24130000Y-85003952D01*
X24149685Y-84936913D01*
X24202489Y-84891158D01*
X24271647Y-84881214D01*
X24335203Y-84910239D01*
X24341681Y-84916271D01*
X34932194Y-95506784D01*
X34942019Y-95519048D01*
X34942240Y-95518866D01*
X34947210Y-95524873D01*
X34947213Y-95524876D01*
X34947214Y-95524877D01*
X34997651Y-95572241D01*
X35018530Y-95593120D01*
X35024004Y-95597366D01*
X35028442Y-95601156D01*
X35062418Y-95633062D01*
X35062422Y-95633064D01*
X35079973Y-95642713D01*
X35096231Y-95653392D01*
X35112064Y-95665674D01*
X35134015Y-95675172D01*
X35154837Y-95684183D01*
X35160081Y-95686752D01*
X35200908Y-95709197D01*
X35220312Y-95714179D01*
X35238710Y-95720478D01*
X35257105Y-95728438D01*
X35303129Y-95735726D01*
X35308832Y-95736907D01*
X35353981Y-95748500D01*
X35374016Y-95748500D01*
X35393413Y-95750026D01*
X35413196Y-95753160D01*
X35459583Y-95748775D01*
X35465422Y-95748500D01*
X83864257Y-95748500D01*
X83879877Y-95750224D01*
X83879904Y-95749939D01*
X83887660Y-95750671D01*
X83887667Y-95750673D01*
X83956814Y-95748500D01*
X83986350Y-95748500D01*
X83993228Y-95747630D01*
X83999041Y-95747172D01*
X84045627Y-95745709D01*
X84064869Y-95740117D01*
X84083912Y-95736174D01*
X84103792Y-95733664D01*
X84147122Y-95716507D01*
X84152646Y-95714617D01*
X84156396Y-95713527D01*
X84197390Y-95701618D01*
X84214629Y-95691422D01*
X84232103Y-95682862D01*
X84250727Y-95675488D01*
X84250727Y-95675487D01*
X84250732Y-95675486D01*
X84288449Y-95648082D01*
X84293305Y-95644892D01*
X84333420Y-95621170D01*
X84347589Y-95606999D01*
X84362379Y-95594368D01*
X84378587Y-95582594D01*
X84408299Y-95546676D01*
X84412212Y-95542376D01*
X87378788Y-92575801D01*
X87391042Y-92565986D01*
X87390859Y-92565764D01*
X87396866Y-92560792D01*
X87396877Y-92560786D01*
X87427775Y-92527882D01*
X87444227Y-92510364D01*
X87454671Y-92499918D01*
X87465120Y-92489471D01*
X87469379Y-92483978D01*
X87473152Y-92479561D01*
X87505062Y-92445582D01*
X87514715Y-92428020D01*
X87525389Y-92411770D01*
X87537673Y-92395936D01*
X87556180Y-92353167D01*
X87558749Y-92347924D01*
X87581196Y-92307093D01*
X87581197Y-92307092D01*
X87586177Y-92287691D01*
X87592478Y-92269288D01*
X87600438Y-92250896D01*
X87607730Y-92204849D01*
X87608911Y-92199152D01*
X87620500Y-92154019D01*
X87620500Y-92133983D01*
X87622027Y-92114582D01*
X87625160Y-92094804D01*
X87620775Y-92048415D01*
X87620500Y-92042577D01*
X87620500Y-78187742D01*
X87622224Y-78172122D01*
X87621939Y-78172095D01*
X87622673Y-78164333D01*
X87620500Y-78095172D01*
X87620500Y-78065656D01*
X87620500Y-78065650D01*
X87619631Y-78058779D01*
X87619173Y-78052952D01*
X87617710Y-78006373D01*
X87612119Y-77987130D01*
X87608173Y-77968078D01*
X87605664Y-77948208D01*
X87588504Y-77904867D01*
X87586624Y-77899379D01*
X87573618Y-77854610D01*
X87563422Y-77837370D01*
X87554861Y-77819894D01*
X87547487Y-77801270D01*
X87547486Y-77801268D01*
X87520079Y-77763545D01*
X87516888Y-77758686D01*
X87493172Y-77718583D01*
X87493165Y-77718574D01*
X87479006Y-77704415D01*
X87466368Y-77689619D01*
X87463321Y-77685425D01*
X87454594Y-77673413D01*
X87418688Y-77643709D01*
X87414376Y-77639786D01*
X85844803Y-76070212D01*
X85834980Y-76057950D01*
X85834759Y-76058134D01*
X85829786Y-76052123D01*
X85779364Y-76004773D01*
X85767661Y-75993070D01*
X85758475Y-75983883D01*
X85752986Y-75979625D01*
X85748561Y-75975847D01*
X85714582Y-75943938D01*
X85714580Y-75943936D01*
X85714577Y-75943935D01*
X85697029Y-75934288D01*
X85680763Y-75923604D01*
X85664933Y-75911325D01*
X85622168Y-75892818D01*
X85616922Y-75890248D01*
X85576093Y-75867803D01*
X85576092Y-75867802D01*
X85556693Y-75862822D01*
X85538281Y-75856518D01*
X85519898Y-75848562D01*
X85519892Y-75848560D01*
X85473874Y-75841272D01*
X85468152Y-75840087D01*
X85423021Y-75828500D01*
X85423019Y-75828500D01*
X85402984Y-75828500D01*
X85383586Y-75826973D01*
X85376162Y-75825797D01*
X85363805Y-75823840D01*
X85363804Y-75823840D01*
X85317416Y-75828225D01*
X85311578Y-75828500D01*
X82384113Y-75828500D01*
X82317074Y-75808815D01*
X82282538Y-75775623D01*
X82191495Y-75645599D01*
X82024401Y-75478505D01*
X82024399Y-75478504D01*
X82024396Y-75478501D01*
X81838842Y-75348575D01*
X81795217Y-75293998D01*
X81788023Y-75224500D01*
X81819546Y-75162145D01*
X81838842Y-75145425D01*
X81965100Y-75057018D01*
X82024401Y-75015495D01*
X82191495Y-74848401D01*
X82327035Y-74654830D01*
X82426903Y-74440663D01*
X82488063Y-74212408D01*
X82508659Y-73977000D01*
X82488063Y-73741592D01*
X82426903Y-73513337D01*
X82327035Y-73299171D01*
X82326652Y-73298623D01*
X82191494Y-73105597D01*
X82024402Y-72938506D01*
X82024396Y-72938501D01*
X81838842Y-72808575D01*
X81795217Y-72753998D01*
X81788023Y-72684500D01*
X81819546Y-72622145D01*
X81838842Y-72605425D01*
X81861026Y-72589891D01*
X82024401Y-72475495D01*
X82191495Y-72308401D01*
X82327035Y-72114830D01*
X82426903Y-71900663D01*
X82488063Y-71672408D01*
X82508659Y-71437000D01*
X82488063Y-71201592D01*
X82426903Y-70973337D01*
X82327035Y-70759171D01*
X82191495Y-70565599D01*
X82191494Y-70565597D01*
X82024402Y-70398506D01*
X82024395Y-70398501D01*
X81830834Y-70262967D01*
X81830830Y-70262965D01*
X81830828Y-70262964D01*
X81616663Y-70163097D01*
X81616659Y-70163096D01*
X81616655Y-70163094D01*
X81388413Y-70101938D01*
X81388403Y-70101936D01*
X81153001Y-70081341D01*
X81152999Y-70081341D01*
X80917596Y-70101936D01*
X80917586Y-70101938D01*
X80689344Y-70163094D01*
X80689335Y-70163098D01*
X80475171Y-70262964D01*
X80475169Y-70262965D01*
X80281597Y-70398505D01*
X80114505Y-70565597D01*
X79978965Y-70759169D01*
X79978964Y-70759171D01*
X79879098Y-70973335D01*
X79879094Y-70973344D01*
X79817938Y-71201586D01*
X79817936Y-71201596D01*
X79797341Y-71436999D01*
X79797341Y-71437000D01*
X79817936Y-71672403D01*
X79817938Y-71672413D01*
X79879094Y-71900655D01*
X79879096Y-71900659D01*
X79879097Y-71900663D01*
X79902328Y-71950482D01*
X79978965Y-72114830D01*
X79978967Y-72114834D01*
X80114501Y-72308395D01*
X80114506Y-72308402D01*
X80281597Y-72475493D01*
X80281603Y-72475498D01*
X80467158Y-72605425D01*
X80510783Y-72660002D01*
X80517977Y-72729500D01*
X80486454Y-72791855D01*
X80467158Y-72808575D01*
X80281597Y-72938505D01*
X80114505Y-73105597D01*
X79979348Y-73298623D01*
X79924771Y-73342248D01*
X79877773Y-73351500D01*
X78886743Y-73351500D01*
X78871122Y-73349775D01*
X78871095Y-73350061D01*
X78863333Y-73349326D01*
X78794172Y-73351500D01*
X78764649Y-73351500D01*
X78757778Y-73352367D01*
X78751959Y-73352825D01*
X78705374Y-73354289D01*
X78705368Y-73354290D01*
X78686126Y-73359880D01*
X78667087Y-73363823D01*
X78647217Y-73366334D01*
X78647203Y-73366337D01*
X78603883Y-73383488D01*
X78598358Y-73385380D01*
X78553613Y-73398380D01*
X78553610Y-73398381D01*
X78536366Y-73408579D01*
X78518905Y-73417133D01*
X78500274Y-73424510D01*
X78500262Y-73424517D01*
X78462570Y-73451902D01*
X78457687Y-73455109D01*
X78417580Y-73478829D01*
X78403414Y-73492995D01*
X78388624Y-73505627D01*
X78372414Y-73517404D01*
X78372411Y-73517407D01*
X78342710Y-73553309D01*
X78338777Y-73557631D01*
X77213208Y-74683199D01*
X77200951Y-74693020D01*
X77201134Y-74693241D01*
X77195123Y-74698213D01*
X77147772Y-74748636D01*
X77126889Y-74769519D01*
X77126877Y-74769532D01*
X77122621Y-74775017D01*
X77118837Y-74779447D01*
X77086937Y-74813418D01*
X77086936Y-74813420D01*
X77077284Y-74830976D01*
X77066610Y-74847226D01*
X77054329Y-74863061D01*
X77054324Y-74863068D01*
X77035815Y-74905838D01*
X77033245Y-74911084D01*
X77010803Y-74951906D01*
X77005822Y-74971307D01*
X76999521Y-74989710D01*
X76991562Y-75008102D01*
X76991561Y-75008105D01*
X76984271Y-75054127D01*
X76983087Y-75059846D01*
X76971501Y-75104972D01*
X76971500Y-75104982D01*
X76971500Y-75125016D01*
X76969973Y-75144415D01*
X76966840Y-75164194D01*
X76966840Y-75164195D01*
X76971225Y-75210583D01*
X76971500Y-75216421D01*
X76971500Y-85160546D01*
X76951815Y-85227585D01*
X76935181Y-85248227D01*
X71405228Y-90778181D01*
X71343905Y-90811666D01*
X71317547Y-90814500D01*
X66228809Y-90814500D01*
X66161770Y-90794815D01*
X66153220Y-90784948D01*
X66101623Y-90812069D01*
X66077191Y-90814500D01*
X58984453Y-90814500D01*
X58917414Y-90794815D01*
X58896772Y-90778181D01*
X49649803Y-81531212D01*
X49639980Y-81518950D01*
X49639759Y-81519134D01*
X49634786Y-81513123D01*
X49634785Y-81513122D01*
X49584364Y-81465773D01*
X49573919Y-81455328D01*
X49563475Y-81444883D01*
X49557986Y-81440625D01*
X49553561Y-81436847D01*
X49519582Y-81404938D01*
X49519580Y-81404936D01*
X49519577Y-81404935D01*
X49502029Y-81395288D01*
X49485763Y-81384604D01*
X49469933Y-81372325D01*
X49427168Y-81353818D01*
X49421922Y-81351248D01*
X49381093Y-81328803D01*
X49381092Y-81328802D01*
X49361693Y-81323822D01*
X49343281Y-81317518D01*
X49324898Y-81309562D01*
X49324892Y-81309560D01*
X49278874Y-81302272D01*
X49273152Y-81301087D01*
X49269247Y-81300085D01*
X49209208Y-81264347D01*
X49178022Y-81201824D01*
X49176084Y-81179991D01*
X49176084Y-80867128D01*
X49169676Y-80807517D01*
X49143403Y-80737076D01*
X49119382Y-80672671D01*
X49119378Y-80672664D01*
X49033132Y-80557455D01*
X49033129Y-80557452D01*
X48917920Y-80471206D01*
X48917913Y-80471202D01*
X48783067Y-80420908D01*
X48783068Y-80420908D01*
X48723468Y-80414501D01*
X48723466Y-80414500D01*
X48723458Y-80414500D01*
X48723449Y-80414500D01*
X46627714Y-80414500D01*
X46627708Y-80414501D01*
X46568101Y-80420908D01*
X46433256Y-80471202D01*
X46433249Y-80471206D01*
X46318040Y-80557452D01*
X46318037Y-80557455D01*
X46231791Y-80672664D01*
X46231787Y-80672671D01*
X46181493Y-80807517D01*
X46175086Y-80867116D01*
X46175086Y-80867123D01*
X46175085Y-80867135D01*
X46175085Y-82962870D01*
X46175086Y-82962876D01*
X46181493Y-83022483D01*
X46231787Y-83157328D01*
X46231791Y-83157335D01*
X46318037Y-83272544D01*
X46318040Y-83272547D01*
X46433249Y-83358793D01*
X46433256Y-83358797D01*
X46568102Y-83409091D01*
X46568101Y-83409091D01*
X46575029Y-83409835D01*
X46627712Y-83415500D01*
X48723457Y-83415499D01*
X48783068Y-83409091D01*
X48917916Y-83358796D01*
X49033131Y-83272546D01*
X49119381Y-83157331D01*
X49157181Y-83055982D01*
X49199051Y-83000049D01*
X49264515Y-82975631D01*
X49332788Y-82990482D01*
X49361043Y-83011633D01*
X53897804Y-87548395D01*
X58095228Y-91745819D01*
X58128713Y-91807142D01*
X58123729Y-91876834D01*
X58081857Y-91932767D01*
X58016393Y-91957184D01*
X58007547Y-91957500D01*
X52888452Y-91957500D01*
X52821413Y-91937815D01*
X52800771Y-91921181D01*
X44984819Y-84105228D01*
X44951334Y-84043905D01*
X44948500Y-84017547D01*
X44948500Y-79457742D01*
X44950224Y-79442122D01*
X44949939Y-79442096D01*
X44950671Y-79434340D01*
X44950673Y-79434333D01*
X44948500Y-79365185D01*
X44948500Y-79335650D01*
X44947631Y-79328772D01*
X44947172Y-79322943D01*
X44945709Y-79276372D01*
X44940122Y-79257144D01*
X44936174Y-79238084D01*
X44933663Y-79218204D01*
X44916512Y-79174887D01*
X44914619Y-79169358D01*
X44901618Y-79124609D01*
X44901616Y-79124606D01*
X44891423Y-79107371D01*
X44882861Y-79089894D01*
X44875487Y-79071270D01*
X44875486Y-79071268D01*
X44848079Y-79033545D01*
X44844888Y-79028686D01*
X44821172Y-78988583D01*
X44821165Y-78988574D01*
X44807006Y-78974415D01*
X44794368Y-78959619D01*
X44782594Y-78943413D01*
X44746688Y-78913709D01*
X44742376Y-78909786D01*
X31649818Y-65817227D01*
X31616333Y-65755904D01*
X31613499Y-65729555D01*
X31613499Y-53650451D01*
X31633184Y-53583413D01*
X31649818Y-53562771D01*
X32988771Y-52223819D01*
X33050094Y-52190334D01*
X33076452Y-52187500D01*
X36891548Y-52187500D01*
X36958587Y-52207185D01*
X36979229Y-52223819D01*
X38016177Y-53260767D01*
X38049662Y-53322090D01*
X38048271Y-53380541D01*
X37994938Y-53579586D01*
X37994936Y-53579596D01*
X37974341Y-53814999D01*
X37974341Y-53815000D01*
X37994936Y-54050403D01*
X37994938Y-54050413D01*
X38056094Y-54278655D01*
X38056096Y-54278659D01*
X38056097Y-54278663D01*
X38079755Y-54329397D01*
X38155964Y-54492828D01*
X38155965Y-54492830D01*
X38291505Y-54686402D01*
X38458597Y-54853494D01*
X38615595Y-54963425D01*
X38659220Y-55018002D01*
X38666414Y-55087500D01*
X38634891Y-55149855D01*
X38615595Y-55166575D01*
X38458600Y-55276503D01*
X38374148Y-55360955D01*
X38312824Y-55394439D01*
X38243133Y-55389455D01*
X38187199Y-55347583D01*
X38175255Y-55328117D01*
X38156732Y-55290556D01*
X38154485Y-55285429D01*
X38137977Y-55242566D01*
X38106285Y-55184737D01*
X38088919Y-55153046D01*
X38046276Y-55066575D01*
X38045172Y-55064336D01*
X38019612Y-55026083D01*
X38016798Y-55021444D01*
X38014912Y-55018002D01*
X37993175Y-54978335D01*
X37935312Y-54899802D01*
X37933706Y-54897514D01*
X37881273Y-54819043D01*
X37848817Y-54782033D01*
X37845516Y-54777930D01*
X37827511Y-54753494D01*
X37814446Y-54735762D01*
X37794801Y-54715449D01*
X37748884Y-54667970D01*
X37746838Y-54665749D01*
X37686760Y-54597244D01*
X37647322Y-54562656D01*
X37643635Y-54559144D01*
X37604981Y-54519176D01*
X37533514Y-54462740D01*
X37531059Y-54460696D01*
X37464960Y-54402729D01*
X37418656Y-54371788D01*
X37414677Y-54368894D01*
X37368517Y-54332443D01*
X37353677Y-54323653D01*
X37292918Y-54287666D01*
X37290089Y-54285884D01*
X37286410Y-54283426D01*
X37238379Y-54251332D01*
X37219666Y-54238828D01*
X37166821Y-54212767D01*
X37162668Y-54210518D01*
X37109270Y-54178891D01*
X37109266Y-54178889D01*
X37109262Y-54178887D01*
X37079641Y-54166327D01*
X37031346Y-54145847D01*
X37028157Y-54144386D01*
X36955075Y-54108347D01*
X36896243Y-54088375D01*
X36891969Y-54086746D01*
X36853174Y-54070297D01*
X36831872Y-54061264D01*
X36831868Y-54061263D01*
X36831866Y-54061262D01*
X36753365Y-54039757D01*
X36749815Y-54038670D01*
X36675734Y-54013522D01*
X36675723Y-54013519D01*
X36675722Y-54013519D01*
X36611608Y-54000765D01*
X36607333Y-53999756D01*
X36541281Y-53981662D01*
X36541265Y-53981658D01*
X36463792Y-53971239D01*
X36459962Y-53970601D01*
X36413006Y-53961262D01*
X36386380Y-53955966D01*
X36386377Y-53955965D01*
X36386374Y-53955965D01*
X36317959Y-53951481D01*
X36313750Y-53951061D01*
X36279282Y-53946426D01*
X36242653Y-53941500D01*
X36242650Y-53941500D01*
X36167698Y-53941500D01*
X36163650Y-53941367D01*
X36131627Y-53939268D01*
X36092006Y-53936671D01*
X36092002Y-53936671D01*
X36092000Y-53936671D01*
X36043934Y-53939821D01*
X36019985Y-53941391D01*
X36016765Y-53941499D01*
X35943157Y-53946426D01*
X35797620Y-53955965D01*
X35796420Y-53956123D01*
X35792506Y-53956511D01*
X35791375Y-53956587D01*
X35791372Y-53956587D01*
X35791366Y-53956588D01*
X35648341Y-53985658D01*
X35508277Y-54013518D01*
X35508270Y-54013520D01*
X35507508Y-54013779D01*
X35499943Y-54015822D01*
X35496098Y-54016603D01*
X35432548Y-54038670D01*
X35361178Y-54063452D01*
X35315442Y-54078977D01*
X35228927Y-54108346D01*
X35228922Y-54108348D01*
X35225320Y-54110124D01*
X35218241Y-54113086D01*
X35211462Y-54115440D01*
X35086757Y-54178456D01*
X34964343Y-54238823D01*
X34964328Y-54238832D01*
X34958301Y-54242858D01*
X34951828Y-54246637D01*
X34942544Y-54251329D01*
X34829943Y-54328625D01*
X34733858Y-54392828D01*
X34719043Y-54402727D01*
X34711156Y-54409642D01*
X34705373Y-54414138D01*
X34694132Y-54421854D01*
X34595175Y-54511356D01*
X34497241Y-54597242D01*
X34488196Y-54607555D01*
X34483175Y-54612653D01*
X34470668Y-54623966D01*
X34386556Y-54723454D01*
X34302726Y-54819042D01*
X34293308Y-54833136D01*
X34289106Y-54838716D01*
X34276141Y-54854052D01*
X34276140Y-54854053D01*
X34207715Y-54961237D01*
X34138830Y-55064331D01*
X34129905Y-55082427D01*
X34126560Y-55088362D01*
X34114006Y-55108031D01*
X34061801Y-55220530D01*
X34008350Y-55328918D01*
X34008345Y-55328930D01*
X34000822Y-55351089D01*
X33998353Y-55357257D01*
X33987176Y-55381344D01*
X33987171Y-55381358D01*
X33951367Y-55496780D01*
X33913518Y-55608279D01*
X33913516Y-55608288D01*
X33908320Y-55634410D01*
X33906728Y-55640683D01*
X33897907Y-55669119D01*
X33880498Y-55772325D01*
X33878323Y-55785217D01*
X33863051Y-55862002D01*
X33855965Y-55897627D01*
X33855964Y-55897628D01*
X33854012Y-55927416D01*
X33853281Y-55933673D01*
X33847791Y-55966231D01*
X33843961Y-56080768D01*
X33836671Y-56192001D01*
X33838835Y-56225027D01*
X33838933Y-56231155D01*
X33837723Y-56267367D01*
X33837723Y-56267376D01*
X33848880Y-56378281D01*
X33855965Y-56486376D01*
X33855966Y-56486389D01*
X33863050Y-56522003D01*
X33863930Y-56527891D01*
X33867882Y-56567164D01*
X33892996Y-56672546D01*
X33913516Y-56775711D01*
X33913518Y-56775719D01*
X33926230Y-56813171D01*
X33927831Y-56818727D01*
X33937728Y-56860252D01*
X33937730Y-56860257D01*
X33937731Y-56860261D01*
X33975542Y-56958437D01*
X34000825Y-57032917D01*
X34008348Y-57055076D01*
X34027263Y-57093433D01*
X34029515Y-57098573D01*
X34046019Y-57141428D01*
X34046023Y-57141436D01*
X34095076Y-57230946D01*
X34138822Y-57319655D01*
X34138833Y-57319673D01*
X34164380Y-57357907D01*
X34167199Y-57362557D01*
X34190822Y-57405659D01*
X34190829Y-57405671D01*
X34248671Y-57484175D01*
X34250308Y-57486507D01*
X34292773Y-57550061D01*
X34302727Y-57564957D01*
X34335182Y-57601965D01*
X34338482Y-57606068D01*
X34369551Y-57648235D01*
X34435114Y-57716028D01*
X34437160Y-57718249D01*
X34497242Y-57786758D01*
X34532025Y-57817262D01*
X34536670Y-57821336D01*
X34540358Y-57824849D01*
X34579018Y-57864822D01*
X34579020Y-57864824D01*
X34606375Y-57886426D01*
X34650495Y-57921267D01*
X34652950Y-57923311D01*
X34719040Y-57981270D01*
X34719040Y-57981271D01*
X34765336Y-58012205D01*
X34769307Y-58015092D01*
X34815484Y-58051558D01*
X34815485Y-58051558D01*
X34891059Y-58096320D01*
X34893897Y-58098106D01*
X34945617Y-58132665D01*
X34964338Y-58145174D01*
X34981190Y-58153484D01*
X35017187Y-58171236D01*
X35021318Y-58173473D01*
X35055458Y-58193694D01*
X35074717Y-58205102D01*
X35074722Y-58205104D01*
X35074730Y-58205109D01*
X35152665Y-58238156D01*
X35155826Y-58239604D01*
X35228923Y-58275652D01*
X35287759Y-58295624D01*
X35292014Y-58297245D01*
X35352128Y-58322736D01*
X35430640Y-58344242D01*
X35434160Y-58345320D01*
X35508278Y-58370481D01*
X35566967Y-58382154D01*
X35572384Y-58383232D01*
X35576658Y-58384241D01*
X35642729Y-58402340D01*
X35720224Y-58412761D01*
X35724037Y-58413397D01*
X35797620Y-58428034D01*
X35866067Y-58432519D01*
X35870246Y-58432937D01*
X35941347Y-58442500D01*
X36016302Y-58442500D01*
X36020349Y-58442632D01*
X36052372Y-58444731D01*
X36091994Y-58447329D01*
X36092000Y-58447329D01*
X36092004Y-58447329D01*
X36102762Y-58446623D01*
X36164081Y-58442604D01*
X36167222Y-58442500D01*
X36167244Y-58442500D01*
X36240842Y-58437573D01*
X36386380Y-58428034D01*
X36386409Y-58428028D01*
X36387522Y-58427882D01*
X36391478Y-58427489D01*
X36392634Y-58427412D01*
X36535658Y-58398341D01*
X36675722Y-58370481D01*
X36676442Y-58370236D01*
X36684018Y-58368185D01*
X36687903Y-58367396D01*
X36822821Y-58320547D01*
X36955077Y-58275652D01*
X36958687Y-58273871D01*
X36965754Y-58270914D01*
X36972537Y-58268560D01*
X37097220Y-58205554D01*
X37219665Y-58145172D01*
X37225700Y-58141138D01*
X37232164Y-58137364D01*
X37241459Y-58132668D01*
X37354040Y-58055385D01*
X37464957Y-57981273D01*
X37472840Y-57974358D01*
X37478622Y-57969863D01*
X37489869Y-57962144D01*
X37588824Y-57872643D01*
X37686758Y-57786758D01*
X37695799Y-57776446D01*
X37700823Y-57771345D01*
X37713333Y-57760032D01*
X37797443Y-57660545D01*
X37881273Y-57564957D01*
X37890687Y-57550866D01*
X37894895Y-57545279D01*
X37907863Y-57529941D01*
X37907865Y-57529939D01*
X37976276Y-57422775D01*
X38045172Y-57319665D01*
X38054098Y-57301562D01*
X38057441Y-57295631D01*
X38069993Y-57275970D01*
X38093903Y-57224442D01*
X38139974Y-57171921D01*
X38207131Y-57152642D01*
X38274050Y-57172732D01*
X38294062Y-57188959D01*
X38458597Y-57353494D01*
X38652169Y-57489034D01*
X38652171Y-57489035D01*
X38866337Y-57588903D01*
X39094592Y-57650063D01*
X39271034Y-57665500D01*
X39638966Y-57665500D01*
X39815408Y-57650063D01*
X40043663Y-57588903D01*
X40257829Y-57489035D01*
X40451401Y-57353495D01*
X40618495Y-57186401D01*
X40753651Y-56993377D01*
X40808229Y-56949752D01*
X40855227Y-56940500D01*
X43446500Y-56940500D01*
X43513539Y-56960185D01*
X43559294Y-57012989D01*
X43570500Y-57064500D01*
X43570500Y-60750255D01*
X43568775Y-60765872D01*
X43569061Y-60765899D01*
X43568326Y-60773665D01*
X43570500Y-60842814D01*
X43570500Y-60872343D01*
X43570501Y-60872360D01*
X43571368Y-60879231D01*
X43571826Y-60885050D01*
X43573290Y-60931624D01*
X43573291Y-60931627D01*
X43578880Y-60950867D01*
X43582824Y-60969911D01*
X43585336Y-60989791D01*
X43602490Y-61033119D01*
X43604382Y-61038647D01*
X43617381Y-61083388D01*
X43627580Y-61100634D01*
X43636138Y-61118103D01*
X43643514Y-61136732D01*
X43670898Y-61174423D01*
X43674106Y-61179307D01*
X43697827Y-61219416D01*
X43697833Y-61219424D01*
X43711990Y-61233580D01*
X43724628Y-61248376D01*
X43736405Y-61264586D01*
X43736406Y-61264587D01*
X43772309Y-61294288D01*
X43776620Y-61298210D01*
X59361846Y-76883437D01*
X64459197Y-81980788D01*
X64469022Y-81993051D01*
X64469243Y-81992869D01*
X64474214Y-81998878D01*
X64500217Y-82023295D01*
X64524635Y-82046226D01*
X64545529Y-82067120D01*
X64551011Y-82071373D01*
X64555443Y-82075157D01*
X64589418Y-82107062D01*
X64606976Y-82116714D01*
X64623235Y-82127395D01*
X64639064Y-82139673D01*
X64681838Y-82158182D01*
X64687056Y-82160738D01*
X64727908Y-82183197D01*
X64747316Y-82188180D01*
X64765717Y-82194480D01*
X64784104Y-82202437D01*
X64827488Y-82209308D01*
X64830119Y-82209725D01*
X64835839Y-82210909D01*
X64880981Y-82222500D01*
X64880987Y-82222500D01*
X64888724Y-82223478D01*
X64888451Y-82225635D01*
X64944812Y-82242185D01*
X64979348Y-82275377D01*
X65114501Y-82468396D01*
X65114506Y-82468402D01*
X65281597Y-82635493D01*
X65281603Y-82635498D01*
X65467158Y-82765425D01*
X65510783Y-82820002D01*
X65517977Y-82889500D01*
X65486454Y-82951855D01*
X65467158Y-82968575D01*
X65281597Y-83098505D01*
X65114505Y-83265597D01*
X64978965Y-83459169D01*
X64978964Y-83459171D01*
X64879098Y-83673335D01*
X64879094Y-83673344D01*
X64817938Y-83901586D01*
X64817936Y-83901596D01*
X64797341Y-84136999D01*
X64797341Y-84137000D01*
X64817936Y-84372403D01*
X64817938Y-84372413D01*
X64879094Y-84600655D01*
X64879096Y-84600659D01*
X64879097Y-84600663D01*
X64953204Y-84759586D01*
X64978965Y-84814830D01*
X64978967Y-84814834D01*
X65114501Y-85008395D01*
X65114506Y-85008402D01*
X65281597Y-85175493D01*
X65281603Y-85175498D01*
X65467158Y-85305425D01*
X65510783Y-85360002D01*
X65517977Y-85429500D01*
X65486454Y-85491855D01*
X65467158Y-85508575D01*
X65281597Y-85638505D01*
X65114505Y-85805597D01*
X64978965Y-85999169D01*
X64978964Y-85999171D01*
X64879098Y-86213335D01*
X64879094Y-86213344D01*
X64817938Y-86441586D01*
X64817936Y-86441596D01*
X64797341Y-86676999D01*
X64797341Y-86677000D01*
X64817936Y-86912403D01*
X64817938Y-86912413D01*
X64879094Y-87140655D01*
X64879096Y-87140659D01*
X64879097Y-87140663D01*
X64978475Y-87353780D01*
X64978965Y-87354830D01*
X64978967Y-87354834D01*
X65114501Y-87548395D01*
X65114506Y-87548402D01*
X65281597Y-87715493D01*
X65281603Y-87715498D01*
X65467158Y-87845425D01*
X65510783Y-87900002D01*
X65517977Y-87969500D01*
X65486454Y-88031855D01*
X65467158Y-88048575D01*
X65281597Y-88178505D01*
X65114505Y-88345597D01*
X64978965Y-88539169D01*
X64978964Y-88539171D01*
X64879098Y-88753335D01*
X64879094Y-88753344D01*
X64817938Y-88981586D01*
X64817936Y-88981596D01*
X64797341Y-89216999D01*
X64797341Y-89217000D01*
X64817936Y-89452403D01*
X64817938Y-89452413D01*
X64879094Y-89680655D01*
X64879096Y-89680659D01*
X64879097Y-89680663D01*
X64925630Y-89780453D01*
X64978965Y-89894830D01*
X64978967Y-89894834D01*
X65069613Y-90024289D01*
X65114505Y-90088401D01*
X65281599Y-90255495D01*
X65365800Y-90314453D01*
X65475165Y-90391032D01*
X65475167Y-90391033D01*
X65475170Y-90391035D01*
X65689337Y-90490903D01*
X65917592Y-90552063D01*
X66087999Y-90566972D01*
X66153067Y-90592425D01*
X66155697Y-90596057D01*
X66193874Y-90571523D01*
X66218001Y-90566972D01*
X66388408Y-90552063D01*
X66616663Y-90490903D01*
X66830830Y-90391035D01*
X67024401Y-90255495D01*
X67191495Y-90088401D01*
X67326651Y-89895377D01*
X67381229Y-89851752D01*
X67428227Y-89842500D01*
X70593257Y-89842500D01*
X70608877Y-89844224D01*
X70608904Y-89843939D01*
X70616660Y-89844671D01*
X70616667Y-89844673D01*
X70685814Y-89842500D01*
X70715350Y-89842500D01*
X70722228Y-89841630D01*
X70728041Y-89841172D01*
X70774627Y-89839709D01*
X70793869Y-89834117D01*
X70812912Y-89830174D01*
X70832792Y-89827664D01*
X70876122Y-89810507D01*
X70881646Y-89808617D01*
X70885396Y-89807527D01*
X70926390Y-89795618D01*
X70943629Y-89785422D01*
X70961103Y-89776862D01*
X70979727Y-89769488D01*
X70979727Y-89769487D01*
X70979732Y-89769486D01*
X71017449Y-89742082D01*
X71022305Y-89738892D01*
X71062420Y-89715170D01*
X71076589Y-89700999D01*
X71091379Y-89688368D01*
X71107587Y-89676594D01*
X71137299Y-89640676D01*
X71141212Y-89636376D01*
X73408786Y-87368802D01*
X73421048Y-87358980D01*
X73420865Y-87358759D01*
X73426867Y-87353792D01*
X73426877Y-87353786D01*
X73474241Y-87303348D01*
X73495120Y-87282470D01*
X73499373Y-87276986D01*
X73503150Y-87272563D01*
X73535062Y-87238582D01*
X73544714Y-87221023D01*
X73555389Y-87204772D01*
X73567674Y-87188936D01*
X73586186Y-87146152D01*
X73588742Y-87140935D01*
X73611197Y-87100092D01*
X73616180Y-87080680D01*
X73622477Y-87062291D01*
X73630438Y-87043895D01*
X73637729Y-86997853D01*
X73638908Y-86992162D01*
X73650500Y-86947019D01*
X73650500Y-86926983D01*
X73652027Y-86907582D01*
X73655160Y-86887804D01*
X73650775Y-86841415D01*
X73650500Y-86835577D01*
X73650500Y-46850500D01*
X73670185Y-46783461D01*
X73722989Y-46737706D01*
X73774500Y-46726500D01*
X105620501Y-46726500D01*
X105687540Y-46746185D01*
X105733295Y-46798989D01*
X105744501Y-46850500D01*
X105744501Y-46865018D01*
X105755000Y-46967796D01*
X105755001Y-46967799D01*
X105779010Y-47040252D01*
X105810186Y-47134334D01*
X105897539Y-47275957D01*
X105902289Y-47283657D01*
X106026344Y-47407712D01*
X106181120Y-47503178D01*
X106227845Y-47555126D01*
X106239068Y-47624088D01*
X106211224Y-47688171D01*
X106203706Y-47696398D01*
X106056501Y-47843603D01*
X106056501Y-47843604D01*
X105920967Y-48037165D01*
X105920965Y-48037169D01*
X105821098Y-48251335D01*
X105821094Y-48251344D01*
X105759938Y-48479586D01*
X105759936Y-48479596D01*
X105739341Y-48714999D01*
X105739341Y-48715000D01*
X105759936Y-48950403D01*
X105759938Y-48950413D01*
X105821094Y-49178655D01*
X105821096Y-49178659D01*
X105821097Y-49178663D01*
X105840162Y-49219547D01*
X105920964Y-49392828D01*
X105920965Y-49392830D01*
X106056505Y-49586402D01*
X106223597Y-49753494D01*
X106380595Y-49863425D01*
X106424220Y-49918002D01*
X106431414Y-49987500D01*
X106399891Y-50049855D01*
X106380595Y-50066575D01*
X106223597Y-50176505D01*
X106056506Y-50343597D01*
X106056501Y-50343604D01*
X105920967Y-50537165D01*
X105920965Y-50537169D01*
X105821098Y-50751335D01*
X105821094Y-50751344D01*
X105759938Y-50979586D01*
X105759936Y-50979596D01*
X105739341Y-51214999D01*
X105739341Y-51215000D01*
X105759936Y-51450403D01*
X105759938Y-51450413D01*
X105821094Y-51678655D01*
X105821096Y-51678659D01*
X105821097Y-51678663D01*
X105871030Y-51785746D01*
X105920964Y-51892828D01*
X105920965Y-51892830D01*
X106056505Y-52086402D01*
X106223596Y-52253493D01*
X106223599Y-52253495D01*
X106366414Y-52353495D01*
X106380595Y-52363424D01*
X106424220Y-52418000D01*
X106431414Y-52487499D01*
X106399891Y-52549854D01*
X106380596Y-52566574D01*
X106223594Y-52676508D01*
X106056506Y-52843597D01*
X106056501Y-52843604D01*
X105920967Y-53037165D01*
X105920965Y-53037169D01*
X105821098Y-53251335D01*
X105821094Y-53251344D01*
X105759938Y-53479586D01*
X105759936Y-53479596D01*
X105739341Y-53714999D01*
X105739341Y-53715000D01*
X105759936Y-53950403D01*
X105759938Y-53950413D01*
X105821094Y-54178655D01*
X105821096Y-54178659D01*
X105821097Y-54178663D01*
X105862516Y-54267486D01*
X105920964Y-54392828D01*
X105920965Y-54392830D01*
X106056505Y-54586402D01*
X106223597Y-54753494D01*
X106380595Y-54863425D01*
X106424220Y-54918002D01*
X106431414Y-54987500D01*
X106399891Y-55049855D01*
X106380595Y-55066575D01*
X106223597Y-55176505D01*
X106056506Y-55343597D01*
X106056501Y-55343604D01*
X105920967Y-55537165D01*
X105920965Y-55537169D01*
X105821098Y-55751335D01*
X105821094Y-55751344D01*
X105759938Y-55979586D01*
X105759936Y-55979596D01*
X105739341Y-56214999D01*
X105739341Y-56215000D01*
X105759936Y-56450403D01*
X105759938Y-56450413D01*
X105821094Y-56678655D01*
X105821096Y-56678659D01*
X105821097Y-56678663D01*
X105866355Y-56775719D01*
X105920964Y-56892828D01*
X105920965Y-56892830D01*
X106056505Y-57086402D01*
X106223597Y-57253494D01*
X106417169Y-57389034D01*
X106417171Y-57389035D01*
X106631337Y-57488903D01*
X106631343Y-57488904D01*
X106631344Y-57488905D01*
X106686285Y-57503626D01*
X106859592Y-57550063D01*
X107036034Y-57565500D01*
X107403966Y-57565500D01*
X107580408Y-57550063D01*
X107808663Y-57488903D01*
X108022829Y-57389035D01*
X108216401Y-57253495D01*
X108383495Y-57086401D01*
X108519035Y-56892830D01*
X108618903Y-56678663D01*
X108680063Y-56450408D01*
X108700659Y-56215000D01*
X108700332Y-56211268D01*
X108698646Y-56192001D01*
X109946671Y-56192001D01*
X109948835Y-56225027D01*
X109948933Y-56231155D01*
X109947723Y-56267367D01*
X109947723Y-56267376D01*
X109958880Y-56378281D01*
X109965965Y-56486376D01*
X109965966Y-56486389D01*
X109973050Y-56522003D01*
X109973930Y-56527891D01*
X109977882Y-56567164D01*
X110002996Y-56672546D01*
X110023516Y-56775711D01*
X110023518Y-56775719D01*
X110036230Y-56813171D01*
X110037831Y-56818727D01*
X110047728Y-56860252D01*
X110047730Y-56860257D01*
X110047731Y-56860261D01*
X110085542Y-56958437D01*
X110110825Y-57032917D01*
X110118348Y-57055076D01*
X110137263Y-57093433D01*
X110139515Y-57098573D01*
X110156019Y-57141428D01*
X110156023Y-57141436D01*
X110205076Y-57230946D01*
X110248822Y-57319655D01*
X110248833Y-57319673D01*
X110274380Y-57357907D01*
X110277199Y-57362557D01*
X110300822Y-57405659D01*
X110300829Y-57405671D01*
X110358671Y-57484175D01*
X110360308Y-57486507D01*
X110402773Y-57550061D01*
X110412727Y-57564957D01*
X110445182Y-57601965D01*
X110448482Y-57606068D01*
X110479551Y-57648235D01*
X110545114Y-57716028D01*
X110547160Y-57718249D01*
X110607242Y-57786758D01*
X110642025Y-57817262D01*
X110646670Y-57821336D01*
X110650358Y-57824849D01*
X110689018Y-57864822D01*
X110689020Y-57864824D01*
X110716375Y-57886426D01*
X110760495Y-57921267D01*
X110762950Y-57923311D01*
X110829040Y-57981270D01*
X110829040Y-57981271D01*
X110875336Y-58012205D01*
X110879307Y-58015092D01*
X110925484Y-58051558D01*
X110925485Y-58051558D01*
X111001059Y-58096320D01*
X111003897Y-58098106D01*
X111055617Y-58132665D01*
X111074338Y-58145174D01*
X111091190Y-58153484D01*
X111127187Y-58171236D01*
X111131318Y-58173473D01*
X111165458Y-58193694D01*
X111184717Y-58205102D01*
X111184722Y-58205104D01*
X111184730Y-58205109D01*
X111262665Y-58238156D01*
X111265826Y-58239604D01*
X111338923Y-58275652D01*
X111397759Y-58295624D01*
X111402014Y-58297245D01*
X111462128Y-58322736D01*
X111540640Y-58344242D01*
X111544160Y-58345320D01*
X111618278Y-58370481D01*
X111676967Y-58382154D01*
X111682384Y-58383232D01*
X111686658Y-58384241D01*
X111752729Y-58402340D01*
X111830224Y-58412761D01*
X111834037Y-58413397D01*
X111907620Y-58428034D01*
X111976067Y-58432519D01*
X111980246Y-58432937D01*
X112051347Y-58442500D01*
X112126302Y-58442500D01*
X112130349Y-58442632D01*
X112162372Y-58444731D01*
X112201994Y-58447329D01*
X112202000Y-58447329D01*
X112202004Y-58447329D01*
X112212762Y-58446623D01*
X112274081Y-58442604D01*
X112277222Y-58442500D01*
X112277244Y-58442500D01*
X112350842Y-58437573D01*
X112496380Y-58428034D01*
X112496409Y-58428028D01*
X112497522Y-58427882D01*
X112501478Y-58427489D01*
X112502634Y-58427412D01*
X112645658Y-58398341D01*
X112785722Y-58370481D01*
X112786442Y-58370236D01*
X112794018Y-58368185D01*
X112797903Y-58367396D01*
X112932821Y-58320547D01*
X113065077Y-58275652D01*
X113068687Y-58273871D01*
X113075754Y-58270914D01*
X113082537Y-58268560D01*
X113207220Y-58205554D01*
X113329665Y-58145172D01*
X113335700Y-58141138D01*
X113342164Y-58137364D01*
X113351459Y-58132668D01*
X113464040Y-58055385D01*
X113574957Y-57981273D01*
X113582840Y-57974358D01*
X113588622Y-57969863D01*
X113599869Y-57962144D01*
X113698824Y-57872643D01*
X113796758Y-57786758D01*
X113805799Y-57776446D01*
X113810823Y-57771345D01*
X113823333Y-57760032D01*
X113907443Y-57660545D01*
X113991273Y-57564957D01*
X114000687Y-57550866D01*
X114004895Y-57545279D01*
X114017863Y-57529941D01*
X114017865Y-57529939D01*
X114086276Y-57422775D01*
X114155172Y-57319665D01*
X114164098Y-57301562D01*
X114167441Y-57295631D01*
X114179993Y-57275970D01*
X114232195Y-57163476D01*
X114285652Y-57055077D01*
X114293179Y-57032899D01*
X114295641Y-57026752D01*
X114306823Y-57002658D01*
X114342632Y-56887219D01*
X114380481Y-56775722D01*
X114385677Y-56749597D01*
X114387271Y-56743316D01*
X114396093Y-56714879D01*
X114415676Y-56598782D01*
X114438034Y-56486380D01*
X114439986Y-56456576D01*
X114440714Y-56450342D01*
X114446209Y-56417770D01*
X114450038Y-56303231D01*
X114453700Y-56247371D01*
X114457329Y-56192005D01*
X114457329Y-56192001D01*
X114457329Y-56192000D01*
X114455162Y-56158955D01*
X114455065Y-56152849D01*
X114456277Y-56116631D01*
X114445119Y-56005718D01*
X114438034Y-55897620D01*
X114430944Y-55861977D01*
X114430068Y-55856107D01*
X114426118Y-55816840D01*
X114426118Y-55816838D01*
X114401003Y-55711454D01*
X114380481Y-55608278D01*
X114367764Y-55570816D01*
X114366169Y-55565283D01*
X114356269Y-55523739D01*
X114352408Y-55513715D01*
X114318457Y-55425562D01*
X114306200Y-55389455D01*
X114285652Y-55328923D01*
X114266732Y-55290556D01*
X114264485Y-55285429D01*
X114247977Y-55242566D01*
X114216285Y-55184737D01*
X114198919Y-55153046D01*
X114156276Y-55066575D01*
X114155172Y-55064336D01*
X114129612Y-55026083D01*
X114126798Y-55021444D01*
X114124912Y-55018002D01*
X114103175Y-54978335D01*
X114045312Y-54899802D01*
X114043706Y-54897514D01*
X113991273Y-54819043D01*
X113958817Y-54782033D01*
X113955516Y-54777930D01*
X113937511Y-54753494D01*
X113924446Y-54735762D01*
X113904801Y-54715449D01*
X113858884Y-54667970D01*
X113856838Y-54665749D01*
X113796760Y-54597244D01*
X113757322Y-54562656D01*
X113753635Y-54559144D01*
X113714981Y-54519176D01*
X113643514Y-54462740D01*
X113641059Y-54460696D01*
X113574960Y-54402729D01*
X113528656Y-54371788D01*
X113524677Y-54368894D01*
X113478517Y-54332443D01*
X113463677Y-54323653D01*
X113402918Y-54287666D01*
X113400089Y-54285884D01*
X113396410Y-54283426D01*
X113348379Y-54251332D01*
X113329666Y-54238828D01*
X113276821Y-54212767D01*
X113272668Y-54210518D01*
X113219270Y-54178891D01*
X113219266Y-54178889D01*
X113219262Y-54178887D01*
X113189641Y-54166327D01*
X113141346Y-54145847D01*
X113138157Y-54144386D01*
X113065075Y-54108347D01*
X113006243Y-54088375D01*
X113001969Y-54086746D01*
X112963174Y-54070297D01*
X112941872Y-54061264D01*
X112941868Y-54061263D01*
X112941866Y-54061262D01*
X112863365Y-54039757D01*
X112859815Y-54038670D01*
X112785734Y-54013522D01*
X112785723Y-54013519D01*
X112785722Y-54013519D01*
X112721608Y-54000765D01*
X112717333Y-53999756D01*
X112651281Y-53981662D01*
X112651265Y-53981658D01*
X112573792Y-53971239D01*
X112569962Y-53970601D01*
X112523006Y-53961262D01*
X112496380Y-53955966D01*
X112496377Y-53955965D01*
X112496374Y-53955965D01*
X112427959Y-53951481D01*
X112423750Y-53951061D01*
X112389282Y-53946426D01*
X112352653Y-53941500D01*
X112352650Y-53941500D01*
X112277698Y-53941500D01*
X112273650Y-53941367D01*
X112241627Y-53939268D01*
X112202006Y-53936671D01*
X112202002Y-53936671D01*
X112202000Y-53936671D01*
X112153934Y-53939821D01*
X112129985Y-53941391D01*
X112126765Y-53941499D01*
X112053157Y-53946426D01*
X111907620Y-53955965D01*
X111906420Y-53956123D01*
X111902506Y-53956511D01*
X111901375Y-53956587D01*
X111901372Y-53956587D01*
X111901366Y-53956588D01*
X111758340Y-53985657D01*
X111758341Y-53985658D01*
X111618277Y-54013518D01*
X111618270Y-54013520D01*
X111617508Y-54013779D01*
X111609943Y-54015822D01*
X111606098Y-54016603D01*
X111542548Y-54038670D01*
X111471178Y-54063452D01*
X111425442Y-54078977D01*
X111338927Y-54108346D01*
X111338922Y-54108348D01*
X111335320Y-54110124D01*
X111328241Y-54113086D01*
X111321462Y-54115440D01*
X111196757Y-54178456D01*
X111074343Y-54238823D01*
X111074328Y-54238832D01*
X111068301Y-54242858D01*
X111061828Y-54246637D01*
X111052544Y-54251329D01*
X110939943Y-54328625D01*
X110843858Y-54392828D01*
X110829043Y-54402727D01*
X110821156Y-54409642D01*
X110815373Y-54414138D01*
X110804132Y-54421854D01*
X110705175Y-54511356D01*
X110607241Y-54597242D01*
X110598196Y-54607555D01*
X110593175Y-54612653D01*
X110580668Y-54623966D01*
X110496556Y-54723454D01*
X110412726Y-54819042D01*
X110403308Y-54833136D01*
X110399106Y-54838716D01*
X110386141Y-54854052D01*
X110386140Y-54854053D01*
X110317715Y-54961237D01*
X110248830Y-55064331D01*
X110239905Y-55082427D01*
X110236560Y-55088362D01*
X110224006Y-55108031D01*
X110171801Y-55220530D01*
X110118350Y-55328918D01*
X110118345Y-55328930D01*
X110110822Y-55351089D01*
X110108353Y-55357257D01*
X110097176Y-55381344D01*
X110097171Y-55381358D01*
X110061367Y-55496780D01*
X110023518Y-55608279D01*
X110023516Y-55608288D01*
X110018320Y-55634410D01*
X110016728Y-55640683D01*
X110007907Y-55669119D01*
X109990498Y-55772325D01*
X109988323Y-55785217D01*
X109973051Y-55862002D01*
X109965965Y-55897627D01*
X109965964Y-55897628D01*
X109964012Y-55927416D01*
X109963281Y-55933673D01*
X109957791Y-55966231D01*
X109953961Y-56080768D01*
X109946671Y-56192001D01*
X108698646Y-56192001D01*
X108693098Y-56128580D01*
X108680063Y-55979592D01*
X108633264Y-55804935D01*
X108618905Y-55751344D01*
X108618904Y-55751343D01*
X108618903Y-55751337D01*
X108519035Y-55537171D01*
X108519034Y-55537169D01*
X108383494Y-55343597D01*
X108216402Y-55176505D01*
X108059403Y-55066574D01*
X108015778Y-55011997D01*
X108008584Y-54942499D01*
X108040107Y-54880144D01*
X108059391Y-54863433D01*
X108216401Y-54753495D01*
X108383495Y-54586401D01*
X108519035Y-54392830D01*
X108519039Y-54392821D01*
X108521743Y-54388139D01*
X108523887Y-54389377D01*
X108563121Y-54344760D01*
X108613863Y-54326539D01*
X108620792Y-54325664D01*
X108664122Y-54308507D01*
X108669646Y-54306617D01*
X108673396Y-54305527D01*
X108714390Y-54293618D01*
X108731629Y-54283422D01*
X108749103Y-54274862D01*
X108767727Y-54267488D01*
X108767727Y-54267487D01*
X108767732Y-54267486D01*
X108805449Y-54240082D01*
X108810305Y-54236892D01*
X108850420Y-54213170D01*
X108864589Y-54198999D01*
X108879379Y-54186368D01*
X108895587Y-54174594D01*
X108925299Y-54138676D01*
X108929212Y-54134376D01*
X109950771Y-53112819D01*
X110012095Y-53079334D01*
X110038453Y-53076500D01*
X114598257Y-53076500D01*
X114613877Y-53078224D01*
X114613904Y-53077939D01*
X114621660Y-53078671D01*
X114621667Y-53078673D01*
X114690814Y-53076500D01*
X114720350Y-53076500D01*
X114727228Y-53075630D01*
X114733041Y-53075172D01*
X114779627Y-53073709D01*
X114798869Y-53068117D01*
X114817912Y-53064174D01*
X114837792Y-53061664D01*
X114881122Y-53044507D01*
X114886646Y-53042617D01*
X114896418Y-53039778D01*
X114931390Y-53029618D01*
X114948629Y-53019422D01*
X114966103Y-53010862D01*
X114984727Y-53003488D01*
X114984727Y-53003487D01*
X114984732Y-53003486D01*
X115022449Y-52976082D01*
X115027305Y-52972892D01*
X115067420Y-52949170D01*
X115081589Y-52934999D01*
X115096379Y-52922368D01*
X115112587Y-52910594D01*
X115142299Y-52874676D01*
X115146212Y-52870376D01*
X117223788Y-50792801D01*
X117236042Y-50782986D01*
X117235859Y-50782764D01*
X117241866Y-50777792D01*
X117241877Y-50777786D01*
X117272775Y-50744882D01*
X117289227Y-50727364D01*
X117299671Y-50716918D01*
X117310120Y-50706471D01*
X117314379Y-50700978D01*
X117318152Y-50696561D01*
X117350062Y-50662582D01*
X117359713Y-50645024D01*
X117370396Y-50628761D01*
X117382673Y-50612936D01*
X117401185Y-50570153D01*
X117403738Y-50564941D01*
X117426197Y-50524092D01*
X117431180Y-50504680D01*
X117437481Y-50486280D01*
X117445437Y-50467896D01*
X117452729Y-50421852D01*
X117453906Y-50416171D01*
X117465500Y-50371019D01*
X117465500Y-50350982D01*
X117467027Y-50331582D01*
X117470160Y-50311803D01*
X117470160Y-50311800D01*
X117466823Y-50276506D01*
X117465772Y-50265394D01*
X117465499Y-50259599D01*
X117465499Y-44532749D01*
X117467224Y-44517128D01*
X117466938Y-44517101D01*
X117467671Y-44509341D01*
X117467673Y-44509333D01*
X117465500Y-44440185D01*
X117465500Y-44410650D01*
X117464631Y-44403772D01*
X117464172Y-44397943D01*
X117462709Y-44351372D01*
X117457122Y-44332144D01*
X117453174Y-44313084D01*
X117450664Y-44293208D01*
X117450663Y-44293206D01*
X117450663Y-44293204D01*
X117433512Y-44249887D01*
X117431619Y-44244358D01*
X117418618Y-44199609D01*
X117418616Y-44199606D01*
X117408423Y-44182371D01*
X117399861Y-44164894D01*
X117392487Y-44146270D01*
X117392486Y-44146268D01*
X117365079Y-44108545D01*
X117361888Y-44103686D01*
X117338172Y-44063583D01*
X117338165Y-44063574D01*
X117324006Y-44049415D01*
X117311368Y-44034619D01*
X117299594Y-44018413D01*
X117263688Y-43988709D01*
X117259376Y-43984786D01*
X115308803Y-42034212D01*
X115298980Y-42021950D01*
X115298759Y-42022134D01*
X115293786Y-42016123D01*
X115275159Y-41998631D01*
X115243364Y-41968773D01*
X115232919Y-41958328D01*
X115222475Y-41947883D01*
X115216986Y-41943625D01*
X115212561Y-41939847D01*
X115178582Y-41907938D01*
X115178580Y-41907936D01*
X115178577Y-41907935D01*
X115161029Y-41898288D01*
X115144763Y-41887604D01*
X115128933Y-41875325D01*
X115086168Y-41856818D01*
X115080922Y-41854248D01*
X115040093Y-41831803D01*
X115040092Y-41831802D01*
X115020693Y-41826822D01*
X115002281Y-41820518D01*
X114983898Y-41812562D01*
X114983892Y-41812560D01*
X114937874Y-41805272D01*
X114932152Y-41804087D01*
X114887021Y-41792500D01*
X114887019Y-41792500D01*
X114866984Y-41792500D01*
X114847586Y-41790973D01*
X114840162Y-41789797D01*
X114827805Y-41787840D01*
X114827804Y-41787840D01*
X114781416Y-41792225D01*
X114775578Y-41792500D01*
X31959738Y-41792500D01*
X31944121Y-41790776D01*
X31944094Y-41791062D01*
X31936332Y-41790327D01*
X31867204Y-41792500D01*
X31837650Y-41792500D01*
X31836929Y-41792590D01*
X31830757Y-41793369D01*
X31824945Y-41793826D01*
X31778373Y-41795290D01*
X31778372Y-41795290D01*
X31759129Y-41800881D01*
X31740079Y-41804825D01*
X31720211Y-41807334D01*
X31676884Y-41824488D01*
X31671358Y-41826379D01*
X31626614Y-41839379D01*
X31626610Y-41839381D01*
X31609366Y-41849579D01*
X31591905Y-41858133D01*
X31573274Y-41865510D01*
X31573262Y-41865517D01*
X31535570Y-41892902D01*
X31530687Y-41896109D01*
X31490580Y-41919829D01*
X31476414Y-41933995D01*
X31461624Y-41946627D01*
X31445414Y-41958404D01*
X31445411Y-41958407D01*
X31415710Y-41994309D01*
X31411777Y-41998631D01*
X30350208Y-43060199D01*
X30337951Y-43070020D01*
X30338134Y-43070241D01*
X30332123Y-43075213D01*
X30284772Y-43125636D01*
X30263889Y-43146519D01*
X30263877Y-43146532D01*
X30259621Y-43152017D01*
X30255837Y-43156447D01*
X30223937Y-43190418D01*
X30223936Y-43190420D01*
X30214284Y-43207976D01*
X30203610Y-43224226D01*
X30191329Y-43240061D01*
X30191324Y-43240068D01*
X30172815Y-43282838D01*
X30170245Y-43288084D01*
X30147803Y-43328906D01*
X30142822Y-43348307D01*
X30136521Y-43366710D01*
X30128562Y-43385102D01*
X30128561Y-43385105D01*
X30121271Y-43431127D01*
X30120087Y-43436846D01*
X30108501Y-43481972D01*
X30108500Y-43481982D01*
X30108500Y-43502016D01*
X30106973Y-43521415D01*
X30103840Y-43541194D01*
X30103840Y-43541195D01*
X30108225Y-43587583D01*
X30108500Y-43593421D01*
X30108500Y-49447255D01*
X30106775Y-49462872D01*
X30107061Y-49462899D01*
X30106326Y-49470665D01*
X30108500Y-49539814D01*
X30108500Y-49569343D01*
X30108501Y-49569360D01*
X30109368Y-49576231D01*
X30109826Y-49582050D01*
X30111290Y-49628624D01*
X30111291Y-49628627D01*
X30116880Y-49647867D01*
X30120824Y-49666911D01*
X30123286Y-49686395D01*
X30123336Y-49686791D01*
X30140490Y-49730119D01*
X30142382Y-49735647D01*
X30155381Y-49780388D01*
X30165580Y-49797634D01*
X30174138Y-49815103D01*
X30181514Y-49833732D01*
X30208898Y-49871423D01*
X30212106Y-49876307D01*
X30235827Y-49916416D01*
X30235833Y-49916424D01*
X30249990Y-49930580D01*
X30262627Y-49945375D01*
X30274406Y-49961587D01*
X30307585Y-49989035D01*
X30310309Y-49991288D01*
X30314620Y-49995210D01*
X31432182Y-51112773D01*
X31793727Y-51474318D01*
X31827212Y-51535641D01*
X31822228Y-51605333D01*
X31793727Y-51649680D01*
X30604208Y-52839199D01*
X30591951Y-52849020D01*
X30592134Y-52849241D01*
X30586123Y-52854213D01*
X30538772Y-52904636D01*
X30517889Y-52925519D01*
X30517877Y-52925532D01*
X30513621Y-52931017D01*
X30509837Y-52935447D01*
X30477937Y-52969418D01*
X30477936Y-52969420D01*
X30468284Y-52986976D01*
X30457610Y-53003226D01*
X30445329Y-53019061D01*
X30445324Y-53019068D01*
X30426815Y-53061838D01*
X30424245Y-53067084D01*
X30401803Y-53107906D01*
X30396822Y-53127307D01*
X30390521Y-53145710D01*
X30382562Y-53164102D01*
X30382561Y-53164105D01*
X30375271Y-53210127D01*
X30374087Y-53215846D01*
X30362501Y-53260972D01*
X30362500Y-53260982D01*
X30362500Y-53281016D01*
X30360973Y-53300415D01*
X30357840Y-53320194D01*
X30357840Y-53320195D01*
X30362225Y-53366583D01*
X30362500Y-53372421D01*
X30362499Y-65957255D01*
X30360776Y-65972872D01*
X30361061Y-65972899D01*
X30360326Y-65980665D01*
X30362500Y-66049814D01*
X30362500Y-66079343D01*
X30362501Y-66079360D01*
X30363368Y-66086231D01*
X30363826Y-66092050D01*
X30365290Y-66138624D01*
X30365291Y-66138627D01*
X30370880Y-66157867D01*
X30374824Y-66176911D01*
X30376046Y-66186580D01*
X30377336Y-66196791D01*
X30394490Y-66240119D01*
X30396382Y-66245647D01*
X30409381Y-66290388D01*
X30419580Y-66307634D01*
X30428138Y-66325103D01*
X30435514Y-66343732D01*
X30462898Y-66381423D01*
X30466106Y-66386307D01*
X30489827Y-66426416D01*
X30489833Y-66426424D01*
X30503990Y-66440580D01*
X30516628Y-66455376D01*
X30528405Y-66471586D01*
X30528406Y-66471587D01*
X30564309Y-66501288D01*
X30568620Y-66505210D01*
X37169007Y-73105597D01*
X43661181Y-79597771D01*
X43694666Y-79659094D01*
X43697500Y-79685452D01*
X43697500Y-84245255D01*
X43695775Y-84260872D01*
X43696061Y-84260899D01*
X43695326Y-84268665D01*
X43697500Y-84337814D01*
X43697500Y-84367343D01*
X43697501Y-84367360D01*
X43698368Y-84374231D01*
X43698826Y-84380050D01*
X43700290Y-84426624D01*
X43700291Y-84426627D01*
X43705880Y-84445867D01*
X43709824Y-84464911D01*
X43712336Y-84484791D01*
X43729490Y-84528119D01*
X43731382Y-84533647D01*
X43744381Y-84578388D01*
X43754580Y-84595634D01*
X43763138Y-84613103D01*
X43770514Y-84631732D01*
X43797898Y-84669423D01*
X43801106Y-84674307D01*
X43824827Y-84714416D01*
X43824833Y-84714424D01*
X43838990Y-84728580D01*
X43851628Y-84743376D01*
X43863405Y-84759586D01*
X43863406Y-84759587D01*
X43899309Y-84789288D01*
X43903620Y-84793210D01*
X50283540Y-91173131D01*
X52077197Y-92966788D01*
X52087022Y-92979051D01*
X52087243Y-92978869D01*
X52092214Y-92984878D01*
X52113043Y-93004437D01*
X52142635Y-93032226D01*
X52163529Y-93053120D01*
X52169011Y-93057373D01*
X52173443Y-93061157D01*
X52207418Y-93093062D01*
X52224976Y-93102714D01*
X52241233Y-93113393D01*
X52257064Y-93125673D01*
X52276737Y-93134186D01*
X52299833Y-93144182D01*
X52305077Y-93146750D01*
X52345908Y-93169197D01*
X52358523Y-93172435D01*
X52365305Y-93174177D01*
X52383719Y-93180481D01*
X52402104Y-93188438D01*
X52448157Y-93195732D01*
X52453826Y-93196906D01*
X52498981Y-93208500D01*
X52519016Y-93208500D01*
X52538413Y-93210026D01*
X52558196Y-93213160D01*
X52604583Y-93208775D01*
X52610422Y-93208500D01*
X77704257Y-93208500D01*
X77719877Y-93210224D01*
X77719904Y-93209939D01*
X77727660Y-93210671D01*
X77727667Y-93210673D01*
X77796814Y-93208500D01*
X77826350Y-93208500D01*
X77833228Y-93207630D01*
X77839041Y-93207172D01*
X77885627Y-93205709D01*
X77904869Y-93200117D01*
X77923912Y-93196174D01*
X77943792Y-93193664D01*
X77987122Y-93176507D01*
X77992646Y-93174617D01*
X77996396Y-93173527D01*
X78037390Y-93161618D01*
X78054629Y-93151422D01*
X78072103Y-93142862D01*
X78090727Y-93135488D01*
X78090727Y-93135487D01*
X78090732Y-93135486D01*
X78128449Y-93108082D01*
X78133305Y-93104892D01*
X78173420Y-93081170D01*
X78187589Y-93066999D01*
X78202379Y-93054368D01*
X78218587Y-93042594D01*
X78248299Y-93006676D01*
X78252212Y-93002376D01*
X80697354Y-90557235D01*
X80758675Y-90523752D01*
X80817123Y-90525142D01*
X80917592Y-90552063D01*
X81087999Y-90566972D01*
X81152999Y-90572659D01*
X81153000Y-90572659D01*
X81153001Y-90572659D01*
X81218001Y-90566972D01*
X81388408Y-90552063D01*
X81616663Y-90490903D01*
X81830830Y-90391035D01*
X82024401Y-90255495D01*
X82191495Y-90088401D01*
X82327035Y-89894830D01*
X82426903Y-89680663D01*
X82488063Y-89452408D01*
X82508659Y-89217000D01*
X82488063Y-88981592D01*
X82426903Y-88753337D01*
X82327035Y-88539171D01*
X82326652Y-88538623D01*
X82191494Y-88345597D01*
X82024402Y-88178506D01*
X82024396Y-88178501D01*
X81838842Y-88048575D01*
X81795217Y-87993998D01*
X81788023Y-87924500D01*
X81819546Y-87862145D01*
X81838842Y-87845425D01*
X81861026Y-87829891D01*
X82024401Y-87715495D01*
X82191495Y-87548401D01*
X82327035Y-87354830D01*
X82426903Y-87140663D01*
X82488063Y-86912408D01*
X82508659Y-86677000D01*
X82488063Y-86441592D01*
X82426903Y-86213337D01*
X82327035Y-85999171D01*
X82241970Y-85877684D01*
X82191494Y-85805597D01*
X82024402Y-85638506D01*
X82024396Y-85638501D01*
X81838842Y-85508575D01*
X81795217Y-85453998D01*
X81788023Y-85384500D01*
X81819546Y-85322145D01*
X81838842Y-85305425D01*
X81920529Y-85248227D01*
X82024401Y-85175495D01*
X82191495Y-85008401D01*
X82327035Y-84814830D01*
X82426903Y-84600663D01*
X82488063Y-84372408D01*
X82508659Y-84137000D01*
X82488063Y-83901592D01*
X82426903Y-83673337D01*
X82327035Y-83459171D01*
X82296457Y-83415500D01*
X82191494Y-83265597D01*
X82024402Y-83098506D01*
X82024396Y-83098501D01*
X81838842Y-82968575D01*
X81795217Y-82913998D01*
X81788023Y-82844500D01*
X81819546Y-82782145D01*
X81838842Y-82765425D01*
X81861026Y-82749891D01*
X82024401Y-82635495D01*
X82191495Y-82468401D01*
X82327035Y-82274830D01*
X82426903Y-82060663D01*
X82488063Y-81832408D01*
X82508659Y-81597000D01*
X82488063Y-81361592D01*
X82426903Y-81133337D01*
X82327035Y-80919171D01*
X82290600Y-80867135D01*
X82191494Y-80725597D01*
X82024402Y-80558506D01*
X82024396Y-80558501D01*
X81838842Y-80428575D01*
X81795217Y-80373998D01*
X81788023Y-80304500D01*
X81819546Y-80242145D01*
X81838842Y-80225425D01*
X81861026Y-80209891D01*
X82024401Y-80095495D01*
X82191495Y-79928401D01*
X82327035Y-79734830D01*
X82426903Y-79520663D01*
X82488063Y-79292408D01*
X82508659Y-79057000D01*
X82488063Y-78821592D01*
X82426903Y-78593337D01*
X82327035Y-78379171D01*
X82316476Y-78364090D01*
X82191494Y-78185597D01*
X82024402Y-78018506D01*
X82024396Y-78018501D01*
X81838842Y-77888575D01*
X81795217Y-77833998D01*
X81788023Y-77764500D01*
X81819546Y-77702145D01*
X81838842Y-77685425D01*
X81967138Y-77595591D01*
X82024401Y-77555495D01*
X82191495Y-77388401D01*
X82327035Y-77194830D01*
X82347428Y-77151094D01*
X82393599Y-77098657D01*
X82459810Y-77079500D01*
X85033548Y-77079500D01*
X85100587Y-77099185D01*
X85121229Y-77115819D01*
X86333181Y-78327771D01*
X86366666Y-78389094D01*
X86369500Y-78415452D01*
X86369500Y-91764546D01*
X86349815Y-91831585D01*
X86333181Y-91852227D01*
X83724228Y-94461181D01*
X83662905Y-94494666D01*
X83636547Y-94497500D01*
X35743452Y-94497500D01*
X35676413Y-94477815D01*
X35655771Y-94461181D01*
X24918819Y-83724228D01*
X24885334Y-83662905D01*
X24882500Y-83636547D01*
X24882500Y-81915005D01*
X39939142Y-81915005D01*
X39959675Y-82162812D01*
X39959677Y-82162824D01*
X40020721Y-82403881D01*
X40120611Y-82631606D01*
X40256618Y-82839782D01*
X40256621Y-82839785D01*
X40425041Y-83022738D01*
X40621276Y-83175474D01*
X40839975Y-83293828D01*
X41075171Y-83374571D01*
X41320450Y-83415500D01*
X41569120Y-83415500D01*
X41814399Y-83374571D01*
X42049595Y-83293828D01*
X42268294Y-83175474D01*
X42464529Y-83022738D01*
X42632949Y-82839785D01*
X42768958Y-82631607D01*
X42868848Y-82403881D01*
X42929893Y-82162821D01*
X42931811Y-82139672D01*
X42950428Y-81915005D01*
X42950428Y-81914994D01*
X42929894Y-81667187D01*
X42929892Y-81667175D01*
X42868848Y-81426118D01*
X42768958Y-81198393D01*
X42632951Y-80990217D01*
X42567548Y-80919171D01*
X42464529Y-80807262D01*
X42268294Y-80654526D01*
X42268292Y-80654525D01*
X42268291Y-80654524D01*
X42049596Y-80536172D01*
X42049587Y-80536169D01*
X41814401Y-80455429D01*
X41569120Y-80414500D01*
X41320450Y-80414500D01*
X41075168Y-80455429D01*
X40839982Y-80536169D01*
X40839973Y-80536172D01*
X40621278Y-80654524D01*
X40425042Y-80807261D01*
X40256618Y-80990217D01*
X40120611Y-81198393D01*
X40020721Y-81426118D01*
X39959677Y-81667175D01*
X39959675Y-81667187D01*
X39939142Y-81914994D01*
X39939142Y-81915005D01*
X24882500Y-81915005D01*
X24882500Y-78213166D01*
X24902185Y-78146127D01*
X24954989Y-78100372D01*
X25024147Y-78090428D01*
X25087703Y-78119453D01*
X25097720Y-78129173D01*
X25157236Y-78193825D01*
X25157239Y-78193827D01*
X25157242Y-78193830D01*
X25346924Y-78341466D01*
X25346930Y-78341470D01*
X25346933Y-78341472D01*
X25558344Y-78455882D01*
X25558347Y-78455883D01*
X25785699Y-78533933D01*
X25785701Y-78533933D01*
X25785703Y-78533934D01*
X26022808Y-78573500D01*
X26022809Y-78573500D01*
X26263191Y-78573500D01*
X26263192Y-78573500D01*
X26500297Y-78533934D01*
X26727656Y-78455882D01*
X26939067Y-78341472D01*
X27128764Y-78193825D01*
X27291571Y-78016969D01*
X27423049Y-77815728D01*
X27519610Y-77595591D01*
X27578620Y-77362563D01*
X27596729Y-77144027D01*
X27598471Y-77123005D01*
X27598471Y-77122994D01*
X27581074Y-76913048D01*
X27578620Y-76883437D01*
X27519610Y-76650409D01*
X27423049Y-76430272D01*
X27291571Y-76229031D01*
X27144613Y-76069392D01*
X27113693Y-76006741D01*
X27121553Y-75937314D01*
X27148163Y-75897732D01*
X27181495Y-75864401D01*
X27317035Y-75670830D01*
X27416903Y-75456663D01*
X27478063Y-75228408D01*
X27498659Y-74993000D01*
X27478063Y-74757592D01*
X27416903Y-74529337D01*
X27317035Y-74315171D01*
X27245084Y-74212413D01*
X27181494Y-74121597D01*
X27140577Y-74080680D01*
X27107092Y-74019357D01*
X27112076Y-73949665D01*
X27140576Y-73905319D01*
X27181495Y-73864401D01*
X27317035Y-73670830D01*
X27416903Y-73456663D01*
X27478063Y-73228408D01*
X27498659Y-72993000D01*
X27478063Y-72757592D01*
X27416903Y-72529337D01*
X27327934Y-72338543D01*
X27317442Y-72269465D01*
X27345962Y-72205681D01*
X27349865Y-72201454D01*
X27350543Y-72200548D01*
X27350546Y-72200546D01*
X27436796Y-72085331D01*
X27487091Y-71950483D01*
X27493500Y-71890873D01*
X27493499Y-70095128D01*
X27487091Y-70035517D01*
X27436796Y-69900669D01*
X27361127Y-69799588D01*
X27336710Y-69734124D01*
X27351562Y-69665851D01*
X27356569Y-69657481D01*
X27423049Y-69555728D01*
X27519610Y-69335591D01*
X27578620Y-69102563D01*
X27598471Y-68863000D01*
X27578620Y-68623437D01*
X27519610Y-68390409D01*
X27423049Y-68170272D01*
X27291571Y-67969031D01*
X27128764Y-67792175D01*
X27128759Y-67792171D01*
X27128757Y-67792169D01*
X26939075Y-67644533D01*
X26939069Y-67644529D01*
X26727657Y-67530118D01*
X26727652Y-67530116D01*
X26500300Y-67452066D01*
X26322468Y-67422391D01*
X26263192Y-67412500D01*
X26022808Y-67412500D01*
X25975386Y-67420413D01*
X25785699Y-67452066D01*
X25558347Y-67530116D01*
X25558342Y-67530118D01*
X25346930Y-67644529D01*
X25346924Y-67644533D01*
X25157242Y-67792169D01*
X25157238Y-67792173D01*
X25097728Y-67856817D01*
X25037840Y-67892807D01*
X24968002Y-67890706D01*
X24910387Y-67851181D01*
X24883286Y-67786781D01*
X24882499Y-67772850D01*
X24882499Y-46538451D01*
X24902184Y-46471413D01*
X24918818Y-46450771D01*
X31509585Y-39860005D01*
X68979357Y-39860005D01*
X68999890Y-40107812D01*
X68999892Y-40107824D01*
X69060936Y-40348881D01*
X69160826Y-40576606D01*
X69296833Y-40784782D01*
X69296836Y-40784785D01*
X69465256Y-40967738D01*
X69661491Y-41120474D01*
X69880190Y-41238828D01*
X70115386Y-41319571D01*
X70360665Y-41360500D01*
X70609335Y-41360500D01*
X70854614Y-41319571D01*
X71089810Y-41238828D01*
X71308509Y-41120474D01*
X71504744Y-40967738D01*
X71673164Y-40784785D01*
X71809173Y-40576607D01*
X71909063Y-40348881D01*
X71970108Y-40107821D01*
X71990643Y-39860005D01*
X75979357Y-39860005D01*
X75999890Y-40107812D01*
X75999892Y-40107824D01*
X76060936Y-40348881D01*
X76160826Y-40576606D01*
X76296833Y-40784782D01*
X76296836Y-40784785D01*
X76465256Y-40967738D01*
X76661491Y-41120474D01*
X76880190Y-41238828D01*
X77115386Y-41319571D01*
X77360665Y-41360500D01*
X77609335Y-41360500D01*
X77854614Y-41319571D01*
X78089810Y-41238828D01*
X78308509Y-41120474D01*
X78504744Y-40967738D01*
X78673164Y-40784785D01*
X78809173Y-40576607D01*
X78909063Y-40348881D01*
X78970108Y-40107821D01*
X78990643Y-39860000D01*
X78976683Y-39691530D01*
X78970109Y-39612187D01*
X78970107Y-39612175D01*
X78909063Y-39371118D01*
X78809173Y-39143393D01*
X78673166Y-38935217D01*
X78651557Y-38911744D01*
X78504744Y-38752262D01*
X78308509Y-38599526D01*
X78308507Y-38599525D01*
X78308506Y-38599524D01*
X78089811Y-38481172D01*
X78089802Y-38481169D01*
X77854616Y-38400429D01*
X77609335Y-38359500D01*
X77360665Y-38359500D01*
X77115383Y-38400429D01*
X76880197Y-38481169D01*
X76880188Y-38481172D01*
X76661493Y-38599524D01*
X76465257Y-38752261D01*
X76296833Y-38935217D01*
X76160826Y-39143393D01*
X76060936Y-39371118D01*
X75999892Y-39612175D01*
X75999890Y-39612187D01*
X75979357Y-39859994D01*
X75979357Y-39860005D01*
X71990643Y-39860005D01*
X71990643Y-39860000D01*
X71976683Y-39691530D01*
X71970109Y-39612187D01*
X71970107Y-39612175D01*
X71909063Y-39371118D01*
X71809173Y-39143393D01*
X71673166Y-38935217D01*
X71651557Y-38911744D01*
X71504744Y-38752262D01*
X71308509Y-38599526D01*
X71308507Y-38599525D01*
X71308506Y-38599524D01*
X71089811Y-38481172D01*
X71089802Y-38481169D01*
X70854616Y-38400429D01*
X70609335Y-38359500D01*
X70360665Y-38359500D01*
X70115383Y-38400429D01*
X69880197Y-38481169D01*
X69880188Y-38481172D01*
X69661493Y-38599524D01*
X69465257Y-38752261D01*
X69296833Y-38935217D01*
X69160826Y-39143393D01*
X69060936Y-39371118D01*
X68999892Y-39612175D01*
X68999890Y-39612187D01*
X68979357Y-39859994D01*
X68979357Y-39860005D01*
X31509585Y-39860005D01*
X33904592Y-37464999D01*
X117309564Y-37464999D01*
X117329289Y-37791099D01*
X117388178Y-38112452D01*
X117485366Y-38424342D01*
X117485370Y-38424354D01*
X117485373Y-38424361D01*
X117619455Y-38722279D01*
X117748180Y-38935215D01*
X117788473Y-39001868D01*
X117989954Y-39259039D01*
X118220960Y-39490045D01*
X118478131Y-39691526D01*
X118478134Y-39691528D01*
X118478137Y-39691530D01*
X118757721Y-39860545D01*
X119055639Y-39994627D01*
X119055652Y-39994631D01*
X119055657Y-39994633D01*
X119367547Y-40091820D01*
X119367547Y-40091821D01*
X119688896Y-40150710D01*
X120015000Y-40170436D01*
X120341104Y-40150710D01*
X120662453Y-40091821D01*
X120974361Y-39994627D01*
X121272279Y-39860545D01*
X121551863Y-39691530D01*
X121809036Y-39490048D01*
X122040048Y-39259036D01*
X122241530Y-39001863D01*
X122410545Y-38722279D01*
X122544627Y-38424361D01*
X122552085Y-38400429D01*
X122641821Y-38112452D01*
X122700710Y-37791104D01*
X122720436Y-37465000D01*
X122700710Y-37138896D01*
X122641821Y-36817547D01*
X122544627Y-36505639D01*
X122410545Y-36207721D01*
X122241530Y-35928137D01*
X122241528Y-35928134D01*
X122241526Y-35928131D01*
X122040045Y-35670960D01*
X121809039Y-35439954D01*
X121551868Y-35238473D01*
X121544306Y-35233901D01*
X121272279Y-35069455D01*
X120974361Y-34935373D01*
X120974354Y-34935370D01*
X120974342Y-34935366D01*
X120662452Y-34838178D01*
X120341099Y-34779289D01*
X120015000Y-34759564D01*
X119688900Y-34779289D01*
X119367547Y-34838178D01*
X119055657Y-34935366D01*
X119055641Y-34935372D01*
X119055639Y-34935373D01*
X118895348Y-35007514D01*
X118834504Y-35034898D01*
X118757721Y-35069455D01*
X118726005Y-35088628D01*
X118478131Y-35238473D01*
X118220960Y-35439954D01*
X117989954Y-35670960D01*
X117788473Y-35928131D01*
X117715477Y-36048881D01*
X117619455Y-36207721D01*
X117487056Y-36501901D01*
X117485372Y-36505642D01*
X117485366Y-36505657D01*
X117388178Y-36817547D01*
X117329289Y-37138900D01*
X117309564Y-37464999D01*
X33904592Y-37464999D01*
X35147772Y-36221819D01*
X35209095Y-36188334D01*
X35235453Y-36185500D01*
X69039850Y-36185500D01*
X69106889Y-36205185D01*
X69152644Y-36257989D01*
X69153405Y-36259689D01*
X69160824Y-36276603D01*
X69296833Y-36484782D01*
X69296836Y-36484785D01*
X69465256Y-36667738D01*
X69661491Y-36820474D01*
X69880190Y-36938828D01*
X70115386Y-37019571D01*
X70360665Y-37060500D01*
X70609335Y-37060500D01*
X70854614Y-37019571D01*
X71089810Y-36938828D01*
X71308509Y-36820474D01*
X71504744Y-36667738D01*
X71673164Y-36484785D01*
X71809173Y-36276607D01*
X71909063Y-36048881D01*
X71970108Y-35807821D01*
X71973892Y-35762160D01*
X71990643Y-35560005D01*
X75979357Y-35560005D01*
X75999890Y-35807812D01*
X75999892Y-35807824D01*
X76060936Y-36048881D01*
X76160826Y-36276606D01*
X76296833Y-36484782D01*
X76296836Y-36484785D01*
X76465256Y-36667738D01*
X76661491Y-36820474D01*
X76880190Y-36938828D01*
X77115386Y-37019571D01*
X77360665Y-37060500D01*
X77609335Y-37060500D01*
X77854614Y-37019571D01*
X78089810Y-36938828D01*
X78308509Y-36820474D01*
X78504744Y-36667738D01*
X78673164Y-36484785D01*
X78809173Y-36276607D01*
X78909063Y-36048881D01*
X78970108Y-35807821D01*
X78973892Y-35762160D01*
X78990643Y-35560005D01*
X78990643Y-35559994D01*
X78970109Y-35312187D01*
X78970107Y-35312175D01*
X78909063Y-35071118D01*
X78809173Y-34843393D01*
X78673166Y-34635217D01*
X78651557Y-34611744D01*
X78504744Y-34452262D01*
X78308509Y-34299526D01*
X78308507Y-34299525D01*
X78308506Y-34299524D01*
X78089811Y-34181172D01*
X78089802Y-34181169D01*
X77854616Y-34100429D01*
X77609335Y-34059500D01*
X77360665Y-34059500D01*
X77115383Y-34100429D01*
X76880197Y-34181169D01*
X76880188Y-34181172D01*
X76661493Y-34299524D01*
X76465257Y-34452261D01*
X76296833Y-34635217D01*
X76160826Y-34843393D01*
X76060936Y-35071118D01*
X75999892Y-35312175D01*
X75999890Y-35312187D01*
X75979357Y-35559994D01*
X75979357Y-35560005D01*
X71990643Y-35560005D01*
X71990643Y-35559994D01*
X71970109Y-35312187D01*
X71970107Y-35312175D01*
X71909063Y-35071118D01*
X71809173Y-34843393D01*
X71673166Y-34635217D01*
X71651557Y-34611744D01*
X71504744Y-34452262D01*
X71308509Y-34299526D01*
X71308507Y-34299525D01*
X71308506Y-34299524D01*
X71089811Y-34181172D01*
X71089802Y-34181169D01*
X70854616Y-34100429D01*
X70609335Y-34059500D01*
X70360665Y-34059500D01*
X70115383Y-34100429D01*
X69880197Y-34181169D01*
X69880188Y-34181172D01*
X69661493Y-34299524D01*
X69465257Y-34452261D01*
X69296833Y-34635217D01*
X69160824Y-34843396D01*
X69153405Y-34860311D01*
X69108449Y-34913797D01*
X69041713Y-34934486D01*
X69039850Y-34934500D01*
X35007737Y-34934500D01*
X34992120Y-34932776D01*
X34992093Y-34933062D01*
X34984331Y-34932327D01*
X34915203Y-34934500D01*
X34885650Y-34934500D01*
X34884929Y-34934590D01*
X34878757Y-34935369D01*
X34872945Y-34935826D01*
X34826373Y-34937290D01*
X34826372Y-34937290D01*
X34807129Y-34942881D01*
X34788079Y-34946825D01*
X34768211Y-34949334D01*
X34768209Y-34949335D01*
X34724884Y-34966488D01*
X34719357Y-34968380D01*
X34674610Y-34981381D01*
X34674609Y-34981382D01*
X34657367Y-34991579D01*
X34639899Y-35000137D01*
X34621269Y-35007513D01*
X34621267Y-35007514D01*
X34583576Y-35034898D01*
X34578694Y-35038105D01*
X34538579Y-35061830D01*
X34524408Y-35076000D01*
X34509623Y-35088628D01*
X34493412Y-35100407D01*
X34463709Y-35136310D01*
X34459777Y-35140631D01*
X24341681Y-45258727D01*
X24280358Y-45292212D01*
X24210666Y-45287228D01*
X24154733Y-45245356D01*
X24130316Y-45179892D01*
X24130000Y-45171046D01*
X24130000Y-37465000D01*
X25234564Y-37465000D01*
X25254289Y-37791099D01*
X25313178Y-38112452D01*
X25410366Y-38424342D01*
X25410370Y-38424354D01*
X25410373Y-38424361D01*
X25544455Y-38722279D01*
X25673180Y-38935215D01*
X25713473Y-39001868D01*
X25914954Y-39259039D01*
X26145960Y-39490045D01*
X26403131Y-39691526D01*
X26403134Y-39691528D01*
X26403137Y-39691530D01*
X26682721Y-39860545D01*
X26980639Y-39994627D01*
X26980652Y-39994631D01*
X26980657Y-39994633D01*
X27292547Y-40091820D01*
X27292547Y-40091821D01*
X27613896Y-40150710D01*
X27940000Y-40170436D01*
X28266104Y-40150710D01*
X28587453Y-40091821D01*
X28899361Y-39994627D01*
X29197279Y-39860545D01*
X29476863Y-39691530D01*
X29734036Y-39490048D01*
X29965048Y-39259036D01*
X30166530Y-39001863D01*
X30335545Y-38722279D01*
X30469627Y-38424361D01*
X30477085Y-38400429D01*
X30566821Y-38112452D01*
X30625710Y-37791104D01*
X30645436Y-37465000D01*
X30625710Y-37138896D01*
X30566821Y-36817547D01*
X30469627Y-36505639D01*
X30335545Y-36207721D01*
X30166530Y-35928137D01*
X30166528Y-35928134D01*
X30166526Y-35928131D01*
X29965045Y-35670960D01*
X29734039Y-35439954D01*
X29476868Y-35238473D01*
X29469306Y-35233901D01*
X29197279Y-35069455D01*
X28899361Y-34935373D01*
X28899354Y-34935370D01*
X28899342Y-34935366D01*
X28587452Y-34838178D01*
X28266099Y-34779289D01*
X27940000Y-34759564D01*
X27613900Y-34779289D01*
X27292547Y-34838178D01*
X26980657Y-34935366D01*
X26980641Y-34935372D01*
X26980639Y-34935373D01*
X26820348Y-35007514D01*
X26759504Y-35034898D01*
X26682721Y-35069455D01*
X26651005Y-35088628D01*
X26403131Y-35238473D01*
X26145960Y-35439954D01*
X25914954Y-35670960D01*
X25713473Y-35928131D01*
X25640477Y-36048881D01*
X25544455Y-36207721D01*
X25412056Y-36501901D01*
X25410372Y-36505642D01*
X25410366Y-36505657D01*
X25313178Y-36817547D01*
X25254289Y-37138900D01*
X25234564Y-37465000D01*
X24130000Y-37465000D01*
X24130000Y-36881362D01*
X24149685Y-36814323D01*
X24166319Y-36793681D01*
X27268681Y-33691319D01*
X27330004Y-33657834D01*
X27356362Y-33655000D01*
X120598638Y-33655000D01*
X120665677Y-33674685D01*
G37*
%TD.AperFunction*%
M02*
