M48
; DRILL file {KiCad 7.0.6-0} date 2023 December 11, Monday 21:05:57
; FORMAT={-:-/ absolute / inch / decimal}
; #@! TF.CreationDate,2023-12-11T21:05:57+00:00
; #@! TF.GenerationSoftware,Kicad,Pcbnew,7.0.6-0
; #@! TF.FileFunction,Plated,1,2,PTH
FMAT,2
INCH
; #@! TA.AperFunction,Plated,PTH,ComponentDrill
T1C0.0374
; #@! TA.AperFunction,Plated,PTH,ComponentDrill
T2C0.0394
; #@! TA.AperFunction,Plated,PTH,ComponentDrill
T3C0.0433
; #@! TA.AperFunction,Plated,PTH,ComponentDrill
T4C0.0472
; #@! TA.AperFunction,Plated,PTH,ComponentDrill
T5C0.1378
; #@! TA.AperFunction,Plated,PTH,ComponentDrill
T6C0.1732
%
G90
G05
T1
X1.5533Y-1.8234
X1.5533Y-1.9219
X1.5533Y-2.0203
X1.5533Y-2.1187
X1.5533Y-2.2171
X4.2213Y-1.8195
X4.2213Y-1.9179
X4.2213Y-2.0163
X4.2213Y-2.1148
X4.2213Y-2.2132
T2
X1.0293Y-2.795
X1.0293Y-2.8737
X1.0293Y-2.9525
X1.6317Y-3.225
X1.877Y-3.225
X2.6044Y-2.8125
X2.6044Y-2.9125
X2.6044Y-3.0125
X2.6044Y-3.1125
X2.6044Y-3.2125
X2.6044Y-3.3125
X2.6044Y-3.4125
X2.6044Y-3.5125
X3.195Y-2.8125
X3.195Y-2.9125
X3.195Y-3.0125
X3.195Y-3.1125
X3.195Y-3.2125
X3.195Y-3.3125
X3.195Y-3.4125
X3.195Y-3.5125
T3
X2.775Y-1.4
X2.775Y-1.5693
X3.0506Y-1.4
X3.0506Y-1.5693
T4
X1.0293Y-2.7111
X1.0293Y-3.0363
T5
X1.4209Y-1.8257
X1.4209Y-2.2123
X4.4174Y-1.8257
X4.4174Y-2.2123
T6
X1.1Y-1.475
X1.1Y-3.65
X4.725Y-1.475
X4.725Y-3.65
T0
M30
