%TF.GenerationSoftware,KiCad,Pcbnew,7.0.6-0*%
%TF.CreationDate,2023-12-11T20:54:39+00:00*%
%TF.ProjectId,Bitko clock,4269746b-6f20-4636-9c6f-636b2e6b6963,rev?*%
%TF.SameCoordinates,Original*%
%TF.FileFunction,Soldermask,Top*%
%TF.FilePolarity,Negative*%
%FSLAX46Y46*%
G04 Gerber Fmt 4.6, Leading zero omitted, Abs format (unit mm)*
G04 Created by KiCad (PCBNEW 7.0.6-0) date 2023-12-11 20:54:39*
%MOMM*%
%LPD*%
G01*
G04 APERTURE LIST*
G04 Aperture macros list*
%AMRoundRect*
0 Rectangle with rounded corners*
0 $1 Rounding radius*
0 $2 $3 $4 $5 $6 $7 $8 $9 X,Y pos of 4 corners*
0 Add a 4 corners polygon primitive as box body*
4,1,4,$2,$3,$4,$5,$6,$7,$8,$9,$2,$3,0*
0 Add four circle primitives for the rounded corners*
1,1,$1+$1,$2,$3*
1,1,$1+$1,$4,$5*
1,1,$1+$1,$6,$7*
1,1,$1+$1,$8,$9*
0 Add four rect primitives between the rounded corners*
20,1,$1+$1,$2,$3,$4,$5,0*
20,1,$1+$1,$4,$5,$6,$7,0*
20,1,$1+$1,$6,$7,$8,$9,0*
20,1,$1+$1,$8,$9,$2,$3,0*%
G04 Aperture macros list end*
%ADD10C,0.000000*%
%ADD11C,2.000000*%
%ADD12C,3.500000*%
%ADD13R,2.000000X2.000000*%
%ADD14C,4.400000*%
%ADD15O,1.900000X1.900000*%
%ADD16R,1.700000X1.700000*%
%ADD17O,1.700000X1.700000*%
%ADD18C,1.700000*%
%ADD19RoundRect,0.250000X-0.725000X0.600000X-0.725000X-0.600000X0.725000X-0.600000X0.725000X0.600000X0*%
%ADD20O,1.950000X1.700000*%
G04 APERTURE END LIST*
D10*
G36*
X105006455Y-71021047D02*
G01*
X104260330Y-74012426D01*
X105008373Y-74184604D01*
X105380336Y-74272652D01*
X105748875Y-74362735D01*
X106489709Y-71390935D01*
X108347615Y-71853956D01*
X107586671Y-74907247D01*
X108019211Y-75063635D01*
X108434784Y-75230410D01*
X108831318Y-75408506D01*
X109206740Y-75598860D01*
X109558980Y-75802406D01*
X109885964Y-76020082D01*
X110039338Y-76134510D01*
X110185621Y-76252821D01*
X110324555Y-76375132D01*
X110455880Y-76501560D01*
X110579337Y-76632222D01*
X110694667Y-76767235D01*
X110801612Y-76906715D01*
X110899911Y-77050781D01*
X110989307Y-77199547D01*
X111069541Y-77353133D01*
X111140352Y-77511654D01*
X111201483Y-77675227D01*
X111252675Y-77843970D01*
X111293667Y-78018000D01*
X111324202Y-78197432D01*
X111344020Y-78382385D01*
X111352863Y-78572975D01*
X111350470Y-78769320D01*
X111336584Y-78971535D01*
X111310946Y-79179739D01*
X111313591Y-79179209D01*
X111288769Y-79331359D01*
X111260085Y-79478583D01*
X111227609Y-79620944D01*
X111191409Y-79758502D01*
X111151552Y-79891317D01*
X111108105Y-80019451D01*
X111061138Y-80142964D01*
X111010718Y-80261917D01*
X110956913Y-80376372D01*
X110899791Y-80486388D01*
X110839419Y-80592027D01*
X110775867Y-80693349D01*
X110709200Y-80790416D01*
X110639489Y-80883289D01*
X110566800Y-80972027D01*
X110491201Y-81056693D01*
X110412760Y-81137346D01*
X110331546Y-81214048D01*
X110247626Y-81286860D01*
X110161068Y-81355841D01*
X110071940Y-81421055D01*
X109980310Y-81482560D01*
X109886246Y-81540418D01*
X109789815Y-81594690D01*
X109590127Y-81692719D01*
X109381790Y-81777133D01*
X109165345Y-81848419D01*
X108941338Y-81907064D01*
X109244079Y-82075334D01*
X109526407Y-82255208D01*
X109787095Y-82447437D01*
X110024915Y-82652775D01*
X110238640Y-82871972D01*
X110336084Y-82987003D01*
X110427043Y-83105781D01*
X110511366Y-83228399D01*
X110588898Y-83354953D01*
X110659486Y-83485535D01*
X110722977Y-83620240D01*
X110779217Y-83759162D01*
X110828053Y-83902395D01*
X110869331Y-84050032D01*
X110902899Y-84202168D01*
X110928602Y-84358897D01*
X110946288Y-84520313D01*
X110955803Y-84686509D01*
X110956993Y-84857581D01*
X110949705Y-85033620D01*
X110933787Y-85214723D01*
X110909083Y-85400982D01*
X110875442Y-85592492D01*
X110832710Y-85789346D01*
X110780732Y-85991639D01*
X110719357Y-86199465D01*
X110648430Y-86412917D01*
X110550397Y-86673920D01*
X110444390Y-86919876D01*
X110330516Y-87151112D01*
X110208886Y-87367955D01*
X110079607Y-87570730D01*
X109942788Y-87759764D01*
X109798539Y-87935384D01*
X109646967Y-88097915D01*
X109488182Y-88247684D01*
X109322291Y-88385018D01*
X109149405Y-88510242D01*
X108969632Y-88623683D01*
X108783079Y-88725668D01*
X108589857Y-88816522D01*
X108390074Y-88896572D01*
X108183838Y-88966145D01*
X107752443Y-89075162D01*
X107296543Y-89146185D01*
X106817007Y-89181825D01*
X106314705Y-89184691D01*
X105790507Y-89157394D01*
X105245282Y-89102546D01*
X104679900Y-89022756D01*
X104095231Y-88920636D01*
X103326352Y-92001975D01*
X101468448Y-91538955D01*
X102219862Y-88495719D01*
X101488157Y-88310377D01*
X101115706Y-88212795D01*
X100738195Y-88111543D01*
X99976725Y-91165893D01*
X98120938Y-90702872D01*
X98889816Y-87615714D01*
X98234907Y-87445390D01*
X97566900Y-87273873D01*
X95149137Y-86671151D01*
X95492461Y-85879518D01*
X101349387Y-85879518D01*
X101933131Y-86031376D01*
X102693429Y-86218482D01*
X103118048Y-86308797D01*
X103560721Y-86388175D01*
X104012754Y-86450036D01*
X104465450Y-86487795D01*
X104910117Y-86494871D01*
X105126721Y-86484846D01*
X105338057Y-86464682D01*
X105543039Y-86433555D01*
X105740578Y-86390643D01*
X105929589Y-86335124D01*
X106108984Y-86266174D01*
X106277676Y-86182970D01*
X106434580Y-86084691D01*
X106578607Y-85970512D01*
X106708671Y-85839612D01*
X106823685Y-85691166D01*
X106922563Y-85524354D01*
X107004217Y-85338351D01*
X107067561Y-85132335D01*
X107110454Y-84911942D01*
X107127526Y-84701731D01*
X107120134Y-84501432D01*
X107089636Y-84310773D01*
X107037390Y-84129487D01*
X106964754Y-83957301D01*
X106873086Y-83793945D01*
X106763744Y-83639150D01*
X106638087Y-83492646D01*
X106497471Y-83354161D01*
X106343254Y-83223426D01*
X106176796Y-83100170D01*
X105999454Y-82984124D01*
X105812585Y-82875017D01*
X105415701Y-82676538D01*
X104997007Y-82502573D01*
X104567367Y-82350959D01*
X104137645Y-82219535D01*
X103718705Y-82106138D01*
X102368032Y-81789588D01*
X101349387Y-85879518D01*
X95492461Y-85879518D01*
X96071475Y-84544431D01*
X96753637Y-84723091D01*
X97218716Y-84840226D01*
X97369198Y-84874774D01*
X97409793Y-84882172D01*
X97421907Y-84881510D01*
X97454213Y-84890977D01*
X97486805Y-84898794D01*
X97519624Y-84904966D01*
X97552608Y-84909499D01*
X97585699Y-84912398D01*
X97618834Y-84913667D01*
X97651954Y-84913312D01*
X97684998Y-84911338D01*
X97717906Y-84907750D01*
X97750618Y-84902553D01*
X97783072Y-84895752D01*
X97815210Y-84887352D01*
X97846969Y-84877359D01*
X97878291Y-84865777D01*
X97909113Y-84852612D01*
X97939377Y-84837868D01*
X97968870Y-84821638D01*
X97997396Y-84804041D01*
X98024915Y-84785124D01*
X98051389Y-84764933D01*
X98076778Y-84743515D01*
X98101044Y-84720915D01*
X98124148Y-84697182D01*
X98146050Y-84672360D01*
X98166711Y-84646496D01*
X98186094Y-84619637D01*
X98204157Y-84591830D01*
X98220864Y-84563120D01*
X98236174Y-84533554D01*
X98250049Y-84503179D01*
X98262450Y-84472041D01*
X98273337Y-84440186D01*
X99404033Y-79917398D01*
X102836343Y-79917398D01*
X103322482Y-80045400D01*
X103956060Y-80202337D01*
X104310218Y-80277118D01*
X104679729Y-80341688D01*
X105057426Y-80390230D01*
X105436139Y-80416931D01*
X105623637Y-80420273D01*
X105808702Y-80415974D01*
X105990436Y-80403307D01*
X106167944Y-80381545D01*
X106340329Y-80349961D01*
X106506697Y-80307828D01*
X106666150Y-80254420D01*
X106817793Y-80189009D01*
X106960730Y-80110868D01*
X107094064Y-80019271D01*
X107216899Y-79913491D01*
X107328340Y-79792801D01*
X107427490Y-79656474D01*
X107513453Y-79503783D01*
X107585334Y-79334001D01*
X107642235Y-79146402D01*
X107682173Y-78946107D01*
X107700255Y-78755510D01*
X107697628Y-78574342D01*
X107675437Y-78402332D01*
X107634828Y-78239210D01*
X107576945Y-78084707D01*
X107502934Y-77938552D01*
X107413941Y-77800474D01*
X107311111Y-77670205D01*
X107195589Y-77547474D01*
X107068520Y-77432011D01*
X106931051Y-77323545D01*
X106784326Y-77221808D01*
X106629490Y-77126528D01*
X106300070Y-76954262D01*
X105951953Y-76804588D01*
X105594303Y-76675343D01*
X105236282Y-76564369D01*
X104887054Y-76469505D01*
X103761326Y-76207939D01*
X102836343Y-79917398D01*
X99404033Y-79917398D01*
X99490420Y-79571852D01*
X99686740Y-79620535D01*
X99663061Y-79611408D01*
X99639239Y-79602674D01*
X99615280Y-79594335D01*
X99591188Y-79586393D01*
X99566969Y-79578849D01*
X99542627Y-79571705D01*
X99518167Y-79564962D01*
X99493595Y-79558622D01*
X100360369Y-76081469D01*
X100364155Y-76031402D01*
X100365422Y-75981727D01*
X100364223Y-75932508D01*
X100360610Y-75883812D01*
X100354637Y-75835705D01*
X100346357Y-75788253D01*
X100335823Y-75741522D01*
X100323087Y-75695578D01*
X100308202Y-75650488D01*
X100291222Y-75606317D01*
X100272200Y-75563131D01*
X100251187Y-75520997D01*
X100228238Y-75479981D01*
X100203406Y-75440148D01*
X100176742Y-75401565D01*
X100148301Y-75364298D01*
X100118135Y-75328413D01*
X100086296Y-75293976D01*
X100052839Y-75261053D01*
X100017816Y-75229710D01*
X99981279Y-75200014D01*
X99943283Y-75172030D01*
X99903879Y-75145824D01*
X99863120Y-75121463D01*
X99821061Y-75099013D01*
X99777753Y-75078540D01*
X99733249Y-75060109D01*
X99687604Y-75043787D01*
X99640868Y-75029640D01*
X99593096Y-75017734D01*
X99544340Y-75008136D01*
X99494654Y-75000910D01*
X99483860Y-74994178D01*
X99444269Y-74981329D01*
X99294976Y-74940899D01*
X98829889Y-74826417D01*
X98145279Y-74665418D01*
X98639521Y-72681043D01*
X101201746Y-73320806D01*
X101201746Y-73330330D01*
X101492788Y-73401363D01*
X101787798Y-73471155D01*
X102388138Y-73609202D01*
X103149609Y-70558026D01*
X105006455Y-71021047D01*
G37*
D11*
%TO.C,MODE*%
X70485000Y-35560000D03*
X77485000Y-35560000D03*
X70485000Y-39860000D03*
X77485000Y-39860000D03*
%TD*%
D12*
%TO.C,REF\u002A\u002A*%
X112202000Y-46372000D03*
%TD*%
D13*
%TO.C,BRRRR*%
X47675585Y-81915000D03*
D11*
X41444785Y-81915000D03*
%TD*%
D14*
%TO.C,REF\u002A\u002A*%
X27940000Y-92710000D03*
%TD*%
D15*
%TO.C,BUZZ KILL SWITCH*%
X26143000Y-68863000D03*
X26143000Y-77123000D03*
D16*
X26143000Y-70993000D03*
D17*
X26143000Y-72993000D03*
X26143000Y-74993000D03*
%TD*%
D18*
%TO.C,REF\u002A\u002A*%
X81153000Y-89217000D03*
D17*
X81153000Y-86677000D03*
X81153000Y-84137000D03*
X81153000Y-81597000D03*
X81153000Y-79057000D03*
X81153000Y-76517000D03*
X81153000Y-73977000D03*
X81153000Y-71437000D03*
%TD*%
D14*
%TO.C,REF\u002A\u002A*%
X120015000Y-92710000D03*
%TD*%
%TO.C,REF\u002A\u002A*%
X120015000Y-37465000D03*
%TD*%
D18*
%TO.C,REF\u002A\u002A*%
X66153000Y-89217000D03*
D17*
X66153000Y-86677000D03*
X66153000Y-84137000D03*
X66153000Y-81597000D03*
X66153000Y-79057000D03*
X66153000Y-76517000D03*
X66153000Y-73977000D03*
X66153000Y-71437000D03*
%TD*%
D12*
%TO.C,*%
X36092000Y-56192000D03*
%TD*%
%TO.C,*%
X112202000Y-56192000D03*
%TD*%
%TO.C,REF\u002A\u002A*%
X36092000Y-46372000D03*
%TD*%
D14*
%TO.C,REF\u002A\u002A*%
X27940000Y-37465000D03*
%TD*%
D19*
%TO.C,JST_XH_B5B-XH-A_1x05*%
X107220000Y-46215000D03*
D20*
X107220000Y-48715000D03*
X107220000Y-51215000D03*
X107220000Y-53715000D03*
X107220000Y-56215000D03*
%TD*%
D19*
%TO.C,JST_XH_B5B-XH-A_1x05*%
X39455000Y-46315000D03*
D20*
X39455000Y-48815000D03*
X39455000Y-51315000D03*
X39455000Y-53815000D03*
X39455000Y-56315000D03*
%TD*%
M02*
