%TF.GenerationSoftware,KiCad,Pcbnew,7.0.6-0*%
%TF.CreationDate,2023-12-11T21:05:53+00:00*%
%TF.ProjectId,Bitko clock,4269746b-6f20-4636-9c6f-636b2e6b6963,rev?*%
%TF.SameCoordinates,Original*%
%TF.FileFunction,Legend,Bot*%
%TF.FilePolarity,Positive*%
%FSLAX46Y46*%
G04 Gerber Fmt 4.6, Leading zero omitted, Abs format (unit mm)*
G04 Created by KiCad (PCBNEW 7.0.6-0) date 2023-12-11 21:05:53*
%MOMM*%
%LPD*%
G01*
G04 APERTURE LIST*
%ADD10C,0.300000*%
%ADD11C,0.150000*%
G04 APERTURE END LIST*
D10*
X63449653Y-71964457D02*
X63563939Y-71964457D01*
X63563939Y-71964457D02*
X63678225Y-71907314D01*
X63678225Y-71907314D02*
X63735368Y-71850171D01*
X63735368Y-71850171D02*
X63792510Y-71735885D01*
X63792510Y-71735885D02*
X63849653Y-71507314D01*
X63849653Y-71507314D02*
X63849653Y-71221600D01*
X63849653Y-71221600D02*
X63792510Y-70993028D01*
X63792510Y-70993028D02*
X63735368Y-70878742D01*
X63735368Y-70878742D02*
X63678225Y-70821600D01*
X63678225Y-70821600D02*
X63563939Y-70764457D01*
X63563939Y-70764457D02*
X63449653Y-70764457D01*
X63449653Y-70764457D02*
X63335368Y-70821600D01*
X63335368Y-70821600D02*
X63278225Y-70878742D01*
X63278225Y-70878742D02*
X63221082Y-70993028D01*
X63221082Y-70993028D02*
X63163939Y-71221600D01*
X63163939Y-71221600D02*
X63163939Y-71507314D01*
X63163939Y-71507314D02*
X63221082Y-71735885D01*
X63221082Y-71735885D02*
X63278225Y-71850171D01*
X63278225Y-71850171D02*
X63335368Y-71907314D01*
X63335368Y-71907314D02*
X63449653Y-71964457D01*
X63150346Y-74449542D02*
X63836060Y-74449542D01*
X63493203Y-74449542D02*
X63493203Y-73249542D01*
X63493203Y-73249542D02*
X63607489Y-73420971D01*
X63607489Y-73420971D02*
X63721774Y-73535257D01*
X63721774Y-73535257D02*
X63836060Y-73592400D01*
D11*
X113169506Y-91579819D02*
X113169506Y-92294104D01*
X113169506Y-92294104D02*
X113217125Y-92436961D01*
X113217125Y-92436961D02*
X113312363Y-92532200D01*
X113312363Y-92532200D02*
X113455220Y-92579819D01*
X113455220Y-92579819D02*
X113550458Y-92579819D01*
X112217125Y-92579819D02*
X112693315Y-92579819D01*
X112693315Y-92579819D02*
X112693315Y-91579819D01*
X111312363Y-92484580D02*
X111359982Y-92532200D01*
X111359982Y-92532200D02*
X111502839Y-92579819D01*
X111502839Y-92579819D02*
X111598077Y-92579819D01*
X111598077Y-92579819D02*
X111740934Y-92532200D01*
X111740934Y-92532200D02*
X111836172Y-92436961D01*
X111836172Y-92436961D02*
X111883791Y-92341723D01*
X111883791Y-92341723D02*
X111931410Y-92151247D01*
X111931410Y-92151247D02*
X111931410Y-92008390D01*
X111931410Y-92008390D02*
X111883791Y-91817914D01*
X111883791Y-91817914D02*
X111836172Y-91722676D01*
X111836172Y-91722676D02*
X111740934Y-91627438D01*
X111740934Y-91627438D02*
X111598077Y-91579819D01*
X111598077Y-91579819D02*
X111502839Y-91579819D01*
X111502839Y-91579819D02*
X111359982Y-91627438D01*
X111359982Y-91627438D02*
X111312363Y-91675057D01*
X110598077Y-91579819D02*
X110598077Y-92294104D01*
X110598077Y-92294104D02*
X110645696Y-92436961D01*
X110645696Y-92436961D02*
X110740934Y-92532200D01*
X110740934Y-92532200D02*
X110883791Y-92579819D01*
X110883791Y-92579819D02*
X110979029Y-92579819D01*
X109645696Y-92579819D02*
X110121886Y-92579819D01*
X110121886Y-92579819D02*
X110121886Y-91579819D01*
X108740934Y-92484580D02*
X108788553Y-92532200D01*
X108788553Y-92532200D02*
X108931410Y-92579819D01*
X108931410Y-92579819D02*
X109026648Y-92579819D01*
X109026648Y-92579819D02*
X109169505Y-92532200D01*
X109169505Y-92532200D02*
X109264743Y-92436961D01*
X109264743Y-92436961D02*
X109312362Y-92341723D01*
X109312362Y-92341723D02*
X109359981Y-92151247D01*
X109359981Y-92151247D02*
X109359981Y-92008390D01*
X109359981Y-92008390D02*
X109312362Y-91817914D01*
X109312362Y-91817914D02*
X109264743Y-91722676D01*
X109264743Y-91722676D02*
X109169505Y-91627438D01*
X109169505Y-91627438D02*
X109026648Y-91579819D01*
X109026648Y-91579819D02*
X108931410Y-91579819D01*
X108931410Y-91579819D02*
X108788553Y-91627438D01*
X108788553Y-91627438D02*
X108740934Y-91675057D01*
X108026648Y-91579819D02*
X108026648Y-92294104D01*
X108026648Y-92294104D02*
X108074267Y-92436961D01*
X108074267Y-92436961D02*
X108169505Y-92532200D01*
X108169505Y-92532200D02*
X108312362Y-92579819D01*
X108312362Y-92579819D02*
X108407600Y-92579819D01*
X107074267Y-92579819D02*
X107550457Y-92579819D01*
X107550457Y-92579819D02*
X107550457Y-91579819D01*
X106169505Y-92484580D02*
X106217124Y-92532200D01*
X106217124Y-92532200D02*
X106359981Y-92579819D01*
X106359981Y-92579819D02*
X106455219Y-92579819D01*
X106455219Y-92579819D02*
X106598076Y-92532200D01*
X106598076Y-92532200D02*
X106693314Y-92436961D01*
X106693314Y-92436961D02*
X106740933Y-92341723D01*
X106740933Y-92341723D02*
X106788552Y-92151247D01*
X106788552Y-92151247D02*
X106788552Y-92008390D01*
X106788552Y-92008390D02*
X106740933Y-91817914D01*
X106740933Y-91817914D02*
X106693314Y-91722676D01*
X106693314Y-91722676D02*
X106598076Y-91627438D01*
X106598076Y-91627438D02*
X106455219Y-91579819D01*
X106455219Y-91579819D02*
X106359981Y-91579819D01*
X106359981Y-91579819D02*
X106217124Y-91627438D01*
X106217124Y-91627438D02*
X106169505Y-91675057D01*
X105455219Y-91579819D02*
X105455219Y-92294104D01*
X105455219Y-92294104D02*
X105502838Y-92436961D01*
X105502838Y-92436961D02*
X105598076Y-92532200D01*
X105598076Y-92532200D02*
X105740933Y-92579819D01*
X105740933Y-92579819D02*
X105836171Y-92579819D01*
X104502838Y-92579819D02*
X104979028Y-92579819D01*
X104979028Y-92579819D02*
X104979028Y-91579819D01*
X103598076Y-92484580D02*
X103645695Y-92532200D01*
X103645695Y-92532200D02*
X103788552Y-92579819D01*
X103788552Y-92579819D02*
X103883790Y-92579819D01*
X103883790Y-92579819D02*
X104026647Y-92532200D01*
X104026647Y-92532200D02*
X104121885Y-92436961D01*
X104121885Y-92436961D02*
X104169504Y-92341723D01*
X104169504Y-92341723D02*
X104217123Y-92151247D01*
X104217123Y-92151247D02*
X104217123Y-92008390D01*
X104217123Y-92008390D02*
X104169504Y-91817914D01*
X104169504Y-91817914D02*
X104121885Y-91722676D01*
X104121885Y-91722676D02*
X104026647Y-91627438D01*
X104026647Y-91627438D02*
X103883790Y-91579819D01*
X103883790Y-91579819D02*
X103788552Y-91579819D01*
X103788552Y-91579819D02*
X103645695Y-91627438D01*
X103645695Y-91627438D02*
X103598076Y-91675057D01*
D10*
X85071060Y-70796828D02*
X85013917Y-70739685D01*
X85013917Y-70739685D02*
X84899632Y-70682542D01*
X84899632Y-70682542D02*
X84613917Y-70682542D01*
X84613917Y-70682542D02*
X84499632Y-70739685D01*
X84499632Y-70739685D02*
X84442489Y-70796828D01*
X84442489Y-70796828D02*
X84385346Y-70911114D01*
X84385346Y-70911114D02*
X84385346Y-71025400D01*
X84385346Y-71025400D02*
X84442489Y-71196828D01*
X84442489Y-71196828D02*
X85128203Y-71882542D01*
X85128203Y-71882542D02*
X84385346Y-71882542D01*
X83242489Y-71882542D02*
X83928203Y-71882542D01*
X83585346Y-71882542D02*
X83585346Y-70682542D01*
X83585346Y-70682542D02*
X83699632Y-70853971D01*
X83699632Y-70853971D02*
X83813917Y-70968257D01*
X83813917Y-70968257D02*
X83928203Y-71025400D01*
X63160631Y-88816542D02*
X63732059Y-88816542D01*
X63732059Y-88816542D02*
X63789202Y-89387971D01*
X63789202Y-89387971D02*
X63732059Y-89330828D01*
X63732059Y-89330828D02*
X63617774Y-89273685D01*
X63617774Y-89273685D02*
X63332059Y-89273685D01*
X63332059Y-89273685D02*
X63217774Y-89330828D01*
X63217774Y-89330828D02*
X63160631Y-89387971D01*
X63160631Y-89387971D02*
X63103488Y-89502257D01*
X63103488Y-89502257D02*
X63103488Y-89787971D01*
X63103488Y-89787971D02*
X63160631Y-89902257D01*
X63160631Y-89902257D02*
X63217774Y-89959400D01*
X63217774Y-89959400D02*
X63332059Y-90016542D01*
X63332059Y-90016542D02*
X63617774Y-90016542D01*
X63617774Y-90016542D02*
X63732059Y-89959400D01*
X63732059Y-89959400D02*
X63789202Y-89902257D01*
X62760631Y-88816542D02*
X62360631Y-90016542D01*
X62360631Y-90016542D02*
X61960631Y-88816542D01*
X84975203Y-83663542D02*
X84175203Y-83663542D01*
X84175203Y-83663542D02*
X84689489Y-84863542D01*
X63264632Y-81523542D02*
X63264632Y-82323542D01*
X63550346Y-81066400D02*
X63836060Y-81923542D01*
X63836060Y-81923542D02*
X63093203Y-81923542D01*
X84232346Y-76989542D02*
X84918060Y-76989542D01*
X84575203Y-76989542D02*
X84575203Y-75789542D01*
X84575203Y-75789542D02*
X84689489Y-75960971D01*
X84689489Y-75960971D02*
X84803774Y-76075257D01*
X84803774Y-76075257D02*
X84918060Y-76132400D01*
X83489489Y-75789542D02*
X83375203Y-75789542D01*
X83375203Y-75789542D02*
X83260917Y-75846685D01*
X83260917Y-75846685D02*
X83203775Y-75903828D01*
X83203775Y-75903828D02*
X83146632Y-76018114D01*
X83146632Y-76018114D02*
X83089489Y-76246685D01*
X83089489Y-76246685D02*
X83089489Y-76532400D01*
X83089489Y-76532400D02*
X83146632Y-76760971D01*
X83146632Y-76760971D02*
X83203775Y-76875257D01*
X83203775Y-76875257D02*
X83260917Y-76932400D01*
X83260917Y-76932400D02*
X83375203Y-76989542D01*
X83375203Y-76989542D02*
X83489489Y-76989542D01*
X83489489Y-76989542D02*
X83603775Y-76932400D01*
X83603775Y-76932400D02*
X83660917Y-76875257D01*
X83660917Y-76875257D02*
X83718060Y-76760971D01*
X83718060Y-76760971D02*
X83775203Y-76532400D01*
X83775203Y-76532400D02*
X83775203Y-76246685D01*
X83775203Y-76246685D02*
X83718060Y-76018114D01*
X83718060Y-76018114D02*
X83660917Y-75903828D01*
X83660917Y-75903828D02*
X83603775Y-75846685D01*
X83603775Y-75846685D02*
X83489489Y-75789542D01*
X84918060Y-73363828D02*
X84860917Y-73306685D01*
X84860917Y-73306685D02*
X84746632Y-73249542D01*
X84746632Y-73249542D02*
X84460917Y-73249542D01*
X84460917Y-73249542D02*
X84346632Y-73306685D01*
X84346632Y-73306685D02*
X84289489Y-73363828D01*
X84289489Y-73363828D02*
X84232346Y-73478114D01*
X84232346Y-73478114D02*
X84232346Y-73592400D01*
X84232346Y-73592400D02*
X84289489Y-73763828D01*
X84289489Y-73763828D02*
X84975203Y-74449542D01*
X84975203Y-74449542D02*
X84232346Y-74449542D01*
X83489489Y-73249542D02*
X83375203Y-73249542D01*
X83375203Y-73249542D02*
X83260917Y-73306685D01*
X83260917Y-73306685D02*
X83203775Y-73363828D01*
X83203775Y-73363828D02*
X83146632Y-73478114D01*
X83146632Y-73478114D02*
X83089489Y-73706685D01*
X83089489Y-73706685D02*
X83089489Y-73992400D01*
X83089489Y-73992400D02*
X83146632Y-74220971D01*
X83146632Y-74220971D02*
X83203775Y-74335257D01*
X83203775Y-74335257D02*
X83260917Y-74392400D01*
X83260917Y-74392400D02*
X83375203Y-74449542D01*
X83375203Y-74449542D02*
X83489489Y-74449542D01*
X83489489Y-74449542D02*
X83603775Y-74392400D01*
X83603775Y-74392400D02*
X83660917Y-74335257D01*
X83660917Y-74335257D02*
X83718060Y-74220971D01*
X83718060Y-74220971D02*
X83775203Y-73992400D01*
X83775203Y-73992400D02*
X83775203Y-73706685D01*
X83775203Y-73706685D02*
X83718060Y-73478114D01*
X83718060Y-73478114D02*
X83660917Y-73363828D01*
X83660917Y-73363828D02*
X83603775Y-73306685D01*
X83603775Y-73306685D02*
X83489489Y-73249542D01*
X84346632Y-85949542D02*
X84575203Y-85949542D01*
X84575203Y-85949542D02*
X84689489Y-86006685D01*
X84689489Y-86006685D02*
X84746632Y-86063828D01*
X84746632Y-86063828D02*
X84860917Y-86235257D01*
X84860917Y-86235257D02*
X84918060Y-86463828D01*
X84918060Y-86463828D02*
X84918060Y-86920971D01*
X84918060Y-86920971D02*
X84860917Y-87035257D01*
X84860917Y-87035257D02*
X84803774Y-87092400D01*
X84803774Y-87092400D02*
X84689489Y-87149542D01*
X84689489Y-87149542D02*
X84460917Y-87149542D01*
X84460917Y-87149542D02*
X84346632Y-87092400D01*
X84346632Y-87092400D02*
X84289489Y-87035257D01*
X84289489Y-87035257D02*
X84232346Y-86920971D01*
X84232346Y-86920971D02*
X84232346Y-86635257D01*
X84232346Y-86635257D02*
X84289489Y-86520971D01*
X84289489Y-86520971D02*
X84346632Y-86463828D01*
X84346632Y-86463828D02*
X84460917Y-86406685D01*
X84460917Y-86406685D02*
X84689489Y-86406685D01*
X84689489Y-86406685D02*
X84803774Y-86463828D01*
X84803774Y-86463828D02*
X84860917Y-86520971D01*
X84860917Y-86520971D02*
X84918060Y-86635257D01*
X64100345Y-83482542D02*
X63357488Y-83482542D01*
X63357488Y-83482542D02*
X63757488Y-83939685D01*
X63757488Y-83939685D02*
X63586059Y-83939685D01*
X63586059Y-83939685D02*
X63471774Y-83996828D01*
X63471774Y-83996828D02*
X63414631Y-84053971D01*
X63414631Y-84053971D02*
X63357488Y-84168257D01*
X63357488Y-84168257D02*
X63357488Y-84453971D01*
X63357488Y-84453971D02*
X63414631Y-84568257D01*
X63414631Y-84568257D02*
X63471774Y-84625400D01*
X63471774Y-84625400D02*
X63586059Y-84682542D01*
X63586059Y-84682542D02*
X63928916Y-84682542D01*
X63928916Y-84682542D02*
X64043202Y-84625400D01*
X64043202Y-84625400D02*
X64100345Y-84568257D01*
X62843202Y-84568257D02*
X62786059Y-84625400D01*
X62786059Y-84625400D02*
X62843202Y-84682542D01*
X62843202Y-84682542D02*
X62900345Y-84625400D01*
X62900345Y-84625400D02*
X62843202Y-84568257D01*
X62843202Y-84568257D02*
X62843202Y-84682542D01*
X62386059Y-83482542D02*
X61643202Y-83482542D01*
X61643202Y-83482542D02*
X62043202Y-83939685D01*
X62043202Y-83939685D02*
X61871773Y-83939685D01*
X61871773Y-83939685D02*
X61757488Y-83996828D01*
X61757488Y-83996828D02*
X61700345Y-84053971D01*
X61700345Y-84053971D02*
X61643202Y-84168257D01*
X61643202Y-84168257D02*
X61643202Y-84453971D01*
X61643202Y-84453971D02*
X61700345Y-84568257D01*
X61700345Y-84568257D02*
X61757488Y-84625400D01*
X61757488Y-84625400D02*
X61871773Y-84682542D01*
X61871773Y-84682542D02*
X62214630Y-84682542D01*
X62214630Y-84682542D02*
X62328916Y-84625400D01*
X62328916Y-84625400D02*
X62386059Y-84568257D01*
X63893203Y-78583542D02*
X63150346Y-78583542D01*
X63150346Y-78583542D02*
X63550346Y-79040685D01*
X63550346Y-79040685D02*
X63378917Y-79040685D01*
X63378917Y-79040685D02*
X63264632Y-79097828D01*
X63264632Y-79097828D02*
X63207489Y-79154971D01*
X63207489Y-79154971D02*
X63150346Y-79269257D01*
X63150346Y-79269257D02*
X63150346Y-79554971D01*
X63150346Y-79554971D02*
X63207489Y-79669257D01*
X63207489Y-79669257D02*
X63264632Y-79726400D01*
X63264632Y-79726400D02*
X63378917Y-79783542D01*
X63378917Y-79783542D02*
X63721774Y-79783542D01*
X63721774Y-79783542D02*
X63836060Y-79726400D01*
X63836060Y-79726400D02*
X63893203Y-79669257D01*
X63836060Y-75903828D02*
X63778917Y-75846685D01*
X63778917Y-75846685D02*
X63664632Y-75789542D01*
X63664632Y-75789542D02*
X63378917Y-75789542D01*
X63378917Y-75789542D02*
X63264632Y-75846685D01*
X63264632Y-75846685D02*
X63207489Y-75903828D01*
X63207489Y-75903828D02*
X63150346Y-76018114D01*
X63150346Y-76018114D02*
X63150346Y-76132400D01*
X63150346Y-76132400D02*
X63207489Y-76303828D01*
X63207489Y-76303828D02*
X63893203Y-76989542D01*
X63893203Y-76989542D02*
X63150346Y-76989542D01*
X84689489Y-81637828D02*
X84803774Y-81580685D01*
X84803774Y-81580685D02*
X84860917Y-81523542D01*
X84860917Y-81523542D02*
X84918060Y-81409257D01*
X84918060Y-81409257D02*
X84918060Y-81352114D01*
X84918060Y-81352114D02*
X84860917Y-81237828D01*
X84860917Y-81237828D02*
X84803774Y-81180685D01*
X84803774Y-81180685D02*
X84689489Y-81123542D01*
X84689489Y-81123542D02*
X84460917Y-81123542D01*
X84460917Y-81123542D02*
X84346632Y-81180685D01*
X84346632Y-81180685D02*
X84289489Y-81237828D01*
X84289489Y-81237828D02*
X84232346Y-81352114D01*
X84232346Y-81352114D02*
X84232346Y-81409257D01*
X84232346Y-81409257D02*
X84289489Y-81523542D01*
X84289489Y-81523542D02*
X84346632Y-81580685D01*
X84346632Y-81580685D02*
X84460917Y-81637828D01*
X84460917Y-81637828D02*
X84689489Y-81637828D01*
X84689489Y-81637828D02*
X84803774Y-81694971D01*
X84803774Y-81694971D02*
X84860917Y-81752114D01*
X84860917Y-81752114D02*
X84918060Y-81866400D01*
X84918060Y-81866400D02*
X84918060Y-82094971D01*
X84918060Y-82094971D02*
X84860917Y-82209257D01*
X84860917Y-82209257D02*
X84803774Y-82266400D01*
X84803774Y-82266400D02*
X84689489Y-82323542D01*
X84689489Y-82323542D02*
X84460917Y-82323542D01*
X84460917Y-82323542D02*
X84346632Y-82266400D01*
X84346632Y-82266400D02*
X84289489Y-82209257D01*
X84289489Y-82209257D02*
X84232346Y-82094971D01*
X84232346Y-82094971D02*
X84232346Y-81866400D01*
X84232346Y-81866400D02*
X84289489Y-81752114D01*
X84289489Y-81752114D02*
X84346632Y-81694971D01*
X84346632Y-81694971D02*
X84460917Y-81637828D01*
X84289489Y-88843542D02*
X84860917Y-88843542D01*
X84860917Y-88843542D02*
X84918060Y-89414971D01*
X84918060Y-89414971D02*
X84860917Y-89357828D01*
X84860917Y-89357828D02*
X84746632Y-89300685D01*
X84746632Y-89300685D02*
X84460917Y-89300685D01*
X84460917Y-89300685D02*
X84346632Y-89357828D01*
X84346632Y-89357828D02*
X84289489Y-89414971D01*
X84289489Y-89414971D02*
X84232346Y-89529257D01*
X84232346Y-89529257D02*
X84232346Y-89814971D01*
X84232346Y-89814971D02*
X84289489Y-89929257D01*
X84289489Y-89929257D02*
X84346632Y-89986400D01*
X84346632Y-89986400D02*
X84460917Y-90043542D01*
X84460917Y-90043542D02*
X84746632Y-90043542D01*
X84746632Y-90043542D02*
X84860917Y-89986400D01*
X84860917Y-89986400D02*
X84918060Y-89929257D01*
X63484488Y-86079685D02*
X63598774Y-86022542D01*
X63598774Y-86022542D02*
X63770202Y-86022542D01*
X63770202Y-86022542D02*
X63941631Y-86079685D01*
X63941631Y-86079685D02*
X64055916Y-86193971D01*
X64055916Y-86193971D02*
X64113059Y-86308257D01*
X64113059Y-86308257D02*
X64170202Y-86536828D01*
X64170202Y-86536828D02*
X64170202Y-86708257D01*
X64170202Y-86708257D02*
X64113059Y-86936828D01*
X64113059Y-86936828D02*
X64055916Y-87051114D01*
X64055916Y-87051114D02*
X63941631Y-87165400D01*
X63941631Y-87165400D02*
X63770202Y-87222542D01*
X63770202Y-87222542D02*
X63655916Y-87222542D01*
X63655916Y-87222542D02*
X63484488Y-87165400D01*
X63484488Y-87165400D02*
X63427345Y-87108257D01*
X63427345Y-87108257D02*
X63427345Y-86708257D01*
X63427345Y-86708257D02*
X63655916Y-86708257D01*
X62913059Y-87222542D02*
X62913059Y-86022542D01*
X62913059Y-86022542D02*
X62227345Y-87222542D01*
X62227345Y-87222542D02*
X62227345Y-86022542D01*
X61655916Y-87222542D02*
X61655916Y-86022542D01*
X61655916Y-86022542D02*
X61370202Y-86022542D01*
X61370202Y-86022542D02*
X61198773Y-86079685D01*
X61198773Y-86079685D02*
X61084488Y-86193971D01*
X61084488Y-86193971D02*
X61027345Y-86308257D01*
X61027345Y-86308257D02*
X60970202Y-86536828D01*
X60970202Y-86536828D02*
X60970202Y-86708257D01*
X60970202Y-86708257D02*
X61027345Y-86936828D01*
X61027345Y-86936828D02*
X61084488Y-87051114D01*
X61084488Y-87051114D02*
X61198773Y-87165400D01*
X61198773Y-87165400D02*
X61370202Y-87222542D01*
X61370202Y-87222542D02*
X61655916Y-87222542D01*
X84803774Y-79783542D02*
X84575203Y-79783542D01*
X84575203Y-79783542D02*
X84460917Y-79726400D01*
X84460917Y-79726400D02*
X84403774Y-79669257D01*
X84403774Y-79669257D02*
X84289489Y-79497828D01*
X84289489Y-79497828D02*
X84232346Y-79269257D01*
X84232346Y-79269257D02*
X84232346Y-78812114D01*
X84232346Y-78812114D02*
X84289489Y-78697828D01*
X84289489Y-78697828D02*
X84346632Y-78640685D01*
X84346632Y-78640685D02*
X84460917Y-78583542D01*
X84460917Y-78583542D02*
X84689489Y-78583542D01*
X84689489Y-78583542D02*
X84803774Y-78640685D01*
X84803774Y-78640685D02*
X84860917Y-78697828D01*
X84860917Y-78697828D02*
X84918060Y-78812114D01*
X84918060Y-78812114D02*
X84918060Y-79097828D01*
X84918060Y-79097828D02*
X84860917Y-79212114D01*
X84860917Y-79212114D02*
X84803774Y-79269257D01*
X84803774Y-79269257D02*
X84689489Y-79326400D01*
X84689489Y-79326400D02*
X84460917Y-79326400D01*
X84460917Y-79326400D02*
X84346632Y-79269257D01*
X84346632Y-79269257D02*
X84289489Y-79212114D01*
X84289489Y-79212114D02*
X84232346Y-79097828D01*
M02*
