%TF.GenerationSoftware,KiCad,Pcbnew,7.0.6-0*%
%TF.CreationDate,2023-12-02T16:23:56+00:00*%
%TF.ProjectId,Bitko clock,4269746b-6f20-4636-9c6f-636b2e6b6963,rev?*%
%TF.SameCoordinates,Original*%
%TF.FileFunction,Legend,Top*%
%TF.FilePolarity,Positive*%
%FSLAX46Y46*%
G04 Gerber Fmt 4.6, Leading zero omitted, Abs format (unit mm)*
G04 Created by KiCad (PCBNEW 7.0.6-0) date 2023-12-02 16:23:56*
%MOMM*%
%LPD*%
G01*
G04 APERTURE LIST*
%ADD10C,0.066145*%
%ADD11C,0.000000*%
%ADD12C,0.150000*%
%ADD13C,0.300000*%
%ADD14C,0.200000*%
%ADD15C,0.120000*%
G04 APERTURE END LIST*
D10*
X89909265Y-65996833D02*
X91953515Y-65996833D01*
X87003148Y-71992839D01*
X88787691Y-67419417D01*
X87473287Y-67419417D01*
X89104132Y-62203256D01*
X92579493Y-62203256D01*
X89909265Y-65996833D01*
G36*
X89909265Y-65996833D02*
G01*
X91953515Y-65996833D01*
X87003148Y-71992839D01*
X88787691Y-67419417D01*
X87473287Y-67419417D01*
X89104132Y-62203256D01*
X92579493Y-62203256D01*
X89909265Y-65996833D01*
G37*
X111425293Y-63030641D02*
X111449459Y-63032327D01*
X111473198Y-63035137D01*
X111496510Y-63039071D01*
X111519397Y-63044128D01*
X111541857Y-63050310D01*
X111563890Y-63057616D01*
X111585498Y-63066046D01*
X111606678Y-63075599D01*
X111627433Y-63086277D01*
X111647761Y-63098079D01*
X111667663Y-63111004D01*
X111687138Y-63125054D01*
X111706187Y-63140227D01*
X111724810Y-63156525D01*
X111743006Y-63173946D01*
X111760428Y-63192143D01*
X111776726Y-63210766D01*
X111791899Y-63229815D01*
X111805949Y-63249290D01*
X111818875Y-63269192D01*
X111830677Y-63289520D01*
X111841354Y-63310275D01*
X111850908Y-63331456D01*
X111859338Y-63353063D01*
X111866644Y-63375097D01*
X111872826Y-63397556D01*
X111877884Y-63420443D01*
X111881818Y-63443755D01*
X111884628Y-63467494D01*
X111886314Y-63491659D01*
X111886876Y-63516251D01*
X111886314Y-63540862D01*
X111884628Y-63565085D01*
X111881818Y-63588921D01*
X111877884Y-63612369D01*
X111872826Y-63635429D01*
X111866644Y-63658103D01*
X111859338Y-63680388D01*
X111850908Y-63702286D01*
X111841354Y-63723796D01*
X111830677Y-63744919D01*
X111818875Y-63765654D01*
X111805949Y-63786002D01*
X111791899Y-63805962D01*
X111776726Y-63825534D01*
X111760428Y-63844719D01*
X111743006Y-63863516D01*
X111724810Y-63881538D01*
X111706187Y-63898398D01*
X111687138Y-63914095D01*
X111667663Y-63928629D01*
X111647761Y-63942000D01*
X111627433Y-63954208D01*
X111606678Y-63965254D01*
X111585498Y-63975137D01*
X111563890Y-63983858D01*
X111541857Y-63991415D01*
X111519397Y-63997810D01*
X111496510Y-64003043D01*
X111473198Y-64007112D01*
X111449459Y-64010019D01*
X111425293Y-64011763D01*
X111400702Y-64012344D01*
X111374909Y-64011763D01*
X111349620Y-64010019D01*
X111324834Y-64007112D01*
X111300553Y-64003043D01*
X111276775Y-63997810D01*
X111253501Y-63991415D01*
X111230732Y-63983858D01*
X111208465Y-63975137D01*
X111186703Y-63965254D01*
X111165445Y-63954208D01*
X111144690Y-63942000D01*
X111124440Y-63928629D01*
X111104693Y-63914095D01*
X111085450Y-63898398D01*
X111066711Y-63881538D01*
X111048476Y-63863516D01*
X111031054Y-63844719D01*
X111014757Y-63825534D01*
X110999583Y-63805962D01*
X110985534Y-63786002D01*
X110972608Y-63765654D01*
X110960807Y-63744919D01*
X110950129Y-63723796D01*
X110940575Y-63702286D01*
X110932146Y-63680388D01*
X110924840Y-63658103D01*
X110918658Y-63635429D01*
X110913600Y-63612369D01*
X110909666Y-63588921D01*
X110906856Y-63565085D01*
X110905170Y-63540862D01*
X110904608Y-63516251D01*
X110905170Y-63491659D01*
X110906856Y-63467494D01*
X110909666Y-63443755D01*
X110913600Y-63420443D01*
X110918658Y-63397556D01*
X110924840Y-63375097D01*
X110932146Y-63353063D01*
X110940575Y-63331456D01*
X110950129Y-63310275D01*
X110960807Y-63289520D01*
X110972608Y-63269192D01*
X110985534Y-63249290D01*
X110999583Y-63229815D01*
X111014757Y-63210766D01*
X111031054Y-63192143D01*
X111048476Y-63173946D01*
X111066711Y-63156525D01*
X111085450Y-63140227D01*
X111104693Y-63125054D01*
X111124440Y-63111004D01*
X111144690Y-63098079D01*
X111165445Y-63086277D01*
X111186703Y-63075599D01*
X111208465Y-63066046D01*
X111230732Y-63057616D01*
X111253501Y-63050310D01*
X111276775Y-63044128D01*
X111300553Y-63039071D01*
X111324834Y-63035137D01*
X111349620Y-63032327D01*
X111374909Y-63030641D01*
X111400702Y-63030079D01*
X111425293Y-63030641D01*
G36*
X111425293Y-63030641D02*
G01*
X111449459Y-63032327D01*
X111473198Y-63035137D01*
X111496510Y-63039071D01*
X111519397Y-63044128D01*
X111541857Y-63050310D01*
X111563890Y-63057616D01*
X111585498Y-63066046D01*
X111606678Y-63075599D01*
X111627433Y-63086277D01*
X111647761Y-63098079D01*
X111667663Y-63111004D01*
X111687138Y-63125054D01*
X111706187Y-63140227D01*
X111724810Y-63156525D01*
X111743006Y-63173946D01*
X111760428Y-63192143D01*
X111776726Y-63210766D01*
X111791899Y-63229815D01*
X111805949Y-63249290D01*
X111818875Y-63269192D01*
X111830677Y-63289520D01*
X111841354Y-63310275D01*
X111850908Y-63331456D01*
X111859338Y-63353063D01*
X111866644Y-63375097D01*
X111872826Y-63397556D01*
X111877884Y-63420443D01*
X111881818Y-63443755D01*
X111884628Y-63467494D01*
X111886314Y-63491659D01*
X111886876Y-63516251D01*
X111886314Y-63540862D01*
X111884628Y-63565085D01*
X111881818Y-63588921D01*
X111877884Y-63612369D01*
X111872826Y-63635429D01*
X111866644Y-63658103D01*
X111859338Y-63680388D01*
X111850908Y-63702286D01*
X111841354Y-63723796D01*
X111830677Y-63744919D01*
X111818875Y-63765654D01*
X111805949Y-63786002D01*
X111791899Y-63805962D01*
X111776726Y-63825534D01*
X111760428Y-63844719D01*
X111743006Y-63863516D01*
X111724810Y-63881538D01*
X111706187Y-63898398D01*
X111687138Y-63914095D01*
X111667663Y-63928629D01*
X111647761Y-63942000D01*
X111627433Y-63954208D01*
X111606678Y-63965254D01*
X111585498Y-63975137D01*
X111563890Y-63983858D01*
X111541857Y-63991415D01*
X111519397Y-63997810D01*
X111496510Y-64003043D01*
X111473198Y-64007112D01*
X111449459Y-64010019D01*
X111425293Y-64011763D01*
X111400702Y-64012344D01*
X111374909Y-64011763D01*
X111349620Y-64010019D01*
X111324834Y-64007112D01*
X111300553Y-64003043D01*
X111276775Y-63997810D01*
X111253501Y-63991415D01*
X111230732Y-63983858D01*
X111208465Y-63975137D01*
X111186703Y-63965254D01*
X111165445Y-63954208D01*
X111144690Y-63942000D01*
X111124440Y-63928629D01*
X111104693Y-63914095D01*
X111085450Y-63898398D01*
X111066711Y-63881538D01*
X111048476Y-63863516D01*
X111031054Y-63844719D01*
X111014757Y-63825534D01*
X110999583Y-63805962D01*
X110985534Y-63786002D01*
X110972608Y-63765654D01*
X110960807Y-63744919D01*
X110950129Y-63723796D01*
X110940575Y-63702286D01*
X110932146Y-63680388D01*
X110924840Y-63658103D01*
X110918658Y-63635429D01*
X110913600Y-63612369D01*
X110909666Y-63588921D01*
X110906856Y-63565085D01*
X110905170Y-63540862D01*
X110904608Y-63516251D01*
X110905170Y-63491659D01*
X110906856Y-63467494D01*
X110909666Y-63443755D01*
X110913600Y-63420443D01*
X110918658Y-63397556D01*
X110924840Y-63375097D01*
X110932146Y-63353063D01*
X110940575Y-63331456D01*
X110950129Y-63310275D01*
X110960807Y-63289520D01*
X110972608Y-63269192D01*
X110985534Y-63249290D01*
X110999583Y-63229815D01*
X111014757Y-63210766D01*
X111031054Y-63192143D01*
X111048476Y-63173946D01*
X111066711Y-63156525D01*
X111085450Y-63140227D01*
X111104693Y-63125054D01*
X111124440Y-63111004D01*
X111144690Y-63098079D01*
X111165445Y-63086277D01*
X111186703Y-63075599D01*
X111208465Y-63066046D01*
X111230732Y-63057616D01*
X111253501Y-63050310D01*
X111276775Y-63044128D01*
X111300553Y-63039071D01*
X111324834Y-63035137D01*
X111349620Y-63032327D01*
X111374909Y-63030641D01*
X111400702Y-63030079D01*
X111425293Y-63030641D01*
G37*
X111767811Y-70074610D02*
X111023671Y-70074610D01*
X111023671Y-64945001D01*
X111767811Y-64945001D01*
X111767811Y-70074610D01*
G36*
X111767811Y-70074610D02*
G01*
X111023671Y-70074610D01*
X111023671Y-64945001D01*
X111767811Y-64945001D01*
X111767811Y-70074610D01*
G37*
X103532656Y-67663595D02*
X103532656Y-63258282D01*
X104991171Y-63258282D01*
X104991171Y-70074610D01*
X103532656Y-70074610D01*
X100238593Y-65669298D01*
X100238593Y-70074610D01*
X98780078Y-70074610D01*
X98780078Y-63258282D01*
X100238593Y-63258282D01*
X103532656Y-67663595D01*
G36*
X103532656Y-67663595D02*
G01*
X103532656Y-63258282D01*
X104991171Y-63258282D01*
X104991171Y-70074610D01*
X103532656Y-70074610D01*
X100238593Y-65669298D01*
X100238593Y-70074610D01*
X98780078Y-70074610D01*
X98780078Y-63258282D01*
X100238593Y-63258282D01*
X103532656Y-67663595D01*
G37*
X94761719Y-68755000D02*
X98155000Y-68755000D01*
X98155000Y-70074610D01*
X93303203Y-70074610D01*
X93303203Y-63258282D01*
X94761719Y-63258282D01*
X94761719Y-68755000D01*
G36*
X94761719Y-68755000D02*
G01*
X98155000Y-68755000D01*
X98155000Y-70074610D01*
X93303203Y-70074610D01*
X93303203Y-63258282D01*
X94761719Y-63258282D01*
X94761719Y-68755000D01*
G37*
X117910433Y-64828341D02*
X118027481Y-64835550D01*
X118144838Y-64847565D01*
X118262506Y-64864385D01*
X118380483Y-64886012D01*
X118498771Y-64912444D01*
X118617368Y-64943683D01*
X118736275Y-64979727D01*
X118854407Y-65019957D01*
X118970679Y-65063753D01*
X119085091Y-65111115D01*
X119197642Y-65162042D01*
X119308333Y-65216535D01*
X119417164Y-65274593D01*
X119524134Y-65336217D01*
X119629244Y-65401407D01*
X119272055Y-65976876D01*
X119176751Y-65918003D01*
X119081834Y-65862929D01*
X118987305Y-65811653D01*
X118893164Y-65764175D01*
X118799410Y-65720496D01*
X118706043Y-65680615D01*
X118613065Y-65644532D01*
X118520474Y-65612247D01*
X118428270Y-65583760D01*
X118336454Y-65559072D01*
X118245026Y-65538181D01*
X118153985Y-65521089D01*
X118063331Y-65507796D01*
X117973065Y-65498300D01*
X117883187Y-65492603D01*
X117793696Y-65490704D01*
X117737265Y-65491479D01*
X117682075Y-65493804D01*
X117628125Y-65497680D01*
X117575415Y-65503106D01*
X117523946Y-65510082D01*
X117473716Y-65518609D01*
X117424727Y-65528686D01*
X117376978Y-65540313D01*
X117330469Y-65553491D01*
X117285201Y-65568218D01*
X117241173Y-65584497D01*
X117198385Y-65602325D01*
X117156837Y-65621704D01*
X117116529Y-65642633D01*
X117077462Y-65665112D01*
X117039635Y-65689141D01*
X117003591Y-65714566D01*
X116969872Y-65741231D01*
X116938478Y-65769136D01*
X116909410Y-65798282D01*
X116882667Y-65828668D01*
X116858250Y-65860294D01*
X116836158Y-65893160D01*
X116816392Y-65927266D01*
X116798951Y-65962613D01*
X116783836Y-65999200D01*
X116771046Y-66037027D01*
X116760582Y-66076094D01*
X116752443Y-66116402D01*
X116746629Y-66157950D01*
X116743141Y-66200738D01*
X116741978Y-66244766D01*
X116742482Y-66271741D01*
X116743993Y-66298096D01*
X116746513Y-66323831D01*
X116750040Y-66348946D01*
X116754574Y-66373440D01*
X116760117Y-66397315D01*
X116766667Y-66420569D01*
X116774224Y-66443204D01*
X116782790Y-66465218D01*
X116792363Y-66486612D01*
X116802944Y-66507386D01*
X116814532Y-66527540D01*
X116827128Y-66547073D01*
X116840732Y-66565987D01*
X116855343Y-66584280D01*
X116870963Y-66601954D01*
X116887589Y-66619201D01*
X116905224Y-66636215D01*
X116923866Y-66652997D01*
X116943516Y-66669547D01*
X116964174Y-66685863D01*
X116985839Y-66701948D01*
X117008512Y-66717799D01*
X117032193Y-66733419D01*
X117056881Y-66748805D01*
X117082577Y-66763959D01*
X117109281Y-66778881D01*
X117136993Y-66793570D01*
X117165712Y-66808026D01*
X117195439Y-66822250D01*
X117226174Y-66836242D01*
X117257916Y-66850001D01*
X117327059Y-66878371D01*
X117405503Y-66908912D01*
X117590298Y-66976505D01*
X117812301Y-67052779D01*
X118071511Y-67137735D01*
X118204681Y-67179748D01*
X118331340Y-67221451D01*
X118451487Y-67262844D01*
X118565123Y-67303926D01*
X118672248Y-67344699D01*
X118772862Y-67385162D01*
X118866965Y-67425314D01*
X118954556Y-67465157D01*
X118996298Y-67485485D01*
X119037187Y-67506782D01*
X119077223Y-67529048D01*
X119116407Y-67552283D01*
X119154738Y-67576487D01*
X119192217Y-67601660D01*
X119228842Y-67627802D01*
X119264615Y-67654913D01*
X119299535Y-67682992D01*
X119333603Y-67712041D01*
X119366818Y-67742058D01*
X119399180Y-67773045D01*
X119430690Y-67805000D01*
X119461346Y-67837925D01*
X119491151Y-67871818D01*
X119520102Y-67906680D01*
X119547736Y-67942705D01*
X119573588Y-67980086D01*
X119597656Y-68018824D01*
X119619942Y-68058919D01*
X119640444Y-68100370D01*
X119659164Y-68143177D01*
X119676101Y-68187341D01*
X119691255Y-68232862D01*
X119704626Y-68279739D01*
X119716214Y-68327972D01*
X119726020Y-68377562D01*
X119734042Y-68428509D01*
X119740282Y-68480812D01*
X119744739Y-68534472D01*
X119747413Y-68589488D01*
X119748305Y-68645860D01*
X119746231Y-68731630D01*
X119740011Y-68815307D01*
X119729643Y-68896891D01*
X119715129Y-68976382D01*
X119696468Y-69053781D01*
X119673659Y-69129086D01*
X119646704Y-69202299D01*
X119615601Y-69273419D01*
X119580351Y-69342445D01*
X119540955Y-69409379D01*
X119497411Y-69474220D01*
X119449720Y-69536968D01*
X119397882Y-69597623D01*
X119341897Y-69656186D01*
X119281765Y-69712655D01*
X119217486Y-69767032D01*
X119150028Y-69818695D01*
X119080362Y-69867025D01*
X119008486Y-69912023D01*
X118934402Y-69953687D01*
X118858108Y-69992018D01*
X118779605Y-70027016D01*
X118698893Y-70058681D01*
X118615971Y-70087012D01*
X118530841Y-70112011D01*
X118443501Y-70133676D01*
X118353953Y-70152008D01*
X118262195Y-70167007D01*
X118168228Y-70178673D01*
X118072052Y-70187006D01*
X117973666Y-70192006D01*
X117873072Y-70193673D01*
X117804801Y-70192897D01*
X117736414Y-70190572D01*
X117667910Y-70186696D01*
X117599290Y-70181270D01*
X117530554Y-70174294D01*
X117461702Y-70165767D01*
X117392733Y-70155690D01*
X117323648Y-70144063D01*
X117254447Y-70130886D01*
X117185130Y-70116158D01*
X117046146Y-70082051D01*
X116906697Y-70041744D01*
X116766783Y-69995235D01*
X116697117Y-69969771D01*
X116628264Y-69942990D01*
X116560226Y-69914891D01*
X116493001Y-69885474D01*
X116426591Y-69854740D01*
X116360994Y-69822687D01*
X116296211Y-69789317D01*
X116232242Y-69754629D01*
X116169087Y-69718624D01*
X116106746Y-69681301D01*
X116045219Y-69642659D01*
X115984505Y-69602701D01*
X115924606Y-69561424D01*
X115865520Y-69518830D01*
X115807248Y-69474918D01*
X115749791Y-69429688D01*
X116136744Y-68883985D01*
X116247008Y-68962081D01*
X116357040Y-69035138D01*
X116466840Y-69103158D01*
X116576407Y-69166138D01*
X116685741Y-69224080D01*
X116794843Y-69276984D01*
X116903713Y-69324849D01*
X117012350Y-69367676D01*
X117120754Y-69405465D01*
X117228926Y-69438215D01*
X117336865Y-69465926D01*
X117444571Y-69488599D01*
X117552045Y-69506234D01*
X117659287Y-69518830D01*
X117766296Y-69526387D01*
X117873072Y-69528907D01*
X117935568Y-69528054D01*
X117996553Y-69525496D01*
X118056026Y-69521233D01*
X118113987Y-69515264D01*
X118170437Y-69507590D01*
X118225375Y-69498211D01*
X118278802Y-69487126D01*
X118330718Y-69474336D01*
X118381122Y-69459841D01*
X118430014Y-69443640D01*
X118477395Y-69425735D01*
X118523264Y-69406123D01*
X118567623Y-69384807D01*
X118610469Y-69361785D01*
X118651804Y-69337058D01*
X118691628Y-69310625D01*
X118729474Y-69282759D01*
X118764879Y-69253730D01*
X118797842Y-69223538D01*
X118828363Y-69192183D01*
X118856442Y-69159666D01*
X118882080Y-69125986D01*
X118905276Y-69091143D01*
X118926031Y-69055137D01*
X118944343Y-69017969D01*
X118960214Y-68979638D01*
X118973643Y-68940144D01*
X118984631Y-68899488D01*
X118993177Y-68857669D01*
X118999281Y-68814687D01*
X119002943Y-68770542D01*
X119004164Y-68725235D01*
X119003505Y-68693318D01*
X119001529Y-68662060D01*
X118998235Y-68631461D01*
X118993623Y-68601521D01*
X118987693Y-68572240D01*
X118980446Y-68543618D01*
X118971880Y-68515654D01*
X118961997Y-68488350D01*
X118950797Y-68461704D01*
X118938278Y-68435717D01*
X118924442Y-68410389D01*
X118909288Y-68385720D01*
X118892816Y-68361710D01*
X118875026Y-68338359D01*
X118855919Y-68315666D01*
X118835493Y-68293633D01*
X118814080Y-68272219D01*
X118792008Y-68251387D01*
X118769277Y-68231137D01*
X118745887Y-68211467D01*
X118721838Y-68192379D01*
X118697130Y-68173873D01*
X118671763Y-68155948D01*
X118645738Y-68138604D01*
X118619053Y-68121841D01*
X118591710Y-68105660D01*
X118563708Y-68090060D01*
X118535046Y-68075042D01*
X118505726Y-68060605D01*
X118475747Y-68046749D01*
X118445110Y-68033474D01*
X118413813Y-68020781D01*
X118347538Y-67995512D01*
X118275217Y-67969312D01*
X118112436Y-67914122D01*
X117925471Y-67855210D01*
X117714322Y-67792579D01*
X117598670Y-67758879D01*
X117487359Y-67724753D01*
X117380388Y-67690201D01*
X117277759Y-67655223D01*
X117179471Y-67619818D01*
X117085523Y-67583987D01*
X116995916Y-67547729D01*
X116910650Y-67511045D01*
X116829725Y-67473935D01*
X116753140Y-67436399D01*
X116680897Y-67398436D01*
X116612994Y-67360047D01*
X116549432Y-67321231D01*
X116490211Y-67281990D01*
X116435330Y-67242321D01*
X116384791Y-67202227D01*
X116337933Y-67161047D01*
X116294099Y-67118124D01*
X116253287Y-67073456D01*
X116215499Y-67027044D01*
X116180733Y-66978888D01*
X116148991Y-66928988D01*
X116120272Y-66877344D01*
X116094576Y-66823955D01*
X116071903Y-66768823D01*
X116052253Y-66711947D01*
X116035626Y-66653326D01*
X116022022Y-66592962D01*
X116011441Y-66530853D01*
X116003884Y-66467000D01*
X115999349Y-66401404D01*
X115997837Y-66334063D01*
X115999814Y-66249553D01*
X116005744Y-66167174D01*
X116015627Y-66086927D01*
X116029463Y-66008812D01*
X116047253Y-65932828D01*
X116068996Y-65858976D01*
X116094692Y-65787255D01*
X116124341Y-65717667D01*
X116157943Y-65650210D01*
X116195499Y-65584884D01*
X116237008Y-65521690D01*
X116282471Y-65460628D01*
X116331886Y-65401698D01*
X116385255Y-65344899D01*
X116442578Y-65290232D01*
X116503853Y-65237696D01*
X116568190Y-65187835D01*
X116634698Y-65141190D01*
X116703376Y-65097763D01*
X116774224Y-65057552D01*
X116847243Y-65020558D01*
X116922432Y-64986781D01*
X116999792Y-64956221D01*
X117079322Y-64928878D01*
X117161022Y-64904751D01*
X117244893Y-64883842D01*
X117330934Y-64866149D01*
X117419146Y-64851673D01*
X117509528Y-64840414D01*
X117602080Y-64832372D01*
X117696803Y-64827547D01*
X117793696Y-64825938D01*
X117910433Y-64828341D01*
G36*
X117910433Y-64828341D02*
G01*
X118027481Y-64835550D01*
X118144838Y-64847565D01*
X118262506Y-64864385D01*
X118380483Y-64886012D01*
X118498771Y-64912444D01*
X118617368Y-64943683D01*
X118736275Y-64979727D01*
X118854407Y-65019957D01*
X118970679Y-65063753D01*
X119085091Y-65111115D01*
X119197642Y-65162042D01*
X119308333Y-65216535D01*
X119417164Y-65274593D01*
X119524134Y-65336217D01*
X119629244Y-65401407D01*
X119272055Y-65976876D01*
X119176751Y-65918003D01*
X119081834Y-65862929D01*
X118987305Y-65811653D01*
X118893164Y-65764175D01*
X118799410Y-65720496D01*
X118706043Y-65680615D01*
X118613065Y-65644532D01*
X118520474Y-65612247D01*
X118428270Y-65583760D01*
X118336454Y-65559072D01*
X118245026Y-65538181D01*
X118153985Y-65521089D01*
X118063331Y-65507796D01*
X117973065Y-65498300D01*
X117883187Y-65492603D01*
X117793696Y-65490704D01*
X117737265Y-65491479D01*
X117682075Y-65493804D01*
X117628125Y-65497680D01*
X117575415Y-65503106D01*
X117523946Y-65510082D01*
X117473716Y-65518609D01*
X117424727Y-65528686D01*
X117376978Y-65540313D01*
X117330469Y-65553491D01*
X117285201Y-65568218D01*
X117241173Y-65584497D01*
X117198385Y-65602325D01*
X117156837Y-65621704D01*
X117116529Y-65642633D01*
X117077462Y-65665112D01*
X117039635Y-65689141D01*
X117003591Y-65714566D01*
X116969872Y-65741231D01*
X116938478Y-65769136D01*
X116909410Y-65798282D01*
X116882667Y-65828668D01*
X116858250Y-65860294D01*
X116836158Y-65893160D01*
X116816392Y-65927266D01*
X116798951Y-65962613D01*
X116783836Y-65999200D01*
X116771046Y-66037027D01*
X116760582Y-66076094D01*
X116752443Y-66116402D01*
X116746629Y-66157950D01*
X116743141Y-66200738D01*
X116741978Y-66244766D01*
X116742482Y-66271741D01*
X116743993Y-66298096D01*
X116746513Y-66323831D01*
X116750040Y-66348946D01*
X116754574Y-66373440D01*
X116760117Y-66397315D01*
X116766667Y-66420569D01*
X116774224Y-66443204D01*
X116782790Y-66465218D01*
X116792363Y-66486612D01*
X116802944Y-66507386D01*
X116814532Y-66527540D01*
X116827128Y-66547073D01*
X116840732Y-66565987D01*
X116855343Y-66584280D01*
X116870963Y-66601954D01*
X116887589Y-66619201D01*
X116905224Y-66636215D01*
X116923866Y-66652997D01*
X116943516Y-66669547D01*
X116964174Y-66685863D01*
X116985839Y-66701948D01*
X117008512Y-66717799D01*
X117032193Y-66733419D01*
X117056881Y-66748805D01*
X117082577Y-66763959D01*
X117109281Y-66778881D01*
X117136993Y-66793570D01*
X117165712Y-66808026D01*
X117195439Y-66822250D01*
X117226174Y-66836242D01*
X117257916Y-66850001D01*
X117327059Y-66878371D01*
X117405503Y-66908912D01*
X117590298Y-66976505D01*
X117812301Y-67052779D01*
X118071511Y-67137735D01*
X118204681Y-67179748D01*
X118331340Y-67221451D01*
X118451487Y-67262844D01*
X118565123Y-67303926D01*
X118672248Y-67344699D01*
X118772862Y-67385162D01*
X118866965Y-67425314D01*
X118954556Y-67465157D01*
X118996298Y-67485485D01*
X119037187Y-67506782D01*
X119077223Y-67529048D01*
X119116407Y-67552283D01*
X119154738Y-67576487D01*
X119192217Y-67601660D01*
X119228842Y-67627802D01*
X119264615Y-67654913D01*
X119299535Y-67682992D01*
X119333603Y-67712041D01*
X119366818Y-67742058D01*
X119399180Y-67773045D01*
X119430690Y-67805000D01*
X119461346Y-67837925D01*
X119491151Y-67871818D01*
X119520102Y-67906680D01*
X119547736Y-67942705D01*
X119573588Y-67980086D01*
X119597656Y-68018824D01*
X119619942Y-68058919D01*
X119640444Y-68100370D01*
X119659164Y-68143177D01*
X119676101Y-68187341D01*
X119691255Y-68232862D01*
X119704626Y-68279739D01*
X119716214Y-68327972D01*
X119726020Y-68377562D01*
X119734042Y-68428509D01*
X119740282Y-68480812D01*
X119744739Y-68534472D01*
X119747413Y-68589488D01*
X119748305Y-68645860D01*
X119746231Y-68731630D01*
X119740011Y-68815307D01*
X119729643Y-68896891D01*
X119715129Y-68976382D01*
X119696468Y-69053781D01*
X119673659Y-69129086D01*
X119646704Y-69202299D01*
X119615601Y-69273419D01*
X119580351Y-69342445D01*
X119540955Y-69409379D01*
X119497411Y-69474220D01*
X119449720Y-69536968D01*
X119397882Y-69597623D01*
X119341897Y-69656186D01*
X119281765Y-69712655D01*
X119217486Y-69767032D01*
X119150028Y-69818695D01*
X119080362Y-69867025D01*
X119008486Y-69912023D01*
X118934402Y-69953687D01*
X118858108Y-69992018D01*
X118779605Y-70027016D01*
X118698893Y-70058681D01*
X118615971Y-70087012D01*
X118530841Y-70112011D01*
X118443501Y-70133676D01*
X118353953Y-70152008D01*
X118262195Y-70167007D01*
X118168228Y-70178673D01*
X118072052Y-70187006D01*
X117973666Y-70192006D01*
X117873072Y-70193673D01*
X117804801Y-70192897D01*
X117736414Y-70190572D01*
X117667910Y-70186696D01*
X117599290Y-70181270D01*
X117530554Y-70174294D01*
X117461702Y-70165767D01*
X117392733Y-70155690D01*
X117323648Y-70144063D01*
X117254447Y-70130886D01*
X117185130Y-70116158D01*
X117046146Y-70082051D01*
X116906697Y-70041744D01*
X116766783Y-69995235D01*
X116697117Y-69969771D01*
X116628264Y-69942990D01*
X116560226Y-69914891D01*
X116493001Y-69885474D01*
X116426591Y-69854740D01*
X116360994Y-69822687D01*
X116296211Y-69789317D01*
X116232242Y-69754629D01*
X116169087Y-69718624D01*
X116106746Y-69681301D01*
X116045219Y-69642659D01*
X115984505Y-69602701D01*
X115924606Y-69561424D01*
X115865520Y-69518830D01*
X115807248Y-69474918D01*
X115749791Y-69429688D01*
X116136744Y-68883985D01*
X116247008Y-68962081D01*
X116357040Y-69035138D01*
X116466840Y-69103158D01*
X116576407Y-69166138D01*
X116685741Y-69224080D01*
X116794843Y-69276984D01*
X116903713Y-69324849D01*
X117012350Y-69367676D01*
X117120754Y-69405465D01*
X117228926Y-69438215D01*
X117336865Y-69465926D01*
X117444571Y-69488599D01*
X117552045Y-69506234D01*
X117659287Y-69518830D01*
X117766296Y-69526387D01*
X117873072Y-69528907D01*
X117935568Y-69528054D01*
X117996553Y-69525496D01*
X118056026Y-69521233D01*
X118113987Y-69515264D01*
X118170437Y-69507590D01*
X118225375Y-69498211D01*
X118278802Y-69487126D01*
X118330718Y-69474336D01*
X118381122Y-69459841D01*
X118430014Y-69443640D01*
X118477395Y-69425735D01*
X118523264Y-69406123D01*
X118567623Y-69384807D01*
X118610469Y-69361785D01*
X118651804Y-69337058D01*
X118691628Y-69310625D01*
X118729474Y-69282759D01*
X118764879Y-69253730D01*
X118797842Y-69223538D01*
X118828363Y-69192183D01*
X118856442Y-69159666D01*
X118882080Y-69125986D01*
X118905276Y-69091143D01*
X118926031Y-69055137D01*
X118944343Y-69017969D01*
X118960214Y-68979638D01*
X118973643Y-68940144D01*
X118984631Y-68899488D01*
X118993177Y-68857669D01*
X118999281Y-68814687D01*
X119002943Y-68770542D01*
X119004164Y-68725235D01*
X119003505Y-68693318D01*
X119001529Y-68662060D01*
X118998235Y-68631461D01*
X118993623Y-68601521D01*
X118987693Y-68572240D01*
X118980446Y-68543618D01*
X118971880Y-68515654D01*
X118961997Y-68488350D01*
X118950797Y-68461704D01*
X118938278Y-68435717D01*
X118924442Y-68410389D01*
X118909288Y-68385720D01*
X118892816Y-68361710D01*
X118875026Y-68338359D01*
X118855919Y-68315666D01*
X118835493Y-68293633D01*
X118814080Y-68272219D01*
X118792008Y-68251387D01*
X118769277Y-68231137D01*
X118745887Y-68211467D01*
X118721838Y-68192379D01*
X118697130Y-68173873D01*
X118671763Y-68155948D01*
X118645738Y-68138604D01*
X118619053Y-68121841D01*
X118591710Y-68105660D01*
X118563708Y-68090060D01*
X118535046Y-68075042D01*
X118505726Y-68060605D01*
X118475747Y-68046749D01*
X118445110Y-68033474D01*
X118413813Y-68020781D01*
X118347538Y-67995512D01*
X118275217Y-67969312D01*
X118112436Y-67914122D01*
X117925471Y-67855210D01*
X117714322Y-67792579D01*
X117598670Y-67758879D01*
X117487359Y-67724753D01*
X117380388Y-67690201D01*
X117277759Y-67655223D01*
X117179471Y-67619818D01*
X117085523Y-67583987D01*
X116995916Y-67547729D01*
X116910650Y-67511045D01*
X116829725Y-67473935D01*
X116753140Y-67436399D01*
X116680897Y-67398436D01*
X116612994Y-67360047D01*
X116549432Y-67321231D01*
X116490211Y-67281990D01*
X116435330Y-67242321D01*
X116384791Y-67202227D01*
X116337933Y-67161047D01*
X116294099Y-67118124D01*
X116253287Y-67073456D01*
X116215499Y-67027044D01*
X116180733Y-66978888D01*
X116148991Y-66928988D01*
X116120272Y-66877344D01*
X116094576Y-66823955D01*
X116071903Y-66768823D01*
X116052253Y-66711947D01*
X116035626Y-66653326D01*
X116022022Y-66592962D01*
X116011441Y-66530853D01*
X116003884Y-66467000D01*
X115999349Y-66401404D01*
X115997837Y-66334063D01*
X115999814Y-66249553D01*
X116005744Y-66167174D01*
X116015627Y-66086927D01*
X116029463Y-66008812D01*
X116047253Y-65932828D01*
X116068996Y-65858976D01*
X116094692Y-65787255D01*
X116124341Y-65717667D01*
X116157943Y-65650210D01*
X116195499Y-65584884D01*
X116237008Y-65521690D01*
X116282471Y-65460628D01*
X116331886Y-65401698D01*
X116385255Y-65344899D01*
X116442578Y-65290232D01*
X116503853Y-65237696D01*
X116568190Y-65187835D01*
X116634698Y-65141190D01*
X116703376Y-65097763D01*
X116774224Y-65057552D01*
X116847243Y-65020558D01*
X116922432Y-64986781D01*
X116999792Y-64956221D01*
X117079322Y-64928878D01*
X117161022Y-64904751D01*
X117244893Y-64883842D01*
X117330934Y-64866149D01*
X117419146Y-64851673D01*
X117509528Y-64840414D01*
X117602080Y-64832372D01*
X117696803Y-64827547D01*
X117793696Y-64825938D01*
X117910433Y-64828341D01*
G37*
X113980391Y-64945001D02*
X115240467Y-64945001D01*
X115240467Y-65609766D01*
X113980391Y-65609766D01*
X113980391Y-68883985D01*
X113981030Y-68918343D01*
X113982949Y-68951965D01*
X113986146Y-68984851D01*
X113990622Y-69017000D01*
X113996378Y-69048413D01*
X114003412Y-69079089D01*
X114011725Y-69109029D01*
X114021317Y-69138233D01*
X114032189Y-69166700D01*
X114044339Y-69194431D01*
X114057768Y-69221426D01*
X114072477Y-69247684D01*
X114088464Y-69273205D01*
X114105730Y-69297991D01*
X114124276Y-69322040D01*
X114144101Y-69345352D01*
X114164816Y-69367579D01*
X114186036Y-69388373D01*
X114207759Y-69407732D01*
X114229987Y-69425657D01*
X114252718Y-69442148D01*
X114275953Y-69457205D01*
X114299692Y-69470829D01*
X114323934Y-69483018D01*
X114348681Y-69493773D01*
X114373931Y-69503094D01*
X114399686Y-69510981D01*
X114425944Y-69517434D01*
X114452706Y-69522454D01*
X114479972Y-69526039D01*
X114507741Y-69528190D01*
X114536015Y-69528907D01*
X114556983Y-69528674D01*
X114577718Y-69527976D01*
X114598220Y-69526814D01*
X114618490Y-69525186D01*
X114638528Y-69523093D01*
X114658333Y-69520535D01*
X114677905Y-69517512D01*
X114697245Y-69514024D01*
X114716352Y-69510071D01*
X114735227Y-69505652D01*
X114753869Y-69500769D01*
X114772279Y-69495420D01*
X114790456Y-69489607D01*
X114808401Y-69483328D01*
X114826113Y-69476584D01*
X114843592Y-69469375D01*
X114860762Y-69461818D01*
X114877543Y-69454028D01*
X114893938Y-69446005D01*
X114909945Y-69437749D01*
X114925564Y-69429262D01*
X114940796Y-69420541D01*
X114955640Y-69411588D01*
X114970096Y-69402403D01*
X114984165Y-69392985D01*
X114997847Y-69383334D01*
X115011141Y-69373451D01*
X115024047Y-69363335D01*
X115036566Y-69352987D01*
X115048697Y-69342406D01*
X115060441Y-69331593D01*
X115071797Y-69320547D01*
X115438904Y-69866250D01*
X115386350Y-69905899D01*
X115332865Y-69942990D01*
X115278449Y-69977523D01*
X115223104Y-70009497D01*
X115166829Y-70038914D01*
X115109623Y-70065773D01*
X115051487Y-70090074D01*
X114992421Y-70111817D01*
X114932424Y-70131002D01*
X114871498Y-70147629D01*
X114809641Y-70161698D01*
X114746854Y-70173209D01*
X114683137Y-70182162D01*
X114618490Y-70188557D01*
X114552912Y-70192394D01*
X114486405Y-70193673D01*
X114418948Y-70192238D01*
X114353002Y-70187936D01*
X114288568Y-70180766D01*
X114225646Y-70170728D01*
X114164235Y-70157822D01*
X114104335Y-70142048D01*
X114045948Y-70123405D01*
X113989071Y-70101895D01*
X113933706Y-70077517D01*
X113879853Y-70050270D01*
X113827511Y-70020156D01*
X113776681Y-69987173D01*
X113727362Y-69951323D01*
X113679555Y-69912604D01*
X113633259Y-69871017D01*
X113588475Y-69826563D01*
X113545822Y-69779860D01*
X113505922Y-69731530D01*
X113468773Y-69681572D01*
X113434376Y-69629986D01*
X113402731Y-69576772D01*
X113373837Y-69521931D01*
X113347696Y-69465461D01*
X113324306Y-69407364D01*
X113303668Y-69347639D01*
X113285782Y-69286286D01*
X113270647Y-69223305D01*
X113258264Y-69158697D01*
X113248633Y-69092461D01*
X113241754Y-69024597D01*
X113237626Y-68955105D01*
X113236250Y-68883985D01*
X113236250Y-65609766D01*
X112432578Y-65609766D01*
X112432578Y-64945001D01*
X113236250Y-64945001D01*
X113236250Y-63536094D01*
X113980391Y-63536094D01*
X113980391Y-64945001D01*
G36*
X113980391Y-64945001D02*
G01*
X115240467Y-64945001D01*
X115240467Y-65609766D01*
X113980391Y-65609766D01*
X113980391Y-68883985D01*
X113981030Y-68918343D01*
X113982949Y-68951965D01*
X113986146Y-68984851D01*
X113990622Y-69017000D01*
X113996378Y-69048413D01*
X114003412Y-69079089D01*
X114011725Y-69109029D01*
X114021317Y-69138233D01*
X114032189Y-69166700D01*
X114044339Y-69194431D01*
X114057768Y-69221426D01*
X114072477Y-69247684D01*
X114088464Y-69273205D01*
X114105730Y-69297991D01*
X114124276Y-69322040D01*
X114144101Y-69345352D01*
X114164816Y-69367579D01*
X114186036Y-69388373D01*
X114207759Y-69407732D01*
X114229987Y-69425657D01*
X114252718Y-69442148D01*
X114275953Y-69457205D01*
X114299692Y-69470829D01*
X114323934Y-69483018D01*
X114348681Y-69493773D01*
X114373931Y-69503094D01*
X114399686Y-69510981D01*
X114425944Y-69517434D01*
X114452706Y-69522454D01*
X114479972Y-69526039D01*
X114507741Y-69528190D01*
X114536015Y-69528907D01*
X114556983Y-69528674D01*
X114577718Y-69527976D01*
X114598220Y-69526814D01*
X114618490Y-69525186D01*
X114638528Y-69523093D01*
X114658333Y-69520535D01*
X114677905Y-69517512D01*
X114697245Y-69514024D01*
X114716352Y-69510071D01*
X114735227Y-69505652D01*
X114753869Y-69500769D01*
X114772279Y-69495420D01*
X114790456Y-69489607D01*
X114808401Y-69483328D01*
X114826113Y-69476584D01*
X114843592Y-69469375D01*
X114860762Y-69461818D01*
X114877543Y-69454028D01*
X114893938Y-69446005D01*
X114909945Y-69437749D01*
X114925564Y-69429262D01*
X114940796Y-69420541D01*
X114955640Y-69411588D01*
X114970096Y-69402403D01*
X114984165Y-69392985D01*
X114997847Y-69383334D01*
X115011141Y-69373451D01*
X115024047Y-69363335D01*
X115036566Y-69352987D01*
X115048697Y-69342406D01*
X115060441Y-69331593D01*
X115071797Y-69320547D01*
X115438904Y-69866250D01*
X115386350Y-69905899D01*
X115332865Y-69942990D01*
X115278449Y-69977523D01*
X115223104Y-70009497D01*
X115166829Y-70038914D01*
X115109623Y-70065773D01*
X115051487Y-70090074D01*
X114992421Y-70111817D01*
X114932424Y-70131002D01*
X114871498Y-70147629D01*
X114809641Y-70161698D01*
X114746854Y-70173209D01*
X114683137Y-70182162D01*
X114618490Y-70188557D01*
X114552912Y-70192394D01*
X114486405Y-70193673D01*
X114418948Y-70192238D01*
X114353002Y-70187936D01*
X114288568Y-70180766D01*
X114225646Y-70170728D01*
X114164235Y-70157822D01*
X114104335Y-70142048D01*
X114045948Y-70123405D01*
X113989071Y-70101895D01*
X113933706Y-70077517D01*
X113879853Y-70050270D01*
X113827511Y-70020156D01*
X113776681Y-69987173D01*
X113727362Y-69951323D01*
X113679555Y-69912604D01*
X113633259Y-69871017D01*
X113588475Y-69826563D01*
X113545822Y-69779860D01*
X113505922Y-69731530D01*
X113468773Y-69681572D01*
X113434376Y-69629986D01*
X113402731Y-69576772D01*
X113373837Y-69521931D01*
X113347696Y-69465461D01*
X113324306Y-69407364D01*
X113303668Y-69347639D01*
X113285782Y-69286286D01*
X113270647Y-69223305D01*
X113258264Y-69158697D01*
X113248633Y-69092461D01*
X113241754Y-69024597D01*
X113237626Y-68955105D01*
X113236250Y-68883985D01*
X113236250Y-65609766D01*
X112432578Y-65609766D01*
X112432578Y-64945001D01*
X113236250Y-64945001D01*
X113236250Y-63536094D01*
X113980391Y-63536094D01*
X113980391Y-64945001D01*
G37*
X106403384Y-65907422D02*
X106441308Y-65843841D01*
X106480666Y-65782081D01*
X106521458Y-65722143D01*
X106563685Y-65664026D01*
X106607345Y-65607731D01*
X106652439Y-65553258D01*
X106698967Y-65500606D01*
X106746930Y-65449776D01*
X106796326Y-65400767D01*
X106847157Y-65353580D01*
X106899421Y-65308215D01*
X106953119Y-65264671D01*
X107008252Y-65222949D01*
X107064818Y-65183048D01*
X107122819Y-65144969D01*
X107182253Y-65108712D01*
X107242889Y-65074469D01*
X107304493Y-65042437D01*
X107367066Y-65012613D01*
X107430609Y-64984998D01*
X107495120Y-64959593D01*
X107560601Y-64936397D01*
X107627050Y-64915409D01*
X107694469Y-64896632D01*
X107762856Y-64880063D01*
X107832212Y-64865703D01*
X107902538Y-64853553D01*
X107973832Y-64843612D01*
X108046095Y-64835880D01*
X108119327Y-64830357D01*
X108193528Y-64827043D01*
X108268698Y-64825938D01*
X108351309Y-64827275D01*
X108432951Y-64831287D01*
X108513625Y-64837972D01*
X108593329Y-64847332D01*
X108672064Y-64859366D01*
X108749831Y-64874075D01*
X108826628Y-64891458D01*
X108902457Y-64911514D01*
X108977316Y-64934246D01*
X109051207Y-64959651D01*
X109124129Y-64987731D01*
X109196082Y-65018485D01*
X109267066Y-65051913D01*
X109337081Y-65088015D01*
X109406128Y-65126792D01*
X109474205Y-65168243D01*
X109540887Y-65212077D01*
X109605747Y-65258005D01*
X109668786Y-65306025D01*
X109730003Y-65356138D01*
X109789398Y-65408345D01*
X109846972Y-65462644D01*
X109902725Y-65519035D01*
X109956656Y-65577520D01*
X110008765Y-65638098D01*
X110059052Y-65700768D01*
X110107518Y-65765532D01*
X110154163Y-65832388D01*
X110198986Y-65901338D01*
X110241987Y-65972380D01*
X110283166Y-66045515D01*
X110322524Y-66120743D01*
X110359770Y-66197657D01*
X110394613Y-66275849D01*
X110427053Y-66355321D01*
X110457090Y-66436072D01*
X110484724Y-66518102D01*
X110509955Y-66601411D01*
X110532784Y-66685999D01*
X110553209Y-66771866D01*
X110571231Y-66859012D01*
X110586851Y-66947436D01*
X110600067Y-67037140D01*
X110610881Y-67128123D01*
X110619291Y-67220385D01*
X110625298Y-67313926D01*
X110628903Y-67408746D01*
X110630104Y-67504845D01*
X110628903Y-67600963D01*
X110625298Y-67695840D01*
X110619291Y-67789478D01*
X110610881Y-67881875D01*
X110600067Y-67973033D01*
X110586851Y-68062950D01*
X110571231Y-68151626D01*
X110553209Y-68239063D01*
X110532784Y-68325259D01*
X110509955Y-68410215D01*
X110484724Y-68493931D01*
X110457090Y-68576407D01*
X110427053Y-68657642D01*
X110394613Y-68737637D01*
X110359770Y-68816392D01*
X110322524Y-68893907D01*
X110283166Y-68969736D01*
X110241987Y-69043433D01*
X110198986Y-69114998D01*
X110154163Y-69184432D01*
X110107518Y-69251734D01*
X110059052Y-69316904D01*
X110008765Y-69379943D01*
X109956656Y-69440850D01*
X109902725Y-69499625D01*
X109846972Y-69556269D01*
X109789398Y-69610781D01*
X109730003Y-69663162D01*
X109668786Y-69713411D01*
X109605747Y-69761528D01*
X109540887Y-69807513D01*
X109474205Y-69851367D01*
X109406128Y-69892818D01*
X109337081Y-69931595D01*
X109267066Y-69967698D01*
X109196082Y-70001126D01*
X109124129Y-70031880D01*
X109051207Y-70059959D01*
X108977316Y-70085365D01*
X108902457Y-70108096D01*
X108826628Y-70128153D01*
X108749831Y-70145536D01*
X108672064Y-70160244D01*
X108593329Y-70172278D01*
X108513625Y-70181638D01*
X108432951Y-70188324D01*
X108351309Y-70192335D01*
X108268698Y-70193673D01*
X108193528Y-70192568D01*
X108119327Y-70189254D01*
X108046095Y-70183731D01*
X107973832Y-70175999D01*
X107902538Y-70166058D01*
X107832212Y-70153907D01*
X107762856Y-70139548D01*
X107694469Y-70122979D01*
X107627050Y-70104201D01*
X107560601Y-70083214D01*
X107495120Y-70060018D01*
X107430609Y-70034612D01*
X107367066Y-70006998D01*
X107304493Y-69977174D01*
X107242889Y-69945141D01*
X107182253Y-69910899D01*
X107122819Y-69874642D01*
X107064818Y-69836562D01*
X107008252Y-69796662D01*
X106953119Y-69754939D01*
X106899421Y-69711396D01*
X106847157Y-69666030D01*
X106796326Y-69618843D01*
X106746930Y-69569834D01*
X106698967Y-69519004D01*
X106652439Y-69466352D01*
X106607345Y-69411879D01*
X106563685Y-69355584D01*
X106521458Y-69297467D01*
X106480666Y-69237529D01*
X106441308Y-69175769D01*
X106403384Y-69112188D01*
X106403384Y-70074610D01*
X105659243Y-70074610D01*
X105659243Y-67504845D01*
X106403384Y-67504845D01*
X106404236Y-67577534D01*
X106406794Y-67649254D01*
X106411058Y-67720006D01*
X106417026Y-67789788D01*
X106424700Y-67858602D01*
X106434080Y-67926446D01*
X106445165Y-67993322D01*
X106457955Y-68059229D01*
X106472450Y-68124167D01*
X106488651Y-68188136D01*
X106506557Y-68251136D01*
X106526168Y-68313167D01*
X106547485Y-68374229D01*
X106570507Y-68434322D01*
X106595234Y-68493446D01*
X106621666Y-68551602D01*
X106649649Y-68608478D01*
X106679027Y-68663766D01*
X106709800Y-68717464D01*
X106741968Y-68769573D01*
X106775532Y-68820093D01*
X106810491Y-68869025D01*
X106846846Y-68916367D01*
X106884595Y-68962120D01*
X106923740Y-69006284D01*
X106964281Y-69048858D01*
X107006216Y-69089844D01*
X107049547Y-69129241D01*
X107094273Y-69167049D01*
X107140394Y-69203268D01*
X107187911Y-69237897D01*
X107236823Y-69270938D01*
X107286820Y-69302176D01*
X107337592Y-69331399D01*
X107389139Y-69358607D01*
X107441461Y-69383799D01*
X107494559Y-69406976D01*
X107548431Y-69428137D01*
X107603079Y-69447284D01*
X107658502Y-69464414D01*
X107714700Y-69479530D01*
X107771673Y-69492630D01*
X107829421Y-69503714D01*
X107887945Y-69512784D01*
X107947243Y-69519837D01*
X108007317Y-69524876D01*
X108068166Y-69527899D01*
X108129790Y-69528907D01*
X108191395Y-69527899D01*
X108252186Y-69524876D01*
X108312163Y-69519837D01*
X108371326Y-69512784D01*
X108429676Y-69503714D01*
X108487211Y-69492630D01*
X108543932Y-69479530D01*
X108599840Y-69464414D01*
X108654934Y-69447284D01*
X108709214Y-69428137D01*
X108762679Y-69406976D01*
X108815331Y-69383799D01*
X108867169Y-69358607D01*
X108918193Y-69331399D01*
X108968404Y-69302176D01*
X109017800Y-69270938D01*
X109066110Y-69237897D01*
X109113065Y-69203268D01*
X109158663Y-69167049D01*
X109202904Y-69129241D01*
X109245789Y-69089844D01*
X109287317Y-69048858D01*
X109327489Y-69006284D01*
X109366305Y-68962120D01*
X109403763Y-68916367D01*
X109439866Y-68869025D01*
X109474612Y-68820093D01*
X109508001Y-68769573D01*
X109540034Y-68717464D01*
X109570710Y-68663766D01*
X109600030Y-68608478D01*
X109627993Y-68551602D01*
X109654426Y-68493446D01*
X109679153Y-68434322D01*
X109702175Y-68374229D01*
X109723491Y-68313167D01*
X109743103Y-68251136D01*
X109761009Y-68188136D01*
X109777209Y-68124167D01*
X109791705Y-68059229D01*
X109804495Y-67993322D01*
X109815580Y-67926446D01*
X109824959Y-67858602D01*
X109832633Y-67789788D01*
X109838602Y-67720006D01*
X109842865Y-67649254D01*
X109845423Y-67577534D01*
X109846276Y-67504845D01*
X109845423Y-67432174D01*
X109842865Y-67360512D01*
X109838602Y-67289858D01*
X109832633Y-67220211D01*
X109824959Y-67151571D01*
X109815580Y-67083940D01*
X109804495Y-67017316D01*
X109791705Y-66951700D01*
X109777209Y-66887091D01*
X109761009Y-66823490D01*
X109743103Y-66760897D01*
X109723491Y-66699312D01*
X109702175Y-66638734D01*
X109679153Y-66579164D01*
X109654426Y-66520602D01*
X109627993Y-66463047D01*
X109600030Y-66406772D01*
X109570710Y-66352046D01*
X109540034Y-66298871D01*
X109508001Y-66247247D01*
X109474612Y-66197172D01*
X109439866Y-66148648D01*
X109403763Y-66101674D01*
X109366305Y-66056251D01*
X109327489Y-66012377D01*
X109287317Y-65970054D01*
X109245789Y-65929282D01*
X109202904Y-65890059D01*
X109158663Y-65852387D01*
X109113065Y-65816265D01*
X109066110Y-65781694D01*
X109017800Y-65748672D01*
X108968404Y-65717434D01*
X108918193Y-65688211D01*
X108867169Y-65661003D01*
X108815331Y-65635811D01*
X108762679Y-65612634D01*
X108709214Y-65591473D01*
X108654934Y-65572327D01*
X108599840Y-65555196D01*
X108543932Y-65540081D01*
X108487211Y-65526981D01*
X108429676Y-65515896D01*
X108371326Y-65506827D01*
X108312163Y-65499773D01*
X108252186Y-65494734D01*
X108191395Y-65491711D01*
X108129790Y-65490704D01*
X108068166Y-65491711D01*
X108007317Y-65494734D01*
X107947243Y-65499773D01*
X107887945Y-65506827D01*
X107829421Y-65515896D01*
X107771673Y-65526981D01*
X107714700Y-65540081D01*
X107658502Y-65555196D01*
X107603079Y-65572327D01*
X107548431Y-65591473D01*
X107494559Y-65612634D01*
X107441461Y-65635811D01*
X107389139Y-65661003D01*
X107337592Y-65688211D01*
X107286820Y-65717434D01*
X107236823Y-65748672D01*
X107187911Y-65781694D01*
X107140394Y-65816265D01*
X107094273Y-65852387D01*
X107049547Y-65890059D01*
X107006216Y-65929282D01*
X106964281Y-65970054D01*
X106923740Y-66012377D01*
X106884595Y-66056251D01*
X106846846Y-66101674D01*
X106810491Y-66148648D01*
X106775532Y-66197172D01*
X106741968Y-66247247D01*
X106709800Y-66298871D01*
X106679027Y-66352046D01*
X106649649Y-66406772D01*
X106621666Y-66463047D01*
X106595234Y-66520602D01*
X106570507Y-66579164D01*
X106547485Y-66638734D01*
X106526168Y-66699312D01*
X106506557Y-66760897D01*
X106488651Y-66823490D01*
X106472450Y-66887091D01*
X106457955Y-66951700D01*
X106445165Y-67017316D01*
X106434080Y-67083940D01*
X106424700Y-67151571D01*
X106417026Y-67220211D01*
X106411058Y-67289858D01*
X106406794Y-67360512D01*
X106404236Y-67432174D01*
X106403384Y-67504845D01*
X105659243Y-67504845D01*
X105659243Y-63139219D01*
X106403384Y-63139219D01*
X106403384Y-65907422D01*
G36*
X106403384Y-65907422D02*
G01*
X106441308Y-65843841D01*
X106480666Y-65782081D01*
X106521458Y-65722143D01*
X106563685Y-65664026D01*
X106607345Y-65607731D01*
X106652439Y-65553258D01*
X106698967Y-65500606D01*
X106746930Y-65449776D01*
X106796326Y-65400767D01*
X106847157Y-65353580D01*
X106899421Y-65308215D01*
X106953119Y-65264671D01*
X107008252Y-65222949D01*
X107064818Y-65183048D01*
X107122819Y-65144969D01*
X107182253Y-65108712D01*
X107242889Y-65074469D01*
X107304493Y-65042437D01*
X107367066Y-65012613D01*
X107430609Y-64984998D01*
X107495120Y-64959593D01*
X107560601Y-64936397D01*
X107627050Y-64915409D01*
X107694469Y-64896632D01*
X107762856Y-64880063D01*
X107832212Y-64865703D01*
X107902538Y-64853553D01*
X107973832Y-64843612D01*
X108046095Y-64835880D01*
X108119327Y-64830357D01*
X108193528Y-64827043D01*
X108268698Y-64825938D01*
X108351309Y-64827275D01*
X108432951Y-64831287D01*
X108513625Y-64837972D01*
X108593329Y-64847332D01*
X108672064Y-64859366D01*
X108749831Y-64874075D01*
X108826628Y-64891458D01*
X108902457Y-64911514D01*
X108977316Y-64934246D01*
X109051207Y-64959651D01*
X109124129Y-64987731D01*
X109196082Y-65018485D01*
X109267066Y-65051913D01*
X109337081Y-65088015D01*
X109406128Y-65126792D01*
X109474205Y-65168243D01*
X109540887Y-65212077D01*
X109605747Y-65258005D01*
X109668786Y-65306025D01*
X109730003Y-65356138D01*
X109789398Y-65408345D01*
X109846972Y-65462644D01*
X109902725Y-65519035D01*
X109956656Y-65577520D01*
X110008765Y-65638098D01*
X110059052Y-65700768D01*
X110107518Y-65765532D01*
X110154163Y-65832388D01*
X110198986Y-65901338D01*
X110241987Y-65972380D01*
X110283166Y-66045515D01*
X110322524Y-66120743D01*
X110359770Y-66197657D01*
X110394613Y-66275849D01*
X110427053Y-66355321D01*
X110457090Y-66436072D01*
X110484724Y-66518102D01*
X110509955Y-66601411D01*
X110532784Y-66685999D01*
X110553209Y-66771866D01*
X110571231Y-66859012D01*
X110586851Y-66947436D01*
X110600067Y-67037140D01*
X110610881Y-67128123D01*
X110619291Y-67220385D01*
X110625298Y-67313926D01*
X110628903Y-67408746D01*
X110630104Y-67504845D01*
X110628903Y-67600963D01*
X110625298Y-67695840D01*
X110619291Y-67789478D01*
X110610881Y-67881875D01*
X110600067Y-67973033D01*
X110586851Y-68062950D01*
X110571231Y-68151626D01*
X110553209Y-68239063D01*
X110532784Y-68325259D01*
X110509955Y-68410215D01*
X110484724Y-68493931D01*
X110457090Y-68576407D01*
X110427053Y-68657642D01*
X110394613Y-68737637D01*
X110359770Y-68816392D01*
X110322524Y-68893907D01*
X110283166Y-68969736D01*
X110241987Y-69043433D01*
X110198986Y-69114998D01*
X110154163Y-69184432D01*
X110107518Y-69251734D01*
X110059052Y-69316904D01*
X110008765Y-69379943D01*
X109956656Y-69440850D01*
X109902725Y-69499625D01*
X109846972Y-69556269D01*
X109789398Y-69610781D01*
X109730003Y-69663162D01*
X109668786Y-69713411D01*
X109605747Y-69761528D01*
X109540887Y-69807513D01*
X109474205Y-69851367D01*
X109406128Y-69892818D01*
X109337081Y-69931595D01*
X109267066Y-69967698D01*
X109196082Y-70001126D01*
X109124129Y-70031880D01*
X109051207Y-70059959D01*
X108977316Y-70085365D01*
X108902457Y-70108096D01*
X108826628Y-70128153D01*
X108749831Y-70145536D01*
X108672064Y-70160244D01*
X108593329Y-70172278D01*
X108513625Y-70181638D01*
X108432951Y-70188324D01*
X108351309Y-70192335D01*
X108268698Y-70193673D01*
X108193528Y-70192568D01*
X108119327Y-70189254D01*
X108046095Y-70183731D01*
X107973832Y-70175999D01*
X107902538Y-70166058D01*
X107832212Y-70153907D01*
X107762856Y-70139548D01*
X107694469Y-70122979D01*
X107627050Y-70104201D01*
X107560601Y-70083214D01*
X107495120Y-70060018D01*
X107430609Y-70034612D01*
X107367066Y-70006998D01*
X107304493Y-69977174D01*
X107242889Y-69945141D01*
X107182253Y-69910899D01*
X107122819Y-69874642D01*
X107064818Y-69836562D01*
X107008252Y-69796662D01*
X106953119Y-69754939D01*
X106899421Y-69711396D01*
X106847157Y-69666030D01*
X106796326Y-69618843D01*
X106746930Y-69569834D01*
X106698967Y-69519004D01*
X106652439Y-69466352D01*
X106607345Y-69411879D01*
X106563685Y-69355584D01*
X106521458Y-69297467D01*
X106480666Y-69237529D01*
X106441308Y-69175769D01*
X106403384Y-69112188D01*
X106403384Y-70074610D01*
X105659243Y-70074610D01*
X105659243Y-67504845D01*
X106403384Y-67504845D01*
X106404236Y-67577534D01*
X106406794Y-67649254D01*
X106411058Y-67720006D01*
X106417026Y-67789788D01*
X106424700Y-67858602D01*
X106434080Y-67926446D01*
X106445165Y-67993322D01*
X106457955Y-68059229D01*
X106472450Y-68124167D01*
X106488651Y-68188136D01*
X106506557Y-68251136D01*
X106526168Y-68313167D01*
X106547485Y-68374229D01*
X106570507Y-68434322D01*
X106595234Y-68493446D01*
X106621666Y-68551602D01*
X106649649Y-68608478D01*
X106679027Y-68663766D01*
X106709800Y-68717464D01*
X106741968Y-68769573D01*
X106775532Y-68820093D01*
X106810491Y-68869025D01*
X106846846Y-68916367D01*
X106884595Y-68962120D01*
X106923740Y-69006284D01*
X106964281Y-69048858D01*
X107006216Y-69089844D01*
X107049547Y-69129241D01*
X107094273Y-69167049D01*
X107140394Y-69203268D01*
X107187911Y-69237897D01*
X107236823Y-69270938D01*
X107286820Y-69302176D01*
X107337592Y-69331399D01*
X107389139Y-69358607D01*
X107441461Y-69383799D01*
X107494559Y-69406976D01*
X107548431Y-69428137D01*
X107603079Y-69447284D01*
X107658502Y-69464414D01*
X107714700Y-69479530D01*
X107771673Y-69492630D01*
X107829421Y-69503714D01*
X107887945Y-69512784D01*
X107947243Y-69519837D01*
X108007317Y-69524876D01*
X108068166Y-69527899D01*
X108129790Y-69528907D01*
X108191395Y-69527899D01*
X108252186Y-69524876D01*
X108312163Y-69519837D01*
X108371326Y-69512784D01*
X108429676Y-69503714D01*
X108487211Y-69492630D01*
X108543932Y-69479530D01*
X108599840Y-69464414D01*
X108654934Y-69447284D01*
X108709214Y-69428137D01*
X108762679Y-69406976D01*
X108815331Y-69383799D01*
X108867169Y-69358607D01*
X108918193Y-69331399D01*
X108968404Y-69302176D01*
X109017800Y-69270938D01*
X109066110Y-69237897D01*
X109113065Y-69203268D01*
X109158663Y-69167049D01*
X109202904Y-69129241D01*
X109245789Y-69089844D01*
X109287317Y-69048858D01*
X109327489Y-69006284D01*
X109366305Y-68962120D01*
X109403763Y-68916367D01*
X109439866Y-68869025D01*
X109474612Y-68820093D01*
X109508001Y-68769573D01*
X109540034Y-68717464D01*
X109570710Y-68663766D01*
X109600030Y-68608478D01*
X109627993Y-68551602D01*
X109654426Y-68493446D01*
X109679153Y-68434322D01*
X109702175Y-68374229D01*
X109723491Y-68313167D01*
X109743103Y-68251136D01*
X109761009Y-68188136D01*
X109777209Y-68124167D01*
X109791705Y-68059229D01*
X109804495Y-67993322D01*
X109815580Y-67926446D01*
X109824959Y-67858602D01*
X109832633Y-67789788D01*
X109838602Y-67720006D01*
X109842865Y-67649254D01*
X109845423Y-67577534D01*
X109846276Y-67504845D01*
X109845423Y-67432174D01*
X109842865Y-67360512D01*
X109838602Y-67289858D01*
X109832633Y-67220211D01*
X109824959Y-67151571D01*
X109815580Y-67083940D01*
X109804495Y-67017316D01*
X109791705Y-66951700D01*
X109777209Y-66887091D01*
X109761009Y-66823490D01*
X109743103Y-66760897D01*
X109723491Y-66699312D01*
X109702175Y-66638734D01*
X109679153Y-66579164D01*
X109654426Y-66520602D01*
X109627993Y-66463047D01*
X109600030Y-66406772D01*
X109570710Y-66352046D01*
X109540034Y-66298871D01*
X109508001Y-66247247D01*
X109474612Y-66197172D01*
X109439866Y-66148648D01*
X109403763Y-66101674D01*
X109366305Y-66056251D01*
X109327489Y-66012377D01*
X109287317Y-65970054D01*
X109245789Y-65929282D01*
X109202904Y-65890059D01*
X109158663Y-65852387D01*
X109113065Y-65816265D01*
X109066110Y-65781694D01*
X109017800Y-65748672D01*
X108968404Y-65717434D01*
X108918193Y-65688211D01*
X108867169Y-65661003D01*
X108815331Y-65635811D01*
X108762679Y-65612634D01*
X108709214Y-65591473D01*
X108654934Y-65572327D01*
X108599840Y-65555196D01*
X108543932Y-65540081D01*
X108487211Y-65526981D01*
X108429676Y-65515896D01*
X108371326Y-65506827D01*
X108312163Y-65499773D01*
X108252186Y-65494734D01*
X108191395Y-65491711D01*
X108129790Y-65490704D01*
X108068166Y-65491711D01*
X108007317Y-65494734D01*
X107947243Y-65499773D01*
X107887945Y-65506827D01*
X107829421Y-65515896D01*
X107771673Y-65526981D01*
X107714700Y-65540081D01*
X107658502Y-65555196D01*
X107603079Y-65572327D01*
X107548431Y-65591473D01*
X107494559Y-65612634D01*
X107441461Y-65635811D01*
X107389139Y-65661003D01*
X107337592Y-65688211D01*
X107286820Y-65717434D01*
X107236823Y-65748672D01*
X107187911Y-65781694D01*
X107140394Y-65816265D01*
X107094273Y-65852387D01*
X107049547Y-65890059D01*
X107006216Y-65929282D01*
X106964281Y-65970054D01*
X106923740Y-66012377D01*
X106884595Y-66056251D01*
X106846846Y-66101674D01*
X106810491Y-66148648D01*
X106775532Y-66197172D01*
X106741968Y-66247247D01*
X106709800Y-66298871D01*
X106679027Y-66352046D01*
X106649649Y-66406772D01*
X106621666Y-66463047D01*
X106595234Y-66520602D01*
X106570507Y-66579164D01*
X106547485Y-66638734D01*
X106526168Y-66699312D01*
X106506557Y-66760897D01*
X106488651Y-66823490D01*
X106472450Y-66887091D01*
X106457955Y-66951700D01*
X106445165Y-67017316D01*
X106434080Y-67083940D01*
X106424700Y-67151571D01*
X106417026Y-67220211D01*
X106411058Y-67289858D01*
X106406794Y-67360512D01*
X106404236Y-67432174D01*
X106403384Y-67504845D01*
X105659243Y-67504845D01*
X105659243Y-63139219D01*
X106403384Y-63139219D01*
X106403384Y-65907422D01*
G37*
D11*
G36*
X102697241Y-73099291D02*
G01*
X102720630Y-73101210D01*
X102743955Y-73105026D01*
X102767085Y-73110841D01*
X102789892Y-73118758D01*
X102812245Y-73128877D01*
X102834016Y-73141302D01*
X102855073Y-73156133D01*
X102865294Y-73164483D01*
X102875288Y-73173473D01*
X102885039Y-73183115D01*
X102894531Y-73193423D01*
X102903748Y-73204410D01*
X102912673Y-73216087D01*
X102921290Y-73228467D01*
X102929583Y-73241564D01*
X102937536Y-73255391D01*
X102945132Y-73269959D01*
X102952356Y-73285282D01*
X102959191Y-73301372D01*
X102965621Y-73318242D01*
X102971629Y-73335905D01*
X102977200Y-73354373D01*
X102982318Y-73373660D01*
X102986965Y-73393778D01*
X102991126Y-73414740D01*
X102989468Y-73457455D01*
X102984974Y-73502696D01*
X102977955Y-73549929D01*
X102968721Y-73598622D01*
X102957584Y-73648240D01*
X102944854Y-73698251D01*
X102930843Y-73748122D01*
X102915861Y-73797319D01*
X102884229Y-73891559D01*
X102852446Y-73976705D01*
X102823000Y-74048493D01*
X102798377Y-74102656D01*
X102668574Y-74364774D01*
X102537084Y-74626192D01*
X102406364Y-74888143D01*
X102278868Y-75151861D01*
X102103949Y-75536814D01*
X101889608Y-76027194D01*
X101426976Y-77100319D01*
X101669547Y-77122151D01*
X101898451Y-77144762D01*
X102110134Y-77167523D01*
X102301044Y-77189806D01*
X102467626Y-77210982D01*
X102606327Y-77230423D01*
X102713595Y-77247499D01*
X102785876Y-77261583D01*
X103277770Y-77365457D01*
X103407848Y-77395551D01*
X103547263Y-77431480D01*
X103699264Y-77475335D01*
X103867097Y-77529209D01*
X103929072Y-77551606D01*
X103995551Y-77578821D01*
X104065213Y-77610866D01*
X104136736Y-77647757D01*
X104208801Y-77689505D01*
X104280086Y-77736124D01*
X104349270Y-77787628D01*
X104415033Y-77844030D01*
X104446218Y-77874072D01*
X104476053Y-77905343D01*
X104504372Y-77937846D01*
X104531010Y-77971581D01*
X104555802Y-78006551D01*
X104578583Y-78042757D01*
X104599188Y-78080201D01*
X104617451Y-78118884D01*
X104633208Y-78158809D01*
X104646294Y-78199977D01*
X104656543Y-78242389D01*
X104663790Y-78286047D01*
X104667870Y-78330953D01*
X104668618Y-78377109D01*
X104665869Y-78424516D01*
X104659458Y-78473176D01*
X104651764Y-78513285D01*
X104642299Y-78553817D01*
X104631280Y-78594474D01*
X104618926Y-78634959D01*
X104605455Y-78674976D01*
X104591086Y-78714227D01*
X104576037Y-78752416D01*
X104560528Y-78789245D01*
X104544776Y-78824418D01*
X104528999Y-78857637D01*
X104513417Y-78888606D01*
X104498248Y-78917027D01*
X104483711Y-78942604D01*
X104470023Y-78965040D01*
X104457404Y-78984037D01*
X104446071Y-78999299D01*
X104421289Y-79029771D01*
X104396558Y-79059633D01*
X104371887Y-79088899D01*
X104347282Y-79117585D01*
X104322751Y-79145706D01*
X104298303Y-79173279D01*
X104249683Y-79226841D01*
X104256178Y-79223267D01*
X104262754Y-79219581D01*
X104269393Y-79215921D01*
X104272730Y-79214142D01*
X104276075Y-79212421D01*
X104326710Y-79188975D01*
X104372253Y-79168972D01*
X104413186Y-79152167D01*
X104449991Y-79138311D01*
X104483152Y-79127159D01*
X104513149Y-79118462D01*
X104540467Y-79111974D01*
X104565586Y-79107448D01*
X104588990Y-79104637D01*
X104611162Y-79103293D01*
X104632582Y-79103169D01*
X104653735Y-79104019D01*
X104675102Y-79105595D01*
X104697166Y-79107650D01*
X104745313Y-79112211D01*
X104768638Y-79121479D01*
X104789860Y-79130922D01*
X104809075Y-79140786D01*
X104826379Y-79151320D01*
X104841867Y-79162773D01*
X104848961Y-79168921D01*
X104855636Y-79175392D01*
X104861906Y-79182216D01*
X104867782Y-79189425D01*
X104873275Y-79197050D01*
X104878398Y-79205121D01*
X104883164Y-79213670D01*
X104887583Y-79222727D01*
X104895430Y-79242493D01*
X104902037Y-79264665D01*
X104907498Y-79289493D01*
X104911910Y-79317224D01*
X104915368Y-79348106D01*
X104917968Y-79382388D01*
X104919805Y-79420318D01*
X104919998Y-79423331D01*
X104920307Y-79426699D01*
X104921137Y-79434705D01*
X104921592Y-79439445D01*
X104922029Y-79444744D01*
X104922415Y-79450655D01*
X104922718Y-79457228D01*
X105188679Y-79511823D01*
X105415362Y-79555566D01*
X105518137Y-79573141D01*
X105616086Y-79587731D01*
X105710875Y-79599246D01*
X105804169Y-79607594D01*
X105897632Y-79612685D01*
X105992931Y-79614428D01*
X106091728Y-79612732D01*
X106195691Y-79607507D01*
X106306482Y-79598662D01*
X106425768Y-79586107D01*
X106555214Y-79569750D01*
X106696483Y-79549501D01*
X106852287Y-79513815D01*
X107003714Y-79475699D01*
X107150951Y-79435241D01*
X107294187Y-79392531D01*
X107433609Y-79347658D01*
X107569407Y-79300709D01*
X107701767Y-79251776D01*
X107830877Y-79200946D01*
X107956927Y-79148308D01*
X108080104Y-79093952D01*
X108200595Y-79037965D01*
X108318590Y-78980438D01*
X108547842Y-78861118D01*
X108769363Y-78736701D01*
X108801027Y-78632227D01*
X108827811Y-78542506D01*
X108849051Y-78469565D01*
X108864084Y-78415432D01*
X108897164Y-78294640D01*
X108930300Y-78180262D01*
X108963083Y-78073342D01*
X108995103Y-77974926D01*
X109025951Y-77886056D01*
X109055218Y-77807776D01*
X109082494Y-77741132D01*
X109107370Y-77687166D01*
X109140871Y-77623093D01*
X109175457Y-77563070D01*
X109211018Y-77506985D01*
X109247445Y-77454725D01*
X109284629Y-77406178D01*
X109322459Y-77361233D01*
X109360826Y-77319777D01*
X109399621Y-77281697D01*
X109438735Y-77246882D01*
X109478056Y-77215219D01*
X109517477Y-77186596D01*
X109556887Y-77160901D01*
X109596177Y-77138022D01*
X109635238Y-77117847D01*
X109673959Y-77100262D01*
X109712231Y-77085157D01*
X109749946Y-77072419D01*
X109786992Y-77061935D01*
X109823261Y-77053594D01*
X109858643Y-77047284D01*
X109893028Y-77042891D01*
X109926308Y-77040304D01*
X109958372Y-77039411D01*
X109989110Y-77040100D01*
X110018414Y-77042257D01*
X110046174Y-77045772D01*
X110072280Y-77050532D01*
X110096623Y-77056424D01*
X110119093Y-77063337D01*
X110139580Y-77071158D01*
X110157975Y-77079775D01*
X110174169Y-77089076D01*
X110187982Y-77098589D01*
X110201020Y-77108999D01*
X110224780Y-77132452D01*
X110245458Y-77159321D01*
X110263067Y-77189493D01*
X110277618Y-77222856D01*
X110289122Y-77259296D01*
X110297591Y-77298699D01*
X110303037Y-77340952D01*
X110305471Y-77385942D01*
X110304903Y-77433556D01*
X110301347Y-77483681D01*
X110294812Y-77536203D01*
X110285311Y-77591009D01*
X110272855Y-77647985D01*
X110257455Y-77707019D01*
X110239124Y-77767998D01*
X110028904Y-78424482D01*
X109892900Y-78846141D01*
X109803951Y-79118426D01*
X109734895Y-79326790D01*
X109579253Y-79797012D01*
X109447227Y-80200510D01*
X109594079Y-80111679D01*
X109666960Y-80066496D01*
X109739252Y-80020436D01*
X109810783Y-79973226D01*
X109881385Y-79924592D01*
X109950888Y-79874261D01*
X110019123Y-79821958D01*
X110094291Y-79761343D01*
X110168136Y-79699420D01*
X110240723Y-79636253D01*
X110312120Y-79571906D01*
X110451608Y-79439921D01*
X110587134Y-79303970D01*
X110719230Y-79164558D01*
X110848430Y-79022192D01*
X110975268Y-78877377D01*
X111100276Y-78730617D01*
X111299783Y-78485526D01*
X111485354Y-78241074D01*
X111659069Y-77995311D01*
X111823011Y-77746285D01*
X111979260Y-77492043D01*
X112129898Y-77230635D01*
X112277005Y-76960107D01*
X112422664Y-76678509D01*
X112507727Y-76506102D01*
X112596818Y-76331744D01*
X112645173Y-76246235D01*
X112697294Y-76163122D01*
X112754100Y-76083364D01*
X112816513Y-76007923D01*
X112850108Y-75972121D01*
X112885450Y-75937759D01*
X112922653Y-75904956D01*
X112961832Y-75873832D01*
X113003103Y-75844509D01*
X113046579Y-75817105D01*
X113092377Y-75791741D01*
X113140610Y-75768537D01*
X113191395Y-75747613D01*
X113244846Y-75729089D01*
X113301077Y-75713086D01*
X113360205Y-75699723D01*
X113422343Y-75689121D01*
X113487607Y-75681399D01*
X113556112Y-75676677D01*
X113627973Y-75675077D01*
X113657488Y-75676283D01*
X113685006Y-75679810D01*
X113710593Y-75685520D01*
X113734314Y-75693276D01*
X113756232Y-75702941D01*
X113776413Y-75714377D01*
X113794922Y-75727447D01*
X113811824Y-75742013D01*
X113827182Y-75757939D01*
X113841063Y-75775087D01*
X113853530Y-75793320D01*
X113864650Y-75812500D01*
X113874485Y-75832490D01*
X113883102Y-75853152D01*
X113890565Y-75874350D01*
X113896939Y-75895946D01*
X113906678Y-75939782D01*
X113912838Y-75983562D01*
X113915938Y-76026188D01*
X113916495Y-76066560D01*
X113915028Y-76103580D01*
X113912056Y-76136149D01*
X113908097Y-76163168D01*
X113903669Y-76183540D01*
X113836871Y-76406740D01*
X113758909Y-76625090D01*
X113670557Y-76838805D01*
X113572591Y-77048101D01*
X113465784Y-77253193D01*
X113350913Y-77454297D01*
X113228750Y-77651629D01*
X113100071Y-77845404D01*
X112965651Y-78035839D01*
X112826263Y-78223148D01*
X112682684Y-78407548D01*
X112535687Y-78589253D01*
X112234539Y-78945447D01*
X111929017Y-79293453D01*
X111570003Y-79696713D01*
X111372002Y-79912817D01*
X111165106Y-80129949D01*
X111059126Y-80236880D01*
X110951887Y-80341643D01*
X110843712Y-80443430D01*
X110734921Y-80541432D01*
X110625837Y-80634842D01*
X110516781Y-80722850D01*
X110408076Y-80804650D01*
X110300043Y-80879432D01*
X110348908Y-81068658D01*
X110402046Y-81256255D01*
X110459321Y-81442260D01*
X110520599Y-81626714D01*
X110585743Y-81809655D01*
X110654617Y-81991122D01*
X110727087Y-82171153D01*
X110803016Y-82349787D01*
X110810724Y-82261445D01*
X110817667Y-82202772D01*
X111746715Y-82202772D01*
X111746960Y-82220192D01*
X111747580Y-82237083D01*
X111748568Y-82253450D01*
X111749917Y-82269294D01*
X111751619Y-82284621D01*
X111753668Y-82299433D01*
X111756057Y-82313734D01*
X111758779Y-82327528D01*
X111761827Y-82340818D01*
X111765195Y-82353607D01*
X111768875Y-82365900D01*
X111772860Y-82377699D01*
X111777143Y-82389009D01*
X111781718Y-82399832D01*
X111786578Y-82410172D01*
X111791715Y-82420033D01*
X111797123Y-82429419D01*
X111802795Y-82438332D01*
X111808724Y-82446776D01*
X111814903Y-82454756D01*
X111821326Y-82462274D01*
X111827984Y-82469333D01*
X111834872Y-82475939D01*
X111841982Y-82482093D01*
X111849307Y-82487799D01*
X111856841Y-82493062D01*
X111864577Y-82497884D01*
X111872507Y-82502269D01*
X111880625Y-82506221D01*
X111888924Y-82509743D01*
X111897397Y-82512839D01*
X111908405Y-82516023D01*
X111920229Y-82518401D01*
X111932806Y-82519997D01*
X111946076Y-82520836D01*
X111959976Y-82520945D01*
X111974446Y-82520348D01*
X111989422Y-82519070D01*
X112004844Y-82517138D01*
X112020649Y-82514577D01*
X112036776Y-82511411D01*
X112053164Y-82507667D01*
X112069750Y-82503369D01*
X112086473Y-82498544D01*
X112103271Y-82493216D01*
X112120083Y-82487411D01*
X112136846Y-82481155D01*
X112149483Y-82475930D01*
X112162369Y-82469971D01*
X112188772Y-82456031D01*
X112215817Y-82439692D01*
X112243263Y-82421313D01*
X112270873Y-82401251D01*
X112298407Y-82379865D01*
X112325626Y-82357513D01*
X112352291Y-82334552D01*
X112378163Y-82311340D01*
X112403004Y-82288237D01*
X112448632Y-82243784D01*
X112487263Y-82204058D01*
X112516986Y-82171924D01*
X112613988Y-82058376D01*
X112712167Y-81931523D01*
X112761211Y-81863395D01*
X112809965Y-81792288D01*
X112858234Y-81718318D01*
X112905824Y-81641599D01*
X112952539Y-81562248D01*
X112998185Y-81480380D01*
X113042567Y-81396111D01*
X113085491Y-81309557D01*
X113126761Y-81220833D01*
X113166183Y-81130055D01*
X113203563Y-81037338D01*
X113238704Y-80942799D01*
X113200697Y-80945466D01*
X113163347Y-80947076D01*
X113127436Y-80947794D01*
X113093744Y-80947786D01*
X113063055Y-80947216D01*
X113036148Y-80946251D01*
X113013805Y-80945055D01*
X112996808Y-80943793D01*
X112941228Y-80937534D01*
X112887603Y-80928885D01*
X112835942Y-80917928D01*
X112786254Y-80904748D01*
X112738551Y-80889426D01*
X112692839Y-80872048D01*
X112649130Y-80852696D01*
X112607432Y-80831453D01*
X112567755Y-80808404D01*
X112530109Y-80783631D01*
X112494501Y-80757218D01*
X112460943Y-80729248D01*
X112429444Y-80699806D01*
X112400012Y-80668973D01*
X112372657Y-80636835D01*
X112347389Y-80603473D01*
X112331452Y-80642156D01*
X112314939Y-80679753D01*
X112298062Y-80716087D01*
X112281033Y-80750981D01*
X112264066Y-80784258D01*
X112247373Y-80815740D01*
X112231166Y-80845250D01*
X112215658Y-80872612D01*
X112187589Y-80920178D01*
X112164868Y-80957023D01*
X112142269Y-80992873D01*
X112096661Y-81083575D01*
X112049672Y-81182569D01*
X112002632Y-81287365D01*
X111956870Y-81395470D01*
X111913716Y-81504394D01*
X111874499Y-81611645D01*
X111840548Y-81714732D01*
X111825963Y-81763935D01*
X111813194Y-81811163D01*
X111795647Y-81874375D01*
X111785109Y-81913188D01*
X111774465Y-81956989D01*
X111764516Y-82005916D01*
X111760052Y-82032344D01*
X111756062Y-82060105D01*
X111752647Y-82089216D01*
X111749907Y-82119694D01*
X111747941Y-82151557D01*
X111746850Y-82184820D01*
X111746715Y-82202772D01*
X110817667Y-82202772D01*
X110821081Y-82173926D01*
X110833727Y-82087684D01*
X110848303Y-82003174D01*
X110864449Y-81920851D01*
X110881804Y-81841167D01*
X110900009Y-81764578D01*
X110918705Y-81691537D01*
X110956127Y-81557918D01*
X110991190Y-81443945D01*
X111042728Y-81289470D01*
X111070116Y-81211396D01*
X111099560Y-81132389D01*
X111163949Y-80972844D01*
X111234563Y-80813371D01*
X111310074Y-80656504D01*
X111389150Y-80504778D01*
X111470461Y-80360727D01*
X111511539Y-80292372D01*
X111552678Y-80226887D01*
X111593710Y-80164587D01*
X111634469Y-80105791D01*
X111649511Y-80085553D01*
X111665298Y-80065955D01*
X111681784Y-80047022D01*
X111689193Y-80039134D01*
X112926384Y-80039134D01*
X112926833Y-80052890D01*
X112927792Y-80066293D01*
X112929261Y-80079336D01*
X112931242Y-80092015D01*
X112933736Y-80104325D01*
X112936742Y-80116262D01*
X112940263Y-80127820D01*
X112944299Y-80138994D01*
X112948850Y-80149779D01*
X112953918Y-80160171D01*
X112959503Y-80170164D01*
X112965607Y-80179754D01*
X112972229Y-80188936D01*
X112979372Y-80197704D01*
X112987035Y-80206054D01*
X112995220Y-80213980D01*
X113003927Y-80221478D01*
X113013157Y-80228544D01*
X113022912Y-80235171D01*
X113033191Y-80241355D01*
X113043997Y-80247092D01*
X113055328Y-80252375D01*
X113067188Y-80257201D01*
X113078628Y-80260935D01*
X113091979Y-80264183D01*
X113107227Y-80266912D01*
X113124355Y-80269093D01*
X113143350Y-80270695D01*
X113164196Y-80271689D01*
X113211386Y-80271727D01*
X113265807Y-80268966D01*
X113327340Y-80263163D01*
X113395869Y-80254074D01*
X113471275Y-80241458D01*
X113480683Y-80198469D01*
X113488842Y-80157429D01*
X113495804Y-80118292D01*
X113501626Y-80081013D01*
X113506361Y-80045546D01*
X113510064Y-80011846D01*
X113512791Y-79979867D01*
X113514595Y-79949563D01*
X113515531Y-79920890D01*
X113515655Y-79893801D01*
X113515019Y-79868251D01*
X113513680Y-79844195D01*
X113511692Y-79821586D01*
X113509109Y-79800380D01*
X113505987Y-79780530D01*
X113502379Y-79761991D01*
X113498340Y-79744718D01*
X113493926Y-79728666D01*
X113489190Y-79713787D01*
X113484188Y-79700038D01*
X113478973Y-79687372D01*
X113473602Y-79675744D01*
X113468127Y-79665108D01*
X113462605Y-79655419D01*
X113457089Y-79646631D01*
X113451634Y-79638699D01*
X113446295Y-79631577D01*
X113441127Y-79625219D01*
X113431520Y-79614616D01*
X113423252Y-79606524D01*
X113415413Y-79599621D01*
X113407124Y-79593150D01*
X113398414Y-79587113D01*
X113389313Y-79581511D01*
X113379850Y-79576346D01*
X113370055Y-79571620D01*
X113359959Y-79567333D01*
X113349589Y-79563488D01*
X113338977Y-79560085D01*
X113328153Y-79557126D01*
X113317145Y-79554612D01*
X113305984Y-79552546D01*
X113294699Y-79550928D01*
X113283320Y-79549759D01*
X113271877Y-79549042D01*
X113260400Y-79548778D01*
X113247129Y-79549243D01*
X113233953Y-79550713D01*
X113220885Y-79553156D01*
X113207936Y-79556540D01*
X113195120Y-79560832D01*
X113182449Y-79565999D01*
X113169935Y-79572008D01*
X113157592Y-79578826D01*
X113145431Y-79586422D01*
X113133466Y-79594761D01*
X113110173Y-79613541D01*
X113087812Y-79634904D01*
X113066485Y-79658589D01*
X113046292Y-79684333D01*
X113027333Y-79711875D01*
X113009710Y-79740953D01*
X112993523Y-79771305D01*
X112978873Y-79802668D01*
X112965860Y-79834782D01*
X112954586Y-79867384D01*
X112945150Y-79900212D01*
X112941048Y-79916932D01*
X112937448Y-79933343D01*
X112934351Y-79949439D01*
X112931758Y-79965215D01*
X112929670Y-79980668D01*
X112928088Y-79995791D01*
X112927012Y-80010580D01*
X112926444Y-80025029D01*
X112926384Y-80039134D01*
X111689193Y-80039134D01*
X111698923Y-80028776D01*
X111734975Y-79994441D01*
X111773083Y-79963136D01*
X111812876Y-79935048D01*
X111853984Y-79910364D01*
X111896038Y-79889271D01*
X111917303Y-79880130D01*
X111938665Y-79871957D01*
X111960078Y-79864774D01*
X111981496Y-79858607D01*
X112002873Y-79853477D01*
X112024161Y-79849409D01*
X112045315Y-79846425D01*
X112066289Y-79844549D01*
X112087036Y-79843805D01*
X112107509Y-79844216D01*
X112127664Y-79845804D01*
X112147452Y-79848594D01*
X112166828Y-79852609D01*
X112185746Y-79857873D01*
X112204160Y-79864407D01*
X112222022Y-79872237D01*
X112239287Y-79881385D01*
X112255908Y-79891875D01*
X112271339Y-79835663D01*
X112288093Y-79779690D01*
X112306138Y-79724105D01*
X112325441Y-79669058D01*
X112345972Y-79614698D01*
X112367696Y-79561174D01*
X112390583Y-79508635D01*
X112414601Y-79457231D01*
X112439717Y-79407110D01*
X112465899Y-79358422D01*
X112493115Y-79311316D01*
X112521334Y-79265941D01*
X112550523Y-79222447D01*
X112580649Y-79180982D01*
X112611682Y-79141697D01*
X112643588Y-79104739D01*
X112643359Y-79104632D01*
X112643328Y-79104617D01*
X112643297Y-79104600D01*
X112643267Y-79104582D01*
X112643237Y-79104563D01*
X112643208Y-79104543D01*
X112643180Y-79104522D01*
X112643153Y-79104499D01*
X112643127Y-79104475D01*
X112662997Y-79079677D01*
X112683890Y-79055991D01*
X112705589Y-79033429D01*
X112727877Y-79012001D01*
X112750537Y-78991719D01*
X112773352Y-78972594D01*
X112796105Y-78954638D01*
X112818579Y-78937863D01*
X112840557Y-78922278D01*
X112861822Y-78907897D01*
X112901345Y-78882787D01*
X112935410Y-78862624D01*
X112962282Y-78847499D01*
X112993971Y-78830922D01*
X113026296Y-78815809D01*
X113059200Y-78802112D01*
X113092628Y-78789784D01*
X113126523Y-78778775D01*
X113160829Y-78769038D01*
X113195491Y-78760524D01*
X113230452Y-78753184D01*
X113265657Y-78746970D01*
X113301049Y-78741835D01*
X113336573Y-78737729D01*
X113372172Y-78734604D01*
X113407790Y-78732412D01*
X113443372Y-78731105D01*
X113478861Y-78730634D01*
X113514202Y-78730951D01*
X113540466Y-78732013D01*
X113566160Y-78734119D01*
X113591279Y-78737212D01*
X113615815Y-78741233D01*
X113639764Y-78746126D01*
X113663119Y-78751832D01*
X113685874Y-78758293D01*
X113708022Y-78765452D01*
X113729560Y-78773251D01*
X113750479Y-78781632D01*
X113770774Y-78790538D01*
X113790440Y-78799911D01*
X113809469Y-78809694D01*
X113827857Y-78819827D01*
X113845597Y-78830255D01*
X113862683Y-78840918D01*
X113894869Y-78862722D01*
X113924368Y-78884777D01*
X113951132Y-78906622D01*
X113975113Y-78927794D01*
X113996262Y-78947833D01*
X114014532Y-78966275D01*
X114042243Y-78996526D01*
X114060447Y-79015726D01*
X114078078Y-79035394D01*
X114095138Y-79055524D01*
X114111631Y-79076108D01*
X114127559Y-79097140D01*
X114142926Y-79118610D01*
X114157735Y-79140513D01*
X114171989Y-79162841D01*
X114185691Y-79185587D01*
X114198844Y-79208744D01*
X114211452Y-79232303D01*
X114223517Y-79256259D01*
X114235042Y-79280603D01*
X114246031Y-79305329D01*
X114256487Y-79330429D01*
X114266412Y-79355896D01*
X114267521Y-79358713D01*
X114268587Y-79361511D01*
X114269640Y-79364296D01*
X114270711Y-79367075D01*
X114275351Y-79379561D01*
X114280096Y-79392004D01*
X114284730Y-79404534D01*
X114286937Y-79410872D01*
X114289035Y-79417280D01*
X114298355Y-79445713D01*
X114310961Y-79488945D01*
X114325475Y-79545267D01*
X114340521Y-79612972D01*
X114354720Y-79690351D01*
X114366695Y-79775695D01*
X114371418Y-79820821D01*
X114375068Y-79867297D01*
X114377474Y-79914910D01*
X114378463Y-79963446D01*
X114457174Y-79944423D01*
X114535668Y-79924661D01*
X114574750Y-79914226D01*
X114613677Y-79903274D01*
X114652417Y-79891694D01*
X114690937Y-79879375D01*
X114969459Y-79783333D01*
X115240099Y-79682780D01*
X115502259Y-79578835D01*
X115755345Y-79472616D01*
X115998759Y-79365242D01*
X116231906Y-79257832D01*
X116665010Y-79047377D01*
X117049887Y-78850198D01*
X117381768Y-78675245D01*
X117655882Y-78531464D01*
X117867458Y-78427806D01*
X117970927Y-78381751D01*
X118069955Y-78339000D01*
X118164470Y-78299801D01*
X118254401Y-78264401D01*
X118339679Y-78233047D01*
X118420232Y-78205986D01*
X118495990Y-78183467D01*
X118532049Y-78173987D01*
X118566883Y-78165736D01*
X118625170Y-78154306D01*
X118679574Y-78146944D01*
X118705304Y-78144841D01*
X118730044Y-78143817D01*
X118753787Y-78143895D01*
X118776528Y-78145095D01*
X118798261Y-78147437D01*
X118818978Y-78150944D01*
X118838674Y-78155636D01*
X118857343Y-78161534D01*
X118874977Y-78168659D01*
X118891571Y-78177032D01*
X118907119Y-78186675D01*
X118921615Y-78197608D01*
X118935051Y-78209852D01*
X118947422Y-78223429D01*
X118958721Y-78238359D01*
X118968942Y-78254663D01*
X118978079Y-78272363D01*
X118986126Y-78291479D01*
X118993076Y-78312033D01*
X118998923Y-78334046D01*
X119003660Y-78357538D01*
X119007282Y-78382530D01*
X119009782Y-78409045D01*
X119011154Y-78437102D01*
X119011391Y-78466723D01*
X119010488Y-78497928D01*
X119008437Y-78530740D01*
X119005233Y-78565178D01*
X119000284Y-78600857D01*
X118993352Y-78635840D01*
X118984547Y-78670116D01*
X118973983Y-78703673D01*
X118961771Y-78736500D01*
X118948024Y-78768584D01*
X118932853Y-78799916D01*
X118916370Y-78830482D01*
X118898689Y-78860272D01*
X118879920Y-78889273D01*
X118860176Y-78917475D01*
X118839568Y-78944866D01*
X118796213Y-78997167D01*
X118750750Y-79046083D01*
X118704077Y-79091524D01*
X118657089Y-79133395D01*
X118610684Y-79171605D01*
X118565758Y-79206060D01*
X118523209Y-79236669D01*
X118483931Y-79263339D01*
X118418781Y-79304490D01*
X118219832Y-79418384D01*
X118002361Y-79531753D01*
X117768542Y-79644137D01*
X117520550Y-79755075D01*
X116990748Y-79970767D01*
X116430355Y-80175143D01*
X115856773Y-80364515D01*
X115287401Y-80535196D01*
X114739640Y-80683499D01*
X114230892Y-80805736D01*
X114191852Y-80952807D01*
X114148678Y-81099589D01*
X114101369Y-81245753D01*
X114049927Y-81390966D01*
X113994352Y-81534898D01*
X113934646Y-81677216D01*
X113870810Y-81817591D01*
X113802845Y-81955689D01*
X113730751Y-82091181D01*
X113654529Y-82223735D01*
X113574181Y-82353020D01*
X113489708Y-82478703D01*
X113401110Y-82600455D01*
X113308388Y-82717944D01*
X113211544Y-82830838D01*
X113110578Y-82938806D01*
X113060940Y-82988218D01*
X113009322Y-83036705D01*
X112955632Y-83084108D01*
X112899780Y-83130266D01*
X112841674Y-83175020D01*
X112781222Y-83218209D01*
X112718334Y-83259673D01*
X112652916Y-83299252D01*
X112584879Y-83336787D01*
X112514130Y-83372116D01*
X112440578Y-83405081D01*
X112364132Y-83435521D01*
X112284700Y-83463275D01*
X112202190Y-83488184D01*
X112116512Y-83510088D01*
X112027574Y-83528827D01*
X111948429Y-83542258D01*
X111908731Y-83547768D01*
X111868965Y-83552372D01*
X111829144Y-83555992D01*
X111789280Y-83558550D01*
X111749384Y-83559970D01*
X111709469Y-83560173D01*
X111669548Y-83559082D01*
X111629632Y-83556620D01*
X111589732Y-83552710D01*
X111549863Y-83547273D01*
X111510034Y-83540234D01*
X111470260Y-83531513D01*
X111430551Y-83521034D01*
X111390920Y-83508720D01*
X111432636Y-83581189D01*
X111474718Y-83653497D01*
X111517284Y-83725582D01*
X111560451Y-83797382D01*
X111736761Y-83792904D01*
X111892478Y-83790089D01*
X112025585Y-83788786D01*
X112134067Y-83788848D01*
X112506065Y-83791304D01*
X112922129Y-83798622D01*
X113133039Y-83804871D01*
X113338589Y-83813257D01*
X113533322Y-83824086D01*
X113711778Y-83837665D01*
X113824332Y-83848754D01*
X113934670Y-83862683D01*
X114042177Y-83879395D01*
X114146235Y-83898830D01*
X114246230Y-83920931D01*
X114341546Y-83945639D01*
X114431565Y-83972895D01*
X114515673Y-84002641D01*
X114555318Y-84018429D01*
X114593254Y-84034819D01*
X114629404Y-84051801D01*
X114663691Y-84069370D01*
X114696038Y-84087517D01*
X114726368Y-84106235D01*
X114754605Y-84125518D01*
X114780671Y-84145358D01*
X114804489Y-84165747D01*
X114825982Y-84186678D01*
X114845073Y-84208144D01*
X114861685Y-84230137D01*
X114875742Y-84252651D01*
X114887166Y-84275678D01*
X114895880Y-84299211D01*
X114901807Y-84323242D01*
X114909464Y-84386389D01*
X114908929Y-84451391D01*
X114899587Y-84517585D01*
X114880822Y-84584308D01*
X114852017Y-84650896D01*
X114812556Y-84716686D01*
X114788637Y-84749075D01*
X114761823Y-84781016D01*
X114732036Y-84812426D01*
X114699201Y-84843222D01*
X114663240Y-84873322D01*
X114624075Y-84902642D01*
X114581630Y-84931099D01*
X114535828Y-84958612D01*
X114486591Y-84985096D01*
X114433844Y-85010469D01*
X114377508Y-85034648D01*
X114317506Y-85057550D01*
X114186199Y-85099193D01*
X114039306Y-85134733D01*
X113876211Y-85163509D01*
X113696298Y-85184857D01*
X112166131Y-85316387D01*
X111785972Y-85352889D01*
X111407527Y-85394889D01*
X111031174Y-85444411D01*
X110657295Y-85503480D01*
X110090247Y-85611089D01*
X109530677Y-85737735D01*
X108979496Y-85883900D01*
X108707336Y-85964454D01*
X108437615Y-86050068D01*
X108170446Y-86140804D01*
X107905943Y-86236722D01*
X107644221Y-86337882D01*
X107385393Y-86444344D01*
X107129572Y-86556169D01*
X106876874Y-86673418D01*
X106627411Y-86796150D01*
X106381298Y-86924425D01*
X106291492Y-86973437D01*
X106202451Y-87023546D01*
X106114097Y-87074622D01*
X106026351Y-87126535D01*
X105852372Y-87232351D01*
X105679887Y-87339954D01*
X106221133Y-87248954D01*
X106779583Y-87163634D01*
X107336527Y-87085197D01*
X107873251Y-87014847D01*
X108811195Y-86903217D01*
X109443717Y-86838370D01*
X109547937Y-86830836D01*
X109646819Y-86825872D01*
X109740503Y-86823330D01*
X109829125Y-86823062D01*
X109912823Y-86824920D01*
X109991734Y-86828758D01*
X110065995Y-86834426D01*
X110135744Y-86841778D01*
X110201117Y-86850666D01*
X110262254Y-86860942D01*
X110319290Y-86872458D01*
X110372363Y-86885067D01*
X110421611Y-86898621D01*
X110467170Y-86912972D01*
X110509179Y-86927973D01*
X110547774Y-86943476D01*
X110583093Y-86959333D01*
X110615273Y-86975396D01*
X110644452Y-86991519D01*
X110670766Y-87007552D01*
X110694354Y-87023349D01*
X110715353Y-87038762D01*
X110733899Y-87053643D01*
X110750131Y-87067845D01*
X110776199Y-87093618D01*
X110794656Y-87114901D01*
X110813135Y-87139268D01*
X110833712Y-87166877D01*
X110852753Y-87194828D01*
X110870250Y-87223145D01*
X110886198Y-87251856D01*
X110900590Y-87280985D01*
X110913422Y-87310557D01*
X110924688Y-87340598D01*
X110934381Y-87371134D01*
X110942496Y-87402191D01*
X110949027Y-87433792D01*
X110953968Y-87465965D01*
X110957313Y-87498735D01*
X110959057Y-87532126D01*
X110959194Y-87566165D01*
X110957717Y-87600877D01*
X110954622Y-87636288D01*
X110952627Y-87651831D01*
X110950023Y-87667245D01*
X110946822Y-87682533D01*
X110943038Y-87697695D01*
X110933765Y-87727653D01*
X110922302Y-87757136D01*
X110908747Y-87786160D01*
X110893196Y-87814742D01*
X110875749Y-87842897D01*
X110856502Y-87870642D01*
X110835555Y-87897993D01*
X110813003Y-87924967D01*
X110788945Y-87951580D01*
X110763479Y-87977848D01*
X110736703Y-88003787D01*
X110708714Y-88029413D01*
X110679611Y-88054744D01*
X110649490Y-88079795D01*
X110599107Y-88118969D01*
X110539453Y-88162359D01*
X110396583Y-88260788D01*
X110046356Y-88497292D01*
X109856006Y-88631393D01*
X109760741Y-88701536D01*
X109666835Y-88773409D01*
X109575349Y-88846765D01*
X109487347Y-88921354D01*
X109403892Y-88996928D01*
X109326045Y-89073240D01*
X109289452Y-89112909D01*
X109251769Y-89157723D01*
X109213428Y-89206708D01*
X109174861Y-89258892D01*
X109136498Y-89313302D01*
X109098771Y-89368963D01*
X109026950Y-89480152D01*
X108962850Y-89584675D01*
X108909922Y-89674747D01*
X108871615Y-89742586D01*
X108851383Y-89780405D01*
X108838881Y-89806244D01*
X108826941Y-89833038D01*
X108804417Y-89889226D01*
X108783140Y-89948432D01*
X108762442Y-90010120D01*
X108720108Y-90138791D01*
X108697133Y-90204701D01*
X108672061Y-90270943D01*
X108670441Y-90274471D01*
X108668421Y-90278009D01*
X108663253Y-90284946D01*
X108656708Y-90291419D01*
X108652965Y-90294377D01*
X108648934Y-90297095D01*
X108644633Y-90299529D01*
X108640081Y-90301639D01*
X108635296Y-90303382D01*
X108630298Y-90304717D01*
X108625104Y-90305602D01*
X108619733Y-90305995D01*
X108614205Y-90305855D01*
X108608537Y-90305139D01*
X108602748Y-90303807D01*
X108596858Y-90301816D01*
X108590883Y-90299124D01*
X108584844Y-90295690D01*
X108578759Y-90291472D01*
X108572647Y-90286428D01*
X108566525Y-90280516D01*
X108560413Y-90273695D01*
X108554330Y-90265924D01*
X108548293Y-90257159D01*
X108542323Y-90247359D01*
X108536436Y-90236484D01*
X108530653Y-90224490D01*
X108524991Y-90211336D01*
X108519469Y-90196980D01*
X108514106Y-90181382D01*
X108507759Y-90160352D01*
X108502216Y-90139010D01*
X108497444Y-90117395D01*
X108493411Y-90095545D01*
X108490086Y-90073497D01*
X108487436Y-90051291D01*
X108485429Y-90028965D01*
X108484034Y-90006557D01*
X108483217Y-89984106D01*
X108482947Y-89961650D01*
X108483193Y-89939227D01*
X108483921Y-89916875D01*
X108486697Y-89872542D01*
X108491020Y-89828955D01*
X108498984Y-89761880D01*
X108507819Y-89694717D01*
X108517853Y-89627635D01*
X108529417Y-89560808D01*
X108542842Y-89494405D01*
X108558458Y-89428598D01*
X108567190Y-89395971D01*
X108576594Y-89363558D01*
X108586711Y-89331380D01*
X108597581Y-89299458D01*
X108622717Y-89232286D01*
X108649742Y-89166968D01*
X108678541Y-89103482D01*
X108708999Y-89041802D01*
X108741001Y-88981906D01*
X108774434Y-88923768D01*
X108809182Y-88867367D01*
X108845130Y-88812676D01*
X108920170Y-88708335D01*
X108998636Y-88610554D01*
X109079611Y-88519141D01*
X109162176Y-88433907D01*
X109245415Y-88354660D01*
X109328411Y-88281209D01*
X109410245Y-88213364D01*
X109490000Y-88150933D01*
X109639604Y-88041552D01*
X109769884Y-87951538D01*
X109787088Y-87939500D01*
X109803000Y-87927851D01*
X109817640Y-87916604D01*
X109831033Y-87905771D01*
X109843200Y-87895365D01*
X109854164Y-87885397D01*
X109863947Y-87875882D01*
X109872574Y-87866831D01*
X109880065Y-87858256D01*
X109886445Y-87850171D01*
X109889225Y-87846315D01*
X109891735Y-87842587D01*
X109893978Y-87838987D01*
X109895958Y-87835517D01*
X109897677Y-87832179D01*
X109899137Y-87828975D01*
X109900342Y-87825905D01*
X109901295Y-87822971D01*
X109901998Y-87820176D01*
X109902454Y-87817519D01*
X109902666Y-87815004D01*
X109902637Y-87812632D01*
X109902188Y-87809292D01*
X109901336Y-87806126D01*
X109900103Y-87803131D01*
X109898507Y-87800301D01*
X109896567Y-87797634D01*
X109894304Y-87795124D01*
X109891736Y-87792766D01*
X109888883Y-87790558D01*
X109885765Y-87788493D01*
X109882401Y-87786569D01*
X109875014Y-87783122D01*
X109866876Y-87780183D01*
X109858145Y-87777716D01*
X109848976Y-87775688D01*
X109839525Y-87774062D01*
X109829947Y-87772805D01*
X109820400Y-87771882D01*
X109811038Y-87771257D01*
X109802017Y-87770897D01*
X109785625Y-87770829D01*
X109040597Y-87831229D01*
X107665907Y-87979097D01*
X106870977Y-88076019D01*
X106072875Y-88183035D01*
X105323017Y-88296220D01*
X104672817Y-88411648D01*
X104593847Y-88426310D01*
X104478202Y-88444300D01*
X104410451Y-88452845D01*
X104338118Y-88460183D01*
X104262733Y-88465636D01*
X104185827Y-88468525D01*
X104108927Y-88468170D01*
X104033564Y-88463891D01*
X103961266Y-88455010D01*
X103926744Y-88448631D01*
X103893563Y-88440846D01*
X103861912Y-88431572D01*
X103831983Y-88420722D01*
X103803968Y-88408212D01*
X103778058Y-88393957D01*
X103754443Y-88377872D01*
X103733314Y-88359872D01*
X103714864Y-88339872D01*
X103699283Y-88317787D01*
X103691015Y-88303172D01*
X103681038Y-88283642D01*
X103670237Y-88259279D01*
X103664804Y-88245312D01*
X103659496Y-88230167D01*
X103654423Y-88213857D01*
X103649696Y-88196389D01*
X103645426Y-88177776D01*
X103641723Y-88158028D01*
X103638698Y-88137155D01*
X103636460Y-88115167D01*
X103635120Y-88092074D01*
X103634790Y-88067888D01*
X103635557Y-88042834D01*
X103637531Y-88016717D01*
X103640820Y-87989549D01*
X103645532Y-87961338D01*
X103651772Y-87932097D01*
X103659648Y-87901834D01*
X103669268Y-87870561D01*
X103680737Y-87838287D01*
X103694164Y-87805024D01*
X103709655Y-87770781D01*
X103727318Y-87735569D01*
X103747258Y-87699398D01*
X103769585Y-87662279D01*
X103794404Y-87624222D01*
X103821822Y-87585237D01*
X103851947Y-87545335D01*
X103889627Y-87499601D01*
X103930428Y-87454249D01*
X103974006Y-87409318D01*
X104020014Y-87364843D01*
X104068108Y-87320863D01*
X104117943Y-87277414D01*
X104221455Y-87192258D01*
X104327789Y-87109672D01*
X104434182Y-87029954D01*
X104636106Y-86880307D01*
X104682540Y-86845961D01*
X104728705Y-86813137D01*
X104820549Y-86751394D01*
X104912287Y-86693763D01*
X105004564Y-86638932D01*
X105392021Y-86421320D01*
X105528775Y-86346089D01*
X105674914Y-86270619D01*
X105827680Y-86195513D01*
X105984317Y-86121374D01*
X106298171Y-85978418D01*
X106594421Y-85846580D01*
X106821930Y-85752641D01*
X107162796Y-85622718D01*
X107592686Y-85466613D01*
X108087266Y-85294131D01*
X108111261Y-85285986D01*
X108135156Y-85277792D01*
X108035251Y-85290485D01*
X107932220Y-85304118D01*
X107301416Y-85396634D01*
X106598216Y-85512866D01*
X105841783Y-85648890D01*
X105051281Y-85800783D01*
X103444728Y-86136487D01*
X102667005Y-86312451D01*
X101931869Y-86488592D01*
X101737015Y-86531626D01*
X101426568Y-86591124D01*
X101050643Y-86651985D01*
X100853787Y-86678205D01*
X100659354Y-86699101D01*
X100473610Y-86712786D01*
X100302817Y-86717370D01*
X100153242Y-86710967D01*
X100088367Y-86703054D01*
X100031147Y-86691687D01*
X99982362Y-86676629D01*
X99942797Y-86657643D01*
X99913234Y-86634494D01*
X99894457Y-86606947D01*
X99887248Y-86574764D01*
X99892391Y-86537710D01*
X99910668Y-86495549D01*
X99942863Y-86448045D01*
X99995808Y-86384222D01*
X100052965Y-86322115D01*
X100114053Y-86261713D01*
X100178787Y-86203006D01*
X100318068Y-86090630D01*
X100468545Y-85984903D01*
X100627957Y-85885738D01*
X100794042Y-85793049D01*
X100964538Y-85706750D01*
X101137183Y-85626754D01*
X101309716Y-85552976D01*
X101479875Y-85485329D01*
X101804023Y-85368084D01*
X102091533Y-85274331D01*
X102324311Y-85203380D01*
X103071396Y-84991231D01*
X103791416Y-84808235D01*
X104479510Y-84651821D01*
X105130820Y-84519416D01*
X105740486Y-84408448D01*
X106303648Y-84316346D01*
X107271026Y-84178451D01*
X107265783Y-84174131D01*
X107263174Y-84171952D01*
X107260576Y-84169744D01*
X107257991Y-84167495D01*
X107255419Y-84165195D01*
X107252863Y-84162831D01*
X107250324Y-84160392D01*
X107226080Y-84134022D01*
X107205103Y-84105687D01*
X107198095Y-84093857D01*
X107928386Y-84093857D01*
X107933147Y-84093261D01*
X108092175Y-84069982D01*
X108371922Y-84037002D01*
X109128129Y-83958010D01*
X109870879Y-83888418D01*
X110133805Y-83867190D01*
X110269285Y-83860362D01*
X110292306Y-83858973D01*
X110154344Y-83559973D01*
X110023136Y-83256062D01*
X109898988Y-82948443D01*
X109782206Y-82638318D01*
X109673095Y-82326891D01*
X109571960Y-82015365D01*
X109479106Y-81704943D01*
X109394840Y-81396827D01*
X109346956Y-81419021D01*
X109298841Y-81440443D01*
X109250474Y-81461074D01*
X109201833Y-81480891D01*
X109152898Y-81499874D01*
X109103647Y-81518002D01*
X109054060Y-81535253D01*
X109004116Y-81551608D01*
X108867603Y-81941965D01*
X108739697Y-82295145D01*
X108632230Y-82582382D01*
X108557035Y-82774908D01*
X108516292Y-82884602D01*
X108464492Y-83033149D01*
X108401758Y-83209004D01*
X108328212Y-83400623D01*
X108287424Y-83498737D01*
X108243979Y-83596462D01*
X108197893Y-83692357D01*
X108149181Y-83784977D01*
X108097860Y-83872881D01*
X108043943Y-83954624D01*
X107987446Y-84028763D01*
X107928386Y-84093857D01*
X107198095Y-84093857D01*
X107187242Y-84075538D01*
X107172343Y-84043725D01*
X107160257Y-84010397D01*
X107150831Y-83975706D01*
X107143914Y-83939800D01*
X107139355Y-83902831D01*
X107137001Y-83864948D01*
X107136702Y-83826301D01*
X107138306Y-83787041D01*
X107141662Y-83747318D01*
X107153021Y-83667081D01*
X107169568Y-83586792D01*
X107190091Y-83507652D01*
X107213378Y-83430862D01*
X107238216Y-83357622D01*
X107263393Y-83289134D01*
X107343259Y-83086713D01*
X107546444Y-82516365D01*
X107754653Y-81914286D01*
X107934832Y-81380780D01*
X108053930Y-81016150D01*
X108176694Y-80628205D01*
X108081487Y-80658277D01*
X107984264Y-80687261D01*
X107884627Y-80715433D01*
X107782178Y-80743068D01*
X107567254Y-80797833D01*
X107336313Y-80853763D01*
X107231443Y-80872598D01*
X107130590Y-80889565D01*
X107034483Y-80904661D01*
X106943854Y-80917883D01*
X106859432Y-80929229D01*
X106781947Y-80938697D01*
X106712131Y-80946284D01*
X106650712Y-80951988D01*
X106267191Y-82310235D01*
X106165669Y-82656813D01*
X106061512Y-82990570D01*
X105954528Y-83303691D01*
X105899917Y-83450071D01*
X105844528Y-83588362D01*
X105767861Y-83771026D01*
X105731907Y-83852519D01*
X105696408Y-83927271D01*
X105660517Y-83995147D01*
X105642160Y-84026464D01*
X105623387Y-84056011D01*
X105604093Y-84083771D01*
X105584170Y-84109727D01*
X105563514Y-84133862D01*
X105542019Y-84156159D01*
X105519578Y-84176601D01*
X105496085Y-84195171D01*
X105471436Y-84211853D01*
X105445523Y-84226628D01*
X105418240Y-84239481D01*
X105389483Y-84250393D01*
X105359144Y-84259349D01*
X105327118Y-84266331D01*
X105293300Y-84271323D01*
X105257582Y-84274306D01*
X105219859Y-84275265D01*
X105180026Y-84274182D01*
X105137975Y-84271041D01*
X105093602Y-84265824D01*
X105046801Y-84258514D01*
X104997465Y-84249094D01*
X104963153Y-84240113D01*
X104932155Y-84228190D01*
X104904346Y-84213473D01*
X104879602Y-84196114D01*
X104857799Y-84176261D01*
X104838812Y-84154064D01*
X104822517Y-84129673D01*
X104808789Y-84103237D01*
X104797505Y-84074907D01*
X104788539Y-84044831D01*
X104781767Y-84013159D01*
X104777065Y-83980042D01*
X104774309Y-83945628D01*
X104773374Y-83910067D01*
X104776470Y-83836104D01*
X104785358Y-83759350D01*
X104799042Y-83681001D01*
X104816529Y-83602256D01*
X104836822Y-83524310D01*
X104881847Y-83375608D01*
X104926158Y-83244472D01*
X105087766Y-82773225D01*
X105273117Y-82211447D01*
X105370824Y-81901757D01*
X105469817Y-81575614D01*
X105568549Y-81235077D01*
X105665470Y-80882205D01*
X105483881Y-80855410D01*
X105362747Y-80836446D01*
X105225683Y-80811668D01*
X105075913Y-80779502D01*
X104997271Y-80760156D01*
X104916660Y-80738371D01*
X104834485Y-80713952D01*
X104751147Y-80686700D01*
X104667050Y-80656419D01*
X104582597Y-80622912D01*
X104284206Y-81501073D01*
X104103437Y-82029041D01*
X104045007Y-82204740D01*
X103978536Y-82418820D01*
X103821929Y-82931278D01*
X103732020Y-83214231D01*
X103634527Y-83504717D01*
X103529563Y-83795026D01*
X103417242Y-84077443D01*
X103374058Y-84177267D01*
X103331910Y-84267890D01*
X103290371Y-84349697D01*
X103249016Y-84423071D01*
X103228274Y-84456715D01*
X103207419Y-84488395D01*
X103186397Y-84518158D01*
X103165154Y-84546053D01*
X103143639Y-84572127D01*
X103121797Y-84596429D01*
X103099575Y-84619006D01*
X103076921Y-84639906D01*
X103053781Y-84659178D01*
X103030101Y-84676868D01*
X103005829Y-84693026D01*
X102980911Y-84707699D01*
X102955295Y-84720935D01*
X102928927Y-84732782D01*
X102901753Y-84743287D01*
X102873721Y-84752500D01*
X102844778Y-84760467D01*
X102814870Y-84767238D01*
X102783943Y-84772859D01*
X102751946Y-84777378D01*
X102684525Y-84783305D01*
X102612181Y-84785403D01*
X102558877Y-84781093D01*
X102509359Y-84774755D01*
X102463870Y-84765481D01*
X102422654Y-84752365D01*
X102403725Y-84744082D01*
X102385956Y-84734499D01*
X102369376Y-84723501D01*
X102354017Y-84710977D01*
X102339909Y-84696811D01*
X102327083Y-84680892D01*
X102315568Y-84663105D01*
X102305396Y-84643338D01*
X102296596Y-84621476D01*
X102289200Y-84597407D01*
X102283238Y-84571018D01*
X102278739Y-84542194D01*
X102275735Y-84510823D01*
X102274256Y-84476791D01*
X102275996Y-84400291D01*
X102284200Y-84311789D01*
X102299114Y-84210376D01*
X102320981Y-84095147D01*
X102350044Y-83965194D01*
X102411575Y-83720745D01*
X102483468Y-83458195D01*
X102564105Y-83181270D01*
X102651866Y-82893698D01*
X102527158Y-82947618D01*
X102406015Y-82998502D01*
X102185885Y-83088200D01*
X102014398Y-83156864D01*
X101954058Y-83181455D01*
X101914472Y-83198565D01*
X101599881Y-83347938D01*
X101276057Y-83508714D01*
X100875773Y-83715715D01*
X100331801Y-84003758D01*
X99483348Y-84482918D01*
X99155863Y-85832023D01*
X98959953Y-86589300D01*
X98749964Y-87338019D01*
X98641417Y-87694238D01*
X98531421Y-88030400D01*
X98420668Y-88340533D01*
X98309847Y-88618664D01*
X98199651Y-88858820D01*
X98090768Y-89055030D01*
X98037035Y-89134788D01*
X97983890Y-89201320D01*
X97931419Y-89253879D01*
X97879708Y-89291718D01*
X97847056Y-89307095D01*
X97815005Y-89320403D01*
X97783590Y-89331705D01*
X97752848Y-89341064D01*
X97722814Y-89348543D01*
X97693523Y-89354205D01*
X97665013Y-89358113D01*
X97637317Y-89360331D01*
X97610473Y-89360921D01*
X97584515Y-89359947D01*
X97559481Y-89357471D01*
X97535404Y-89353558D01*
X97512322Y-89348269D01*
X97490269Y-89341668D01*
X97469283Y-89333818D01*
X97449397Y-89324783D01*
X97430649Y-89314625D01*
X97413073Y-89303408D01*
X97396707Y-89291194D01*
X97381584Y-89278047D01*
X97367742Y-89264029D01*
X97355216Y-89249205D01*
X97344041Y-89233637D01*
X97334254Y-89217388D01*
X97325890Y-89200521D01*
X97318985Y-89183100D01*
X97313574Y-89165187D01*
X97309694Y-89146846D01*
X97307380Y-89128140D01*
X97306668Y-89109131D01*
X97307594Y-89089884D01*
X97310193Y-89070461D01*
X97371605Y-88780787D01*
X97470529Y-88378107D01*
X97747392Y-87342467D01*
X98073727Y-86181019D01*
X98382483Y-85111237D01*
X97908713Y-85384469D01*
X97446056Y-85653633D01*
X96886925Y-87675247D01*
X96759855Y-88128072D01*
X96698604Y-88340150D01*
X96638424Y-88541545D01*
X96578976Y-88731413D01*
X96519920Y-88908909D01*
X96460918Y-89073189D01*
X96401630Y-89223407D01*
X96341718Y-89358719D01*
X96311421Y-89420521D01*
X96280841Y-89478280D01*
X96249936Y-89531890D01*
X96218662Y-89581246D01*
X96186977Y-89626242D01*
X96154840Y-89666772D01*
X96122207Y-89702730D01*
X96089037Y-89734012D01*
X96055287Y-89760512D01*
X96020914Y-89782123D01*
X95985876Y-89798741D01*
X95950131Y-89810260D01*
X95913637Y-89816574D01*
X95876350Y-89817578D01*
X95833595Y-89814712D01*
X95793573Y-89810144D01*
X95756206Y-89803924D01*
X95721420Y-89796105D01*
X95689137Y-89786737D01*
X95659281Y-89775872D01*
X95631778Y-89763563D01*
X95606549Y-89749860D01*
X95583519Y-89734814D01*
X95562613Y-89718479D01*
X95543753Y-89700904D01*
X95526864Y-89682143D01*
X95511869Y-89662245D01*
X95498693Y-89641264D01*
X95487258Y-89619250D01*
X95477490Y-89596255D01*
X95469312Y-89572330D01*
X95462647Y-89547528D01*
X95457419Y-89521899D01*
X95453553Y-89495496D01*
X95449601Y-89440572D01*
X95450180Y-89383168D01*
X95454681Y-89323696D01*
X95462495Y-89262570D01*
X95473013Y-89200201D01*
X95485626Y-89137003D01*
X95543595Y-88893999D01*
X95627920Y-88578463D01*
X95846849Y-87814806D01*
X96284271Y-86352264D01*
X96229157Y-86387589D01*
X96179215Y-86420296D01*
X96135052Y-86450026D01*
X96115328Y-86463663D01*
X96097277Y-86476421D01*
X95732056Y-86733777D01*
X95570683Y-86845295D01*
X95416910Y-86949610D01*
X95265818Y-87049901D01*
X95112491Y-87149346D01*
X94952009Y-87251122D01*
X94779454Y-87358408D01*
X94716830Y-87396231D01*
X94655476Y-87431796D01*
X94595427Y-87465148D01*
X94536719Y-87496335D01*
X94479391Y-87525404D01*
X94423477Y-87552401D01*
X94369014Y-87577374D01*
X94316039Y-87600369D01*
X94264588Y-87621432D01*
X94214698Y-87640612D01*
X94166405Y-87657955D01*
X94119746Y-87673507D01*
X94074757Y-87687315D01*
X94031474Y-87699426D01*
X93989935Y-87709888D01*
X93950175Y-87718746D01*
X93912231Y-87726048D01*
X93876139Y-87731841D01*
X93841937Y-87736171D01*
X93809659Y-87739085D01*
X93779344Y-87740630D01*
X93751027Y-87740853D01*
X93724744Y-87739801D01*
X93700533Y-87737521D01*
X93678430Y-87734058D01*
X93658471Y-87729461D01*
X93640692Y-87723776D01*
X93625131Y-87717050D01*
X93611823Y-87709330D01*
X93600805Y-87700662D01*
X93592114Y-87691093D01*
X93585786Y-87680671D01*
X93576093Y-87656734D01*
X93568520Y-87630685D01*
X93562976Y-87602631D01*
X93559371Y-87572678D01*
X93557612Y-87507507D01*
X93562513Y-87436026D01*
X93573346Y-87359093D01*
X93589383Y-87277563D01*
X93609896Y-87192292D01*
X93634155Y-87104137D01*
X93691000Y-86922596D01*
X93754091Y-86739790D01*
X93875702Y-86397774D01*
X94318889Y-85098746D01*
X95666733Y-85098746D01*
X95862959Y-84968712D01*
X96060498Y-84841125D01*
X96259474Y-84716256D01*
X96460011Y-84594375D01*
X96662232Y-84475753D01*
X96866260Y-84360660D01*
X97072218Y-84249366D01*
X97280229Y-84142144D01*
X98116294Y-83726061D01*
X98953189Y-83314741D01*
X100624959Y-82496964D01*
X100634176Y-82492149D01*
X100643530Y-82486696D01*
X100653404Y-82480475D01*
X100664183Y-82473358D01*
X100689997Y-82455916D01*
X100705799Y-82445331D01*
X100724045Y-82433332D01*
X100699420Y-82430448D01*
X100677570Y-82427662D01*
X100640620Y-82422756D01*
X100624732Y-82420820D01*
X100610044Y-82419351D01*
X100596161Y-82418441D01*
X100589400Y-82418225D01*
X100582692Y-82418184D01*
X100172481Y-82420152D01*
X99761781Y-82419895D01*
X99556520Y-82422042D01*
X99351464Y-82427365D01*
X99146724Y-82437107D01*
X98942407Y-82452514D01*
X98311933Y-82515278D01*
X97996805Y-82551054D01*
X97681874Y-82590388D01*
X97367231Y-82633749D01*
X97052969Y-82681608D01*
X96739179Y-82734436D01*
X96425955Y-82792703D01*
X95666733Y-85098746D01*
X94318889Y-85098746D01*
X94928083Y-83313129D01*
X95005209Y-83080892D01*
X94958267Y-83087325D01*
X94914127Y-83092719D01*
X94872746Y-83097167D01*
X94834083Y-83100760D01*
X94798096Y-83103589D01*
X94764743Y-83105748D01*
X94733984Y-83107326D01*
X94705775Y-83108417D01*
X94566926Y-83110591D01*
X94526280Y-83112348D01*
X94474758Y-83112272D01*
X94416487Y-83110452D01*
X94355591Y-83106978D01*
X94296195Y-83101937D01*
X94242426Y-83095420D01*
X94218940Y-83091636D01*
X94198407Y-83087515D01*
X94181344Y-83083070D01*
X94168266Y-83078312D01*
X94142686Y-83066426D01*
X94118554Y-83054359D01*
X94095824Y-83042083D01*
X94074452Y-83029566D01*
X94054394Y-83016777D01*
X94035606Y-83003685D01*
X94018043Y-82990261D01*
X94001661Y-82976472D01*
X93986415Y-82962289D01*
X93972261Y-82947681D01*
X93959154Y-82932617D01*
X93947051Y-82917066D01*
X93935907Y-82900998D01*
X93925677Y-82884382D01*
X93916317Y-82867186D01*
X93907783Y-82849382D01*
X93900627Y-82832382D01*
X93893847Y-82814283D01*
X93887526Y-82795063D01*
X93881745Y-82774702D01*
X93876586Y-82753178D01*
X93872132Y-82730469D01*
X93868464Y-82706555D01*
X93865665Y-82681413D01*
X93863816Y-82655022D01*
X93862999Y-82627361D01*
X93863297Y-82598409D01*
X93864790Y-82568143D01*
X93867562Y-82536544D01*
X93871695Y-82503588D01*
X93877269Y-82469255D01*
X93884367Y-82433523D01*
X93891372Y-82404099D01*
X93899235Y-82376577D01*
X93908099Y-82350778D01*
X93918105Y-82326521D01*
X93929396Y-82303628D01*
X93942114Y-82281918D01*
X93956401Y-82261211D01*
X93972399Y-82241329D01*
X93990251Y-82222090D01*
X94010098Y-82203316D01*
X94032083Y-82184827D01*
X94056348Y-82166442D01*
X94083034Y-82147983D01*
X94112285Y-82129269D01*
X94144242Y-82110121D01*
X94179047Y-82090359D01*
X94232317Y-82061663D01*
X94281224Y-82037018D01*
X94326322Y-82016056D01*
X94368163Y-81998408D01*
X94407303Y-81983706D01*
X94444295Y-81971580D01*
X94479693Y-81961663D01*
X94514051Y-81953586D01*
X94547923Y-81946980D01*
X94581863Y-81941476D01*
X94652162Y-81932303D01*
X94729381Y-81923118D01*
X94817950Y-81910972D01*
X95391434Y-81825445D01*
X95474831Y-81578729D01*
X96794454Y-81578729D01*
X97091145Y-81499766D01*
X97453252Y-81386445D01*
X97632190Y-81322940D01*
X100596119Y-81322940D01*
X100694342Y-81330034D01*
X100792047Y-81335107D01*
X100986107Y-81341643D01*
X101178717Y-81347460D01*
X101274608Y-81351633D01*
X101370291Y-81357469D01*
X101647926Y-81370802D01*
X101855720Y-81381578D01*
X102093273Y-81397561D01*
X102348415Y-81420605D01*
X102608978Y-81452561D01*
X102737489Y-81472460D01*
X102862792Y-81495280D01*
X102983365Y-81521255D01*
X103097688Y-81550616D01*
X103209021Y-81234326D01*
X103315360Y-80937541D01*
X103503229Y-80425210D01*
X103641637Y-80059079D01*
X103710927Y-79884600D01*
X103728148Y-79850156D01*
X103745706Y-79817143D01*
X103768779Y-79775683D01*
X103797026Y-79727337D01*
X103830110Y-79673664D01*
X103867691Y-79616226D01*
X103909431Y-79556582D01*
X103869068Y-79590845D01*
X103830027Y-79623101D01*
X103792412Y-79653365D01*
X103756326Y-79681651D01*
X103721872Y-79707977D01*
X103689155Y-79732357D01*
X103629345Y-79775343D01*
X103577723Y-79810732D01*
X103535119Y-79838649D01*
X103502360Y-79859217D01*
X103480276Y-79872561D01*
X103131582Y-80076040D01*
X102778302Y-80270614D01*
X102421040Y-80457567D01*
X102060398Y-80638182D01*
X101696981Y-80813744D01*
X101331393Y-80985535D01*
X100596119Y-81322940D01*
X97632190Y-81322940D01*
X98328769Y-81075723D01*
X99331118Y-80684546D01*
X100370414Y-80250900D01*
X101356770Y-79812772D01*
X102200301Y-79408145D01*
X102540417Y-79230265D01*
X102811120Y-79075005D01*
X103001173Y-78947113D01*
X103062446Y-78894914D01*
X103099342Y-78851337D01*
X103098258Y-78850479D01*
X103097186Y-78849573D01*
X103095070Y-78847667D01*
X103092971Y-78845713D01*
X103090867Y-78843805D01*
X103089805Y-78842897D01*
X103088734Y-78842036D01*
X103087650Y-78841234D01*
X103086551Y-78840501D01*
X103085434Y-78839850D01*
X103084868Y-78839559D01*
X103084296Y-78839293D01*
X103083718Y-78839053D01*
X103083134Y-78838840D01*
X103082543Y-78838657D01*
X103081945Y-78838505D01*
X102967223Y-78810616D01*
X102909853Y-78797140D01*
X102852353Y-78784464D01*
X102539629Y-78726858D01*
X102192275Y-78680060D01*
X101803548Y-78642971D01*
X101366702Y-78614494D01*
X100874994Y-78593529D01*
X100321680Y-78578978D01*
X99003260Y-78564727D01*
X98632572Y-78579072D01*
X98378211Y-78590409D01*
X98229885Y-78599321D01*
X98138949Y-78609131D01*
X98047858Y-78617825D01*
X97956682Y-78625700D01*
X97865487Y-78633055D01*
X97430974Y-79760445D01*
X97159371Y-80529241D01*
X96794454Y-81578729D01*
X95474831Y-81578729D01*
X95737054Y-80802980D01*
X96071612Y-79826056D01*
X96111483Y-79713607D01*
X96152708Y-79601698D01*
X96237985Y-79378984D01*
X96411205Y-78934344D01*
X96415024Y-78923649D01*
X96418507Y-78912547D01*
X96421820Y-78900809D01*
X96425128Y-78888207D01*
X96432394Y-78859502D01*
X96436683Y-78842943D01*
X96441632Y-78824608D01*
X96221814Y-78857986D01*
X96117299Y-78874474D01*
X96065804Y-78883186D01*
X96014595Y-78892407D01*
X95707281Y-78950310D01*
X95400166Y-79009155D01*
X94932818Y-79110936D01*
X94190615Y-79291490D01*
X93240438Y-79539699D01*
X92149165Y-79844445D01*
X91625031Y-80001863D01*
X91129038Y-80160797D01*
X90670535Y-80315827D01*
X90258874Y-80461535D01*
X89903404Y-80592503D01*
X89613477Y-80703312D01*
X89267654Y-80842783D01*
X89056667Y-80930877D01*
X88797644Y-81031521D01*
X88508195Y-81133367D01*
X88357564Y-81181194D01*
X88205930Y-81225065D01*
X88055495Y-81263562D01*
X87908459Y-81295267D01*
X87767024Y-81318760D01*
X87633391Y-81332623D01*
X87509761Y-81335438D01*
X87452385Y-81332259D01*
X87398335Y-81325786D01*
X87347887Y-81315841D01*
X87301316Y-81302248D01*
X87258896Y-81284828D01*
X87220903Y-81263405D01*
X87185031Y-81237673D01*
X87152273Y-81209954D01*
X87122530Y-81180382D01*
X87095704Y-81149094D01*
X87071696Y-81116223D01*
X87050408Y-81081906D01*
X87031742Y-81046278D01*
X87015600Y-81009474D01*
X87001883Y-80971628D01*
X86990492Y-80932878D01*
X86981330Y-80893357D01*
X86974298Y-80853200D01*
X86969298Y-80812544D01*
X86966232Y-80771523D01*
X86965506Y-80688929D01*
X86971333Y-80606499D01*
X86982928Y-80525315D01*
X86999504Y-80446459D01*
X87020273Y-80371013D01*
X87044450Y-80300060D01*
X87071247Y-80234680D01*
X87099878Y-80175956D01*
X87129556Y-80124970D01*
X87188386Y-80043392D01*
X87260065Y-79961136D01*
X87343053Y-79878765D01*
X87435807Y-79796847D01*
X87536785Y-79715945D01*
X87644445Y-79636627D01*
X87757246Y-79559457D01*
X87873647Y-79485001D01*
X87992104Y-79413825D01*
X88111077Y-79346494D01*
X88229024Y-79283574D01*
X88344402Y-79225630D01*
X88455671Y-79173228D01*
X88561288Y-79126934D01*
X88659712Y-79087312D01*
X88749401Y-79054930D01*
X89190875Y-78877841D01*
X89624930Y-78714174D01*
X90049255Y-78563548D01*
X90461541Y-78425585D01*
X90859476Y-78299903D01*
X91240750Y-78186122D01*
X91603051Y-78083862D01*
X91944071Y-77992743D01*
X92553019Y-77842407D01*
X93049110Y-77732071D01*
X93628780Y-77619234D01*
X94372401Y-77493126D01*
X95030281Y-77389348D01*
X95602986Y-77305904D01*
X96091083Y-77240797D01*
X96495139Y-77192030D01*
X96815720Y-77157606D01*
X97053393Y-77135529D01*
X97208724Y-77123801D01*
X97616851Y-77101084D01*
X98016886Y-77083452D01*
X98705537Y-77055804D01*
X98835081Y-76685290D01*
X98979241Y-76285668D01*
X99245950Y-75561173D01*
X99388043Y-75189101D01*
X99535760Y-74819546D01*
X99837625Y-74083475D01*
X99882095Y-73977129D01*
X99905075Y-73924257D01*
X99928673Y-73871676D01*
X99952978Y-73819455D01*
X99978080Y-73767662D01*
X100004069Y-73716365D01*
X100031034Y-73665632D01*
X100053284Y-73627906D01*
X100077330Y-73592793D01*
X100103033Y-73560247D01*
X100130259Y-73530222D01*
X100158869Y-73502669D01*
X100188728Y-73477543D01*
X100219698Y-73454795D01*
X100251643Y-73434381D01*
X100284427Y-73416251D01*
X100317912Y-73400360D01*
X100351962Y-73386661D01*
X100386441Y-73375106D01*
X100421211Y-73365649D01*
X100456136Y-73358243D01*
X100491080Y-73352841D01*
X100525905Y-73349397D01*
X100560475Y-73347862D01*
X100594653Y-73348190D01*
X100628303Y-73350335D01*
X100661288Y-73354249D01*
X100693472Y-73359886D01*
X100724717Y-73367199D01*
X100754887Y-73376140D01*
X100783845Y-73386663D01*
X100811455Y-73398720D01*
X100837579Y-73412266D01*
X100862082Y-73427253D01*
X100884827Y-73443634D01*
X100905677Y-73461362D01*
X100924495Y-73480391D01*
X100941144Y-73500673D01*
X100955489Y-73522161D01*
X100964943Y-73540552D01*
X100972570Y-73560615D01*
X100978464Y-73582217D01*
X100982719Y-73605229D01*
X100985428Y-73629517D01*
X100986686Y-73654953D01*
X100986586Y-73681404D01*
X100985223Y-73708740D01*
X100979083Y-73765539D01*
X100969016Y-73824303D01*
X100955774Y-73883981D01*
X100940110Y-73943526D01*
X100922774Y-74001888D01*
X100904519Y-74058018D01*
X100868257Y-74159387D01*
X100817773Y-74289188D01*
X100464819Y-75143792D01*
X100324403Y-75514634D01*
X100149129Y-75989235D01*
X99770288Y-77022598D01*
X99927412Y-77022743D01*
X100088928Y-77025046D01*
X100253941Y-77029333D01*
X100421559Y-77035431D01*
X100637639Y-76511355D01*
X100899050Y-75894497D01*
X101157905Y-75298402D01*
X101366321Y-74836611D01*
X101672790Y-74173383D01*
X101753334Y-74003158D01*
X101834626Y-73836002D01*
X101916257Y-73674335D01*
X101997815Y-73520574D01*
X102033819Y-73458147D01*
X102070343Y-73401672D01*
X102107496Y-73350906D01*
X102145386Y-73305604D01*
X102164642Y-73284925D01*
X102184123Y-73265521D01*
X102203843Y-73247361D01*
X102223815Y-73230414D01*
X102244053Y-73214651D01*
X102264571Y-73200039D01*
X102285383Y-73186550D01*
X102306501Y-73174151D01*
X102327940Y-73162814D01*
X102349712Y-73152506D01*
X102371833Y-73143199D01*
X102394315Y-73134861D01*
X102440418Y-73120970D01*
X102488129Y-73110589D01*
X102537558Y-73103475D01*
X102588814Y-73099384D01*
X102642005Y-73098070D01*
X102697241Y-73099291D01*
G37*
D12*
X82577000Y-86995000D02*
X64797000Y-86995000D01*
X64797000Y-64389000D01*
X82577000Y-64389000D01*
X82577000Y-86995000D01*
D13*
X68757346Y-68037457D02*
X68643060Y-68037457D01*
X68643060Y-68037457D02*
X68528774Y-67980314D01*
X68528774Y-67980314D02*
X68471632Y-67923171D01*
X68471632Y-67923171D02*
X68414489Y-67808885D01*
X68414489Y-67808885D02*
X68357346Y-67580314D01*
X68357346Y-67580314D02*
X68357346Y-67294600D01*
X68357346Y-67294600D02*
X68414489Y-67066028D01*
X68414489Y-67066028D02*
X68471632Y-66951742D01*
X68471632Y-66951742D02*
X68528774Y-66894600D01*
X68528774Y-66894600D02*
X68643060Y-66837457D01*
X68643060Y-66837457D02*
X68757346Y-66837457D01*
X68757346Y-66837457D02*
X68871632Y-66894600D01*
X68871632Y-66894600D02*
X68928774Y-66951742D01*
X68928774Y-66951742D02*
X68985917Y-67066028D01*
X68985917Y-67066028D02*
X69043060Y-67294600D01*
X69043060Y-67294600D02*
X69043060Y-67580314D01*
X69043060Y-67580314D02*
X68985917Y-67808885D01*
X68985917Y-67808885D02*
X68928774Y-67923171D01*
X68928774Y-67923171D02*
X68871632Y-67980314D01*
X68871632Y-67980314D02*
X68757346Y-68037457D01*
X69430489Y-85817457D02*
X70001917Y-85817457D01*
X70001917Y-85817457D02*
X70059060Y-85246028D01*
X70059060Y-85246028D02*
X70001917Y-85303171D01*
X70001917Y-85303171D02*
X69887632Y-85360314D01*
X69887632Y-85360314D02*
X69601917Y-85360314D01*
X69601917Y-85360314D02*
X69487632Y-85303171D01*
X69487632Y-85303171D02*
X69430489Y-85246028D01*
X69430489Y-85246028D02*
X69373346Y-85131742D01*
X69373346Y-85131742D02*
X69373346Y-84846028D01*
X69373346Y-84846028D02*
X69430489Y-84731742D01*
X69430489Y-84731742D02*
X69487632Y-84674600D01*
X69487632Y-84674600D02*
X69601917Y-84617457D01*
X69601917Y-84617457D02*
X69887632Y-84617457D01*
X69887632Y-84617457D02*
X70001917Y-84674600D01*
X70001917Y-84674600D02*
X70059060Y-84731742D01*
X69030489Y-85817457D02*
X68630489Y-84617457D01*
X68630489Y-84617457D02*
X68230489Y-85817457D01*
X78908489Y-85817457D02*
X79479917Y-85817457D01*
X79479917Y-85817457D02*
X79537060Y-85246028D01*
X79537060Y-85246028D02*
X79479917Y-85303171D01*
X79479917Y-85303171D02*
X79365632Y-85360314D01*
X79365632Y-85360314D02*
X79079917Y-85360314D01*
X79079917Y-85360314D02*
X78965632Y-85303171D01*
X78965632Y-85303171D02*
X78908489Y-85246028D01*
X78908489Y-85246028D02*
X78851346Y-85131742D01*
X78851346Y-85131742D02*
X78851346Y-84846028D01*
X78851346Y-84846028D02*
X78908489Y-84731742D01*
X78908489Y-84731742D02*
X78965632Y-84674600D01*
X78965632Y-84674600D02*
X79079917Y-84617457D01*
X79079917Y-84617457D02*
X79365632Y-84617457D01*
X79365632Y-84617457D02*
X79479917Y-84674600D01*
X79479917Y-84674600D02*
X79537060Y-84731742D01*
X78965632Y-83277457D02*
X79194203Y-83277457D01*
X79194203Y-83277457D02*
X79308489Y-83220314D01*
X79308489Y-83220314D02*
X79365632Y-83163171D01*
X79365632Y-83163171D02*
X79479917Y-82991742D01*
X79479917Y-82991742D02*
X79537060Y-82763171D01*
X79537060Y-82763171D02*
X79537060Y-82306028D01*
X79537060Y-82306028D02*
X79479917Y-82191742D01*
X79479917Y-82191742D02*
X79422774Y-82134600D01*
X79422774Y-82134600D02*
X79308489Y-82077457D01*
X79308489Y-82077457D02*
X79079917Y-82077457D01*
X79079917Y-82077457D02*
X78965632Y-82134600D01*
X78965632Y-82134600D02*
X78908489Y-82191742D01*
X78908489Y-82191742D02*
X78851346Y-82306028D01*
X78851346Y-82306028D02*
X78851346Y-82591742D01*
X78851346Y-82591742D02*
X78908489Y-82706028D01*
X78908489Y-82706028D02*
X78965632Y-82763171D01*
X78965632Y-82763171D02*
X79079917Y-82820314D01*
X79079917Y-82820314D02*
X79308489Y-82820314D01*
X79308489Y-82820314D02*
X79422774Y-82763171D01*
X79422774Y-82763171D02*
X79479917Y-82706028D01*
X79479917Y-82706028D02*
X79537060Y-82591742D01*
X79553060Y-67923171D02*
X79495917Y-67980314D01*
X79495917Y-67980314D02*
X79381632Y-68037457D01*
X79381632Y-68037457D02*
X79095917Y-68037457D01*
X79095917Y-68037457D02*
X78981632Y-67980314D01*
X78981632Y-67980314D02*
X78924489Y-67923171D01*
X78924489Y-67923171D02*
X78867346Y-67808885D01*
X78867346Y-67808885D02*
X78867346Y-67694600D01*
X78867346Y-67694600D02*
X78924489Y-67523171D01*
X78924489Y-67523171D02*
X79610203Y-66837457D01*
X79610203Y-66837457D02*
X78867346Y-66837457D01*
X77724489Y-66837457D02*
X78410203Y-66837457D01*
X78067346Y-66837457D02*
X78067346Y-68037457D01*
X78067346Y-68037457D02*
X78181632Y-67866028D01*
X78181632Y-67866028D02*
X78295917Y-67751742D01*
X78295917Y-67751742D02*
X78410203Y-67694600D01*
X70389346Y-83220314D02*
X70503632Y-83277457D01*
X70503632Y-83277457D02*
X70675060Y-83277457D01*
X70675060Y-83277457D02*
X70846489Y-83220314D01*
X70846489Y-83220314D02*
X70960774Y-83106028D01*
X70960774Y-83106028D02*
X71017917Y-82991742D01*
X71017917Y-82991742D02*
X71075060Y-82763171D01*
X71075060Y-82763171D02*
X71075060Y-82591742D01*
X71075060Y-82591742D02*
X71017917Y-82363171D01*
X71017917Y-82363171D02*
X70960774Y-82248885D01*
X70960774Y-82248885D02*
X70846489Y-82134600D01*
X70846489Y-82134600D02*
X70675060Y-82077457D01*
X70675060Y-82077457D02*
X70560774Y-82077457D01*
X70560774Y-82077457D02*
X70389346Y-82134600D01*
X70389346Y-82134600D02*
X70332203Y-82191742D01*
X70332203Y-82191742D02*
X70332203Y-82591742D01*
X70332203Y-82591742D02*
X70560774Y-82591742D01*
X69817917Y-82077457D02*
X69817917Y-83277457D01*
X69817917Y-83277457D02*
X69132203Y-82077457D01*
X69132203Y-82077457D02*
X69132203Y-83277457D01*
X68560774Y-82077457D02*
X68560774Y-83277457D01*
X68560774Y-83277457D02*
X68275060Y-83277457D01*
X68275060Y-83277457D02*
X68103631Y-83220314D01*
X68103631Y-83220314D02*
X67989346Y-83106028D01*
X67989346Y-83106028D02*
X67932203Y-82991742D01*
X67932203Y-82991742D02*
X67875060Y-82763171D01*
X67875060Y-82763171D02*
X67875060Y-82591742D01*
X67875060Y-82591742D02*
X67932203Y-82363171D01*
X67932203Y-82363171D02*
X67989346Y-82248885D01*
X67989346Y-82248885D02*
X68103631Y-82134600D01*
X68103631Y-82134600D02*
X68275060Y-82077457D01*
X68275060Y-82077457D02*
X68560774Y-82077457D01*
X79308489Y-77683171D02*
X79422774Y-77740314D01*
X79422774Y-77740314D02*
X79479917Y-77797457D01*
X79479917Y-77797457D02*
X79537060Y-77911742D01*
X79537060Y-77911742D02*
X79537060Y-77968885D01*
X79537060Y-77968885D02*
X79479917Y-78083171D01*
X79479917Y-78083171D02*
X79422774Y-78140314D01*
X79422774Y-78140314D02*
X79308489Y-78197457D01*
X79308489Y-78197457D02*
X79079917Y-78197457D01*
X79079917Y-78197457D02*
X78965632Y-78140314D01*
X78965632Y-78140314D02*
X78908489Y-78083171D01*
X78908489Y-78083171D02*
X78851346Y-77968885D01*
X78851346Y-77968885D02*
X78851346Y-77911742D01*
X78851346Y-77911742D02*
X78908489Y-77797457D01*
X78908489Y-77797457D02*
X78965632Y-77740314D01*
X78965632Y-77740314D02*
X79079917Y-77683171D01*
X79079917Y-77683171D02*
X79308489Y-77683171D01*
X79308489Y-77683171D02*
X79422774Y-77626028D01*
X79422774Y-77626028D02*
X79479917Y-77568885D01*
X79479917Y-77568885D02*
X79537060Y-77454600D01*
X79537060Y-77454600D02*
X79537060Y-77226028D01*
X79537060Y-77226028D02*
X79479917Y-77111742D01*
X79479917Y-77111742D02*
X79422774Y-77054600D01*
X79422774Y-77054600D02*
X79308489Y-76997457D01*
X79308489Y-76997457D02*
X79079917Y-76997457D01*
X79079917Y-76997457D02*
X78965632Y-77054600D01*
X78965632Y-77054600D02*
X78908489Y-77111742D01*
X78908489Y-77111742D02*
X78851346Y-77226028D01*
X78851346Y-77226028D02*
X78851346Y-77454600D01*
X78851346Y-77454600D02*
X78908489Y-77568885D01*
X78908489Y-77568885D02*
X78965632Y-77626028D01*
X78965632Y-77626028D02*
X79079917Y-77683171D01*
X78867346Y-71917457D02*
X79553060Y-71917457D01*
X79210203Y-71917457D02*
X79210203Y-73117457D01*
X79210203Y-73117457D02*
X79324489Y-72946028D01*
X79324489Y-72946028D02*
X79438774Y-72831742D01*
X79438774Y-72831742D02*
X79553060Y-72774600D01*
X78124489Y-73117457D02*
X78010203Y-73117457D01*
X78010203Y-73117457D02*
X77895917Y-73060314D01*
X77895917Y-73060314D02*
X77838775Y-73003171D01*
X77838775Y-73003171D02*
X77781632Y-72888885D01*
X77781632Y-72888885D02*
X77724489Y-72660314D01*
X77724489Y-72660314D02*
X77724489Y-72374600D01*
X77724489Y-72374600D02*
X77781632Y-72146028D01*
X77781632Y-72146028D02*
X77838775Y-72031742D01*
X77838775Y-72031742D02*
X77895917Y-71974600D01*
X77895917Y-71974600D02*
X78010203Y-71917457D01*
X78010203Y-71917457D02*
X78124489Y-71917457D01*
X78124489Y-71917457D02*
X78238775Y-71974600D01*
X78238775Y-71974600D02*
X78295917Y-72031742D01*
X78295917Y-72031742D02*
X78353060Y-72146028D01*
X78353060Y-72146028D02*
X78410203Y-72374600D01*
X78410203Y-72374600D02*
X78410203Y-72660314D01*
X78410203Y-72660314D02*
X78353060Y-72888885D01*
X78353060Y-72888885D02*
X78295917Y-73003171D01*
X78295917Y-73003171D02*
X78238775Y-73060314D01*
X78238775Y-73060314D02*
X78124489Y-73117457D01*
X68471632Y-77797457D02*
X68471632Y-76997457D01*
X68757346Y-78254600D02*
X69043060Y-77397457D01*
X69043060Y-77397457D02*
X68300203Y-77397457D01*
X79422774Y-74457457D02*
X79194203Y-74457457D01*
X79194203Y-74457457D02*
X79079917Y-74514600D01*
X79079917Y-74514600D02*
X79022774Y-74571742D01*
X79022774Y-74571742D02*
X78908489Y-74743171D01*
X78908489Y-74743171D02*
X78851346Y-74971742D01*
X78851346Y-74971742D02*
X78851346Y-75428885D01*
X78851346Y-75428885D02*
X78908489Y-75543171D01*
X78908489Y-75543171D02*
X78965632Y-75600314D01*
X78965632Y-75600314D02*
X79079917Y-75657457D01*
X79079917Y-75657457D02*
X79308489Y-75657457D01*
X79308489Y-75657457D02*
X79422774Y-75600314D01*
X79422774Y-75600314D02*
X79479917Y-75543171D01*
X79479917Y-75543171D02*
X79537060Y-75428885D01*
X79537060Y-75428885D02*
X79537060Y-75143171D01*
X79537060Y-75143171D02*
X79479917Y-75028885D01*
X79479917Y-75028885D02*
X79422774Y-74971742D01*
X79422774Y-74971742D02*
X79308489Y-74914600D01*
X79308489Y-74914600D02*
X79079917Y-74914600D01*
X79079917Y-74914600D02*
X78965632Y-74971742D01*
X78965632Y-74971742D02*
X78908489Y-75028885D01*
X78908489Y-75028885D02*
X78851346Y-75143171D01*
X79553060Y-70463171D02*
X79495917Y-70520314D01*
X79495917Y-70520314D02*
X79381632Y-70577457D01*
X79381632Y-70577457D02*
X79095917Y-70577457D01*
X79095917Y-70577457D02*
X78981632Y-70520314D01*
X78981632Y-70520314D02*
X78924489Y-70463171D01*
X78924489Y-70463171D02*
X78867346Y-70348885D01*
X78867346Y-70348885D02*
X78867346Y-70234600D01*
X78867346Y-70234600D02*
X78924489Y-70063171D01*
X78924489Y-70063171D02*
X79610203Y-69377457D01*
X79610203Y-69377457D02*
X78867346Y-69377457D01*
X78124489Y-70577457D02*
X78010203Y-70577457D01*
X78010203Y-70577457D02*
X77895917Y-70520314D01*
X77895917Y-70520314D02*
X77838775Y-70463171D01*
X77838775Y-70463171D02*
X77781632Y-70348885D01*
X77781632Y-70348885D02*
X77724489Y-70120314D01*
X77724489Y-70120314D02*
X77724489Y-69834600D01*
X77724489Y-69834600D02*
X77781632Y-69606028D01*
X77781632Y-69606028D02*
X77838775Y-69491742D01*
X77838775Y-69491742D02*
X77895917Y-69434600D01*
X77895917Y-69434600D02*
X78010203Y-69377457D01*
X78010203Y-69377457D02*
X78124489Y-69377457D01*
X78124489Y-69377457D02*
X78238775Y-69434600D01*
X78238775Y-69434600D02*
X78295917Y-69491742D01*
X78295917Y-69491742D02*
X78353060Y-69606028D01*
X78353060Y-69606028D02*
X78410203Y-69834600D01*
X78410203Y-69834600D02*
X78410203Y-70120314D01*
X78410203Y-70120314D02*
X78353060Y-70348885D01*
X78353060Y-70348885D02*
X78295917Y-70463171D01*
X78295917Y-70463171D02*
X78238775Y-70520314D01*
X78238775Y-70520314D02*
X78124489Y-70577457D01*
X79594203Y-80737457D02*
X78794203Y-80737457D01*
X78794203Y-80737457D02*
X79308489Y-79537457D01*
X69043060Y-73003171D02*
X68985917Y-73060314D01*
X68985917Y-73060314D02*
X68871632Y-73117457D01*
X68871632Y-73117457D02*
X68585917Y-73117457D01*
X68585917Y-73117457D02*
X68471632Y-73060314D01*
X68471632Y-73060314D02*
X68414489Y-73003171D01*
X68414489Y-73003171D02*
X68357346Y-72888885D01*
X68357346Y-72888885D02*
X68357346Y-72774600D01*
X68357346Y-72774600D02*
X68414489Y-72603171D01*
X68414489Y-72603171D02*
X69100203Y-71917457D01*
X69100203Y-71917457D02*
X68357346Y-71917457D01*
X70624203Y-80737457D02*
X69881346Y-80737457D01*
X69881346Y-80737457D02*
X70281346Y-80280314D01*
X70281346Y-80280314D02*
X70109917Y-80280314D01*
X70109917Y-80280314D02*
X69995632Y-80223171D01*
X69995632Y-80223171D02*
X69938489Y-80166028D01*
X69938489Y-80166028D02*
X69881346Y-80051742D01*
X69881346Y-80051742D02*
X69881346Y-79766028D01*
X69881346Y-79766028D02*
X69938489Y-79651742D01*
X69938489Y-79651742D02*
X69995632Y-79594600D01*
X69995632Y-79594600D02*
X70109917Y-79537457D01*
X70109917Y-79537457D02*
X70452774Y-79537457D01*
X70452774Y-79537457D02*
X70567060Y-79594600D01*
X70567060Y-79594600D02*
X70624203Y-79651742D01*
X69367060Y-79651742D02*
X69309917Y-79594600D01*
X69309917Y-79594600D02*
X69367060Y-79537457D01*
X69367060Y-79537457D02*
X69424203Y-79594600D01*
X69424203Y-79594600D02*
X69367060Y-79651742D01*
X69367060Y-79651742D02*
X69367060Y-79537457D01*
X68909917Y-80737457D02*
X68167060Y-80737457D01*
X68167060Y-80737457D02*
X68567060Y-80280314D01*
X68567060Y-80280314D02*
X68395631Y-80280314D01*
X68395631Y-80280314D02*
X68281346Y-80223171D01*
X68281346Y-80223171D02*
X68224203Y-80166028D01*
X68224203Y-80166028D02*
X68167060Y-80051742D01*
X68167060Y-80051742D02*
X68167060Y-79766028D01*
X68167060Y-79766028D02*
X68224203Y-79651742D01*
X68224203Y-79651742D02*
X68281346Y-79594600D01*
X68281346Y-79594600D02*
X68395631Y-79537457D01*
X68395631Y-79537457D02*
X68738488Y-79537457D01*
X68738488Y-79537457D02*
X68852774Y-79594600D01*
X68852774Y-79594600D02*
X68909917Y-79651742D01*
X68357346Y-69377457D02*
X69043060Y-69377457D01*
X68700203Y-69377457D02*
X68700203Y-70577457D01*
X68700203Y-70577457D02*
X68814489Y-70406028D01*
X68814489Y-70406028D02*
X68928774Y-70291742D01*
X68928774Y-70291742D02*
X69043060Y-70234600D01*
D14*
X75784685Y-70442000D02*
X75784685Y-70942000D01*
X74998971Y-71156286D02*
X74998971Y-70442000D01*
X74998971Y-70442000D02*
X76498971Y-70442000D01*
X76498971Y-70442000D02*
X76498971Y-71156286D01*
X75070400Y-71727715D02*
X74998971Y-71942001D01*
X74998971Y-71942001D02*
X74998971Y-72299143D01*
X74998971Y-72299143D02*
X75070400Y-72442001D01*
X75070400Y-72442001D02*
X75141828Y-72513429D01*
X75141828Y-72513429D02*
X75284685Y-72584858D01*
X75284685Y-72584858D02*
X75427542Y-72584858D01*
X75427542Y-72584858D02*
X75570400Y-72513429D01*
X75570400Y-72513429D02*
X75641828Y-72442001D01*
X75641828Y-72442001D02*
X75713257Y-72299143D01*
X75713257Y-72299143D02*
X75784685Y-72013429D01*
X75784685Y-72013429D02*
X75856114Y-71870572D01*
X75856114Y-71870572D02*
X75927542Y-71799143D01*
X75927542Y-71799143D02*
X76070400Y-71727715D01*
X76070400Y-71727715D02*
X76213257Y-71727715D01*
X76213257Y-71727715D02*
X76356114Y-71799143D01*
X76356114Y-71799143D02*
X76427542Y-71870572D01*
X76427542Y-71870572D02*
X76498971Y-72013429D01*
X76498971Y-72013429D02*
X76498971Y-72370572D01*
X76498971Y-72370572D02*
X76427542Y-72584858D01*
X74998971Y-73227714D02*
X76498971Y-73227714D01*
X76498971Y-73227714D02*
X76498971Y-73799143D01*
X76498971Y-73799143D02*
X76427542Y-73942000D01*
X76427542Y-73942000D02*
X76356114Y-74013429D01*
X76356114Y-74013429D02*
X76213257Y-74084857D01*
X76213257Y-74084857D02*
X75998971Y-74084857D01*
X75998971Y-74084857D02*
X75856114Y-74013429D01*
X75856114Y-74013429D02*
X75784685Y-73942000D01*
X75784685Y-73942000D02*
X75713257Y-73799143D01*
X75713257Y-73799143D02*
X75713257Y-73227714D01*
X76498971Y-74584857D02*
X76498971Y-75513429D01*
X76498971Y-75513429D02*
X75927542Y-75013429D01*
X75927542Y-75013429D02*
X75927542Y-75227714D01*
X75927542Y-75227714D02*
X75856114Y-75370572D01*
X75856114Y-75370572D02*
X75784685Y-75442000D01*
X75784685Y-75442000D02*
X75641828Y-75513429D01*
X75641828Y-75513429D02*
X75284685Y-75513429D01*
X75284685Y-75513429D02*
X75141828Y-75442000D01*
X75141828Y-75442000D02*
X75070400Y-75370572D01*
X75070400Y-75370572D02*
X74998971Y-75227714D01*
X74998971Y-75227714D02*
X74998971Y-74799143D01*
X74998971Y-74799143D02*
X75070400Y-74656286D01*
X75070400Y-74656286D02*
X75141828Y-74584857D01*
X76356114Y-76084857D02*
X76427542Y-76156285D01*
X76427542Y-76156285D02*
X76498971Y-76299143D01*
X76498971Y-76299143D02*
X76498971Y-76656285D01*
X76498971Y-76656285D02*
X76427542Y-76799143D01*
X76427542Y-76799143D02*
X76356114Y-76870571D01*
X76356114Y-76870571D02*
X76213257Y-76942000D01*
X76213257Y-76942000D02*
X76070400Y-76942000D01*
X76070400Y-76942000D02*
X75856114Y-76870571D01*
X75856114Y-76870571D02*
X74998971Y-76013428D01*
X74998971Y-76013428D02*
X74998971Y-76942000D01*
X75141828Y-79584856D02*
X75070400Y-79513428D01*
X75070400Y-79513428D02*
X74998971Y-79299142D01*
X74998971Y-79299142D02*
X74998971Y-79156285D01*
X74998971Y-79156285D02*
X75070400Y-78941999D01*
X75070400Y-78941999D02*
X75213257Y-78799142D01*
X75213257Y-78799142D02*
X75356114Y-78727713D01*
X75356114Y-78727713D02*
X75641828Y-78656285D01*
X75641828Y-78656285D02*
X75856114Y-78656285D01*
X75856114Y-78656285D02*
X76141828Y-78727713D01*
X76141828Y-78727713D02*
X76284685Y-78799142D01*
X76284685Y-78799142D02*
X76427542Y-78941999D01*
X76427542Y-78941999D02*
X76498971Y-79156285D01*
X76498971Y-79156285D02*
X76498971Y-79299142D01*
X76498971Y-79299142D02*
X76427542Y-79513428D01*
X76427542Y-79513428D02*
X76356114Y-79584856D01*
X76498971Y-80084856D02*
X76498971Y-81013428D01*
X76498971Y-81013428D02*
X75927542Y-80513428D01*
X75927542Y-80513428D02*
X75927542Y-80727713D01*
X75927542Y-80727713D02*
X75856114Y-80870571D01*
X75856114Y-80870571D02*
X75784685Y-80941999D01*
X75784685Y-80941999D02*
X75641828Y-81013428D01*
X75641828Y-81013428D02*
X75284685Y-81013428D01*
X75284685Y-81013428D02*
X75141828Y-80941999D01*
X75141828Y-80941999D02*
X75070400Y-80870571D01*
X75070400Y-80870571D02*
X74998971Y-80727713D01*
X74998971Y-80727713D02*
X74998971Y-80299142D01*
X74998971Y-80299142D02*
X75070400Y-80156285D01*
X75070400Y-80156285D02*
X75141828Y-80084856D01*
X72655400Y-70549143D02*
X72583971Y-70763429D01*
X72583971Y-70763429D02*
X72583971Y-71120571D01*
X72583971Y-71120571D02*
X72655400Y-71263429D01*
X72655400Y-71263429D02*
X72726828Y-71334857D01*
X72726828Y-71334857D02*
X72869685Y-71406286D01*
X72869685Y-71406286D02*
X73012542Y-71406286D01*
X73012542Y-71406286D02*
X73155400Y-71334857D01*
X73155400Y-71334857D02*
X73226828Y-71263429D01*
X73226828Y-71263429D02*
X73298257Y-71120571D01*
X73298257Y-71120571D02*
X73369685Y-70834857D01*
X73369685Y-70834857D02*
X73441114Y-70692000D01*
X73441114Y-70692000D02*
X73512542Y-70620571D01*
X73512542Y-70620571D02*
X73655400Y-70549143D01*
X73655400Y-70549143D02*
X73798257Y-70549143D01*
X73798257Y-70549143D02*
X73941114Y-70620571D01*
X73941114Y-70620571D02*
X74012542Y-70692000D01*
X74012542Y-70692000D02*
X74083971Y-70834857D01*
X74083971Y-70834857D02*
X74083971Y-71192000D01*
X74083971Y-71192000D02*
X74012542Y-71406286D01*
X73583971Y-72692000D02*
X72583971Y-72692000D01*
X73583971Y-72049142D02*
X72798257Y-72049142D01*
X72798257Y-72049142D02*
X72655400Y-72120571D01*
X72655400Y-72120571D02*
X72583971Y-72263428D01*
X72583971Y-72263428D02*
X72583971Y-72477714D01*
X72583971Y-72477714D02*
X72655400Y-72620571D01*
X72655400Y-72620571D02*
X72726828Y-72692000D01*
X73583971Y-73406285D02*
X72083971Y-73406285D01*
X73512542Y-73406285D02*
X73583971Y-73549143D01*
X73583971Y-73549143D02*
X73583971Y-73834857D01*
X73583971Y-73834857D02*
X73512542Y-73977714D01*
X73512542Y-73977714D02*
X73441114Y-74049143D01*
X73441114Y-74049143D02*
X73298257Y-74120571D01*
X73298257Y-74120571D02*
X72869685Y-74120571D01*
X72869685Y-74120571D02*
X72726828Y-74049143D01*
X72726828Y-74049143D02*
X72655400Y-73977714D01*
X72655400Y-73977714D02*
X72583971Y-73834857D01*
X72583971Y-73834857D02*
X72583971Y-73549143D01*
X72583971Y-73549143D02*
X72655400Y-73406285D01*
X72655400Y-75334857D02*
X72583971Y-75192000D01*
X72583971Y-75192000D02*
X72583971Y-74906286D01*
X72583971Y-74906286D02*
X72655400Y-74763428D01*
X72655400Y-74763428D02*
X72798257Y-74692000D01*
X72798257Y-74692000D02*
X73369685Y-74692000D01*
X73369685Y-74692000D02*
X73512542Y-74763428D01*
X73512542Y-74763428D02*
X73583971Y-74906286D01*
X73583971Y-74906286D02*
X73583971Y-75192000D01*
X73583971Y-75192000D02*
X73512542Y-75334857D01*
X73512542Y-75334857D02*
X73369685Y-75406286D01*
X73369685Y-75406286D02*
X73226828Y-75406286D01*
X73226828Y-75406286D02*
X73083971Y-74692000D01*
X72583971Y-76049142D02*
X73583971Y-76049142D01*
X73298257Y-76049142D02*
X73441114Y-76120571D01*
X73441114Y-76120571D02*
X73512542Y-76192000D01*
X73512542Y-76192000D02*
X73583971Y-76334857D01*
X73583971Y-76334857D02*
X73583971Y-76477714D01*
X72583971Y-76977713D02*
X74083971Y-76977713D01*
X74083971Y-76977713D02*
X73012542Y-77477713D01*
X73012542Y-77477713D02*
X74083971Y-77977713D01*
X74083971Y-77977713D02*
X72583971Y-77977713D01*
X72583971Y-78691999D02*
X73583971Y-78691999D01*
X74083971Y-78691999D02*
X74012542Y-78620571D01*
X74012542Y-78620571D02*
X73941114Y-78691999D01*
X73941114Y-78691999D02*
X74012542Y-78763428D01*
X74012542Y-78763428D02*
X74083971Y-78691999D01*
X74083971Y-78691999D02*
X73941114Y-78691999D01*
X73583971Y-79406285D02*
X72583971Y-79406285D01*
X73441114Y-79406285D02*
X73512542Y-79477714D01*
X73512542Y-79477714D02*
X73583971Y-79620571D01*
X73583971Y-79620571D02*
X73583971Y-79834857D01*
X73583971Y-79834857D02*
X73512542Y-79977714D01*
X73512542Y-79977714D02*
X73369685Y-80049143D01*
X73369685Y-80049143D02*
X72583971Y-80049143D01*
X72583971Y-80763428D02*
X73583971Y-80763428D01*
X74083971Y-80763428D02*
X74012542Y-80692000D01*
X74012542Y-80692000D02*
X73941114Y-80763428D01*
X73941114Y-80763428D02*
X74012542Y-80834857D01*
X74012542Y-80834857D02*
X74083971Y-80763428D01*
X74083971Y-80763428D02*
X73941114Y-80763428D01*
D13*
X69100203Y-75657457D02*
X68357346Y-75657457D01*
X68357346Y-75657457D02*
X68757346Y-75200314D01*
X68757346Y-75200314D02*
X68585917Y-75200314D01*
X68585917Y-75200314D02*
X68471632Y-75143171D01*
X68471632Y-75143171D02*
X68414489Y-75086028D01*
X68414489Y-75086028D02*
X68357346Y-74971742D01*
X68357346Y-74971742D02*
X68357346Y-74686028D01*
X68357346Y-74686028D02*
X68414489Y-74571742D01*
X68414489Y-74571742D02*
X68471632Y-74514600D01*
X68471632Y-74514600D02*
X68585917Y-74457457D01*
X68585917Y-74457457D02*
X68928774Y-74457457D01*
X68928774Y-74457457D02*
X69043060Y-74514600D01*
X69043060Y-74514600D02*
X69100203Y-74571742D01*
X43956653Y-56407971D02*
X43885225Y-56479400D01*
X43885225Y-56479400D02*
X43670939Y-56550828D01*
X43670939Y-56550828D02*
X43528082Y-56550828D01*
X43528082Y-56550828D02*
X43313796Y-56479400D01*
X43313796Y-56479400D02*
X43170939Y-56336542D01*
X43170939Y-56336542D02*
X43099510Y-56193685D01*
X43099510Y-56193685D02*
X43028082Y-55907971D01*
X43028082Y-55907971D02*
X43028082Y-55693685D01*
X43028082Y-55693685D02*
X43099510Y-55407971D01*
X43099510Y-55407971D02*
X43170939Y-55265114D01*
X43170939Y-55265114D02*
X43313796Y-55122257D01*
X43313796Y-55122257D02*
X43528082Y-55050828D01*
X43528082Y-55050828D02*
X43670939Y-55050828D01*
X43670939Y-55050828D02*
X43885225Y-55122257D01*
X43885225Y-55122257D02*
X43956653Y-55193685D01*
X44528082Y-56479400D02*
X44742368Y-56550828D01*
X44742368Y-56550828D02*
X45099510Y-56550828D01*
X45099510Y-56550828D02*
X45242368Y-56479400D01*
X45242368Y-56479400D02*
X45313796Y-56407971D01*
X45313796Y-56407971D02*
X45385225Y-56265114D01*
X45385225Y-56265114D02*
X45385225Y-56122257D01*
X45385225Y-56122257D02*
X45313796Y-55979400D01*
X45313796Y-55979400D02*
X45242368Y-55907971D01*
X45242368Y-55907971D02*
X45099510Y-55836542D01*
X45099510Y-55836542D02*
X44813796Y-55765114D01*
X44813796Y-55765114D02*
X44670939Y-55693685D01*
X44670939Y-55693685D02*
X44599510Y-55622257D01*
X44599510Y-55622257D02*
X44528082Y-55479400D01*
X44528082Y-55479400D02*
X44528082Y-55336542D01*
X44528082Y-55336542D02*
X44599510Y-55193685D01*
X44599510Y-55193685D02*
X44670939Y-55122257D01*
X44670939Y-55122257D02*
X44813796Y-55050828D01*
X44813796Y-55050828D02*
X45170939Y-55050828D01*
X45170939Y-55050828D02*
X45385225Y-55122257D01*
X43956653Y-53867971D02*
X43885225Y-53939400D01*
X43885225Y-53939400D02*
X43670939Y-54010828D01*
X43670939Y-54010828D02*
X43528082Y-54010828D01*
X43528082Y-54010828D02*
X43313796Y-53939400D01*
X43313796Y-53939400D02*
X43170939Y-53796542D01*
X43170939Y-53796542D02*
X43099510Y-53653685D01*
X43099510Y-53653685D02*
X43028082Y-53367971D01*
X43028082Y-53367971D02*
X43028082Y-53153685D01*
X43028082Y-53153685D02*
X43099510Y-52867971D01*
X43099510Y-52867971D02*
X43170939Y-52725114D01*
X43170939Y-52725114D02*
X43313796Y-52582257D01*
X43313796Y-52582257D02*
X43528082Y-52510828D01*
X43528082Y-52510828D02*
X43670939Y-52510828D01*
X43670939Y-52510828D02*
X43885225Y-52582257D01*
X43885225Y-52582257D02*
X43956653Y-52653685D01*
X45313796Y-54010828D02*
X44599510Y-54010828D01*
X44599510Y-54010828D02*
X44599510Y-52510828D01*
X45813796Y-54010828D02*
X45813796Y-52510828D01*
X46670939Y-54010828D02*
X46028082Y-53153685D01*
X46670939Y-52510828D02*
X45813796Y-53367971D01*
X43099510Y-51470828D02*
X43099510Y-49970828D01*
X43099510Y-49970828D02*
X43456653Y-49970828D01*
X43456653Y-49970828D02*
X43670939Y-50042257D01*
X43670939Y-50042257D02*
X43813796Y-50185114D01*
X43813796Y-50185114D02*
X43885225Y-50327971D01*
X43885225Y-50327971D02*
X43956653Y-50613685D01*
X43956653Y-50613685D02*
X43956653Y-50827971D01*
X43956653Y-50827971D02*
X43885225Y-51113685D01*
X43885225Y-51113685D02*
X43813796Y-51256542D01*
X43813796Y-51256542D02*
X43670939Y-51399400D01*
X43670939Y-51399400D02*
X43456653Y-51470828D01*
X43456653Y-51470828D02*
X43099510Y-51470828D01*
X44599510Y-51470828D02*
X44599510Y-49970828D01*
X45313796Y-51470828D02*
X45313796Y-49970828D01*
X45313796Y-49970828D02*
X46170939Y-51470828D01*
X46170939Y-51470828D02*
X46170939Y-49970828D01*
X43885225Y-47502257D02*
X43742368Y-47430828D01*
X43742368Y-47430828D02*
X43528082Y-47430828D01*
X43528082Y-47430828D02*
X43313796Y-47502257D01*
X43313796Y-47502257D02*
X43170939Y-47645114D01*
X43170939Y-47645114D02*
X43099510Y-47787971D01*
X43099510Y-47787971D02*
X43028082Y-48073685D01*
X43028082Y-48073685D02*
X43028082Y-48287971D01*
X43028082Y-48287971D02*
X43099510Y-48573685D01*
X43099510Y-48573685D02*
X43170939Y-48716542D01*
X43170939Y-48716542D02*
X43313796Y-48859400D01*
X43313796Y-48859400D02*
X43528082Y-48930828D01*
X43528082Y-48930828D02*
X43670939Y-48930828D01*
X43670939Y-48930828D02*
X43885225Y-48859400D01*
X43885225Y-48859400D02*
X43956653Y-48787971D01*
X43956653Y-48787971D02*
X43956653Y-48287971D01*
X43956653Y-48287971D02*
X43670939Y-48287971D01*
X44599510Y-48930828D02*
X44599510Y-47430828D01*
X44599510Y-47430828D02*
X45456653Y-48930828D01*
X45456653Y-48930828D02*
X45456653Y-47430828D01*
X46170939Y-48930828D02*
X46170939Y-47430828D01*
X46170939Y-47430828D02*
X46528082Y-47430828D01*
X46528082Y-47430828D02*
X46742368Y-47502257D01*
X46742368Y-47502257D02*
X46885225Y-47645114D01*
X46885225Y-47645114D02*
X46956654Y-47787971D01*
X46956654Y-47787971D02*
X47028082Y-48073685D01*
X47028082Y-48073685D02*
X47028082Y-48287971D01*
X47028082Y-48287971D02*
X46956654Y-48573685D01*
X46956654Y-48573685D02*
X46885225Y-48716542D01*
X46885225Y-48716542D02*
X46742368Y-48859400D01*
X46742368Y-48859400D02*
X46528082Y-48930828D01*
X46528082Y-48930828D02*
X46170939Y-48930828D01*
X42885225Y-45090828D02*
X43385225Y-46590828D01*
X43385225Y-46590828D02*
X43885225Y-45090828D01*
X45242367Y-46447971D02*
X45170939Y-46519400D01*
X45170939Y-46519400D02*
X44956653Y-46590828D01*
X44956653Y-46590828D02*
X44813796Y-46590828D01*
X44813796Y-46590828D02*
X44599510Y-46519400D01*
X44599510Y-46519400D02*
X44456653Y-46376542D01*
X44456653Y-46376542D02*
X44385224Y-46233685D01*
X44385224Y-46233685D02*
X44313796Y-45947971D01*
X44313796Y-45947971D02*
X44313796Y-45733685D01*
X44313796Y-45733685D02*
X44385224Y-45447971D01*
X44385224Y-45447971D02*
X44456653Y-45305114D01*
X44456653Y-45305114D02*
X44599510Y-45162257D01*
X44599510Y-45162257D02*
X44813796Y-45090828D01*
X44813796Y-45090828D02*
X44956653Y-45090828D01*
X44956653Y-45090828D02*
X45170939Y-45162257D01*
X45170939Y-45162257D02*
X45242367Y-45233685D01*
X46742367Y-46447971D02*
X46670939Y-46519400D01*
X46670939Y-46519400D02*
X46456653Y-46590828D01*
X46456653Y-46590828D02*
X46313796Y-46590828D01*
X46313796Y-46590828D02*
X46099510Y-46519400D01*
X46099510Y-46519400D02*
X45956653Y-46376542D01*
X45956653Y-46376542D02*
X45885224Y-46233685D01*
X45885224Y-46233685D02*
X45813796Y-45947971D01*
X45813796Y-45947971D02*
X45813796Y-45733685D01*
X45813796Y-45733685D02*
X45885224Y-45447971D01*
X45885224Y-45447971D02*
X45956653Y-45305114D01*
X45956653Y-45305114D02*
X46099510Y-45162257D01*
X46099510Y-45162257D02*
X46313796Y-45090828D01*
X46313796Y-45090828D02*
X46456653Y-45090828D01*
X46456653Y-45090828D02*
X46670939Y-45162257D01*
X46670939Y-45162257D02*
X46742367Y-45233685D01*
D12*
X49759819Y-87058333D02*
X49283628Y-87391666D01*
X49759819Y-87629761D02*
X48759819Y-87629761D01*
X48759819Y-87629761D02*
X48759819Y-87248809D01*
X48759819Y-87248809D02*
X48807438Y-87153571D01*
X48807438Y-87153571D02*
X48855057Y-87105952D01*
X48855057Y-87105952D02*
X48950295Y-87058333D01*
X48950295Y-87058333D02*
X49093152Y-87058333D01*
X49093152Y-87058333D02*
X49188390Y-87105952D01*
X49188390Y-87105952D02*
X49236009Y-87153571D01*
X49236009Y-87153571D02*
X49283628Y-87248809D01*
X49283628Y-87248809D02*
X49283628Y-87629761D01*
X49236009Y-86629761D02*
X49236009Y-86296428D01*
X49759819Y-86153571D02*
X49759819Y-86629761D01*
X49759819Y-86629761D02*
X48759819Y-86629761D01*
X48759819Y-86629761D02*
X48759819Y-86153571D01*
X49236009Y-85391666D02*
X49236009Y-85724999D01*
X49759819Y-85724999D02*
X48759819Y-85724999D01*
X48759819Y-85724999D02*
X48759819Y-85248809D01*
X48759819Y-84724999D02*
X48997914Y-84724999D01*
X48902676Y-84963094D02*
X48997914Y-84724999D01*
X48997914Y-84724999D02*
X48902676Y-84486904D01*
X49188390Y-84867856D02*
X48997914Y-84724999D01*
X48997914Y-84724999D02*
X49188390Y-84582142D01*
X48759819Y-83963094D02*
X48997914Y-83963094D01*
X48902676Y-84201189D02*
X48997914Y-83963094D01*
X48997914Y-83963094D02*
X48902676Y-83724999D01*
X49188390Y-84105951D02*
X48997914Y-83963094D01*
X48997914Y-83963094D02*
X49188390Y-83820237D01*
X43622451Y-80649819D02*
X43289118Y-80173628D01*
X43051023Y-80649819D02*
X43051023Y-79649819D01*
X43051023Y-79649819D02*
X43431975Y-79649819D01*
X43431975Y-79649819D02*
X43527213Y-79697438D01*
X43527213Y-79697438D02*
X43574832Y-79745057D01*
X43574832Y-79745057D02*
X43622451Y-79840295D01*
X43622451Y-79840295D02*
X43622451Y-79983152D01*
X43622451Y-79983152D02*
X43574832Y-80078390D01*
X43574832Y-80078390D02*
X43527213Y-80126009D01*
X43527213Y-80126009D02*
X43431975Y-80173628D01*
X43431975Y-80173628D02*
X43051023Y-80173628D01*
X44051023Y-80126009D02*
X44384356Y-80126009D01*
X44527213Y-80649819D02*
X44051023Y-80649819D01*
X44051023Y-80649819D02*
X44051023Y-79649819D01*
X44051023Y-79649819D02*
X44527213Y-79649819D01*
X45289118Y-80126009D02*
X44955785Y-80126009D01*
X44955785Y-80649819D02*
X44955785Y-79649819D01*
X44955785Y-79649819D02*
X45431975Y-79649819D01*
X45955785Y-79649819D02*
X45955785Y-79887914D01*
X45717690Y-79792676D02*
X45955785Y-79887914D01*
X45955785Y-79887914D02*
X46193880Y-79792676D01*
X45812928Y-80078390D02*
X45955785Y-79887914D01*
X45955785Y-79887914D02*
X46098642Y-80078390D01*
X46717690Y-79649819D02*
X46717690Y-79887914D01*
X46479595Y-79792676D02*
X46717690Y-79887914D01*
X46717690Y-79887914D02*
X46955785Y-79792676D01*
X46574833Y-80078390D02*
X46717690Y-79887914D01*
X46717690Y-79887914D02*
X46860547Y-80078390D01*
D15*
%TO.C,REF\u002A\u002A*%
X40565000Y-84395000D02*
X40565000Y-87055000D01*
X45705000Y-84395000D02*
X40565000Y-84395000D01*
X46975000Y-84395000D02*
X48305000Y-84395000D01*
X45705000Y-87055000D02*
X40565000Y-87055000D01*
X48305000Y-84395000D02*
X48305000Y-85725000D01*
X45705000Y-84395000D02*
X45705000Y-87055000D01*
X51355785Y-74525000D02*
G75*
G03*
X51355785Y-71525001I-6400000J1500000D01*
G01*
X51185785Y-73025000D02*
G75*
G03*
X51185785Y-73025000I-6230000J0D01*
G01*
%TD*%
M02*
