%TF.GenerationSoftware,KiCad,Pcbnew,7.0.6-0*%
%TF.CreationDate,2023-12-02T16:23:56+00:00*%
%TF.ProjectId,Bitko clock,4269746b-6f20-4636-9c6f-636b2e6b6963,rev?*%
%TF.SameCoordinates,Original*%
%TF.FileFunction,Copper,L2,Bot*%
%TF.FilePolarity,Positive*%
%FSLAX46Y46*%
G04 Gerber Fmt 4.6, Leading zero omitted, Abs format (unit mm)*
G04 Created by KiCad (PCBNEW 7.0.6-0) date 2023-12-02 16:23:56*
%MOMM*%
%LPD*%
G01*
G04 APERTURE LIST*
G04 Aperture macros list*
%AMRoundRect*
0 Rectangle with rounded corners*
0 $1 Rounding radius*
0 $2 $3 $4 $5 $6 $7 $8 $9 X,Y pos of 4 corners*
0 Add a 4 corners polygon primitive as box body*
4,1,4,$2,$3,$4,$5,$6,$7,$8,$9,$2,$3,0*
0 Add four circle primitives for the rounded corners*
1,1,$1+$1,$2,$3*
1,1,$1+$1,$4,$5*
1,1,$1+$1,$6,$7*
1,1,$1+$1,$8,$9*
0 Add four rect primitives between the rounded corners*
20,1,$1+$1,$2,$3,$4,$5,0*
20,1,$1+$1,$4,$5,$6,$7,0*
20,1,$1+$1,$6,$7,$8,$9,0*
20,1,$1+$1,$8,$9,$2,$3,0*%
G04 Aperture macros list end*
%TA.AperFunction,ComponentPad*%
%ADD10C,4.400000*%
%TD*%
%TA.AperFunction,ComponentPad*%
%ADD11O,1.700000X1.700000*%
%TD*%
%TA.AperFunction,ComponentPad*%
%ADD12C,1.700000*%
%TD*%
%TA.AperFunction,ComponentPad*%
%ADD13R,1.700000X1.700000*%
%TD*%
%TA.AperFunction,ComponentPad*%
%ADD14R,2.000000X2.000000*%
%TD*%
%TA.AperFunction,ComponentPad*%
%ADD15C,2.000000*%
%TD*%
%TA.AperFunction,ComponentPad*%
%ADD16O,1.950000X1.700000*%
%TD*%
%TA.AperFunction,ComponentPad*%
%ADD17RoundRect,0.250000X-0.725000X0.600000X-0.725000X-0.600000X0.725000X-0.600000X0.725000X0.600000X0*%
%TD*%
%TA.AperFunction,Conductor*%
%ADD18C,0.250000*%
%TD*%
%TA.AperFunction,Conductor*%
%ADD19C,0.000000*%
%TD*%
G04 APERTURE END LIST*
D10*
%TO.P,REF\u002A\u002A,1*%
%TO.N,N/C*%
X120015000Y-92710000D03*
%TD*%
%TO.P,REF\u002A\u002A,1*%
%TO.N,N/C*%
X27940000Y-92710000D03*
%TD*%
%TO.P,REF\u002A\u002A,1*%
%TO.N,N/C*%
X27940000Y-37465000D03*
%TD*%
D11*
%TO.P,REF\u002A\u002A,8*%
%TO.N,N/C*%
X81153000Y-67437000D03*
%TO.P,REF\u002A\u002A,7*%
X81153000Y-69977000D03*
%TO.P,REF\u002A\u002A,6*%
X81153000Y-72517000D03*
%TO.P,REF\u002A\u002A,5*%
X81153000Y-75057000D03*
%TO.P,REF\u002A\u002A,4*%
X81153000Y-77597000D03*
%TO.P,REF\u002A\u002A,3*%
X81153000Y-80137000D03*
%TO.P,REF\u002A\u002A,2*%
X81153000Y-82677000D03*
D12*
%TO.P,REF\u002A\u002A,1*%
X81153000Y-85217000D03*
%TD*%
D11*
%TO.P,REF\u002A\u002A,8*%
%TO.N,N/C*%
X66153000Y-67437000D03*
%TO.P,REF\u002A\u002A,7*%
X66153000Y-69977000D03*
%TO.P,REF\u002A\u002A,6*%
X66153000Y-72517000D03*
%TO.P,REF\u002A\u002A,5*%
X66153000Y-75057000D03*
%TO.P,REF\u002A\u002A,4*%
X66153000Y-77597000D03*
%TO.P,REF\u002A\u002A,3*%
X66153000Y-80137000D03*
%TO.P,REF\u002A\u002A,2*%
X66153000Y-82677000D03*
D12*
%TO.P,REF\u002A\u002A,1*%
X66153000Y-85217000D03*
%TD*%
D13*
%TO.P,REF\u002A\u002A,1*%
%TO.N,N/C*%
X46975000Y-85725000D03*
D11*
%TO.P,REF\u002A\u002A,2*%
X44435000Y-85725000D03*
%TO.P,REF\u002A\u002A,3*%
X41895000Y-85725000D03*
%TD*%
D14*
%TO.P,REF\u002A\u002A,1*%
%TO.N,N/C*%
X47455785Y-73025000D03*
D15*
%TO.P,REF\u002A\u002A,2*%
X42455785Y-73025000D03*
%TD*%
D10*
%TO.P,REF\u002A\u002A,1*%
%TO.N,N/C*%
X120015000Y-37465000D03*
%TD*%
D16*
%TO.P,JST_XH_B5B-XH-A_1x05,5*%
%TO.N,N/C*%
X40640000Y-55875000D03*
%TO.P,JST_XH_B5B-XH-A_1x05,4*%
X40640000Y-53375000D03*
%TO.P,JST_XH_B5B-XH-A_1x05,3*%
X40640000Y-50875000D03*
%TO.P,JST_XH_B5B-XH-A_1x05,2*%
X40640000Y-48375000D03*
D17*
%TO.P,JST_XH_B5B-XH-A_1x05,1*%
X40640000Y-45875000D03*
%TD*%
D18*
%TO.N,*%
X70485000Y-80885000D02*
X70485000Y-59055000D01*
X66153000Y-85217000D02*
X70485000Y-80885000D01*
X70485000Y-59055000D02*
X57305000Y-45875000D01*
X57305000Y-45875000D02*
X40640000Y-45875000D01*
X62230000Y-85725000D02*
X63105000Y-85725000D01*
X63105000Y-85725000D02*
X66153000Y-82677000D01*
X46975000Y-85725000D02*
X62230000Y-85725000D01*
X54610000Y-48260000D02*
X62230000Y-55880000D01*
X40640000Y-48375000D02*
X54495000Y-48375000D01*
X54495000Y-48375000D02*
X54610000Y-48260000D01*
X62230000Y-55880000D02*
X62230000Y-85725000D01*
X65645000Y-85725000D02*
X66153000Y-85217000D01*
X44435000Y-85725000D02*
X44435000Y-76045785D01*
X44435000Y-76045785D02*
X47455785Y-73025000D01*
D19*
X69850000Y-48260000D02*
X69735000Y-48375000D01*
%TD*%
%TA.AperFunction,NonConductor*%
G36*
X120665677Y-33674685D02*
G01*
X120686319Y-33691319D01*
X123788681Y-36793681D01*
X123822166Y-36855004D01*
X123825000Y-36881362D01*
X123825000Y-92665106D01*
X123805315Y-92732145D01*
X123796259Y-92744489D01*
X122491084Y-94310698D01*
X122433045Y-94349597D01*
X122363188Y-94350943D01*
X122303693Y-94314307D01*
X122273450Y-94251323D01*
X122282060Y-94181985D01*
X122289700Y-94167179D01*
X122410545Y-93967279D01*
X122544627Y-93669361D01*
X122641821Y-93357453D01*
X122700710Y-93036104D01*
X122720436Y-92710000D01*
X122700710Y-92383896D01*
X122641821Y-92062547D01*
X122544627Y-91750639D01*
X122410545Y-91452721D01*
X122241530Y-91173137D01*
X122241528Y-91173134D01*
X122241526Y-91173131D01*
X122040045Y-90915960D01*
X121809039Y-90684954D01*
X121551868Y-90483473D01*
X121544306Y-90478901D01*
X121272279Y-90314455D01*
X120974361Y-90180373D01*
X120974354Y-90180370D01*
X120974342Y-90180366D01*
X120662452Y-90083178D01*
X120341099Y-90024289D01*
X120015000Y-90004564D01*
X119688900Y-90024289D01*
X119367547Y-90083178D01*
X119055657Y-90180366D01*
X119055641Y-90180372D01*
X119055639Y-90180373D01*
X118865933Y-90265752D01*
X118757725Y-90314453D01*
X118757723Y-90314454D01*
X118478131Y-90483473D01*
X118220960Y-90684954D01*
X117989954Y-90915960D01*
X117788473Y-91173131D01*
X117619454Y-91452723D01*
X117619453Y-91452725D01*
X117485372Y-91750642D01*
X117485366Y-91750657D01*
X117388178Y-92062547D01*
X117329289Y-92383900D01*
X117309564Y-92710000D01*
X117329289Y-93036099D01*
X117388178Y-93357452D01*
X117485366Y-93669342D01*
X117485370Y-93669354D01*
X117485373Y-93669361D01*
X117619455Y-93967279D01*
X117668290Y-94048061D01*
X117788473Y-94246868D01*
X117989954Y-94504039D01*
X118220960Y-94735045D01*
X118478131Y-94936526D01*
X118478134Y-94936528D01*
X118478137Y-94936530D01*
X118757721Y-95105545D01*
X119055639Y-95239627D01*
X119055652Y-95239631D01*
X119055657Y-95239633D01*
X119310469Y-95319035D01*
X119367547Y-95336821D01*
X119688896Y-95395710D01*
X120015000Y-95415436D01*
X120341104Y-95395710D01*
X120662453Y-95336821D01*
X120974361Y-95239627D01*
X121272279Y-95105545D01*
X121551863Y-94936530D01*
X121809036Y-94735048D01*
X121846614Y-94697470D01*
X121907936Y-94663984D01*
X121977628Y-94668968D01*
X122033562Y-94710838D01*
X122057980Y-94776302D01*
X122043129Y-94844576D01*
X122029555Y-94864533D01*
X120687181Y-96475383D01*
X120629142Y-96514282D01*
X120591922Y-96520000D01*
X27991362Y-96520000D01*
X27924323Y-96500315D01*
X27903681Y-96483681D01*
X26870050Y-95450050D01*
X26836565Y-95388727D01*
X26841549Y-95319035D01*
X26883421Y-95263102D01*
X26948885Y-95238685D01*
X26994621Y-95243984D01*
X27292547Y-95336821D01*
X27613896Y-95395710D01*
X27940000Y-95415436D01*
X28266104Y-95395710D01*
X28587453Y-95336821D01*
X28899361Y-95239627D01*
X29197279Y-95105545D01*
X29476863Y-94936530D01*
X29734036Y-94735048D01*
X29965048Y-94504036D01*
X30166530Y-94246863D01*
X30335545Y-93967279D01*
X30469627Y-93669361D01*
X30566821Y-93357453D01*
X30625710Y-93036104D01*
X30645436Y-92710000D01*
X30625710Y-92383896D01*
X30566821Y-92062547D01*
X30469627Y-91750639D01*
X30335545Y-91452721D01*
X30166530Y-91173137D01*
X30166528Y-91173134D01*
X30166526Y-91173131D01*
X29965045Y-90915960D01*
X29734039Y-90684954D01*
X29476868Y-90483473D01*
X29469306Y-90478901D01*
X29197279Y-90314455D01*
X28899361Y-90180373D01*
X28899354Y-90180370D01*
X28899342Y-90180366D01*
X28587452Y-90083178D01*
X28266099Y-90024289D01*
X27940000Y-90004564D01*
X27613900Y-90024289D01*
X27292547Y-90083178D01*
X26980657Y-90180366D01*
X26980641Y-90180372D01*
X26980639Y-90180373D01*
X26790933Y-90265752D01*
X26682725Y-90314453D01*
X26682723Y-90314454D01*
X26403131Y-90483473D01*
X26145960Y-90684954D01*
X25914954Y-90915960D01*
X25713473Y-91173131D01*
X25544454Y-91452723D01*
X25544453Y-91452725D01*
X25410372Y-91750642D01*
X25410366Y-91750657D01*
X25313178Y-92062547D01*
X25254289Y-92383900D01*
X25234564Y-92710000D01*
X25254289Y-93036099D01*
X25313176Y-93357444D01*
X25406015Y-93655377D01*
X25407165Y-93725237D01*
X25370364Y-93784630D01*
X25307295Y-93814698D01*
X25237982Y-93805895D01*
X25199948Y-93779948D01*
X24166319Y-92746318D01*
X24132834Y-92684995D01*
X24130000Y-92658637D01*
X24130000Y-73025005D01*
X40950142Y-73025005D01*
X40970675Y-73272812D01*
X40970677Y-73272824D01*
X41031721Y-73513881D01*
X41131611Y-73741606D01*
X41267618Y-73949782D01*
X41267621Y-73949785D01*
X41436041Y-74132738D01*
X41632276Y-74285474D01*
X41850975Y-74403828D01*
X42086171Y-74484571D01*
X42331450Y-74525500D01*
X42580120Y-74525500D01*
X42825399Y-74484571D01*
X43060595Y-74403828D01*
X43279294Y-74285474D01*
X43475529Y-74132738D01*
X43643949Y-73949785D01*
X43779958Y-73741607D01*
X43879848Y-73513881D01*
X43940893Y-73272821D01*
X43961428Y-73025000D01*
X43957754Y-72980664D01*
X43940894Y-72777187D01*
X43940892Y-72777175D01*
X43879848Y-72536118D01*
X43779958Y-72308393D01*
X43643951Y-72100217D01*
X43600793Y-72053335D01*
X43475529Y-71917262D01*
X43279294Y-71764526D01*
X43279292Y-71764525D01*
X43279291Y-71764524D01*
X43060596Y-71646172D01*
X43060587Y-71646169D01*
X42825401Y-71565429D01*
X42580120Y-71524500D01*
X42331450Y-71524500D01*
X42086168Y-71565429D01*
X41850982Y-71646169D01*
X41850973Y-71646172D01*
X41632278Y-71764524D01*
X41436042Y-71917261D01*
X41267618Y-72100217D01*
X41131611Y-72308393D01*
X41031721Y-72536118D01*
X40970677Y-72777175D01*
X40970675Y-72777187D01*
X40950142Y-73024994D01*
X40950142Y-73025005D01*
X24130000Y-73025005D01*
X24130000Y-55875000D01*
X39159341Y-55875000D01*
X39179936Y-56110403D01*
X39179938Y-56110413D01*
X39241094Y-56338655D01*
X39241096Y-56338659D01*
X39241097Y-56338663D01*
X39291030Y-56445746D01*
X39340964Y-56552828D01*
X39340965Y-56552830D01*
X39476505Y-56746402D01*
X39643597Y-56913494D01*
X39837169Y-57049034D01*
X39837171Y-57049035D01*
X40051337Y-57148903D01*
X40279592Y-57210063D01*
X40456034Y-57225500D01*
X40823966Y-57225500D01*
X41000408Y-57210063D01*
X41228663Y-57148903D01*
X41442829Y-57049035D01*
X41636401Y-56913495D01*
X41803495Y-56746401D01*
X41939035Y-56552830D01*
X42038903Y-56338663D01*
X42100063Y-56110408D01*
X42120659Y-55875000D01*
X42100063Y-55639592D01*
X42040879Y-55418713D01*
X42038905Y-55411344D01*
X42038904Y-55411343D01*
X42038903Y-55411337D01*
X41939035Y-55197171D01*
X41939034Y-55197169D01*
X41803494Y-55003597D01*
X41636403Y-54836506D01*
X41580187Y-54797144D01*
X41479401Y-54726573D01*
X41435778Y-54671999D01*
X41428584Y-54602500D01*
X41460106Y-54540145D01*
X41479398Y-54523428D01*
X41636401Y-54413495D01*
X41803495Y-54246401D01*
X41939035Y-54052830D01*
X42038903Y-53838663D01*
X42100063Y-53610408D01*
X42120659Y-53375000D01*
X42100063Y-53139592D01*
X42038903Y-52911337D01*
X41939035Y-52697171D01*
X41939034Y-52697169D01*
X41803494Y-52503597D01*
X41636403Y-52336506D01*
X41580187Y-52297144D01*
X41479401Y-52226573D01*
X41435778Y-52171999D01*
X41428584Y-52102500D01*
X41460106Y-52040145D01*
X41479398Y-52023428D01*
X41636401Y-51913495D01*
X41803495Y-51746401D01*
X41939035Y-51552830D01*
X42038903Y-51338663D01*
X42100063Y-51110408D01*
X42120659Y-50875000D01*
X42100063Y-50639592D01*
X42038903Y-50411337D01*
X41939035Y-50197171D01*
X41939034Y-50197169D01*
X41803494Y-50003597D01*
X41636403Y-49836506D01*
X41580187Y-49797144D01*
X41479401Y-49726573D01*
X41435778Y-49671999D01*
X41428584Y-49602500D01*
X41460106Y-49540145D01*
X41479398Y-49523428D01*
X41636401Y-49413495D01*
X41803495Y-49246401D01*
X41938651Y-49053377D01*
X41993229Y-49009752D01*
X42040227Y-49000500D01*
X54412257Y-49000500D01*
X54439291Y-49003483D01*
X54442241Y-49004142D01*
X54502888Y-49037478D01*
X61568181Y-56102771D01*
X61601666Y-56164094D01*
X61604500Y-56190452D01*
X61604500Y-84975500D01*
X61584815Y-85042539D01*
X61532011Y-85088294D01*
X61480500Y-85099500D01*
X48449499Y-85099500D01*
X48382460Y-85079815D01*
X48336705Y-85027011D01*
X48325499Y-84975500D01*
X48325499Y-84827129D01*
X48325498Y-84827123D01*
X48322517Y-84799393D01*
X48319091Y-84767517D01*
X48317810Y-84764083D01*
X48268797Y-84632671D01*
X48268793Y-84632664D01*
X48182547Y-84517455D01*
X48182544Y-84517452D01*
X48067335Y-84431206D01*
X48067328Y-84431202D01*
X47932482Y-84380908D01*
X47932483Y-84380908D01*
X47872883Y-84374501D01*
X47872881Y-84374500D01*
X47872873Y-84374500D01*
X47872864Y-84374500D01*
X46077129Y-84374500D01*
X46077123Y-84374501D01*
X46017516Y-84380908D01*
X45882671Y-84431202D01*
X45882664Y-84431206D01*
X45767455Y-84517452D01*
X45767452Y-84517455D01*
X45681206Y-84632664D01*
X45681203Y-84632669D01*
X45632189Y-84764083D01*
X45590317Y-84820016D01*
X45524853Y-84844433D01*
X45456580Y-84829581D01*
X45428326Y-84808430D01*
X45306402Y-84686506D01*
X45306401Y-84686505D01*
X45113376Y-84551347D01*
X45069751Y-84496770D01*
X45060500Y-84449772D01*
X45060500Y-76356236D01*
X45080185Y-76289197D01*
X45096814Y-76268560D01*
X46803556Y-74561817D01*
X46864879Y-74528333D01*
X46891237Y-74525499D01*
X48503656Y-74525499D01*
X48503657Y-74525499D01*
X48563268Y-74519091D01*
X48698116Y-74468796D01*
X48813331Y-74382546D01*
X48899581Y-74267331D01*
X48949876Y-74132483D01*
X48956285Y-74072873D01*
X48956284Y-71977128D01*
X48949876Y-71917517D01*
X48899581Y-71782669D01*
X48899580Y-71782668D01*
X48899578Y-71782664D01*
X48813332Y-71667455D01*
X48813329Y-71667452D01*
X48698120Y-71581206D01*
X48698113Y-71581202D01*
X48563267Y-71530908D01*
X48563268Y-71530908D01*
X48503668Y-71524501D01*
X48503666Y-71524500D01*
X48503658Y-71524500D01*
X48503649Y-71524500D01*
X46407914Y-71524500D01*
X46407908Y-71524501D01*
X46348301Y-71530908D01*
X46213456Y-71581202D01*
X46213449Y-71581206D01*
X46098240Y-71667452D01*
X46098237Y-71667455D01*
X46011991Y-71782664D01*
X46011987Y-71782671D01*
X45961693Y-71917517D01*
X45955286Y-71977116D01*
X45955286Y-71977123D01*
X45955285Y-71977135D01*
X45955285Y-73589546D01*
X45935600Y-73656585D01*
X45918966Y-73677227D01*
X44051208Y-75544984D01*
X44038951Y-75554805D01*
X44039134Y-75555026D01*
X44033123Y-75559998D01*
X43985772Y-75610421D01*
X43964889Y-75631304D01*
X43964877Y-75631317D01*
X43960621Y-75636802D01*
X43956837Y-75641232D01*
X43924937Y-75675203D01*
X43924936Y-75675205D01*
X43915284Y-75692761D01*
X43904610Y-75709011D01*
X43892329Y-75724846D01*
X43892324Y-75724853D01*
X43873815Y-75767623D01*
X43871245Y-75772869D01*
X43848803Y-75813691D01*
X43843822Y-75833092D01*
X43837521Y-75851495D01*
X43829562Y-75869887D01*
X43829561Y-75869890D01*
X43822271Y-75915912D01*
X43821087Y-75921631D01*
X43809501Y-75966757D01*
X43809500Y-75966767D01*
X43809500Y-75986801D01*
X43807973Y-76006200D01*
X43804840Y-76025979D01*
X43804840Y-76025980D01*
X43809225Y-76072368D01*
X43809500Y-76078206D01*
X43809500Y-84449773D01*
X43789815Y-84516812D01*
X43756623Y-84551348D01*
X43563597Y-84686505D01*
X43396508Y-84853594D01*
X43266574Y-85039159D01*
X43211997Y-85082784D01*
X43142498Y-85089976D01*
X43080144Y-85058454D01*
X43063424Y-85039158D01*
X42933494Y-84853597D01*
X42766402Y-84686506D01*
X42766395Y-84686501D01*
X42572834Y-84550967D01*
X42572830Y-84550965D01*
X42520500Y-84526563D01*
X42358663Y-84451097D01*
X42358659Y-84451096D01*
X42358655Y-84451094D01*
X42130413Y-84389938D01*
X42130403Y-84389936D01*
X41895001Y-84369341D01*
X41894999Y-84369341D01*
X41659596Y-84389936D01*
X41659586Y-84389938D01*
X41431344Y-84451094D01*
X41431335Y-84451098D01*
X41217171Y-84550964D01*
X41217169Y-84550965D01*
X41023597Y-84686505D01*
X40856505Y-84853597D01*
X40720965Y-85047169D01*
X40720964Y-85047171D01*
X40621098Y-85261335D01*
X40621094Y-85261344D01*
X40559938Y-85489586D01*
X40559936Y-85489596D01*
X40539341Y-85724999D01*
X40539341Y-85725000D01*
X40559936Y-85960403D01*
X40559938Y-85960413D01*
X40621094Y-86188655D01*
X40621096Y-86188659D01*
X40621097Y-86188663D01*
X40715464Y-86391034D01*
X40720965Y-86402830D01*
X40720967Y-86402834D01*
X40825458Y-86552061D01*
X40856505Y-86596401D01*
X41023599Y-86763495D01*
X41120384Y-86831264D01*
X41217165Y-86899032D01*
X41217167Y-86899033D01*
X41217170Y-86899035D01*
X41431337Y-86998903D01*
X41659592Y-87060063D01*
X41836034Y-87075500D01*
X41894999Y-87080659D01*
X41895000Y-87080659D01*
X41895001Y-87080659D01*
X41953966Y-87075500D01*
X42130408Y-87060063D01*
X42358663Y-86998903D01*
X42572830Y-86899035D01*
X42766401Y-86763495D01*
X42933495Y-86596401D01*
X43063426Y-86410840D01*
X43118001Y-86367217D01*
X43187499Y-86360023D01*
X43249854Y-86391546D01*
X43266574Y-86410841D01*
X43396505Y-86596401D01*
X43563599Y-86763495D01*
X43660384Y-86831264D01*
X43757165Y-86899032D01*
X43757167Y-86899033D01*
X43757170Y-86899035D01*
X43971337Y-86998903D01*
X44199592Y-87060063D01*
X44376034Y-87075500D01*
X44434999Y-87080659D01*
X44435000Y-87080659D01*
X44435001Y-87080659D01*
X44493966Y-87075500D01*
X44670408Y-87060063D01*
X44898663Y-86998903D01*
X45112830Y-86899035D01*
X45306401Y-86763495D01*
X45428329Y-86641566D01*
X45489648Y-86608084D01*
X45559340Y-86613068D01*
X45615274Y-86654939D01*
X45632189Y-86685917D01*
X45681202Y-86817328D01*
X45681206Y-86817335D01*
X45767452Y-86932544D01*
X45767455Y-86932547D01*
X45882664Y-87018793D01*
X45882671Y-87018797D01*
X46017517Y-87069091D01*
X46017516Y-87069091D01*
X46024444Y-87069835D01*
X46077127Y-87075500D01*
X47872872Y-87075499D01*
X47932483Y-87069091D01*
X48067331Y-87018796D01*
X48182546Y-86932546D01*
X48268796Y-86817331D01*
X48319091Y-86682483D01*
X48325500Y-86622873D01*
X48325500Y-86474499D01*
X48345185Y-86407461D01*
X48397989Y-86361706D01*
X48449500Y-86350500D01*
X62150981Y-86350500D01*
X62159153Y-86350500D01*
X62182385Y-86352696D01*
X62183989Y-86353001D01*
X62190412Y-86354227D01*
X62247724Y-86350621D01*
X62251597Y-86350500D01*
X63022257Y-86350500D01*
X63037877Y-86352224D01*
X63037904Y-86351939D01*
X63045660Y-86352671D01*
X63045667Y-86352673D01*
X63114814Y-86350500D01*
X63144350Y-86350500D01*
X63151228Y-86349630D01*
X63157041Y-86349172D01*
X63203627Y-86347709D01*
X63222869Y-86342117D01*
X63241912Y-86338174D01*
X63261792Y-86335664D01*
X63305122Y-86318507D01*
X63310646Y-86316617D01*
X63314396Y-86315527D01*
X63355390Y-86303618D01*
X63372629Y-86293422D01*
X63390103Y-86284862D01*
X63408727Y-86277488D01*
X63408727Y-86277487D01*
X63408732Y-86277486D01*
X63446449Y-86250082D01*
X63451305Y-86246892D01*
X63491420Y-86223170D01*
X63505589Y-86208999D01*
X63520379Y-86196368D01*
X63536587Y-86184594D01*
X63566299Y-86148676D01*
X63570212Y-86144376D01*
X64585661Y-85128928D01*
X64646983Y-85095444D01*
X64716675Y-85100428D01*
X64772608Y-85142300D01*
X64797025Y-85207764D01*
X64797341Y-85216610D01*
X64797341Y-85217000D01*
X64817936Y-85452403D01*
X64817938Y-85452413D01*
X64879094Y-85680655D01*
X64879096Y-85680659D01*
X64879097Y-85680663D01*
X64899772Y-85725000D01*
X64978965Y-85894830D01*
X64978967Y-85894834D01*
X65087281Y-86049521D01*
X65114505Y-86088401D01*
X65281599Y-86255495D01*
X65328668Y-86288453D01*
X65475165Y-86391032D01*
X65475167Y-86391033D01*
X65475170Y-86391035D01*
X65689337Y-86490903D01*
X65917592Y-86552063D01*
X66105918Y-86568539D01*
X66152999Y-86572659D01*
X66153000Y-86572659D01*
X66153001Y-86572659D01*
X66192234Y-86569226D01*
X66388408Y-86552063D01*
X66616663Y-86490903D01*
X66830830Y-86391035D01*
X67024401Y-86255495D01*
X67191495Y-86088401D01*
X67327035Y-85894830D01*
X67426903Y-85680663D01*
X67488063Y-85452408D01*
X67508659Y-85217000D01*
X79797341Y-85217000D01*
X79817936Y-85452403D01*
X79817938Y-85452413D01*
X79879094Y-85680655D01*
X79879096Y-85680659D01*
X79879097Y-85680663D01*
X79899772Y-85725000D01*
X79978965Y-85894830D01*
X79978967Y-85894834D01*
X80087281Y-86049521D01*
X80114505Y-86088401D01*
X80281599Y-86255495D01*
X80328668Y-86288453D01*
X80475165Y-86391032D01*
X80475167Y-86391033D01*
X80475170Y-86391035D01*
X80689337Y-86490903D01*
X80917592Y-86552063D01*
X81105918Y-86568539D01*
X81152999Y-86572659D01*
X81153000Y-86572659D01*
X81153001Y-86572659D01*
X81192234Y-86569226D01*
X81388408Y-86552063D01*
X81616663Y-86490903D01*
X81830830Y-86391035D01*
X82024401Y-86255495D01*
X82191495Y-86088401D01*
X82327035Y-85894830D01*
X82426903Y-85680663D01*
X82488063Y-85452408D01*
X82508659Y-85217000D01*
X82488063Y-84981592D01*
X82436873Y-84790547D01*
X82426905Y-84753344D01*
X82426904Y-84753343D01*
X82426903Y-84753337D01*
X82327035Y-84539171D01*
X82311830Y-84517455D01*
X82191494Y-84345597D01*
X82024402Y-84178506D01*
X82024396Y-84178501D01*
X81838842Y-84048575D01*
X81795217Y-83993998D01*
X81788023Y-83924500D01*
X81819546Y-83862145D01*
X81838842Y-83845425D01*
X81861026Y-83829891D01*
X82024401Y-83715495D01*
X82191495Y-83548401D01*
X82327035Y-83354830D01*
X82426903Y-83140663D01*
X82488063Y-82912408D01*
X82508659Y-82677000D01*
X82488063Y-82441592D01*
X82426903Y-82213337D01*
X82327035Y-81999171D01*
X82191495Y-81805599D01*
X82191494Y-81805597D01*
X82024402Y-81638506D01*
X82024396Y-81638501D01*
X81838842Y-81508575D01*
X81795217Y-81453998D01*
X81788023Y-81384500D01*
X81819546Y-81322145D01*
X81838842Y-81305425D01*
X81861517Y-81289548D01*
X82024401Y-81175495D01*
X82191495Y-81008401D01*
X82327035Y-80814830D01*
X82426903Y-80600663D01*
X82488063Y-80372408D01*
X82508659Y-80137000D01*
X82488063Y-79901592D01*
X82426903Y-79673337D01*
X82327035Y-79459171D01*
X82191495Y-79265599D01*
X82191494Y-79265597D01*
X82024402Y-79098506D01*
X82024396Y-79098501D01*
X81838842Y-78968575D01*
X81795217Y-78913998D01*
X81788023Y-78844500D01*
X81819546Y-78782145D01*
X81838842Y-78765425D01*
X81861026Y-78749891D01*
X82024401Y-78635495D01*
X82191495Y-78468401D01*
X82327035Y-78274830D01*
X82426903Y-78060663D01*
X82488063Y-77832408D01*
X82508659Y-77597000D01*
X82488063Y-77361592D01*
X82426903Y-77133337D01*
X82327035Y-76919171D01*
X82191495Y-76725599D01*
X82191494Y-76725597D01*
X82024402Y-76558506D01*
X82024396Y-76558501D01*
X81838842Y-76428575D01*
X81795217Y-76373998D01*
X81788023Y-76304500D01*
X81819546Y-76242145D01*
X81838842Y-76225425D01*
X81861026Y-76209891D01*
X82024401Y-76095495D01*
X82191495Y-75928401D01*
X82327035Y-75734830D01*
X82426903Y-75520663D01*
X82488063Y-75292408D01*
X82508659Y-75057000D01*
X82488063Y-74821592D01*
X82426903Y-74593337D01*
X82327035Y-74379171D01*
X82248725Y-74267331D01*
X82191494Y-74185597D01*
X82024402Y-74018506D01*
X82024396Y-74018501D01*
X81838842Y-73888575D01*
X81795217Y-73833998D01*
X81788023Y-73764500D01*
X81819546Y-73702145D01*
X81838842Y-73685425D01*
X81975771Y-73589546D01*
X82024401Y-73555495D01*
X82191495Y-73388401D01*
X82327035Y-73194830D01*
X82426903Y-72980663D01*
X82488063Y-72752408D01*
X82508659Y-72517000D01*
X82488063Y-72281592D01*
X82426903Y-72053337D01*
X82327035Y-71839171D01*
X82287474Y-71782671D01*
X82191494Y-71645597D01*
X82024402Y-71478506D01*
X82024396Y-71478501D01*
X81838842Y-71348575D01*
X81795217Y-71293998D01*
X81788023Y-71224500D01*
X81819546Y-71162145D01*
X81838842Y-71145425D01*
X81861026Y-71129891D01*
X82024401Y-71015495D01*
X82191495Y-70848401D01*
X82327035Y-70654830D01*
X82426903Y-70440663D01*
X82488063Y-70212408D01*
X82508659Y-69977000D01*
X82488063Y-69741592D01*
X82426903Y-69513337D01*
X82327035Y-69299171D01*
X82191495Y-69105599D01*
X82191494Y-69105597D01*
X82024402Y-68938506D01*
X82024396Y-68938501D01*
X81838842Y-68808575D01*
X81795217Y-68753998D01*
X81788023Y-68684500D01*
X81819546Y-68622145D01*
X81838842Y-68605425D01*
X81861026Y-68589891D01*
X82024401Y-68475495D01*
X82191495Y-68308401D01*
X82327035Y-68114830D01*
X82426903Y-67900663D01*
X82488063Y-67672408D01*
X82508659Y-67437000D01*
X82488063Y-67201592D01*
X82426903Y-66973337D01*
X82327035Y-66759171D01*
X82191495Y-66565599D01*
X82191494Y-66565597D01*
X82024402Y-66398506D01*
X82024395Y-66398501D01*
X81830834Y-66262967D01*
X81830830Y-66262965D01*
X81830828Y-66262964D01*
X81616663Y-66163097D01*
X81616659Y-66163096D01*
X81616655Y-66163094D01*
X81388413Y-66101938D01*
X81388403Y-66101936D01*
X81153001Y-66081341D01*
X81152999Y-66081341D01*
X80917596Y-66101936D01*
X80917586Y-66101938D01*
X80689344Y-66163094D01*
X80689335Y-66163098D01*
X80475171Y-66262964D01*
X80475169Y-66262965D01*
X80281597Y-66398505D01*
X80114505Y-66565597D01*
X79978965Y-66759169D01*
X79978964Y-66759171D01*
X79879098Y-66973335D01*
X79879094Y-66973344D01*
X79817938Y-67201586D01*
X79817936Y-67201596D01*
X79797341Y-67436999D01*
X79797341Y-67437000D01*
X79817936Y-67672403D01*
X79817938Y-67672413D01*
X79879094Y-67900655D01*
X79879096Y-67900659D01*
X79879097Y-67900663D01*
X79978964Y-68114829D01*
X79978965Y-68114830D01*
X79978967Y-68114834D01*
X80114501Y-68308395D01*
X80114506Y-68308402D01*
X80281597Y-68475493D01*
X80281603Y-68475498D01*
X80467158Y-68605425D01*
X80510783Y-68660002D01*
X80517977Y-68729500D01*
X80486454Y-68791855D01*
X80467158Y-68808575D01*
X80281597Y-68938505D01*
X80114505Y-69105597D01*
X79978965Y-69299169D01*
X79978964Y-69299171D01*
X79879098Y-69513335D01*
X79879094Y-69513344D01*
X79817938Y-69741586D01*
X79817936Y-69741596D01*
X79797341Y-69976999D01*
X79797341Y-69977000D01*
X79817936Y-70212403D01*
X79817938Y-70212413D01*
X79879094Y-70440655D01*
X79879096Y-70440659D01*
X79879097Y-70440663D01*
X79978964Y-70654830D01*
X79978965Y-70654830D01*
X79978967Y-70654834D01*
X80114501Y-70848395D01*
X80114506Y-70848402D01*
X80281597Y-71015493D01*
X80281603Y-71015498D01*
X80467158Y-71145425D01*
X80510783Y-71200002D01*
X80517977Y-71269500D01*
X80486454Y-71331855D01*
X80467158Y-71348575D01*
X80281597Y-71478505D01*
X80114505Y-71645597D01*
X79978965Y-71839169D01*
X79978964Y-71839171D01*
X79879098Y-72053335D01*
X79879094Y-72053344D01*
X79817938Y-72281586D01*
X79817936Y-72281596D01*
X79797341Y-72516999D01*
X79797341Y-72517000D01*
X79817936Y-72752403D01*
X79817938Y-72752413D01*
X79879094Y-72980655D01*
X79879096Y-72980659D01*
X79879097Y-72980663D01*
X79899769Y-73024994D01*
X79978965Y-73194830D01*
X79978967Y-73194834D01*
X80114501Y-73388395D01*
X80114506Y-73388402D01*
X80281597Y-73555493D01*
X80281603Y-73555498D01*
X80467158Y-73685425D01*
X80510783Y-73740002D01*
X80517977Y-73809500D01*
X80486454Y-73871855D01*
X80467158Y-73888575D01*
X80281597Y-74018505D01*
X80114505Y-74185597D01*
X79978965Y-74379169D01*
X79978964Y-74379171D01*
X79879098Y-74593335D01*
X79879094Y-74593344D01*
X79817938Y-74821586D01*
X79817936Y-74821596D01*
X79797341Y-75056999D01*
X79797341Y-75057000D01*
X79817936Y-75292403D01*
X79817938Y-75292413D01*
X79879094Y-75520655D01*
X79879096Y-75520659D01*
X79879097Y-75520663D01*
X79951161Y-75675205D01*
X79978965Y-75734830D01*
X79978967Y-75734834D01*
X80047769Y-75833092D01*
X80107784Y-75918803D01*
X80114501Y-75928395D01*
X80114506Y-75928402D01*
X80281597Y-76095493D01*
X80281603Y-76095498D01*
X80467158Y-76225425D01*
X80510783Y-76280002D01*
X80517977Y-76349500D01*
X80486454Y-76411855D01*
X80467158Y-76428575D01*
X80281597Y-76558505D01*
X80114505Y-76725597D01*
X79978965Y-76919169D01*
X79978964Y-76919171D01*
X79879098Y-77133335D01*
X79879094Y-77133344D01*
X79817938Y-77361586D01*
X79817936Y-77361596D01*
X79797341Y-77596999D01*
X79797341Y-77597000D01*
X79817936Y-77832403D01*
X79817938Y-77832413D01*
X79879094Y-78060655D01*
X79879096Y-78060659D01*
X79879097Y-78060663D01*
X79978964Y-78274830D01*
X79978965Y-78274830D01*
X79978967Y-78274834D01*
X80114501Y-78468395D01*
X80114506Y-78468402D01*
X80281597Y-78635493D01*
X80281603Y-78635498D01*
X80467158Y-78765425D01*
X80510783Y-78820002D01*
X80517977Y-78889500D01*
X80486454Y-78951855D01*
X80467158Y-78968575D01*
X80281597Y-79098505D01*
X80114505Y-79265597D01*
X79978965Y-79459169D01*
X79978964Y-79459171D01*
X79879098Y-79673335D01*
X79879094Y-79673344D01*
X79817938Y-79901586D01*
X79817936Y-79901596D01*
X79797341Y-80136999D01*
X79797341Y-80137000D01*
X79817936Y-80372403D01*
X79817938Y-80372413D01*
X79879094Y-80600655D01*
X79879096Y-80600659D01*
X79879097Y-80600663D01*
X79907805Y-80662227D01*
X79978965Y-80814830D01*
X79978967Y-80814834D01*
X80114501Y-81008395D01*
X80114506Y-81008402D01*
X80281597Y-81175493D01*
X80281603Y-81175498D01*
X80467158Y-81305425D01*
X80510783Y-81360002D01*
X80517977Y-81429500D01*
X80486454Y-81491855D01*
X80467158Y-81508575D01*
X80281597Y-81638505D01*
X80114505Y-81805597D01*
X79978965Y-81999169D01*
X79978964Y-81999171D01*
X79879098Y-82213335D01*
X79879094Y-82213344D01*
X79817938Y-82441586D01*
X79817936Y-82441596D01*
X79797341Y-82676999D01*
X79797341Y-82677000D01*
X79817936Y-82912403D01*
X79817938Y-82912413D01*
X79879094Y-83140655D01*
X79879096Y-83140659D01*
X79879097Y-83140663D01*
X79978964Y-83354830D01*
X79978965Y-83354830D01*
X79978967Y-83354834D01*
X80114501Y-83548395D01*
X80114506Y-83548402D01*
X80281597Y-83715493D01*
X80281603Y-83715498D01*
X80467158Y-83845425D01*
X80510783Y-83900002D01*
X80517977Y-83969500D01*
X80486454Y-84031855D01*
X80467158Y-84048575D01*
X80281597Y-84178505D01*
X80114505Y-84345597D01*
X79978965Y-84539169D01*
X79978964Y-84539171D01*
X79879098Y-84753335D01*
X79879094Y-84753344D01*
X79817938Y-84981586D01*
X79817936Y-84981596D01*
X79797341Y-85216999D01*
X79797341Y-85217000D01*
X67508659Y-85217000D01*
X67488063Y-84981592D01*
X67461142Y-84881125D01*
X67462806Y-84811276D01*
X67493235Y-84761353D01*
X70868788Y-81385801D01*
X70881042Y-81375986D01*
X70880859Y-81375764D01*
X70886866Y-81370792D01*
X70886877Y-81370786D01*
X70932554Y-81322145D01*
X70934227Y-81320364D01*
X70944671Y-81309918D01*
X70955120Y-81299471D01*
X70959379Y-81293978D01*
X70963152Y-81289561D01*
X70995062Y-81255582D01*
X71004713Y-81238024D01*
X71015396Y-81221761D01*
X71027673Y-81205936D01*
X71046185Y-81163153D01*
X71048738Y-81157941D01*
X71071197Y-81117092D01*
X71076180Y-81097680D01*
X71082481Y-81079280D01*
X71090437Y-81060896D01*
X71097729Y-81014852D01*
X71098906Y-81009171D01*
X71110500Y-80964019D01*
X71110500Y-80943982D01*
X71112027Y-80924582D01*
X71115160Y-80904804D01*
X71110775Y-80858415D01*
X71110500Y-80852577D01*
X71110500Y-59137742D01*
X71112224Y-59122122D01*
X71111939Y-59122095D01*
X71112673Y-59114333D01*
X71110500Y-59045172D01*
X71110500Y-59015656D01*
X71110500Y-59015650D01*
X71109631Y-59008779D01*
X71109173Y-59002952D01*
X71107710Y-58956373D01*
X71102119Y-58937130D01*
X71098173Y-58918078D01*
X71095664Y-58898208D01*
X71078504Y-58854867D01*
X71076624Y-58849379D01*
X71063618Y-58804610D01*
X71053422Y-58787370D01*
X71044861Y-58769894D01*
X71037487Y-58751270D01*
X71037486Y-58751268D01*
X71010079Y-58713545D01*
X71006888Y-58708686D01*
X70983172Y-58668583D01*
X70983165Y-58668574D01*
X70969006Y-58654415D01*
X70956368Y-58639619D01*
X70944594Y-58623413D01*
X70908688Y-58593709D01*
X70904376Y-58589786D01*
X60725664Y-48411073D01*
X69230641Y-48411073D01*
X69261233Y-48551702D01*
X69261234Y-48551706D01*
X69330205Y-48678018D01*
X69330211Y-48678025D01*
X69431974Y-48779788D01*
X69431981Y-48779794D01*
X69503410Y-48818797D01*
X69558294Y-48848766D01*
X69698927Y-48879359D01*
X69842483Y-48869091D01*
X69977331Y-48818796D01*
X70063593Y-48754221D01*
X70229221Y-48588593D01*
X70293796Y-48502331D01*
X70344091Y-48367483D01*
X70354359Y-48223927D01*
X70323766Y-48083294D01*
X70299107Y-48038135D01*
X70254794Y-47956981D01*
X70254788Y-47956974D01*
X70153025Y-47855211D01*
X70153018Y-47855205D01*
X70026706Y-47786234D01*
X70026702Y-47786233D01*
X69886074Y-47755641D01*
X69886069Y-47755641D01*
X69771228Y-47763855D01*
X69742517Y-47765909D01*
X69742515Y-47765909D01*
X69742513Y-47765910D01*
X69607671Y-47816202D01*
X69607668Y-47816204D01*
X69521408Y-47880778D01*
X69521396Y-47880788D01*
X69355788Y-48046396D01*
X69355778Y-48046408D01*
X69291204Y-48132668D01*
X69291202Y-48132671D01*
X69240910Y-48267513D01*
X69240909Y-48267518D01*
X69230641Y-48411069D01*
X69230641Y-48411073D01*
X60725664Y-48411073D01*
X57805803Y-45491212D01*
X57795980Y-45478950D01*
X57795759Y-45479134D01*
X57790786Y-45473123D01*
X57740364Y-45425773D01*
X57729919Y-45415328D01*
X57719475Y-45404883D01*
X57713986Y-45400625D01*
X57709561Y-45396847D01*
X57675582Y-45364938D01*
X57675580Y-45364936D01*
X57675577Y-45364935D01*
X57658029Y-45355288D01*
X57641763Y-45344604D01*
X57625933Y-45332325D01*
X57583168Y-45313818D01*
X57577922Y-45311248D01*
X57537093Y-45288803D01*
X57537092Y-45288802D01*
X57517693Y-45283822D01*
X57499281Y-45277518D01*
X57480898Y-45269562D01*
X57480892Y-45269560D01*
X57434874Y-45262272D01*
X57429152Y-45261087D01*
X57384021Y-45249500D01*
X57384019Y-45249500D01*
X57363984Y-45249500D01*
X57344586Y-45247973D01*
X57337162Y-45246797D01*
X57324805Y-45244840D01*
X57324804Y-45244840D01*
X57278416Y-45249225D01*
X57272578Y-45249500D01*
X42229981Y-45249500D01*
X42162942Y-45229815D01*
X42117187Y-45177011D01*
X42106623Y-45138101D01*
X42104999Y-45122203D01*
X42104998Y-45122200D01*
X42049814Y-44955666D01*
X41957712Y-44806344D01*
X41833656Y-44682288D01*
X41684334Y-44590186D01*
X41517797Y-44535001D01*
X41517795Y-44535000D01*
X41415010Y-44524500D01*
X39864998Y-44524500D01*
X39864981Y-44524501D01*
X39762203Y-44535000D01*
X39762200Y-44535001D01*
X39595668Y-44590185D01*
X39595663Y-44590187D01*
X39446342Y-44682289D01*
X39322289Y-44806342D01*
X39230187Y-44955663D01*
X39230185Y-44955666D01*
X39230186Y-44955666D01*
X39175001Y-45122203D01*
X39175001Y-45122204D01*
X39175000Y-45122204D01*
X39164500Y-45224983D01*
X39164500Y-46525001D01*
X39164501Y-46525018D01*
X39175000Y-46627796D01*
X39175001Y-46627799D01*
X39230185Y-46794331D01*
X39230187Y-46794336D01*
X39322289Y-46943657D01*
X39446344Y-47067712D01*
X39601120Y-47163178D01*
X39647845Y-47215126D01*
X39659068Y-47284088D01*
X39631224Y-47348171D01*
X39623706Y-47356398D01*
X39476501Y-47503603D01*
X39476501Y-47503604D01*
X39340967Y-47697165D01*
X39340965Y-47697169D01*
X39241098Y-47911335D01*
X39241094Y-47911344D01*
X39179938Y-48139586D01*
X39179936Y-48139596D01*
X39159341Y-48374999D01*
X39159341Y-48375000D01*
X39179936Y-48610403D01*
X39179938Y-48610413D01*
X39241094Y-48838655D01*
X39241096Y-48838659D01*
X39241097Y-48838663D01*
X39255286Y-48869091D01*
X39340964Y-49052828D01*
X39340965Y-49052830D01*
X39476505Y-49246402D01*
X39643597Y-49413494D01*
X39800595Y-49523425D01*
X39844220Y-49578002D01*
X39851414Y-49647500D01*
X39819891Y-49709855D01*
X39800595Y-49726575D01*
X39643597Y-49836505D01*
X39476506Y-50003597D01*
X39476501Y-50003604D01*
X39340967Y-50197165D01*
X39340965Y-50197169D01*
X39241098Y-50411335D01*
X39241094Y-50411344D01*
X39179938Y-50639586D01*
X39179936Y-50639596D01*
X39159341Y-50874999D01*
X39159341Y-50875000D01*
X39179936Y-51110403D01*
X39179938Y-51110413D01*
X39241094Y-51338655D01*
X39241096Y-51338659D01*
X39241097Y-51338663D01*
X39291030Y-51445746D01*
X39340964Y-51552828D01*
X39340965Y-51552830D01*
X39476505Y-51746402D01*
X39643597Y-51913494D01*
X39800595Y-52023425D01*
X39844220Y-52078002D01*
X39851414Y-52147500D01*
X39819891Y-52209855D01*
X39800595Y-52226575D01*
X39643597Y-52336505D01*
X39476506Y-52503597D01*
X39476501Y-52503604D01*
X39340967Y-52697165D01*
X39340965Y-52697169D01*
X39241098Y-52911335D01*
X39241094Y-52911344D01*
X39179938Y-53139586D01*
X39179936Y-53139596D01*
X39159341Y-53374999D01*
X39159341Y-53375000D01*
X39179936Y-53610403D01*
X39179938Y-53610413D01*
X39241094Y-53838655D01*
X39241096Y-53838659D01*
X39241097Y-53838663D01*
X39291030Y-53945746D01*
X39340964Y-54052828D01*
X39340965Y-54052830D01*
X39476505Y-54246402D01*
X39643597Y-54413494D01*
X39800595Y-54523425D01*
X39844220Y-54578002D01*
X39851414Y-54647500D01*
X39819891Y-54709855D01*
X39800595Y-54726575D01*
X39643597Y-54836505D01*
X39476506Y-55003597D01*
X39476501Y-55003604D01*
X39340967Y-55197165D01*
X39340965Y-55197169D01*
X39241098Y-55411335D01*
X39241094Y-55411344D01*
X39179938Y-55639586D01*
X39179936Y-55639596D01*
X39159341Y-55874999D01*
X39159341Y-55875000D01*
X24130000Y-55875000D01*
X24130000Y-37465000D01*
X25234564Y-37465000D01*
X25254289Y-37791099D01*
X25313178Y-38112452D01*
X25410366Y-38424342D01*
X25410370Y-38424354D01*
X25410373Y-38424361D01*
X25544455Y-38722279D01*
X25708901Y-38994306D01*
X25713473Y-39001868D01*
X25914954Y-39259039D01*
X26145960Y-39490045D01*
X26403131Y-39691526D01*
X26403134Y-39691528D01*
X26403137Y-39691530D01*
X26682721Y-39860545D01*
X26980639Y-39994627D01*
X26980652Y-39994631D01*
X26980657Y-39994633D01*
X27292547Y-40091820D01*
X27292547Y-40091821D01*
X27613896Y-40150710D01*
X27940000Y-40170436D01*
X28266104Y-40150710D01*
X28587453Y-40091821D01*
X28899361Y-39994627D01*
X29197279Y-39860545D01*
X29476863Y-39691530D01*
X29734036Y-39490048D01*
X29965048Y-39259036D01*
X30166530Y-39001863D01*
X30335545Y-38722279D01*
X30469627Y-38424361D01*
X30566821Y-38112453D01*
X30625710Y-37791104D01*
X30645436Y-37465000D01*
X30645436Y-37464999D01*
X117309564Y-37464999D01*
X117329289Y-37791099D01*
X117388178Y-38112452D01*
X117485366Y-38424342D01*
X117485370Y-38424354D01*
X117485373Y-38424361D01*
X117619455Y-38722279D01*
X117783901Y-38994306D01*
X117788473Y-39001868D01*
X117989954Y-39259039D01*
X118220960Y-39490045D01*
X118478131Y-39691526D01*
X118478134Y-39691528D01*
X118478137Y-39691530D01*
X118757721Y-39860545D01*
X119055639Y-39994627D01*
X119055652Y-39994631D01*
X119055657Y-39994633D01*
X119367547Y-40091820D01*
X119367547Y-40091821D01*
X119688896Y-40150710D01*
X120015000Y-40170436D01*
X120341104Y-40150710D01*
X120662453Y-40091821D01*
X120974361Y-39994627D01*
X121272279Y-39860545D01*
X121551863Y-39691530D01*
X121809036Y-39490048D01*
X122040048Y-39259036D01*
X122241530Y-39001863D01*
X122410545Y-38722279D01*
X122544627Y-38424361D01*
X122641821Y-38112453D01*
X122700710Y-37791104D01*
X122720436Y-37465000D01*
X122700710Y-37138896D01*
X122641821Y-36817547D01*
X122544627Y-36505639D01*
X122410545Y-36207721D01*
X122241530Y-35928137D01*
X122241528Y-35928134D01*
X122241526Y-35928131D01*
X122040045Y-35670960D01*
X121809039Y-35439954D01*
X121551868Y-35238473D01*
X121544306Y-35233901D01*
X121272279Y-35069455D01*
X120974361Y-34935373D01*
X120974354Y-34935370D01*
X120974342Y-34935366D01*
X120662452Y-34838178D01*
X120341099Y-34779289D01*
X120015000Y-34759564D01*
X119688900Y-34779289D01*
X119367547Y-34838178D01*
X119055657Y-34935366D01*
X119055641Y-34935372D01*
X119055639Y-34935373D01*
X118865933Y-35020752D01*
X118757725Y-35069453D01*
X118757723Y-35069454D01*
X118478131Y-35238473D01*
X118220960Y-35439954D01*
X117989954Y-35670960D01*
X117788473Y-35928131D01*
X117668290Y-36126939D01*
X117619455Y-36207721D01*
X117487056Y-36501901D01*
X117485372Y-36505642D01*
X117485366Y-36505657D01*
X117388178Y-36817547D01*
X117329289Y-37138900D01*
X117309564Y-37464999D01*
X30645436Y-37464999D01*
X30625710Y-37138896D01*
X30566821Y-36817547D01*
X30469627Y-36505639D01*
X30335545Y-36207721D01*
X30166530Y-35928137D01*
X30166528Y-35928134D01*
X30166526Y-35928131D01*
X29965045Y-35670960D01*
X29734039Y-35439954D01*
X29476868Y-35238473D01*
X29469306Y-35233901D01*
X29197279Y-35069455D01*
X28899361Y-34935373D01*
X28899354Y-34935370D01*
X28899342Y-34935366D01*
X28587452Y-34838178D01*
X28266099Y-34779289D01*
X27940000Y-34759564D01*
X27613900Y-34779289D01*
X27292547Y-34838178D01*
X26980657Y-34935366D01*
X26980641Y-34935372D01*
X26980639Y-34935373D01*
X26790933Y-35020752D01*
X26682725Y-35069453D01*
X26682723Y-35069454D01*
X26403131Y-35238473D01*
X26145960Y-35439954D01*
X25914954Y-35670960D01*
X25713473Y-35928131D01*
X25593290Y-36126939D01*
X25544455Y-36207721D01*
X25412056Y-36501901D01*
X25410372Y-36505642D01*
X25410366Y-36505657D01*
X25313178Y-36817547D01*
X25254289Y-37138900D01*
X25234564Y-37465000D01*
X24130000Y-37465000D01*
X24130000Y-36881362D01*
X24149685Y-36814323D01*
X24166319Y-36793681D01*
X27268681Y-33691319D01*
X27330004Y-33657834D01*
X27356362Y-33655000D01*
X120598638Y-33655000D01*
X120665677Y-33674685D01*
G37*
%TD.AperFunction*%
%TA.AperFunction,NonConductor*%
G36*
X57061587Y-46520185D02*
G01*
X57082229Y-46536819D01*
X69823181Y-59277771D01*
X69856666Y-59339094D01*
X69859500Y-59365452D01*
X69859500Y-80574546D01*
X69839815Y-80641585D01*
X69823181Y-80662227D01*
X67720340Y-82765068D01*
X67659017Y-82798553D01*
X67589325Y-82793569D01*
X67533392Y-82751697D01*
X67508975Y-82686233D01*
X67508659Y-82677387D01*
X67508659Y-82676999D01*
X67488063Y-82441596D01*
X67488063Y-82441592D01*
X67426903Y-82213337D01*
X67327035Y-81999171D01*
X67191495Y-81805599D01*
X67191494Y-81805597D01*
X67024402Y-81638506D01*
X67024396Y-81638501D01*
X66838842Y-81508575D01*
X66795217Y-81453998D01*
X66788023Y-81384500D01*
X66819546Y-81322145D01*
X66838842Y-81305425D01*
X66861517Y-81289548D01*
X67024401Y-81175495D01*
X67191495Y-81008401D01*
X67327035Y-80814830D01*
X67426903Y-80600663D01*
X67488063Y-80372408D01*
X67508659Y-80137000D01*
X67488063Y-79901592D01*
X67426903Y-79673337D01*
X67327035Y-79459171D01*
X67191495Y-79265599D01*
X67191494Y-79265597D01*
X67024402Y-79098506D01*
X67024396Y-79098501D01*
X66838842Y-78968575D01*
X66795217Y-78913998D01*
X66788023Y-78844500D01*
X66819546Y-78782145D01*
X66838842Y-78765425D01*
X66861026Y-78749891D01*
X67024401Y-78635495D01*
X67191495Y-78468401D01*
X67327035Y-78274830D01*
X67426903Y-78060663D01*
X67488063Y-77832408D01*
X67508659Y-77597000D01*
X67488063Y-77361592D01*
X67426903Y-77133337D01*
X67327035Y-76919171D01*
X67191495Y-76725599D01*
X67191494Y-76725597D01*
X67024402Y-76558506D01*
X67024396Y-76558501D01*
X66838842Y-76428575D01*
X66795217Y-76373998D01*
X66788023Y-76304500D01*
X66819546Y-76242145D01*
X66838842Y-76225425D01*
X66861026Y-76209891D01*
X67024401Y-76095495D01*
X67191495Y-75928401D01*
X67327035Y-75734830D01*
X67426903Y-75520663D01*
X67488063Y-75292408D01*
X67508659Y-75057000D01*
X67488063Y-74821592D01*
X67426903Y-74593337D01*
X67327035Y-74379171D01*
X67248725Y-74267331D01*
X67191494Y-74185597D01*
X67024402Y-74018506D01*
X67024396Y-74018501D01*
X66838842Y-73888575D01*
X66795217Y-73833998D01*
X66788023Y-73764500D01*
X66819546Y-73702145D01*
X66838842Y-73685425D01*
X66975771Y-73589546D01*
X67024401Y-73555495D01*
X67191495Y-73388401D01*
X67327035Y-73194830D01*
X67426903Y-72980663D01*
X67488063Y-72752408D01*
X67508659Y-72517000D01*
X67488063Y-72281592D01*
X67426903Y-72053337D01*
X67327035Y-71839171D01*
X67287474Y-71782671D01*
X67191494Y-71645597D01*
X67024402Y-71478506D01*
X67024396Y-71478501D01*
X66838842Y-71348575D01*
X66795217Y-71293998D01*
X66788023Y-71224500D01*
X66819546Y-71162145D01*
X66838842Y-71145425D01*
X66861026Y-71129891D01*
X67024401Y-71015495D01*
X67191495Y-70848401D01*
X67327035Y-70654830D01*
X67426903Y-70440663D01*
X67488063Y-70212408D01*
X67508659Y-69977000D01*
X67488063Y-69741592D01*
X67426903Y-69513337D01*
X67327035Y-69299171D01*
X67191495Y-69105599D01*
X67191494Y-69105597D01*
X67024402Y-68938506D01*
X67024396Y-68938501D01*
X66838842Y-68808575D01*
X66795217Y-68753998D01*
X66788023Y-68684500D01*
X66819546Y-68622145D01*
X66838842Y-68605425D01*
X66861026Y-68589891D01*
X67024401Y-68475495D01*
X67191495Y-68308401D01*
X67327035Y-68114830D01*
X67426903Y-67900663D01*
X67488063Y-67672408D01*
X67508659Y-67437000D01*
X67488063Y-67201592D01*
X67426903Y-66973337D01*
X67327035Y-66759171D01*
X67191495Y-66565599D01*
X67191494Y-66565597D01*
X67024402Y-66398506D01*
X67024395Y-66398501D01*
X66830834Y-66262967D01*
X66830830Y-66262965D01*
X66830828Y-66262964D01*
X66616663Y-66163097D01*
X66616659Y-66163096D01*
X66616655Y-66163094D01*
X66388413Y-66101938D01*
X66388403Y-66101936D01*
X66153001Y-66081341D01*
X66152999Y-66081341D01*
X65917596Y-66101936D01*
X65917586Y-66101938D01*
X65689344Y-66163094D01*
X65689335Y-66163098D01*
X65475171Y-66262964D01*
X65475169Y-66262965D01*
X65281597Y-66398505D01*
X65114505Y-66565597D01*
X64978965Y-66759169D01*
X64978964Y-66759171D01*
X64879098Y-66973335D01*
X64879094Y-66973344D01*
X64817938Y-67201586D01*
X64817936Y-67201596D01*
X64797341Y-67436999D01*
X64797341Y-67437000D01*
X64817936Y-67672403D01*
X64817938Y-67672413D01*
X64879094Y-67900655D01*
X64879096Y-67900659D01*
X64879097Y-67900663D01*
X64978964Y-68114830D01*
X64978965Y-68114830D01*
X64978967Y-68114834D01*
X65114501Y-68308395D01*
X65114506Y-68308402D01*
X65281597Y-68475493D01*
X65281603Y-68475498D01*
X65467158Y-68605425D01*
X65510783Y-68660002D01*
X65517977Y-68729500D01*
X65486454Y-68791855D01*
X65467158Y-68808575D01*
X65281597Y-68938505D01*
X65114505Y-69105597D01*
X64978965Y-69299169D01*
X64978964Y-69299171D01*
X64879098Y-69513335D01*
X64879094Y-69513344D01*
X64817938Y-69741586D01*
X64817936Y-69741596D01*
X64797341Y-69976999D01*
X64797341Y-69977000D01*
X64817936Y-70212403D01*
X64817938Y-70212413D01*
X64879094Y-70440655D01*
X64879096Y-70440659D01*
X64879097Y-70440663D01*
X64978964Y-70654830D01*
X64978965Y-70654830D01*
X64978967Y-70654834D01*
X65114501Y-70848395D01*
X65114506Y-70848402D01*
X65281597Y-71015493D01*
X65281603Y-71015498D01*
X65467158Y-71145425D01*
X65510783Y-71200002D01*
X65517977Y-71269500D01*
X65486454Y-71331855D01*
X65467158Y-71348575D01*
X65281597Y-71478505D01*
X65114505Y-71645597D01*
X64978965Y-71839169D01*
X64978964Y-71839171D01*
X64879098Y-72053335D01*
X64879094Y-72053344D01*
X64817938Y-72281586D01*
X64817936Y-72281596D01*
X64797341Y-72516999D01*
X64797341Y-72517000D01*
X64817936Y-72752403D01*
X64817938Y-72752413D01*
X64879094Y-72980655D01*
X64879096Y-72980659D01*
X64879097Y-72980663D01*
X64899769Y-73024994D01*
X64978965Y-73194830D01*
X64978967Y-73194834D01*
X65114501Y-73388395D01*
X65114506Y-73388402D01*
X65281597Y-73555493D01*
X65281603Y-73555498D01*
X65467158Y-73685425D01*
X65510783Y-73740002D01*
X65517977Y-73809500D01*
X65486454Y-73871855D01*
X65467158Y-73888575D01*
X65281597Y-74018505D01*
X65114505Y-74185597D01*
X64978965Y-74379169D01*
X64978964Y-74379171D01*
X64879098Y-74593335D01*
X64879094Y-74593344D01*
X64817938Y-74821586D01*
X64817936Y-74821596D01*
X64797341Y-75056999D01*
X64797341Y-75057000D01*
X64817936Y-75292403D01*
X64817938Y-75292413D01*
X64879094Y-75520655D01*
X64879096Y-75520659D01*
X64879097Y-75520663D01*
X64951161Y-75675205D01*
X64978965Y-75734830D01*
X64978967Y-75734834D01*
X65047769Y-75833092D01*
X65107784Y-75918803D01*
X65114501Y-75928395D01*
X65114506Y-75928402D01*
X65281597Y-76095493D01*
X65281603Y-76095498D01*
X65467158Y-76225425D01*
X65510783Y-76280002D01*
X65517977Y-76349500D01*
X65486454Y-76411855D01*
X65467158Y-76428575D01*
X65281597Y-76558505D01*
X65114505Y-76725597D01*
X64978965Y-76919169D01*
X64978964Y-76919171D01*
X64879098Y-77133335D01*
X64879094Y-77133344D01*
X64817938Y-77361586D01*
X64817936Y-77361596D01*
X64797341Y-77596999D01*
X64797341Y-77597000D01*
X64817936Y-77832403D01*
X64817938Y-77832413D01*
X64879094Y-78060655D01*
X64879096Y-78060659D01*
X64879097Y-78060663D01*
X64978964Y-78274830D01*
X64978965Y-78274830D01*
X64978967Y-78274834D01*
X65114501Y-78468395D01*
X65114506Y-78468402D01*
X65281597Y-78635493D01*
X65281603Y-78635498D01*
X65467158Y-78765425D01*
X65510783Y-78820002D01*
X65517977Y-78889500D01*
X65486454Y-78951855D01*
X65467158Y-78968575D01*
X65281597Y-79098505D01*
X65114505Y-79265597D01*
X64978965Y-79459169D01*
X64978964Y-79459171D01*
X64879098Y-79673335D01*
X64879094Y-79673344D01*
X64817938Y-79901586D01*
X64817936Y-79901596D01*
X64797341Y-80136999D01*
X64797341Y-80137000D01*
X64817936Y-80372403D01*
X64817938Y-80372413D01*
X64879094Y-80600655D01*
X64879096Y-80600659D01*
X64879097Y-80600663D01*
X64907805Y-80662227D01*
X64978965Y-80814830D01*
X64978967Y-80814834D01*
X65114501Y-81008395D01*
X65114506Y-81008402D01*
X65281597Y-81175493D01*
X65281603Y-81175498D01*
X65467158Y-81305425D01*
X65510783Y-81360002D01*
X65517977Y-81429500D01*
X65486454Y-81491855D01*
X65467158Y-81508575D01*
X65281597Y-81638505D01*
X65114505Y-81805597D01*
X64978965Y-81999169D01*
X64978964Y-81999171D01*
X64879098Y-82213335D01*
X64879094Y-82213344D01*
X64817938Y-82441586D01*
X64817936Y-82441596D01*
X64797341Y-82676999D01*
X64797341Y-82677000D01*
X64817936Y-82912403D01*
X64817938Y-82912413D01*
X64844856Y-83012872D01*
X64843193Y-83082722D01*
X64812762Y-83132646D01*
X63067181Y-84878228D01*
X63005858Y-84911713D01*
X62936166Y-84906729D01*
X62880233Y-84864857D01*
X62855816Y-84799393D01*
X62855500Y-84790547D01*
X62855500Y-55962737D01*
X62857224Y-55947123D01*
X62856938Y-55947096D01*
X62857672Y-55939333D01*
X62855500Y-55870203D01*
X62855500Y-55840651D01*
X62855500Y-55840650D01*
X62854629Y-55833759D01*
X62854172Y-55827945D01*
X62852709Y-55781373D01*
X62847121Y-55762139D01*
X62843174Y-55743081D01*
X62840664Y-55723208D01*
X62823507Y-55679875D01*
X62821614Y-55674346D01*
X62808618Y-55629614D01*
X62808617Y-55629610D01*
X62798420Y-55612368D01*
X62789863Y-55594902D01*
X62782486Y-55576268D01*
X62755083Y-55538550D01*
X62751900Y-55533705D01*
X62728170Y-55493579D01*
X62728165Y-55493573D01*
X62714005Y-55479413D01*
X62701370Y-55464620D01*
X62689593Y-55448412D01*
X62653693Y-55418713D01*
X62649381Y-55414790D01*
X55102392Y-47867801D01*
X55087521Y-47849827D01*
X55082924Y-47843062D01*
X55039857Y-47805093D01*
X55037033Y-47802442D01*
X55024471Y-47789880D01*
X55016523Y-47783715D01*
X55010455Y-47779008D01*
X55007453Y-47776525D01*
X54976799Y-47749500D01*
X54964378Y-47738549D01*
X54964376Y-47738548D01*
X54964375Y-47738547D01*
X54964374Y-47738546D01*
X54957094Y-47734837D01*
X54937387Y-47722331D01*
X54930936Y-47717327D01*
X54930937Y-47717327D01*
X54886838Y-47698244D01*
X54878239Y-47694522D01*
X54874722Y-47692867D01*
X54823567Y-47666802D01*
X54823561Y-47666800D01*
X54815587Y-47665018D01*
X54793396Y-47657807D01*
X54785896Y-47654562D01*
X54785894Y-47654561D01*
X54785893Y-47654561D01*
X54729196Y-47645582D01*
X54725370Y-47644852D01*
X54669331Y-47632326D01*
X54661158Y-47632583D01*
X54637877Y-47631118D01*
X54629806Y-47629840D01*
X54629802Y-47629840D01*
X54572655Y-47635241D01*
X54568768Y-47635486D01*
X54511372Y-47637289D01*
X54511371Y-47637290D01*
X54503508Y-47639574D01*
X54480596Y-47643944D01*
X54472472Y-47644712D01*
X54472468Y-47644712D01*
X54472467Y-47644713D01*
X54472464Y-47644713D01*
X54472460Y-47644715D01*
X54418461Y-47664154D01*
X54414761Y-47665357D01*
X54359613Y-47681381D01*
X54359605Y-47681384D01*
X54352568Y-47685546D01*
X54331468Y-47695474D01*
X54323773Y-47698244D01*
X54279902Y-47728059D01*
X54213390Y-47749459D01*
X54210205Y-47749500D01*
X42040227Y-47749500D01*
X41973188Y-47729815D01*
X41938652Y-47696623D01*
X41803494Y-47503597D01*
X41656295Y-47356398D01*
X41622810Y-47295075D01*
X41627794Y-47225383D01*
X41669666Y-47169450D01*
X41678880Y-47163178D01*
X41684334Y-47159814D01*
X41833656Y-47067712D01*
X41957712Y-46943656D01*
X42049814Y-46794334D01*
X42104999Y-46627797D01*
X42106623Y-46611898D01*
X42133018Y-46547207D01*
X42190198Y-46507055D01*
X42229981Y-46500500D01*
X56994548Y-46500500D01*
X57061587Y-46520185D01*
G37*
%TD.AperFunction*%
M02*
